<?xml version="1.0" encoding="utf-8" standalone="no"?>
<!DOCTYPE svg PUBLIC "-//W3C//DTD SVG 1.1//EN"
  "http://www.w3.org/Graphics/SVG/1.1/DTD/svg11.dtd">
<svg xmlns:xlink="http://www.w3.org/1999/xlink" width="169.855547pt" height="173.331328pt" viewBox="0 0 169.855547 173.331328" xmlns="http://www.w3.org/2000/svg" version="1.1">
 <metadata>
  <rdf:RDF xmlns:dc="http://purl.org/dc/elements/1.1/" xmlns:cc="http://creativecommons.org/ns#" xmlns:rdf="http://www.w3.org/1999/02/22-rdf-syntax-ns#">
   <cc:Work>
    <dc:type rdf:resource="http://purl.org/dc/dcmitype/StillImage"/>
    <dc:date>2025-11-19T19:33:07.190192</dc:date>
    <dc:format>image/svg+xml</dc:format>
    <dc:creator>
     <cc:Agent>
      <dc:title>Matplotlib v3.10.7, https://matplotlib.org/</dc:title>
     </cc:Agent>
    </dc:creator>
   </cc:Work>
  </rdf:RDF>
 </metadata>
 <defs>
  <style type="text/css">*{stroke-linejoin: round; stroke-linecap: butt}</style>
 </defs>
 <g id="figure_1">
  <g id="patch_1">
   <path d="M 0 173.331328 
L 169.855547 173.331328 
L 169.855547 0 
L 0 0 
z
" style="fill: #ffffff"/>
  </g>
  <g id="axes_1">
   <g id="patch_2">
    <path d="M 51.055547 118.08 
L 162.655547 118.08 
L 162.655547 7.2 
L 51.055547 7.2 
z
" style="fill: #ffffff"/>
   </g>
   <g id="matplotlib.axis_1">
    <g id="xtick_1">
     <g id="line2d_1">
      <defs>
       <path id="m0b37cce11d" d="M 0 0 
L 0 9 
" style="stroke: #262626; stroke-width: 1.875"/>
      </defs>
      <g>
       <use xlink:href="#m0b37cce11d" x="56.128274" y="118.08" style="fill: #262626; stroke: #262626; stroke-width: 1.875"/>
      </g>
     </g>
     <g id="text_1">
      <!-- 0 -->
      <g style="fill: #262626" transform="translate(51.540501 142.390391) scale(0.165 -0.165)">
       <defs>
        <path id="ArialMT-30" d="M 266 2259 
Q 266 3072 433 3567 
Q 600 4063 929 4331 
Q 1259 4600 1759 4600 
Q 2128 4600 2406 4451 
Q 2684 4303 2865 4023 
Q 3047 3744 3150 3342 
Q 3253 2941 3253 2259 
Q 3253 1453 3087 958 
Q 2922 463 2592 192 
Q 2263 -78 1759 -78 
Q 1097 -78 719 397 
Q 266 969 266 2259 
z
M 844 2259 
Q 844 1131 1108 757 
Q 1372 384 1759 384 
Q 2147 384 2411 759 
Q 2675 1134 2675 2259 
Q 2675 3391 2411 3762 
Q 2147 4134 1753 4134 
Q 1366 4134 1134 3806 
Q 844 3388 844 2259 
z
" transform="scale(0.015625)"/>
       </defs>
       <use xlink:href="#ArialMT-30"/>
      </g>
     </g>
    </g>
    <g id="xtick_2">
     <g id="line2d_2">
      <g>
       <use xlink:href="#m0b37cce11d" x="157.58282" y="118.08" style="fill: #262626; stroke: #262626; stroke-width: 1.875"/>
      </g>
     </g>
     <g id="text_2">
      <!-- 1 -->
      <g style="fill: #262626" transform="translate(152.995046 142.390391) scale(0.165 -0.165)">
       <defs>
        <path id="ArialMT-31" d="M 2384 0 
L 1822 0 
L 1822 3584 
Q 1619 3391 1289 3197 
Q 959 3003 697 2906 
L 697 3450 
Q 1169 3672 1522 3987 
Q 1875 4303 2022 4600 
L 2384 4600 
L 2384 0 
z
" transform="scale(0.015625)"/>
       </defs>
       <use xlink:href="#ArialMT-31"/>
      </g>
     </g>
    </g>
    <g id="text_3">
     <!-- $C$ -->
     <g style="fill: #262626" transform="translate(100.555547 162.553828) scale(0.18 -0.18)">
      <defs>
       <path id="DejaVuSans-Oblique-43" d="M 4447 4306 
L 4319 3641 
Q 4019 3944 3683 4091 
Q 3347 4238 2956 4238 
Q 2422 4238 2017 3981 
Q 1613 3725 1319 3200 
Q 1131 2863 1032 2486 
Q 934 2109 934 1728 
Q 934 1091 1264 756 
Q 1594 422 2222 422 
Q 2656 422 3056 561 
Q 3456 700 3834 978 
L 3688 231 
Q 3316 72 2936 -9 
Q 2556 -91 2175 -91 
Q 1278 -91 773 396 
Q 269 884 269 1753 
Q 269 2309 461 2846 
Q 653 3384 1013 3828 
Q 1394 4300 1883 4525 
Q 2372 4750 3022 4750 
Q 3422 4750 3780 4639 
Q 4138 4528 4447 4306 
z
" transform="scale(0.015625)"/>
      </defs>
      <use xlink:href="#DejaVuSans-Oblique-43" transform="translate(0 0.78125)"/>
     </g>
    </g>
   </g>
   <g id="matplotlib.axis_2">
    <g id="ytick_1">
     <g id="line2d_3">
      <defs>
       <path id="m139adb0315" d="M 0 0 
L -9 0 
" style="stroke: #262626; stroke-width: 1.875"/>
      </defs>
      <g>
       <use xlink:href="#m139adb0315" x="51.055547" y="118.08" style="fill: #262626; stroke: #262626; stroke-width: 1.875"/>
      </g>
     </g>
     <g id="text_4">
      <!-- 0 -->
      <g style="fill: #262626" transform="translate(29.38 123.985195) scale(0.165 -0.165)">
       <use xlink:href="#ArialMT-30"/>
      </g>
     </g>
    </g>
    <g id="ytick_2">
     <g id="line2d_4">
      <g>
       <use xlink:href="#m139adb0315" x="51.055547" y="75.84" style="fill: #262626; stroke: #262626; stroke-width: 1.875"/>
      </g>
     </g>
     <g id="text_5">
      <!-- 2 -->
      <g style="fill: #262626" transform="translate(29.38 81.745195) scale(0.165 -0.165)">
       <defs>
        <path id="ArialMT-32" d="M 3222 541 
L 3222 0 
L 194 0 
Q 188 203 259 391 
Q 375 700 629 1000 
Q 884 1300 1366 1694 
Q 2113 2306 2375 2664 
Q 2638 3022 2638 3341 
Q 2638 3675 2398 3904 
Q 2159 4134 1775 4134 
Q 1369 4134 1125 3890 
Q 881 3647 878 3216 
L 300 3275 
Q 359 3922 746 4261 
Q 1134 4600 1788 4600 
Q 2447 4600 2831 4234 
Q 3216 3869 3216 3328 
Q 3216 3053 3103 2787 
Q 2991 2522 2730 2228 
Q 2469 1934 1863 1422 
Q 1356 997 1212 845 
Q 1069 694 975 541 
L 3222 541 
z
" transform="scale(0.015625)"/>
       </defs>
       <use xlink:href="#ArialMT-32"/>
      </g>
     </g>
    </g>
    <g id="ytick_3">
     <g id="line2d_5">
      <g>
       <use xlink:href="#m139adb0315" x="51.055547" y="33.6" style="fill: #262626; stroke: #262626; stroke-width: 1.875"/>
      </g>
     </g>
     <g id="text_6">
      <!-- 4 -->
      <g style="fill: #262626" transform="translate(29.38 39.505195) scale(0.165 -0.165)">
       <defs>
        <path id="ArialMT-34" d="M 2069 0 
L 2069 1097 
L 81 1097 
L 81 1613 
L 2172 4581 
L 2631 4581 
L 2631 1613 
L 3250 1613 
L 3250 1097 
L 2631 1097 
L 2631 0 
L 2069 0 
z
M 2069 1613 
L 2069 3678 
L 634 1613 
L 2069 1613 
z
" transform="scale(0.015625)"/>
       </defs>
       <use xlink:href="#ArialMT-34"/>
      </g>
     </g>
    </g>
    <g id="text_7">
     <!-- $P(C|s)$ -->
     <g style="fill: #262626" transform="translate(21.06 89.1) rotate(-90) scale(0.18 -0.18)">
      <defs>
       <path id="DejaVuSans-Oblique-50" d="M 1081 4666 
L 2541 4666 
Q 3178 4666 3512 4369 
Q 3847 4072 3847 3500 
Q 3847 2731 3353 2303 
Q 2859 1875 1966 1875 
L 1172 1875 
L 806 0 
L 172 0 
L 1081 4666 
z
M 1613 4147 
L 1275 2394 
L 2069 2394 
Q 2606 2394 2893 2669 
Q 3181 2944 3181 3456 
Q 3181 3784 2986 3965 
Q 2791 4147 2438 4147 
L 1613 4147 
z
" transform="scale(0.015625)"/>
       <path id="DejaVuSans-28" d="M 1984 4856 
Q 1566 4138 1362 3434 
Q 1159 2731 1159 2009 
Q 1159 1288 1364 580 
Q 1569 -128 1984 -844 
L 1484 -844 
Q 1016 -109 783 600 
Q 550 1309 550 2009 
Q 550 2706 781 3412 
Q 1013 4119 1484 4856 
L 1984 4856 
z
" transform="scale(0.015625)"/>
       <path id="DejaVuSans-7c" d="M 1344 4891 
L 1344 -1509 
L 813 -1509 
L 813 4891 
L 1344 4891 
z
" transform="scale(0.015625)"/>
       <path id="DejaVuSans-Oblique-73" d="M 3200 3397 
L 3091 2853 
Q 2863 2978 2609 3040 
Q 2356 3103 2088 3103 
Q 1634 3103 1373 2948 
Q 1113 2794 1113 2528 
Q 1113 2219 1719 2053 
Q 1766 2041 1788 2034 
L 1972 1978 
Q 2547 1819 2739 1644 
Q 2931 1469 2931 1166 
Q 2931 609 2489 259 
Q 2047 -91 1331 -91 
Q 1053 -91 747 -37 
Q 441 16 72 128 
L 184 722 
Q 500 559 806 475 
Q 1113 391 1394 391 
Q 1816 391 2080 572 
Q 2344 753 2344 1031 
Q 2344 1331 1650 1516 
L 1591 1531 
L 1394 1581 
Q 956 1697 753 1886 
Q 550 2075 550 2369 
Q 550 2928 970 3256 
Q 1391 3584 2113 3584 
Q 2397 3584 2667 3537 
Q 2938 3491 3200 3397 
z
" transform="scale(0.015625)"/>
       <path id="DejaVuSans-29" d="M 513 4856 
L 1013 4856 
Q 1481 4119 1714 3412 
Q 1947 2706 1947 2009 
Q 1947 1309 1714 600 
Q 1481 -109 1013 -844 
L 513 -844 
Q 928 -128 1133 580 
Q 1338 1288 1338 2009 
Q 1338 2731 1133 3434 
Q 928 4138 513 4856 
z
" transform="scale(0.015625)"/>
      </defs>
      <use xlink:href="#DejaVuSans-Oblique-50" transform="translate(0 0.578125)"/>
      <use xlink:href="#DejaVuSans-28" transform="translate(60.302734 0.578125)"/>
      <use xlink:href="#DejaVuSans-Oblique-43" transform="translate(99.316406 0.578125)"/>
      <use xlink:href="#DejaVuSans-7c" transform="translate(169.140625 0.578125)"/>
      <use xlink:href="#DejaVuSans-Oblique-73" transform="translate(202.832031 0.578125)"/>
      <use xlink:href="#DejaVuSans-29" transform="translate(254.931641 0.578125)"/>
     </g>
    </g>
   </g>
   <g id="patch_3">
    <path d="M 56.128274 118.08 
L 58.157365 118.08 
L 58.157365 118.08 
L 56.128274 118.08 
z
" clip-path="url(#p9d17cc18dc)" style="fill: #5caadb"/>
   </g>
   <g id="patch_4">
    <path d="M 58.157365 118.08 
L 60.186456 118.08 
L 60.186456 118.08 
L 58.157365 118.08 
z
" clip-path="url(#p9d17cc18dc)" style="fill: #5caadb"/>
   </g>
   <g id="patch_5">
    <path d="M 60.186456 118.08 
L 62.215547 118.08 
L 62.215547 118.08 
L 60.186456 118.08 
z
" clip-path="url(#p9d17cc18dc)" style="fill: #5caadb"/>
   </g>
   <g id="patch_6">
    <path d="M 62.215547 118.08 
L 64.244638 118.08 
L 64.244638 118.08 
L 62.215547 118.08 
z
" clip-path="url(#p9d17cc18dc)" style="fill: #5caadb"/>
   </g>
   <g id="patch_7">
    <path d="M 64.244638 118.08 
L 66.273729 118.08 
L 66.273729 118.08 
L 64.244638 118.08 
z
" clip-path="url(#p9d17cc18dc)" style="fill: #5caadb"/>
   </g>
   <g id="patch_8">
    <path d="M 66.273729 118.08 
L 68.30282 118.08 
L 68.30282 118.08 
L 66.273729 118.08 
z
" clip-path="url(#p9d17cc18dc)" style="fill: #5caadb"/>
   </g>
   <g id="patch_9">
    <path d="M 68.30282 118.08 
L 70.331911 118.08 
L 70.331911 118.08 
L 68.30282 118.08 
z
" clip-path="url(#p9d17cc18dc)" style="fill: #5caadb"/>
   </g>
   <g id="patch_10">
    <path d="M 70.331911 118.08 
L 72.361001 118.08 
L 72.361001 118.08 
L 70.331911 118.08 
z
" clip-path="url(#p9d17cc18dc)" style="fill: #5caadb"/>
   </g>
   <g id="patch_11">
    <path d="M 72.361001 118.08 
L 74.390092 118.08 
L 74.390092 118.08 
L 72.361001 118.08 
z
" clip-path="url(#p9d17cc18dc)" style="fill: #5caadb"/>
   </g>
   <g id="patch_12">
    <path d="M 74.390092 118.08 
L 76.419183 118.08 
L 76.419183 118.08 
L 74.390092 118.08 
z
" clip-path="url(#p9d17cc18dc)" style="fill: #5caadb"/>
   </g>
   <g id="patch_13">
    <path d="M 76.419183 118.08 
L 78.448274 118.08 
L 78.448274 118.08 
L 76.419183 118.08 
z
" clip-path="url(#p9d17cc18dc)" style="fill: #5caadb"/>
   </g>
   <g id="patch_14">
    <path d="M 78.448274 118.08 
L 80.477365 118.08 
L 80.477365 118.08 
L 78.448274 118.08 
z
" clip-path="url(#p9d17cc18dc)" style="fill: #5caadb"/>
   </g>
   <g id="patch_15">
    <path d="M 80.477365 118.08 
L 82.506456 118.08 
L 82.506456 118.08 
L 80.477365 118.08 
z
" clip-path="url(#p9d17cc18dc)" style="fill: #5caadb"/>
   </g>
   <g id="patch_16">
    <path d="M 82.506456 118.08 
L 84.535547 118.08 
L 84.535547 118.08 
L 82.506456 118.08 
z
" clip-path="url(#p9d17cc18dc)" style="fill: #5caadb"/>
   </g>
   <g id="patch_17">
    <path d="M 84.535547 118.08 
L 86.564638 118.08 
L 86.564638 107.52 
L 84.535547 107.52 
z
" clip-path="url(#p9d17cc18dc)" style="fill: #5caadb"/>
   </g>
   <g id="patch_18">
    <path d="M 86.564638 118.08 
L 88.593729 118.08 
L 88.593729 118.08 
L 86.564638 118.08 
z
" clip-path="url(#p9d17cc18dc)" style="fill: #5caadb"/>
   </g>
   <g id="patch_19">
    <path d="M 88.593729 118.08 
L 90.62282 118.08 
L 90.62282 118.08 
L 88.593729 118.08 
z
" clip-path="url(#p9d17cc18dc)" style="fill: #5caadb"/>
   </g>
   <g id="patch_20">
    <path d="M 90.62282 118.08 
L 92.651911 118.08 
L 92.651911 118.08 
L 90.62282 118.08 
z
" clip-path="url(#p9d17cc18dc)" style="fill: #5caadb"/>
   </g>
   <g id="patch_21">
    <path d="M 92.651911 118.08 
L 94.681001 118.08 
L 94.681001 107.52 
L 92.651911 107.52 
z
" clip-path="url(#p9d17cc18dc)" style="fill: #5caadb"/>
   </g>
   <g id="patch_22">
    <path d="M 94.681001 118.08 
L 96.710092 118.08 
L 96.710092 118.08 
L 94.681001 118.08 
z
" clip-path="url(#p9d17cc18dc)" style="fill: #5caadb"/>
   </g>
   <g id="patch_23">
    <path d="M 96.710092 118.08 
L 98.739183 118.08 
L 98.739183 118.08 
L 96.710092 118.08 
z
" clip-path="url(#p9d17cc18dc)" style="fill: #5caadb"/>
   </g>
   <g id="patch_24">
    <path d="M 98.739183 118.08 
L 100.768274 118.08 
L 100.768274 118.08 
L 98.739183 118.08 
z
" clip-path="url(#p9d17cc18dc)" style="fill: #5caadb"/>
   </g>
   <g id="patch_25">
    <path d="M 100.768274 118.08 
L 102.797365 118.08 
L 102.797365 118.08 
L 100.768274 118.08 
z
" clip-path="url(#p9d17cc18dc)" style="fill: #5caadb"/>
   </g>
   <g id="patch_26">
    <path d="M 102.797365 118.08 
L 104.826456 118.08 
L 104.826456 86.4 
L 102.797365 86.4 
z
" clip-path="url(#p9d17cc18dc)" style="fill: #5caadb"/>
   </g>
   <g id="patch_27">
    <path d="M 104.826456 118.08 
L 106.855547 118.08 
L 106.855547 86.4 
L 104.826456 86.4 
z
" clip-path="url(#p9d17cc18dc)" style="fill: #5caadb"/>
   </g>
   <g id="patch_28">
    <path d="M 106.855547 118.08 
L 108.884638 118.08 
L 108.884638 86.4 
L 106.855547 86.4 
z
" clip-path="url(#p9d17cc18dc)" style="fill: #5caadb"/>
   </g>
   <g id="patch_29">
    <path d="M 108.884638 118.08 
L 110.913729 118.08 
L 110.913729 96.96 
L 108.884638 96.96 
z
" clip-path="url(#p9d17cc18dc)" style="fill: #5caadb"/>
   </g>
   <g id="patch_30">
    <path d="M 110.913729 118.08 
L 112.94282 118.08 
L 112.94282 86.4 
L 110.913729 86.4 
z
" clip-path="url(#p9d17cc18dc)" style="fill: #5caadb"/>
   </g>
   <g id="patch_31">
    <path d="M 112.94282 118.08 
L 114.971911 118.08 
L 114.971911 96.96 
L 112.94282 96.96 
z
" clip-path="url(#p9d17cc18dc)" style="fill: #5caadb"/>
   </g>
   <g id="patch_32">
    <path d="M 114.971911 118.08 
L 117.001001 118.08 
L 117.001001 65.28 
L 114.971911 65.28 
z
" clip-path="url(#p9d17cc18dc)" style="fill: #5caadb"/>
   </g>
   <g id="patch_33">
    <path d="M 117.001001 118.08 
L 119.030092 118.08 
L 119.030092 65.28 
L 117.001001 65.28 
z
" clip-path="url(#p9d17cc18dc)" style="fill: #5caadb"/>
   </g>
   <g id="patch_34">
    <path d="M 119.030092 118.08 
L 121.059183 118.08 
L 121.059183 12.48 
L 119.030092 12.48 
z
" clip-path="url(#p9d17cc18dc)" style="fill: #5caadb"/>
   </g>
   <g id="patch_35">
    <path d="M 121.059183 118.08 
L 123.088274 118.08 
L 123.088274 44.16 
L 121.059183 44.16 
z
" clip-path="url(#p9d17cc18dc)" style="fill: #5caadb"/>
   </g>
   <g id="patch_36">
    <path d="M 123.088274 118.08 
L 125.117365 118.08 
L 125.117365 44.16 
L 123.088274 44.16 
z
" clip-path="url(#p9d17cc18dc)" style="fill: #5caadb"/>
   </g>
   <g id="patch_37">
    <path d="M 125.117365 118.08 
L 127.146456 118.08 
L 127.146456 54.72 
L 125.117365 54.72 
z
" clip-path="url(#p9d17cc18dc)" style="fill: #5caadb"/>
   </g>
   <g id="patch_38">
    <path d="M 127.146456 118.08 
L 129.175547 118.08 
L 129.175547 65.28 
L 127.146456 65.28 
z
" clip-path="url(#p9d17cc18dc)" style="fill: #5caadb"/>
   </g>
   <g id="patch_39">
    <path d="M 129.175547 118.08 
L 131.204638 118.08 
L 131.204638 33.6 
L 129.175547 33.6 
z
" clip-path="url(#p9d17cc18dc)" style="fill: #5caadb"/>
   </g>
   <g id="patch_40">
    <path d="M 131.204638 118.08 
L 133.233729 118.08 
L 133.233729 44.16 
L 131.204638 44.16 
z
" clip-path="url(#p9d17cc18dc)" style="fill: #5caadb"/>
   </g>
   <g id="patch_41">
    <path d="M 133.233729 118.08 
L 135.26282 118.08 
L 135.26282 65.28 
L 133.233729 65.28 
z
" clip-path="url(#p9d17cc18dc)" style="fill: #5caadb"/>
   </g>
   <g id="patch_42">
    <path d="M 135.26282 118.08 
L 137.291911 118.08 
L 137.291911 54.72 
L 135.26282 54.72 
z
" clip-path="url(#p9d17cc18dc)" style="fill: #5caadb"/>
   </g>
   <g id="patch_43">
    <path d="M 137.291911 118.08 
L 139.321001 118.08 
L 139.321001 75.84 
L 137.291911 75.84 
z
" clip-path="url(#p9d17cc18dc)" style="fill: #5caadb"/>
   </g>
   <g id="patch_44">
    <path d="M 139.321001 118.08 
L 141.350092 118.08 
L 141.350092 96.96 
L 139.321001 96.96 
z
" clip-path="url(#p9d17cc18dc)" style="fill: #5caadb"/>
   </g>
   <g id="patch_45">
    <path d="M 141.350092 118.08 
L 143.379183 118.08 
L 143.379183 75.84 
L 141.350092 75.84 
z
" clip-path="url(#p9d17cc18dc)" style="fill: #5caadb"/>
   </g>
   <g id="patch_46">
    <path d="M 143.379183 118.08 
L 145.408274 118.08 
L 145.408274 107.52 
L 143.379183 107.52 
z
" clip-path="url(#p9d17cc18dc)" style="fill: #5caadb"/>
   </g>
   <g id="patch_47">
    <path d="M 145.408274 118.08 
L 147.437365 118.08 
L 147.437365 118.08 
L 145.408274 118.08 
z
" clip-path="url(#p9d17cc18dc)" style="fill: #5caadb"/>
   </g>
   <g id="patch_48">
    <path d="M 147.437365 118.08 
L 149.466456 118.08 
L 149.466456 118.08 
L 147.437365 118.08 
z
" clip-path="url(#p9d17cc18dc)" style="fill: #5caadb"/>
   </g>
   <g id="patch_49">
    <path d="M 149.466456 118.08 
L 151.495547 118.08 
L 151.495547 118.08 
L 149.466456 118.08 
z
" clip-path="url(#p9d17cc18dc)" style="fill: #5caadb"/>
   </g>
   <g id="patch_50">
    <path d="M 151.495547 118.08 
L 153.524638 118.08 
L 153.524638 118.08 
L 151.495547 118.08 
z
" clip-path="url(#p9d17cc18dc)" style="fill: #5caadb"/>
   </g>
   <g id="patch_51">
    <path d="M 153.524638 118.08 
L 155.553729 118.08 
L 155.553729 118.08 
L 153.524638 118.08 
z
" clip-path="url(#p9d17cc18dc)" style="fill: #5caadb"/>
   </g>
   <g id="patch_52">
    <path d="M 155.553729 118.08 
L 157.58282 118.08 
L 157.58282 118.08 
L 155.553729 118.08 
z
" clip-path="url(#p9d17cc18dc)" style="fill: #5caadb"/>
   </g>
   <g id="patch_53">
    <path d="M 51.055547 118.08 
L 51.055547 7.2 
" style="fill: none; stroke: #262626; stroke-width: 1.875; stroke-linejoin: miter; stroke-linecap: square"/>
   </g>
   <g id="patch_54">
    <path d="M 162.655547 118.08 
L 162.655547 7.2 
" style="fill: none; stroke: #262626; stroke-width: 1.875; stroke-linejoin: miter; stroke-linecap: square"/>
   </g>
   <g id="patch_55">
    <path d="M 51.055547 118.08 
L 162.655547 118.08 
" style="fill: none; stroke: #262626; stroke-width: 1.875; stroke-linejoin: miter; stroke-linecap: square"/>
   </g>
   <g id="patch_56">
    <path d="M 51.055547 7.2 
L 162.655547 7.2 
" style="fill: none; stroke: #262626; stroke-width: 1.875; stroke-linejoin: miter; stroke-linecap: square"/>
   </g>
  </g>
 </g>
 <defs>
  <clipPath id="p9d17cc18dc">
   <rect x="51.055547" y="7.2" width="111.6" height="110.88"/>
  </clipPath>
 </defs>
</svg>
