<?xml version="1.0" encoding="utf-8" standalone="no"?>
<!DOCTYPE svg PUBLIC "-//W3C//DTD SVG 1.1//EN"
  "http://www.w3.org/Graphics/SVG/1.1/DTD/svg11.dtd">
<!-- Created with matplotlib (https://matplotlib.org/) -->
<svg height="171.171328pt" version="1.1" viewBox="0 0 169.855547 171.171328" width="169.855547pt" xmlns="http://www.w3.org/2000/svg" xmlns:xlink="http://www.w3.org/1999/xlink">
 <metadata>
  <rdf:RDF xmlns:cc="http://creativecommons.org/ns#" xmlns:dc="http://purl.org/dc/elements/1.1/" xmlns:rdf="http://www.w3.org/1999/02/22-rdf-syntax-ns#">
   <cc:Work>
    <dc:type rdf:resource="http://purl.org/dc/dcmitype/StillImage"/>
    <dc:date>2025-06-03T15:45:56.148337</dc:date>
    <dc:format>image/svg+xml</dc:format>
    <dc:creator>
     <cc:Agent>
      <dc:title>Matplotlib v3.3.4, https://matplotlib.org/</dc:title>
     </cc:Agent>
    </dc:creator>
   </cc:Work>
  </rdf:RDF>
 </metadata>
 <defs>
  <style type="text/css">*{stroke-linecap:butt;stroke-linejoin:round;}</style>
 </defs>
 <g id="figure_1">
  <g id="patch_1">
   <path d="M 0 171.171328 
L 169.855547 171.171328 
L 169.855547 0 
L 0 0 
z
" style="fill:#ffffff;"/>
  </g>
  <g id="axes_1">
   <g id="patch_2">
    <path d="M 51.055547 115.92 
L 162.655547 115.92 
L 162.655547 7.2 
L 51.055547 7.2 
z
" style="fill:#ffffff;"/>
   </g>
   <g id="matplotlib.axis_1">
    <g id="xtick_1">
     <g id="line2d_1">
      <defs>
       <path d="M 0 0 
L 0 9 
" id="ma59847cc33" style="stroke:#262626;stroke-width:1.875;"/>
      </defs>
      <g>
       <use style="fill:#262626;stroke:#262626;stroke-width:1.875;" x="56.128274" xlink:href="#ma59847cc33" y="115.92"/>
      </g>
     </g>
     <g id="text_1">
      <!-- 0 -->
      <g style="fill:#262626;" transform="translate(51.540501 140.230391)scale(0.165 -0.165)">
       <defs>
        <path d="M 4.15625 35.296875 
Q 4.15625 48 6.765625 55.734375 
Q 9.375 63.484375 14.515625 67.671875 
Q 19.671875 71.875 27.484375 71.875 
Q 33.25 71.875 37.59375 69.546875 
Q 41.9375 67.234375 44.765625 62.859375 
Q 47.609375 58.5 49.21875 52.21875 
Q 50.828125 45.953125 50.828125 35.296875 
Q 50.828125 22.703125 48.234375 14.96875 
Q 45.65625 7.234375 40.5 3 
Q 35.359375 -1.21875 27.484375 -1.21875 
Q 17.140625 -1.21875 11.234375 6.203125 
Q 4.15625 15.140625 4.15625 35.296875 
z
M 13.1875 35.296875 
Q 13.1875 17.671875 17.3125 11.828125 
Q 21.4375 6 27.484375 6 
Q 33.546875 6 37.671875 11.859375 
Q 41.796875 17.71875 41.796875 35.296875 
Q 41.796875 52.984375 37.671875 58.78125 
Q 33.546875 64.59375 27.390625 64.59375 
Q 21.34375 64.59375 17.71875 59.46875 
Q 13.1875 52.9375 13.1875 35.296875 
z
" id="ArialMT-48"/>
       </defs>
       <use xlink:href="#ArialMT-48"/>
      </g>
     </g>
    </g>
    <g id="xtick_2">
     <g id="line2d_2">
      <g>
       <use style="fill:#262626;stroke:#262626;stroke-width:1.875;" x="157.58282" xlink:href="#ma59847cc33" y="115.92"/>
      </g>
     </g>
     <g id="text_2">
      <!-- 1 -->
      <g style="fill:#262626;" transform="translate(152.995046 140.230391)scale(0.165 -0.165)">
       <defs>
        <path d="M 37.25 0 
L 28.46875 0 
L 28.46875 56 
Q 25.296875 52.984375 20.140625 49.953125 
Q 14.984375 46.921875 10.890625 45.40625 
L 10.890625 53.90625 
Q 18.265625 57.375 23.78125 62.296875 
Q 29.296875 67.234375 31.59375 71.875 
L 37.25 71.875 
z
" id="ArialMT-49"/>
       </defs>
       <use xlink:href="#ArialMT-49"/>
      </g>
     </g>
    </g>
    <g id="text_3">
     <!-- $C$ -->
     <g style="fill:#262626;" transform="translate(100.555547 160.393828)scale(0.18 -0.18)">
      <defs>
       <path d="M 69.484375 67.28125 
L 67.484375 56.890625 
Q 62.796875 61.625 57.546875 63.921875 
Q 52.296875 66.21875 46.1875 66.21875 
Q 37.84375 66.21875 31.515625 62.203125 
Q 25.203125 58.203125 20.609375 50 
Q 17.671875 44.734375 16.125 38.84375 
Q 14.59375 32.953125 14.59375 27 
Q 14.59375 17.046875 19.75 11.8125 
Q 24.90625 6.59375 34.71875 6.59375 
Q 41.5 6.59375 47.75 8.765625 
Q 54 10.9375 59.90625 15.28125 
L 57.625 3.609375 
Q 51.8125 1.125 45.875 -0.140625 
Q 39.9375 -1.421875 33.984375 -1.421875 
Q 19.96875 -1.421875 12.078125 6.1875 
Q 4.203125 13.8125 4.203125 27.390625 
Q 4.203125 36.078125 7.203125 44.46875 
Q 10.203125 52.875 15.828125 59.8125 
Q 21.78125 67.1875 29.421875 70.703125 
Q 37.0625 74.21875 47.21875 74.21875 
Q 53.46875 74.21875 59.0625 72.484375 
Q 64.65625 70.75 69.484375 67.28125 
z
" id="DejaVuSans-Oblique-67"/>
      </defs>
      <use transform="translate(0 0.78125)" xlink:href="#DejaVuSans-Oblique-67"/>
     </g>
    </g>
   </g>
   <g id="matplotlib.axis_2">
    <g id="ytick_1">
     <g id="line2d_3">
      <defs>
       <path d="M 0 0 
L -9 0 
" id="m1ecda6ffe7" style="stroke:#262626;stroke-width:1.875;"/>
      </defs>
      <g>
       <use style="fill:#262626;stroke:#262626;stroke-width:1.875;" x="51.055547" xlink:href="#m1ecda6ffe7" y="115.92"/>
      </g>
     </g>
     <g id="text_4">
      <!-- 0 -->
      <g style="fill:#262626;" transform="translate(29.38 121.825195)scale(0.165 -0.165)">
       <use xlink:href="#ArialMT-48"/>
      </g>
     </g>
    </g>
    <g id="ytick_2">
     <g id="line2d_4">
      <g>
       <use style="fill:#262626;stroke:#262626;stroke-width:1.875;" x="51.055547" xlink:href="#m1ecda6ffe7" y="74.502857"/>
      </g>
     </g>
     <g id="text_5">
      <!-- 2 -->
      <g style="fill:#262626;" transform="translate(29.38 80.408052)scale(0.165 -0.165)">
       <defs>
        <path d="M 50.34375 8.453125 
L 50.34375 0 
L 3.03125 0 
Q 2.9375 3.171875 4.046875 6.109375 
Q 5.859375 10.9375 9.828125 15.625 
Q 13.8125 20.3125 21.34375 26.46875 
Q 33.015625 36.03125 37.109375 41.625 
Q 41.21875 47.21875 41.21875 52.203125 
Q 41.21875 57.421875 37.46875 61 
Q 33.734375 64.59375 27.734375 64.59375 
Q 21.390625 64.59375 17.578125 60.78125 
Q 13.765625 56.984375 13.71875 50.25 
L 4.6875 51.171875 
Q 5.609375 61.28125 11.65625 66.578125 
Q 17.71875 71.875 27.9375 71.875 
Q 38.234375 71.875 44.234375 66.15625 
Q 50.25 60.453125 50.25 52 
Q 50.25 47.703125 48.484375 43.546875 
Q 46.734375 39.40625 42.65625 34.8125 
Q 38.578125 30.21875 29.109375 22.21875 
Q 21.1875 15.578125 18.9375 13.203125 
Q 16.703125 10.84375 15.234375 8.453125 
z
" id="ArialMT-50"/>
       </defs>
       <use xlink:href="#ArialMT-50"/>
      </g>
     </g>
    </g>
    <g id="ytick_3">
     <g id="line2d_5">
      <g>
       <use style="fill:#262626;stroke:#262626;stroke-width:1.875;" x="51.055547" xlink:href="#m1ecda6ffe7" y="33.085714"/>
      </g>
     </g>
     <g id="text_6">
      <!-- 4 -->
      <g style="fill:#262626;" transform="translate(29.38 38.99091)scale(0.165 -0.165)">
       <defs>
        <path d="M 32.328125 0 
L 32.328125 17.140625 
L 1.265625 17.140625 
L 1.265625 25.203125 
L 33.9375 71.578125 
L 41.109375 71.578125 
L 41.109375 25.203125 
L 50.78125 25.203125 
L 50.78125 17.140625 
L 41.109375 17.140625 
L 41.109375 0 
z
M 32.328125 25.203125 
L 32.328125 57.46875 
L 9.90625 25.203125 
z
" id="ArialMT-52"/>
       </defs>
       <use xlink:href="#ArialMT-52"/>
      </g>
     </g>
    </g>
    <g id="text_7">
     <!-- $P(C|s)$ -->
     <g style="fill:#262626;" transform="translate(21.06 88.02)rotate(-90)scale(0.18 -0.18)">
      <defs>
       <path d="M 16.890625 72.90625 
L 39.703125 72.90625 
Q 49.65625 72.90625 54.875 68.265625 
Q 60.109375 63.625 60.109375 54.6875 
Q 60.109375 42.671875 52.390625 35.984375 
Q 44.671875 29.296875 30.71875 29.296875 
L 18.3125 29.296875 
L 12.59375 0 
L 2.6875 0 
z
M 25.203125 64.796875 
L 19.921875 37.40625 
L 32.328125 37.40625 
Q 40.71875 37.40625 45.203125 41.703125 
Q 49.703125 46 49.703125 54 
Q 49.703125 59.125 46.65625 61.953125 
Q 43.609375 64.796875 38.09375 64.796875 
z
" id="DejaVuSans-Oblique-80"/>
       <path d="M 31 75.875 
Q 24.46875 64.65625 21.28125 53.65625 
Q 18.109375 42.671875 18.109375 31.390625 
Q 18.109375 20.125 21.3125 9.0625 
Q 24.515625 -2 31 -13.1875 
L 23.1875 -13.1875 
Q 15.875 -1.703125 12.234375 9.375 
Q 8.59375 20.453125 8.59375 31.390625 
Q 8.59375 42.28125 12.203125 53.3125 
Q 15.828125 64.359375 23.1875 75.875 
z
" id="DejaVuSans-40"/>
       <path d="M 21 76.421875 
L 21 -23.578125 
L 12.703125 -23.578125 
L 12.703125 76.421875 
z
" id="DejaVuSans-124"/>
       <path d="M 50 53.078125 
L 48.296875 44.578125 
Q 44.734375 46.53125 40.765625 47.5 
Q 36.8125 48.484375 32.625 48.484375 
Q 25.53125 48.484375 21.453125 46.0625 
Q 17.390625 43.65625 17.390625 39.5 
Q 17.390625 34.671875 26.859375 32.078125 
Q 27.59375 31.890625 27.9375 31.78125 
L 30.8125 30.90625 
Q 39.796875 28.421875 42.796875 25.6875 
Q 45.796875 22.953125 45.796875 18.21875 
Q 45.796875 9.515625 38.890625 4.046875 
Q 31.984375 -1.421875 20.796875 -1.421875 
Q 16.453125 -1.421875 11.671875 -0.578125 
Q 6.890625 0.25 1.125 2 
L 2.875 11.28125 
Q 7.8125 8.734375 12.59375 7.421875 
Q 17.390625 6.109375 21.78125 6.109375 
Q 28.375 6.109375 32.5 8.9375 
Q 36.625 11.765625 36.625 16.109375 
Q 36.625 20.796875 25.78125 23.6875 
L 24.859375 23.921875 
L 21.78125 24.703125 
Q 14.9375 26.515625 11.765625 29.46875 
Q 8.59375 32.421875 8.59375 37.015625 
Q 8.59375 45.75 15.15625 50.875 
Q 21.734375 56 33.015625 56 
Q 37.453125 56 41.671875 55.265625 
Q 45.90625 54.546875 50 53.078125 
z
" id="DejaVuSans-Oblique-115"/>
       <path d="M 8.015625 75.875 
L 15.828125 75.875 
Q 23.140625 64.359375 26.78125 53.3125 
Q 30.421875 42.28125 30.421875 31.390625 
Q 30.421875 20.453125 26.78125 9.375 
Q 23.140625 -1.703125 15.828125 -13.1875 
L 8.015625 -13.1875 
Q 14.5 -2 17.703125 9.0625 
Q 20.90625 20.125 20.90625 31.390625 
Q 20.90625 42.671875 17.703125 53.65625 
Q 14.5 64.65625 8.015625 75.875 
z
" id="DejaVuSans-41"/>
      </defs>
      <use transform="translate(0 0.578125)" xlink:href="#DejaVuSans-Oblique-80"/>
      <use transform="translate(60.302734 0.578125)" xlink:href="#DejaVuSans-40"/>
      <use transform="translate(99.316406 0.578125)" xlink:href="#DejaVuSans-Oblique-67"/>
      <use transform="translate(169.140625 0.578125)" xlink:href="#DejaVuSans-124"/>
      <use transform="translate(202.832031 0.578125)" xlink:href="#DejaVuSans-Oblique-115"/>
      <use transform="translate(254.931641 0.578125)" xlink:href="#DejaVuSans-41"/>
     </g>
    </g>
   </g>
   <g id="patch_3">
    <path clip-path="url(#p44927b24c9)" d="M 56.128274 115.92 
L 58.157365 115.92 
L 58.157365 115.92 
L 56.128274 115.92 
z
" style="fill:#5caadb;"/>
   </g>
   <g id="patch_4">
    <path clip-path="url(#p44927b24c9)" d="M 58.157365 115.92 
L 60.186456 115.92 
L 60.186456 115.92 
L 58.157365 115.92 
z
" style="fill:#5caadb;"/>
   </g>
   <g id="patch_5">
    <path clip-path="url(#p44927b24c9)" d="M 60.186456 115.92 
L 62.215547 115.92 
L 62.215547 115.92 
L 60.186456 115.92 
z
" style="fill:#5caadb;"/>
   </g>
   <g id="patch_6">
    <path clip-path="url(#p44927b24c9)" d="M 62.215547 115.92 
L 64.244638 115.92 
L 64.244638 115.92 
L 62.215547 115.92 
z
" style="fill:#5caadb;"/>
   </g>
   <g id="patch_7">
    <path clip-path="url(#p44927b24c9)" d="M 64.244638 115.92 
L 66.273729 115.92 
L 66.273729 115.92 
L 64.244638 115.92 
z
" style="fill:#5caadb;"/>
   </g>
   <g id="patch_8">
    <path clip-path="url(#p44927b24c9)" d="M 66.273729 115.92 
L 68.30282 115.92 
L 68.30282 115.92 
L 66.273729 115.92 
z
" style="fill:#5caadb;"/>
   </g>
   <g id="patch_9">
    <path clip-path="url(#p44927b24c9)" d="M 68.30282 115.92 
L 70.331911 115.92 
L 70.331911 115.92 
L 68.30282 115.92 
z
" style="fill:#5caadb;"/>
   </g>
   <g id="patch_10">
    <path clip-path="url(#p44927b24c9)" d="M 70.331911 115.92 
L 72.361001 115.92 
L 72.361001 115.92 
L 70.331911 115.92 
z
" style="fill:#5caadb;"/>
   </g>
   <g id="patch_11">
    <path clip-path="url(#p44927b24c9)" d="M 72.361001 115.92 
L 74.390092 115.92 
L 74.390092 115.92 
L 72.361001 115.92 
z
" style="fill:#5caadb;"/>
   </g>
   <g id="patch_12">
    <path clip-path="url(#p44927b24c9)" d="M 74.390092 115.92 
L 76.419183 115.92 
L 76.419183 115.92 
L 74.390092 115.92 
z
" style="fill:#5caadb;"/>
   </g>
   <g id="patch_13">
    <path clip-path="url(#p44927b24c9)" d="M 76.419183 115.92 
L 78.448274 115.92 
L 78.448274 115.92 
L 76.419183 115.92 
z
" style="fill:#5caadb;"/>
   </g>
   <g id="patch_14">
    <path clip-path="url(#p44927b24c9)" d="M 78.448274 115.92 
L 80.477365 115.92 
L 80.477365 115.92 
L 78.448274 115.92 
z
" style="fill:#5caadb;"/>
   </g>
   <g id="patch_15">
    <path clip-path="url(#p44927b24c9)" d="M 80.477365 115.92 
L 82.506456 115.92 
L 82.506456 115.92 
L 80.477365 115.92 
z
" style="fill:#5caadb;"/>
   </g>
   <g id="patch_16">
    <path clip-path="url(#p44927b24c9)" d="M 82.506456 115.92 
L 84.535547 115.92 
L 84.535547 115.92 
L 82.506456 115.92 
z
" style="fill:#5caadb;"/>
   </g>
   <g id="patch_17">
    <path clip-path="url(#p44927b24c9)" d="M 84.535547 115.92 
L 86.564638 115.92 
L 86.564638 105.565714 
L 84.535547 105.565714 
z
" style="fill:#5caadb;"/>
   </g>
   <g id="patch_18">
    <path clip-path="url(#p44927b24c9)" d="M 86.564638 115.92 
L 88.593729 115.92 
L 88.593729 115.92 
L 86.564638 115.92 
z
" style="fill:#5caadb;"/>
   </g>
   <g id="patch_19">
    <path clip-path="url(#p44927b24c9)" d="M 88.593729 115.92 
L 90.62282 115.92 
L 90.62282 115.92 
L 88.593729 115.92 
z
" style="fill:#5caadb;"/>
   </g>
   <g id="patch_20">
    <path clip-path="url(#p44927b24c9)" d="M 90.62282 115.92 
L 92.651911 115.92 
L 92.651911 115.92 
L 90.62282 115.92 
z
" style="fill:#5caadb;"/>
   </g>
   <g id="patch_21">
    <path clip-path="url(#p44927b24c9)" d="M 92.651911 115.92 
L 94.681001 115.92 
L 94.681001 105.565714 
L 92.651911 105.565714 
z
" style="fill:#5caadb;"/>
   </g>
   <g id="patch_22">
    <path clip-path="url(#p44927b24c9)" d="M 94.681001 115.92 
L 96.710092 115.92 
L 96.710092 115.92 
L 94.681001 115.92 
z
" style="fill:#5caadb;"/>
   </g>
   <g id="patch_23">
    <path clip-path="url(#p44927b24c9)" d="M 96.710092 115.92 
L 98.739183 115.92 
L 98.739183 115.92 
L 96.710092 115.92 
z
" style="fill:#5caadb;"/>
   </g>
   <g id="patch_24">
    <path clip-path="url(#p44927b24c9)" d="M 98.739183 115.92 
L 100.768274 115.92 
L 100.768274 115.92 
L 98.739183 115.92 
z
" style="fill:#5caadb;"/>
   </g>
   <g id="patch_25">
    <path clip-path="url(#p44927b24c9)" d="M 100.768274 115.92 
L 102.797365 115.92 
L 102.797365 115.92 
L 100.768274 115.92 
z
" style="fill:#5caadb;"/>
   </g>
   <g id="patch_26">
    <path clip-path="url(#p44927b24c9)" d="M 102.797365 115.92 
L 104.826456 115.92 
L 104.826456 84.857143 
L 102.797365 84.857143 
z
" style="fill:#5caadb;"/>
   </g>
   <g id="patch_27">
    <path clip-path="url(#p44927b24c9)" d="M 104.826456 115.92 
L 106.855547 115.92 
L 106.855547 84.857143 
L 104.826456 84.857143 
z
" style="fill:#5caadb;"/>
   </g>
   <g id="patch_28">
    <path clip-path="url(#p44927b24c9)" d="M 106.855547 115.92 
L 108.884638 115.92 
L 108.884638 84.857143 
L 106.855547 84.857143 
z
" style="fill:#5caadb;"/>
   </g>
   <g id="patch_29">
    <path clip-path="url(#p44927b24c9)" d="M 108.884638 115.92 
L 110.913729 115.92 
L 110.913729 95.211429 
L 108.884638 95.211429 
z
" style="fill:#5caadb;"/>
   </g>
   <g id="patch_30">
    <path clip-path="url(#p44927b24c9)" d="M 110.913729 115.92 
L 112.94282 115.92 
L 112.94282 84.857143 
L 110.913729 84.857143 
z
" style="fill:#5caadb;"/>
   </g>
   <g id="patch_31">
    <path clip-path="url(#p44927b24c9)" d="M 112.94282 115.92 
L 114.971911 115.92 
L 114.971911 95.211429 
L 112.94282 95.211429 
z
" style="fill:#5caadb;"/>
   </g>
   <g id="patch_32">
    <path clip-path="url(#p44927b24c9)" d="M 114.971911 115.92 
L 117.001001 115.92 
L 117.001001 64.148571 
L 114.971911 64.148571 
z
" style="fill:#5caadb;"/>
   </g>
   <g id="patch_33">
    <path clip-path="url(#p44927b24c9)" d="M 117.001001 115.92 
L 119.030092 115.92 
L 119.030092 64.148571 
L 117.001001 64.148571 
z
" style="fill:#5caadb;"/>
   </g>
   <g id="patch_34">
    <path clip-path="url(#p44927b24c9)" d="M 119.030092 115.92 
L 121.059183 115.92 
L 121.059183 12.377143 
L 119.030092 12.377143 
z
" style="fill:#5caadb;"/>
   </g>
   <g id="patch_35">
    <path clip-path="url(#p44927b24c9)" d="M 121.059183 115.92 
L 123.088274 115.92 
L 123.088274 43.44 
L 121.059183 43.44 
z
" style="fill:#5caadb;"/>
   </g>
   <g id="patch_36">
    <path clip-path="url(#p44927b24c9)" d="M 123.088274 115.92 
L 125.117365 115.92 
L 125.117365 43.44 
L 123.088274 43.44 
z
" style="fill:#5caadb;"/>
   </g>
   <g id="patch_37">
    <path clip-path="url(#p44927b24c9)" d="M 125.117365 115.92 
L 127.146456 115.92 
L 127.146456 53.794286 
L 125.117365 53.794286 
z
" style="fill:#5caadb;"/>
   </g>
   <g id="patch_38">
    <path clip-path="url(#p44927b24c9)" d="M 127.146456 115.92 
L 129.175547 115.92 
L 129.175547 64.148571 
L 127.146456 64.148571 
z
" style="fill:#5caadb;"/>
   </g>
   <g id="patch_39">
    <path clip-path="url(#p44927b24c9)" d="M 129.175547 115.92 
L 131.204638 115.92 
L 131.204638 33.085714 
L 129.175547 33.085714 
z
" style="fill:#5caadb;"/>
   </g>
   <g id="patch_40">
    <path clip-path="url(#p44927b24c9)" d="M 131.204638 115.92 
L 133.233729 115.92 
L 133.233729 43.44 
L 131.204638 43.44 
z
" style="fill:#5caadb;"/>
   </g>
   <g id="patch_41">
    <path clip-path="url(#p44927b24c9)" d="M 133.233729 115.92 
L 135.26282 115.92 
L 135.26282 64.148571 
L 133.233729 64.148571 
z
" style="fill:#5caadb;"/>
   </g>
   <g id="patch_42">
    <path clip-path="url(#p44927b24c9)" d="M 135.26282 115.92 
L 137.291911 115.92 
L 137.291911 53.794286 
L 135.26282 53.794286 
z
" style="fill:#5caadb;"/>
   </g>
   <g id="patch_43">
    <path clip-path="url(#p44927b24c9)" d="M 137.291911 115.92 
L 139.321001 115.92 
L 139.321001 74.502857 
L 137.291911 74.502857 
z
" style="fill:#5caadb;"/>
   </g>
   <g id="patch_44">
    <path clip-path="url(#p44927b24c9)" d="M 139.321001 115.92 
L 141.350092 115.92 
L 141.350092 95.211429 
L 139.321001 95.211429 
z
" style="fill:#5caadb;"/>
   </g>
   <g id="patch_45">
    <path clip-path="url(#p44927b24c9)" d="M 141.350092 115.92 
L 143.379183 115.92 
L 143.379183 74.502857 
L 141.350092 74.502857 
z
" style="fill:#5caadb;"/>
   </g>
   <g id="patch_46">
    <path clip-path="url(#p44927b24c9)" d="M 143.379183 115.92 
L 145.408274 115.92 
L 145.408274 105.565714 
L 143.379183 105.565714 
z
" style="fill:#5caadb;"/>
   </g>
   <g id="patch_47">
    <path clip-path="url(#p44927b24c9)" d="M 145.408274 115.92 
L 147.437365 115.92 
L 147.437365 115.92 
L 145.408274 115.92 
z
" style="fill:#5caadb;"/>
   </g>
   <g id="patch_48">
    <path clip-path="url(#p44927b24c9)" d="M 147.437365 115.92 
L 149.466456 115.92 
L 149.466456 115.92 
L 147.437365 115.92 
z
" style="fill:#5caadb;"/>
   </g>
   <g id="patch_49">
    <path clip-path="url(#p44927b24c9)" d="M 149.466456 115.92 
L 151.495547 115.92 
L 151.495547 115.92 
L 149.466456 115.92 
z
" style="fill:#5caadb;"/>
   </g>
   <g id="patch_50">
    <path clip-path="url(#p44927b24c9)" d="M 151.495547 115.92 
L 153.524638 115.92 
L 153.524638 115.92 
L 151.495547 115.92 
z
" style="fill:#5caadb;"/>
   </g>
   <g id="patch_51">
    <path clip-path="url(#p44927b24c9)" d="M 153.524638 115.92 
L 155.553729 115.92 
L 155.553729 115.92 
L 153.524638 115.92 
z
" style="fill:#5caadb;"/>
   </g>
   <g id="patch_52">
    <path clip-path="url(#p44927b24c9)" d="M 155.553729 115.92 
L 157.58282 115.92 
L 157.58282 115.92 
L 155.553729 115.92 
z
" style="fill:#5caadb;"/>
   </g>
   <g id="patch_53">
    <path d="M 51.055547 115.92 
L 51.055547 7.2 
" style="fill:none;stroke:#262626;stroke-linecap:square;stroke-linejoin:miter;stroke-width:1.875;"/>
   </g>
   <g id="patch_54">
    <path d="M 162.655547 115.92 
L 162.655547 7.2 
" style="fill:none;stroke:#262626;stroke-linecap:square;stroke-linejoin:miter;stroke-width:1.875;"/>
   </g>
   <g id="patch_55">
    <path d="M 51.055547 115.92 
L 162.655547 115.92 
" style="fill:none;stroke:#262626;stroke-linecap:square;stroke-linejoin:miter;stroke-width:1.875;"/>
   </g>
   <g id="patch_56">
    <path d="M 51.055547 7.2 
L 162.655547 7.2 
" style="fill:none;stroke:#262626;stroke-linecap:square;stroke-linejoin:miter;stroke-width:1.875;"/>
   </g>
  </g>
 </g>
 <defs>
  <clipPath id="p44927b24c9">
   <rect height="108.72" width="111.6" x="51.055547" y="7.2"/>
  </clipPath>
 </defs>
</svg>
