<?xml version="1.0" encoding="utf-8" standalone="no"?>
<!DOCTYPE svg PUBLIC "-//W3C//DTD SVG 1.1//EN"
  "http://www.w3.org/Graphics/SVG/1.1/DTD/svg11.dtd">
<svg xmlns:xlink="http://www.w3.org/1999/xlink" width="317.66pt" height="107.321562pt" viewBox="0 0 317.66 107.321562" xmlns="http://www.w3.org/2000/svg" version="1.1">
 <metadata>
  <rdf:RDF xmlns:dc="http://purl.org/dc/elements/1.1/" xmlns:cc="http://creativecommons.org/ns#" xmlns:rdf="http://www.w3.org/1999/02/22-rdf-syntax-ns#">
   <cc:Work>
    <dc:type rdf:resource="http://purl.org/dc/dcmitype/StillImage"/>
    <dc:date>2025-11-19T19:33:07.104883</dc:date>
    <dc:format>image/svg+xml</dc:format>
    <dc:creator>
     <cc:Agent>
      <dc:title>Matplotlib v3.10.7, https://matplotlib.org/</dc:title>
     </cc:Agent>
    </dc:creator>
   </cc:Work>
  </rdf:RDF>
 </metadata>
 <defs>
  <style type="text/css">*{stroke-linejoin: round; stroke-linecap: butt}</style>
 </defs>
 <g id="figure_1">
  <g id="patch_1">
   <path d="M 0 107.321562 
L 317.66 107.321562 
L 317.66 0 
L 0 0 
z
" style="fill: #ffffff"/>
  </g>
  <g id="axes_1">
   <g id="patch_2">
    <path d="M 29.38 79.66 
L 96.38 79.66 
L 96.38 7.2 
L 29.38 7.2 
z
" style="fill: #ffffff"/>
   </g>
   <g id="matplotlib.axis_1">
    <g id="text_1">
     <!-- $C$ -->
     <g style="fill: #262626" transform="translate(56.58 96.544062) scale(0.18 -0.18)">
      <defs>
       <path id="DejaVuSans-Oblique-43" d="M 4447 4306 
L 4319 3641 
Q 4019 3944 3683 4091 
Q 3347 4238 2956 4238 
Q 2422 4238 2017 3981 
Q 1613 3725 1319 3200 
Q 1131 2863 1032 2486 
Q 934 2109 934 1728 
Q 934 1091 1264 756 
Q 1594 422 2222 422 
Q 2656 422 3056 561 
Q 3456 700 3834 978 
L 3688 231 
Q 3316 72 2936 -9 
Q 2556 -91 2175 -91 
Q 1278 -91 773 396 
Q 269 884 269 1753 
Q 269 2309 461 2846 
Q 653 3384 1013 3828 
Q 1394 4300 1883 4525 
Q 2372 4750 3022 4750 
Q 3422 4750 3780 4639 
Q 4138 4528 4447 4306 
z
" transform="scale(0.015625)"/>
      </defs>
      <use xlink:href="#DejaVuSans-Oblique-43" transform="translate(0 0.78125)"/>
     </g>
    </g>
   </g>
   <g id="matplotlib.axis_2">
    <g id="text_2">
     <!-- $P(C|s)$ -->
     <g style="fill: #262626" transform="translate(21.06 69.89) rotate(-90) scale(0.18 -0.18)">
      <defs>
       <path id="DejaVuSans-Oblique-50" d="M 1081 4666 
L 2541 4666 
Q 3178 4666 3512 4369 
Q 3847 4072 3847 3500 
Q 3847 2731 3353 2303 
Q 2859 1875 1966 1875 
L 1172 1875 
L 806 0 
L 172 0 
L 1081 4666 
z
M 1613 4147 
L 1275 2394 
L 2069 2394 
Q 2606 2394 2893 2669 
Q 3181 2944 3181 3456 
Q 3181 3784 2986 3965 
Q 2791 4147 2438 4147 
L 1613 4147 
z
" transform="scale(0.015625)"/>
       <path id="DejaVuSans-28" d="M 1984 4856 
Q 1566 4138 1362 3434 
Q 1159 2731 1159 2009 
Q 1159 1288 1364 580 
Q 1569 -128 1984 -844 
L 1484 -844 
Q 1016 -109 783 600 
Q 550 1309 550 2009 
Q 550 2706 781 3412 
Q 1013 4119 1484 4856 
L 1984 4856 
z
" transform="scale(0.015625)"/>
       <path id="DejaVuSans-7c" d="M 1344 4891 
L 1344 -1509 
L 813 -1509 
L 813 4891 
L 1344 4891 
z
" transform="scale(0.015625)"/>
       <path id="DejaVuSans-Oblique-73" d="M 3200 3397 
L 3091 2853 
Q 2863 2978 2609 3040 
Q 2356 3103 2088 3103 
Q 1634 3103 1373 2948 
Q 1113 2794 1113 2528 
Q 1113 2219 1719 2053 
Q 1766 2041 1788 2034 
L 1972 1978 
Q 2547 1819 2739 1644 
Q 2931 1469 2931 1166 
Q 2931 609 2489 259 
Q 2047 -91 1331 -91 
Q 1053 -91 747 -37 
Q 441 16 72 128 
L 184 722 
Q 500 559 806 475 
Q 1113 391 1394 391 
Q 1816 391 2080 572 
Q 2344 753 2344 1031 
Q 2344 1331 1650 1516 
L 1591 1531 
L 1394 1581 
Q 956 1697 753 1886 
Q 550 2075 550 2369 
Q 550 2928 970 3256 
Q 1391 3584 2113 3584 
Q 2397 3584 2667 3537 
Q 2938 3491 3200 3397 
z
" transform="scale(0.015625)"/>
       <path id="DejaVuSans-29" d="M 513 4856 
L 1013 4856 
Q 1481 4119 1714 3412 
Q 1947 2706 1947 2009 
Q 1947 1309 1714 600 
Q 1481 -109 1013 -844 
L 513 -844 
Q 928 -128 1133 580 
Q 1338 1288 1338 2009 
Q 1338 2731 1133 3434 
Q 928 4138 513 4856 
z
" transform="scale(0.015625)"/>
      </defs>
      <use xlink:href="#DejaVuSans-Oblique-50" transform="translate(0 0.578125)"/>
      <use xlink:href="#DejaVuSans-28" transform="translate(60.302734 0.578125)"/>
      <use xlink:href="#DejaVuSans-Oblique-43" transform="translate(99.316406 0.578125)"/>
      <use xlink:href="#DejaVuSans-7c" transform="translate(169.140625 0.578125)"/>
      <use xlink:href="#DejaVuSans-Oblique-73" transform="translate(202.832031 0.578125)"/>
      <use xlink:href="#DejaVuSans-29" transform="translate(254.931641 0.578125)"/>
     </g>
    </g>
   </g>
   <g id="patch_3">
    <path d="M 29.38 79.66 
L 30.72 79.66 
L 30.72 79.66 
L 29.38 79.66 
z
" clip-path="url(#p9501a62c91)" style="fill: #88ae1d"/>
   </g>
   <g id="patch_4">
    <path d="M 30.72 79.66 
L 32.06 79.66 
L 32.06 79.66 
L 30.72 79.66 
z
" clip-path="url(#p9501a62c91)" style="fill: #88ae1d"/>
   </g>
   <g id="patch_5">
    <path d="M 32.06 79.66 
L 33.4 79.66 
L 33.4 79.66 
L 32.06 79.66 
z
" clip-path="url(#p9501a62c91)" style="fill: #88ae1d"/>
   </g>
   <g id="patch_6">
    <path d="M 33.4 79.66 
L 34.74 79.66 
L 34.74 79.66 
L 33.4 79.66 
z
" clip-path="url(#p9501a62c91)" style="fill: #88ae1d"/>
   </g>
   <g id="patch_7">
    <path d="M 34.74 79.66 
L 36.08 79.66 
L 36.08 79.66 
L 34.74 79.66 
z
" clip-path="url(#p9501a62c91)" style="fill: #88ae1d"/>
   </g>
   <g id="patch_8">
    <path d="M 36.08 79.66 
L 37.42 79.66 
L 37.42 79.66 
L 36.08 79.66 
z
" clip-path="url(#p9501a62c91)" style="fill: #88ae1d"/>
   </g>
   <g id="patch_9">
    <path d="M 37.42 79.66 
L 38.76 79.66 
L 38.76 79.66 
L 37.42 79.66 
z
" clip-path="url(#p9501a62c91)" style="fill: #88ae1d"/>
   </g>
   <g id="patch_10">
    <path d="M 38.76 79.66 
L 40.1 79.66 
L 40.1 79.66 
L 38.76 79.66 
z
" clip-path="url(#p9501a62c91)" style="fill: #88ae1d"/>
   </g>
   <g id="patch_11">
    <path d="M 40.1 79.66 
L 41.44 79.66 
L 41.44 79.66 
L 40.1 79.66 
z
" clip-path="url(#p9501a62c91)" style="fill: #88ae1d"/>
   </g>
   <g id="patch_12">
    <path d="M 41.44 79.66 
L 42.78 79.66 
L 42.78 79.66 
L 41.44 79.66 
z
" clip-path="url(#p9501a62c91)" style="fill: #88ae1d"/>
   </g>
   <g id="patch_13">
    <path d="M 42.78 79.66 
L 44.12 79.66 
L 44.12 79.66 
L 42.78 79.66 
z
" clip-path="url(#p9501a62c91)" style="fill: #88ae1d"/>
   </g>
   <g id="patch_14">
    <path d="M 44.12 79.66 
L 45.46 79.66 
L 45.46 79.66 
L 44.12 79.66 
z
" clip-path="url(#p9501a62c91)" style="fill: #88ae1d"/>
   </g>
   <g id="patch_15">
    <path d="M 45.46 79.66 
L 46.8 79.66 
L 46.8 79.66 
L 45.46 79.66 
z
" clip-path="url(#p9501a62c91)" style="fill: #88ae1d"/>
   </g>
   <g id="patch_16">
    <path d="M 46.8 79.66 
L 48.14 79.66 
L 48.14 75.134785 
L 46.8 75.134785 
z
" clip-path="url(#p9501a62c91)" style="fill: #88ae1d"/>
   </g>
   <g id="patch_17">
    <path d="M 48.14 79.66 
L 49.48 79.66 
L 49.48 10.650476 
L 48.14 10.650476 
z
" clip-path="url(#p9501a62c91)" style="fill: #88ae1d"/>
   </g>
   <g id="patch_18">
    <path d="M 49.48 79.66 
L 50.82 79.66 
L 50.82 40.064372 
L 49.48 40.064372 
z
" clip-path="url(#p9501a62c91)" style="fill: #88ae1d"/>
   </g>
   <g id="patch_19">
    <path d="M 50.82 79.66 
L 52.16 79.66 
L 52.16 79.66 
L 50.82 79.66 
z
" clip-path="url(#p9501a62c91)" style="fill: #88ae1d"/>
   </g>
   <g id="patch_20">
    <path d="M 52.16 79.66 
L 53.5 79.66 
L 53.5 79.66 
L 52.16 79.66 
z
" clip-path="url(#p9501a62c91)" style="fill: #88ae1d"/>
   </g>
   <g id="patch_21">
    <path d="M 53.5 79.66 
L 54.84 79.66 
L 54.84 79.66 
L 53.5 79.66 
z
" clip-path="url(#p9501a62c91)" style="fill: #88ae1d"/>
   </g>
   <g id="patch_22">
    <path d="M 54.84 79.66 
L 56.18 79.66 
L 56.18 79.66 
L 54.84 79.66 
z
" clip-path="url(#p9501a62c91)" style="fill: #88ae1d"/>
   </g>
   <g id="patch_23">
    <path d="M 56.18 79.66 
L 57.52 79.66 
L 57.52 79.66 
L 56.18 79.66 
z
" clip-path="url(#p9501a62c91)" style="fill: #88ae1d"/>
   </g>
   <g id="patch_24">
    <path d="M 57.52 79.66 
L 58.86 79.66 
L 58.86 79.66 
L 57.52 79.66 
z
" clip-path="url(#p9501a62c91)" style="fill: #88ae1d"/>
   </g>
   <g id="patch_25">
    <path d="M 58.86 79.66 
L 60.2 79.66 
L 60.2 79.66 
L 58.86 79.66 
z
" clip-path="url(#p9501a62c91)" style="fill: #88ae1d"/>
   </g>
   <g id="patch_26">
    <path d="M 60.2 79.66 
L 61.54 79.66 
L 61.54 79.66 
L 60.2 79.66 
z
" clip-path="url(#p9501a62c91)" style="fill: #88ae1d"/>
   </g>
   <g id="patch_27">
    <path d="M 61.54 79.66 
L 62.88 79.66 
L 62.88 79.66 
L 61.54 79.66 
z
" clip-path="url(#p9501a62c91)" style="fill: #88ae1d"/>
   </g>
   <g id="patch_28">
    <path d="M 62.88 79.66 
L 64.22 79.66 
L 64.22 79.66 
L 62.88 79.66 
z
" clip-path="url(#p9501a62c91)" style="fill: #88ae1d"/>
   </g>
   <g id="patch_29">
    <path d="M 64.22 79.66 
L 65.56 79.66 
L 65.56 79.66 
L 64.22 79.66 
z
" clip-path="url(#p9501a62c91)" style="fill: #88ae1d"/>
   </g>
   <g id="patch_30">
    <path d="M 65.56 79.66 
L 66.9 79.66 
L 66.9 79.66 
L 65.56 79.66 
z
" clip-path="url(#p9501a62c91)" style="fill: #88ae1d"/>
   </g>
   <g id="patch_31">
    <path d="M 66.9 79.66 
L 68.24 79.66 
L 68.24 79.66 
L 66.9 79.66 
z
" clip-path="url(#p9501a62c91)" style="fill: #88ae1d"/>
   </g>
   <g id="patch_32">
    <path d="M 68.24 79.66 
L 69.58 79.66 
L 69.58 79.66 
L 68.24 79.66 
z
" clip-path="url(#p9501a62c91)" style="fill: #88ae1d"/>
   </g>
   <g id="patch_33">
    <path d="M 69.58 79.66 
L 70.92 79.66 
L 70.92 79.66 
L 69.58 79.66 
z
" clip-path="url(#p9501a62c91)" style="fill: #88ae1d"/>
   </g>
   <g id="patch_34">
    <path d="M 70.92 79.66 
L 72.26 79.66 
L 72.26 79.66 
L 70.92 79.66 
z
" clip-path="url(#p9501a62c91)" style="fill: #88ae1d"/>
   </g>
   <g id="patch_35">
    <path d="M 72.26 79.66 
L 73.6 79.66 
L 73.6 79.66 
L 72.26 79.66 
z
" clip-path="url(#p9501a62c91)" style="fill: #88ae1d"/>
   </g>
   <g id="patch_36">
    <path d="M 73.6 79.66 
L 74.94 79.66 
L 74.94 79.66 
L 73.6 79.66 
z
" clip-path="url(#p9501a62c91)" style="fill: #88ae1d"/>
   </g>
   <g id="patch_37">
    <path d="M 74.94 79.66 
L 76.28 79.66 
L 76.28 79.66 
L 74.94 79.66 
z
" clip-path="url(#p9501a62c91)" style="fill: #88ae1d"/>
   </g>
   <g id="patch_38">
    <path d="M 76.28 79.66 
L 77.62 79.66 
L 77.62 79.66 
L 76.28 79.66 
z
" clip-path="url(#p9501a62c91)" style="fill: #88ae1d"/>
   </g>
   <g id="patch_39">
    <path d="M 77.62 79.66 
L 78.96 79.66 
L 78.96 79.66 
L 77.62 79.66 
z
" clip-path="url(#p9501a62c91)" style="fill: #88ae1d"/>
   </g>
   <g id="patch_40">
    <path d="M 78.96 79.66 
L 80.3 79.66 
L 80.3 79.66 
L 78.96 79.66 
z
" clip-path="url(#p9501a62c91)" style="fill: #88ae1d"/>
   </g>
   <g id="patch_41">
    <path d="M 80.3 79.66 
L 81.64 79.66 
L 81.64 79.66 
L 80.3 79.66 
z
" clip-path="url(#p9501a62c91)" style="fill: #88ae1d"/>
   </g>
   <g id="patch_42">
    <path d="M 81.64 79.66 
L 82.98 79.66 
L 82.98 79.66 
L 81.64 79.66 
z
" clip-path="url(#p9501a62c91)" style="fill: #88ae1d"/>
   </g>
   <g id="patch_43">
    <path d="M 82.98 79.66 
L 84.32 79.66 
L 84.32 79.66 
L 82.98 79.66 
z
" clip-path="url(#p9501a62c91)" style="fill: #88ae1d"/>
   </g>
   <g id="patch_44">
    <path d="M 84.32 79.66 
L 85.66 79.66 
L 85.66 79.66 
L 84.32 79.66 
z
" clip-path="url(#p9501a62c91)" style="fill: #88ae1d"/>
   </g>
   <g id="patch_45">
    <path d="M 85.66 79.66 
L 87 79.66 
L 87 79.66 
L 85.66 79.66 
z
" clip-path="url(#p9501a62c91)" style="fill: #88ae1d"/>
   </g>
   <g id="patch_46">
    <path d="M 87 79.66 
L 88.34 79.66 
L 88.34 79.66 
L 87 79.66 
z
" clip-path="url(#p9501a62c91)" style="fill: #88ae1d"/>
   </g>
   <g id="patch_47">
    <path d="M 88.34 79.66 
L 89.68 79.66 
L 89.68 79.66 
L 88.34 79.66 
z
" clip-path="url(#p9501a62c91)" style="fill: #88ae1d"/>
   </g>
   <g id="patch_48">
    <path d="M 89.68 79.66 
L 91.02 79.66 
L 91.02 79.66 
L 89.68 79.66 
z
" clip-path="url(#p9501a62c91)" style="fill: #88ae1d"/>
   </g>
   <g id="patch_49">
    <path d="M 91.02 79.66 
L 92.36 79.66 
L 92.36 79.66 
L 91.02 79.66 
z
" clip-path="url(#p9501a62c91)" style="fill: #88ae1d"/>
   </g>
   <g id="patch_50">
    <path d="M 92.36 79.66 
L 93.7 79.66 
L 93.7 79.66 
L 92.36 79.66 
z
" clip-path="url(#p9501a62c91)" style="fill: #88ae1d"/>
   </g>
   <g id="patch_51">
    <path d="M 93.7 79.66 
L 95.04 79.66 
L 95.04 79.66 
L 93.7 79.66 
z
" clip-path="url(#p9501a62c91)" style="fill: #88ae1d"/>
   </g>
   <g id="patch_52">
    <path d="M 95.04 79.66 
L 96.38 79.66 
L 96.38 79.66 
L 95.04 79.66 
z
" clip-path="url(#p9501a62c91)" style="fill: #88ae1d"/>
   </g>
   <g id="patch_53">
    <path d="M 29.38 79.66 
L 30.72 79.66 
L 30.72 10.650476 
L 29.38 10.650476 
z
" clip-path="url(#p9501a62c91)" style="fill: #cd3e78"/>
   </g>
   <g id="patch_54">
    <path d="M 30.72 79.66 
L 32.06 79.66 
L 32.06 59.296534 
L 30.72 59.296534 
z
" clip-path="url(#p9501a62c91)" style="fill: #cd3e78"/>
   </g>
   <g id="patch_55">
    <path d="M 32.06 79.66 
L 33.4 79.66 
L 33.4 64.953052 
L 32.06 64.953052 
z
" clip-path="url(#p9501a62c91)" style="fill: #cd3e78"/>
   </g>
   <g id="patch_56">
    <path d="M 33.4 79.66 
L 34.74 79.66 
L 34.74 72.872178 
L 33.4 72.872178 
z
" clip-path="url(#p9501a62c91)" style="fill: #cd3e78"/>
   </g>
   <g id="patch_57">
    <path d="M 34.74 79.66 
L 36.08 79.66 
L 36.08 78.528696 
L 34.74 78.528696 
z
" clip-path="url(#p9501a62c91)" style="fill: #cd3e78"/>
   </g>
   <g id="patch_58">
    <path d="M 36.08 79.66 
L 37.42 79.66 
L 37.42 78.528696 
L 36.08 78.528696 
z
" clip-path="url(#p9501a62c91)" style="fill: #cd3e78"/>
   </g>
   <g id="patch_59">
    <path d="M 37.42 79.66 
L 38.76 79.66 
L 38.76 79.66 
L 37.42 79.66 
z
" clip-path="url(#p9501a62c91)" style="fill: #cd3e78"/>
   </g>
   <g id="patch_60">
    <path d="M 38.76 79.66 
L 40.1 79.66 
L 40.1 79.66 
L 38.76 79.66 
z
" clip-path="url(#p9501a62c91)" style="fill: #cd3e78"/>
   </g>
   <g id="patch_61">
    <path d="M 40.1 79.66 
L 41.44 79.66 
L 41.44 79.66 
L 40.1 79.66 
z
" clip-path="url(#p9501a62c91)" style="fill: #cd3e78"/>
   </g>
   <g id="patch_62">
    <path d="M 41.44 79.66 
L 42.78 79.66 
L 42.78 79.66 
L 41.44 79.66 
z
" clip-path="url(#p9501a62c91)" style="fill: #cd3e78"/>
   </g>
   <g id="patch_63">
    <path d="M 42.78 79.66 
L 44.12 79.66 
L 44.12 79.66 
L 42.78 79.66 
z
" clip-path="url(#p9501a62c91)" style="fill: #cd3e78"/>
   </g>
   <g id="patch_64">
    <path d="M 44.12 79.66 
L 45.46 79.66 
L 45.46 79.66 
L 44.12 79.66 
z
" clip-path="url(#p9501a62c91)" style="fill: #cd3e78"/>
   </g>
   <g id="patch_65">
    <path d="M 45.46 79.66 
L 46.8 79.66 
L 46.8 79.66 
L 45.46 79.66 
z
" clip-path="url(#p9501a62c91)" style="fill: #cd3e78"/>
   </g>
   <g id="patch_66">
    <path d="M 46.8 79.66 
L 48.14 79.66 
L 48.14 79.66 
L 46.8 79.66 
z
" clip-path="url(#p9501a62c91)" style="fill: #cd3e78"/>
   </g>
   <g id="patch_67">
    <path d="M 48.14 79.66 
L 49.48 79.66 
L 49.48 79.66 
L 48.14 79.66 
z
" clip-path="url(#p9501a62c91)" style="fill: #cd3e78"/>
   </g>
   <g id="patch_68">
    <path d="M 49.48 79.66 
L 50.82 79.66 
L 50.82 79.66 
L 49.48 79.66 
z
" clip-path="url(#p9501a62c91)" style="fill: #cd3e78"/>
   </g>
   <g id="patch_69">
    <path d="M 50.82 79.66 
L 52.16 79.66 
L 52.16 79.66 
L 50.82 79.66 
z
" clip-path="url(#p9501a62c91)" style="fill: #cd3e78"/>
   </g>
   <g id="patch_70">
    <path d="M 52.16 79.66 
L 53.5 79.66 
L 53.5 79.66 
L 52.16 79.66 
z
" clip-path="url(#p9501a62c91)" style="fill: #cd3e78"/>
   </g>
   <g id="patch_71">
    <path d="M 53.5 79.66 
L 54.84 79.66 
L 54.84 79.66 
L 53.5 79.66 
z
" clip-path="url(#p9501a62c91)" style="fill: #cd3e78"/>
   </g>
   <g id="patch_72">
    <path d="M 54.84 79.66 
L 56.18 79.66 
L 56.18 79.66 
L 54.84 79.66 
z
" clip-path="url(#p9501a62c91)" style="fill: #cd3e78"/>
   </g>
   <g id="patch_73">
    <path d="M 56.18 79.66 
L 57.52 79.66 
L 57.52 79.66 
L 56.18 79.66 
z
" clip-path="url(#p9501a62c91)" style="fill: #cd3e78"/>
   </g>
   <g id="patch_74">
    <path d="M 57.52 79.66 
L 58.86 79.66 
L 58.86 79.66 
L 57.52 79.66 
z
" clip-path="url(#p9501a62c91)" style="fill: #cd3e78"/>
   </g>
   <g id="patch_75">
    <path d="M 58.86 79.66 
L 60.2 79.66 
L 60.2 79.66 
L 58.86 79.66 
z
" clip-path="url(#p9501a62c91)" style="fill: #cd3e78"/>
   </g>
   <g id="patch_76">
    <path d="M 60.2 79.66 
L 61.54 79.66 
L 61.54 79.66 
L 60.2 79.66 
z
" clip-path="url(#p9501a62c91)" style="fill: #cd3e78"/>
   </g>
   <g id="patch_77">
    <path d="M 61.54 79.66 
L 62.88 79.66 
L 62.88 79.66 
L 61.54 79.66 
z
" clip-path="url(#p9501a62c91)" style="fill: #cd3e78"/>
   </g>
   <g id="patch_78">
    <path d="M 62.88 79.66 
L 64.22 79.66 
L 64.22 79.66 
L 62.88 79.66 
z
" clip-path="url(#p9501a62c91)" style="fill: #cd3e78"/>
   </g>
   <g id="patch_79">
    <path d="M 64.22 79.66 
L 65.56 79.66 
L 65.56 79.66 
L 64.22 79.66 
z
" clip-path="url(#p9501a62c91)" style="fill: #cd3e78"/>
   </g>
   <g id="patch_80">
    <path d="M 65.56 79.66 
L 66.9 79.66 
L 66.9 79.66 
L 65.56 79.66 
z
" clip-path="url(#p9501a62c91)" style="fill: #cd3e78"/>
   </g>
   <g id="patch_81">
    <path d="M 66.9 79.66 
L 68.24 79.66 
L 68.24 79.66 
L 66.9 79.66 
z
" clip-path="url(#p9501a62c91)" style="fill: #cd3e78"/>
   </g>
   <g id="patch_82">
    <path d="M 68.24 79.66 
L 69.58 79.66 
L 69.58 79.66 
L 68.24 79.66 
z
" clip-path="url(#p9501a62c91)" style="fill: #cd3e78"/>
   </g>
   <g id="patch_83">
    <path d="M 69.58 79.66 
L 70.92 79.66 
L 70.92 79.66 
L 69.58 79.66 
z
" clip-path="url(#p9501a62c91)" style="fill: #cd3e78"/>
   </g>
   <g id="patch_84">
    <path d="M 70.92 79.66 
L 72.26 79.66 
L 72.26 79.66 
L 70.92 79.66 
z
" clip-path="url(#p9501a62c91)" style="fill: #cd3e78"/>
   </g>
   <g id="patch_85">
    <path d="M 72.26 79.66 
L 73.6 79.66 
L 73.6 79.66 
L 72.26 79.66 
z
" clip-path="url(#p9501a62c91)" style="fill: #cd3e78"/>
   </g>
   <g id="patch_86">
    <path d="M 73.6 79.66 
L 74.94 79.66 
L 74.94 79.66 
L 73.6 79.66 
z
" clip-path="url(#p9501a62c91)" style="fill: #cd3e78"/>
   </g>
   <g id="patch_87">
    <path d="M 74.94 79.66 
L 76.28 79.66 
L 76.28 79.66 
L 74.94 79.66 
z
" clip-path="url(#p9501a62c91)" style="fill: #cd3e78"/>
   </g>
   <g id="patch_88">
    <path d="M 76.28 79.66 
L 77.62 79.66 
L 77.62 79.66 
L 76.28 79.66 
z
" clip-path="url(#p9501a62c91)" style="fill: #cd3e78"/>
   </g>
   <g id="patch_89">
    <path d="M 77.62 79.66 
L 78.96 79.66 
L 78.96 79.66 
L 77.62 79.66 
z
" clip-path="url(#p9501a62c91)" style="fill: #cd3e78"/>
   </g>
   <g id="patch_90">
    <path d="M 78.96 79.66 
L 80.3 79.66 
L 80.3 79.66 
L 78.96 79.66 
z
" clip-path="url(#p9501a62c91)" style="fill: #cd3e78"/>
   </g>
   <g id="patch_91">
    <path d="M 80.3 79.66 
L 81.64 79.66 
L 81.64 79.66 
L 80.3 79.66 
z
" clip-path="url(#p9501a62c91)" style="fill: #cd3e78"/>
   </g>
   <g id="patch_92">
    <path d="M 81.64 79.66 
L 82.98 79.66 
L 82.98 79.66 
L 81.64 79.66 
z
" clip-path="url(#p9501a62c91)" style="fill: #cd3e78"/>
   </g>
   <g id="patch_93">
    <path d="M 82.98 79.66 
L 84.32 79.66 
L 84.32 79.66 
L 82.98 79.66 
z
" clip-path="url(#p9501a62c91)" style="fill: #cd3e78"/>
   </g>
   <g id="patch_94">
    <path d="M 84.32 79.66 
L 85.66 79.66 
L 85.66 79.66 
L 84.32 79.66 
z
" clip-path="url(#p9501a62c91)" style="fill: #cd3e78"/>
   </g>
   <g id="patch_95">
    <path d="M 85.66 79.66 
L 87 79.66 
L 87 79.66 
L 85.66 79.66 
z
" clip-path="url(#p9501a62c91)" style="fill: #cd3e78"/>
   </g>
   <g id="patch_96">
    <path d="M 87 79.66 
L 88.34 79.66 
L 88.34 79.66 
L 87 79.66 
z
" clip-path="url(#p9501a62c91)" style="fill: #cd3e78"/>
   </g>
   <g id="patch_97">
    <path d="M 88.34 79.66 
L 89.68 79.66 
L 89.68 79.66 
L 88.34 79.66 
z
" clip-path="url(#p9501a62c91)" style="fill: #cd3e78"/>
   </g>
   <g id="patch_98">
    <path d="M 89.68 79.66 
L 91.02 79.66 
L 91.02 79.66 
L 89.68 79.66 
z
" clip-path="url(#p9501a62c91)" style="fill: #cd3e78"/>
   </g>
   <g id="patch_99">
    <path d="M 91.02 79.66 
L 92.36 79.66 
L 92.36 79.66 
L 91.02 79.66 
z
" clip-path="url(#p9501a62c91)" style="fill: #cd3e78"/>
   </g>
   <g id="patch_100">
    <path d="M 92.36 79.66 
L 93.7 79.66 
L 93.7 79.66 
L 92.36 79.66 
z
" clip-path="url(#p9501a62c91)" style="fill: #cd3e78"/>
   </g>
   <g id="patch_101">
    <path d="M 93.7 79.66 
L 95.04 79.66 
L 95.04 79.66 
L 93.7 79.66 
z
" clip-path="url(#p9501a62c91)" style="fill: #cd3e78"/>
   </g>
   <g id="patch_102">
    <path d="M 95.04 79.66 
L 96.38 79.66 
L 96.38 79.66 
L 95.04 79.66 
z
" clip-path="url(#p9501a62c91)" style="fill: #cd3e78"/>
   </g>
   <g id="patch_103">
    <path d="M 29.38 79.66 
L 29.38 7.2 
" style="fill: none; stroke: #262626; stroke-width: 1.875; stroke-linejoin: miter; stroke-linecap: square"/>
   </g>
   <g id="patch_104">
    <path d="M 96.38 79.66 
L 96.38 7.2 
" style="fill: none; stroke: #262626; stroke-width: 1.875; stroke-linejoin: miter; stroke-linecap: square"/>
   </g>
   <g id="patch_105">
    <path d="M 29.38 79.66 
L 96.38 79.66 
" style="fill: none; stroke: #262626; stroke-width: 1.875; stroke-linejoin: miter; stroke-linecap: square"/>
   </g>
   <g id="patch_106">
    <path d="M 29.38 7.2 
L 96.38 7.2 
" style="fill: none; stroke: #262626; stroke-width: 1.875; stroke-linejoin: miter; stroke-linecap: square"/>
   </g>
  </g>
  <g id="axes_2">
   <g id="patch_107">
    <path d="M 136.42 79.66 
L 203.42 79.66 
L 203.42 7.2 
L 136.42 7.2 
z
" style="fill: #ffffff"/>
   </g>
   <g id="matplotlib.axis_3">
    <g id="text_3">
     <!-- $C$ -->
     <g style="fill: #262626" transform="translate(163.62 96.544062) scale(0.18 -0.18)">
      <use xlink:href="#DejaVuSans-Oblique-43" transform="translate(0 0.78125)"/>
     </g>
    </g>
   </g>
   <g id="matplotlib.axis_4">
    <g id="text_4">
     <!-- $P(C|s)$ -->
     <g style="fill: #262626" transform="translate(128.1 69.89) rotate(-90) scale(0.18 -0.18)">
      <use xlink:href="#DejaVuSans-Oblique-50" transform="translate(0 0.578125)"/>
      <use xlink:href="#DejaVuSans-28" transform="translate(60.302734 0.578125)"/>
      <use xlink:href="#DejaVuSans-Oblique-43" transform="translate(99.316406 0.578125)"/>
      <use xlink:href="#DejaVuSans-7c" transform="translate(169.140625 0.578125)"/>
      <use xlink:href="#DejaVuSans-Oblique-73" transform="translate(202.832031 0.578125)"/>
      <use xlink:href="#DejaVuSans-29" transform="translate(254.931641 0.578125)"/>
     </g>
    </g>
   </g>
   <g id="patch_108">
    <path d="M 136.42 79.66 
L 137.76 79.66 
L 137.76 79.66 
L 136.42 79.66 
z
" clip-path="url(#pbfc74ad81c)" style="fill: #88ae1d"/>
   </g>
   <g id="patch_109">
    <path d="M 137.76 79.66 
L 139.1 79.66 
L 139.1 79.66 
L 137.76 79.66 
z
" clip-path="url(#pbfc74ad81c)" style="fill: #88ae1d"/>
   </g>
   <g id="patch_110">
    <path d="M 139.1 79.66 
L 140.44 79.66 
L 140.44 79.66 
L 139.1 79.66 
z
" clip-path="url(#pbfc74ad81c)" style="fill: #88ae1d"/>
   </g>
   <g id="patch_111">
    <path d="M 140.44 79.66 
L 141.78 79.66 
L 141.78 79.66 
L 140.44 79.66 
z
" clip-path="url(#pbfc74ad81c)" style="fill: #88ae1d"/>
   </g>
   <g id="patch_112">
    <path d="M 141.78 79.66 
L 143.12 79.66 
L 143.12 79.66 
L 141.78 79.66 
z
" clip-path="url(#pbfc74ad81c)" style="fill: #88ae1d"/>
   </g>
   <g id="patch_113">
    <path d="M 143.12 79.66 
L 144.46 79.66 
L 144.46 79.66 
L 143.12 79.66 
z
" clip-path="url(#pbfc74ad81c)" style="fill: #88ae1d"/>
   </g>
   <g id="patch_114">
    <path d="M 144.46 79.66 
L 145.8 79.66 
L 145.8 79.66 
L 144.46 79.66 
z
" clip-path="url(#pbfc74ad81c)" style="fill: #88ae1d"/>
   </g>
   <g id="patch_115">
    <path d="M 145.8 79.66 
L 147.14 79.66 
L 147.14 79.66 
L 145.8 79.66 
z
" clip-path="url(#pbfc74ad81c)" style="fill: #88ae1d"/>
   </g>
   <g id="patch_116">
    <path d="M 147.14 79.66 
L 148.48 79.66 
L 148.48 79.66 
L 147.14 79.66 
z
" clip-path="url(#pbfc74ad81c)" style="fill: #88ae1d"/>
   </g>
   <g id="patch_117">
    <path d="M 148.48 79.66 
L 149.82 79.66 
L 149.82 79.66 
L 148.48 79.66 
z
" clip-path="url(#pbfc74ad81c)" style="fill: #88ae1d"/>
   </g>
   <g id="patch_118">
    <path d="M 149.82 79.66 
L 151.16 79.66 
L 151.16 79.66 
L 149.82 79.66 
z
" clip-path="url(#pbfc74ad81c)" style="fill: #88ae1d"/>
   </g>
   <g id="patch_119">
    <path d="M 151.16 79.66 
L 152.5 79.66 
L 152.5 79.66 
L 151.16 79.66 
z
" clip-path="url(#pbfc74ad81c)" style="fill: #88ae1d"/>
   </g>
   <g id="patch_120">
    <path d="M 152.5 79.66 
L 153.84 79.66 
L 153.84 79.66 
L 152.5 79.66 
z
" clip-path="url(#pbfc74ad81c)" style="fill: #88ae1d"/>
   </g>
   <g id="patch_121">
    <path d="M 153.84 79.66 
L 155.18 79.66 
L 155.18 79.66 
L 153.84 79.66 
z
" clip-path="url(#pbfc74ad81c)" style="fill: #88ae1d"/>
   </g>
   <g id="patch_122">
    <path d="M 155.18 79.66 
L 156.52 79.66 
L 156.52 79.66 
L 155.18 79.66 
z
" clip-path="url(#pbfc74ad81c)" style="fill: #88ae1d"/>
   </g>
   <g id="patch_123">
    <path d="M 156.52 79.66 
L 157.86 79.66 
L 157.86 79.66 
L 156.52 79.66 
z
" clip-path="url(#pbfc74ad81c)" style="fill: #88ae1d"/>
   </g>
   <g id="patch_124">
    <path d="M 157.86 79.66 
L 159.2 79.66 
L 159.2 79.66 
L 157.86 79.66 
z
" clip-path="url(#pbfc74ad81c)" style="fill: #88ae1d"/>
   </g>
   <g id="patch_125">
    <path d="M 159.2 79.66 
L 160.54 79.66 
L 160.54 79.66 
L 159.2 79.66 
z
" clip-path="url(#pbfc74ad81c)" style="fill: #88ae1d"/>
   </g>
   <g id="patch_126">
    <path d="M 160.54 79.66 
L 161.88 79.66 
L 161.88 79.66 
L 160.54 79.66 
z
" clip-path="url(#pbfc74ad81c)" style="fill: #88ae1d"/>
   </g>
   <g id="patch_127">
    <path d="M 161.88 79.66 
L 163.22 79.66 
L 163.22 79.66 
L 161.88 79.66 
z
" clip-path="url(#pbfc74ad81c)" style="fill: #88ae1d"/>
   </g>
   <g id="patch_128">
    <path d="M 163.22 79.66 
L 164.56 79.66 
L 164.56 79.66 
L 163.22 79.66 
z
" clip-path="url(#pbfc74ad81c)" style="fill: #88ae1d"/>
   </g>
   <g id="patch_129">
    <path d="M 164.56 79.66 
L 165.9 79.66 
L 165.9 79.66 
L 164.56 79.66 
z
" clip-path="url(#pbfc74ad81c)" style="fill: #88ae1d"/>
   </g>
   <g id="patch_130">
    <path d="M 165.9 79.66 
L 167.24 79.66 
L 167.24 79.66 
L 165.9 79.66 
z
" clip-path="url(#pbfc74ad81c)" style="fill: #88ae1d"/>
   </g>
   <g id="patch_131">
    <path d="M 167.24 79.66 
L 168.58 79.66 
L 168.58 79.66 
L 167.24 79.66 
z
" clip-path="url(#pbfc74ad81c)" style="fill: #88ae1d"/>
   </g>
   <g id="patch_132">
    <path d="M 168.58 79.66 
L 169.92 79.66 
L 169.92 79.66 
L 168.58 79.66 
z
" clip-path="url(#pbfc74ad81c)" style="fill: #88ae1d"/>
   </g>
   <g id="patch_133">
    <path d="M 169.92 79.66 
L 171.26 79.66 
L 171.26 76.702449 
L 169.92 76.702449 
z
" clip-path="url(#pbfc74ad81c)" style="fill: #88ae1d"/>
   </g>
   <g id="patch_134">
    <path d="M 171.26 79.66 
L 172.6 79.66 
L 172.6 10.650476 
L 171.26 10.650476 
z
" clip-path="url(#pbfc74ad81c)" style="fill: #88ae1d"/>
   </g>
   <g id="patch_135">
    <path d="M 172.6 79.66 
L 173.94 79.66 
L 173.94 53.042041 
L 172.6 53.042041 
z
" clip-path="url(#pbfc74ad81c)" style="fill: #88ae1d"/>
   </g>
   <g id="patch_136">
    <path d="M 173.94 79.66 
L 175.28 79.66 
L 175.28 79.66 
L 173.94 79.66 
z
" clip-path="url(#pbfc74ad81c)" style="fill: #88ae1d"/>
   </g>
   <g id="patch_137">
    <path d="M 175.28 79.66 
L 176.62 79.66 
L 176.62 79.66 
L 175.28 79.66 
z
" clip-path="url(#pbfc74ad81c)" style="fill: #88ae1d"/>
   </g>
   <g id="patch_138">
    <path d="M 176.62 79.66 
L 177.96 79.66 
L 177.96 79.66 
L 176.62 79.66 
z
" clip-path="url(#pbfc74ad81c)" style="fill: #88ae1d"/>
   </g>
   <g id="patch_139">
    <path d="M 177.96 79.66 
L 179.3 79.66 
L 179.3 79.66 
L 177.96 79.66 
z
" clip-path="url(#pbfc74ad81c)" style="fill: #88ae1d"/>
   </g>
   <g id="patch_140">
    <path d="M 179.3 79.66 
L 180.64 79.66 
L 180.64 79.66 
L 179.3 79.66 
z
" clip-path="url(#pbfc74ad81c)" style="fill: #88ae1d"/>
   </g>
   <g id="patch_141">
    <path d="M 180.64 79.66 
L 181.98 79.66 
L 181.98 79.66 
L 180.64 79.66 
z
" clip-path="url(#pbfc74ad81c)" style="fill: #88ae1d"/>
   </g>
   <g id="patch_142">
    <path d="M 181.98 79.66 
L 183.32 79.66 
L 183.32 79.66 
L 181.98 79.66 
z
" clip-path="url(#pbfc74ad81c)" style="fill: #88ae1d"/>
   </g>
   <g id="patch_143">
    <path d="M 183.32 79.66 
L 184.66 79.66 
L 184.66 79.66 
L 183.32 79.66 
z
" clip-path="url(#pbfc74ad81c)" style="fill: #88ae1d"/>
   </g>
   <g id="patch_144">
    <path d="M 184.66 79.66 
L 186 79.66 
L 186 79.66 
L 184.66 79.66 
z
" clip-path="url(#pbfc74ad81c)" style="fill: #88ae1d"/>
   </g>
   <g id="patch_145">
    <path d="M 186 79.66 
L 187.34 79.66 
L 187.34 79.66 
L 186 79.66 
z
" clip-path="url(#pbfc74ad81c)" style="fill: #88ae1d"/>
   </g>
   <g id="patch_146">
    <path d="M 187.34 79.66 
L 188.68 79.66 
L 188.68 79.66 
L 187.34 79.66 
z
" clip-path="url(#pbfc74ad81c)" style="fill: #88ae1d"/>
   </g>
   <g id="patch_147">
    <path d="M 188.68 79.66 
L 190.02 79.66 
L 190.02 79.66 
L 188.68 79.66 
z
" clip-path="url(#pbfc74ad81c)" style="fill: #88ae1d"/>
   </g>
   <g id="patch_148">
    <path d="M 190.02 79.66 
L 191.36 79.66 
L 191.36 79.66 
L 190.02 79.66 
z
" clip-path="url(#pbfc74ad81c)" style="fill: #88ae1d"/>
   </g>
   <g id="patch_149">
    <path d="M 191.36 79.66 
L 192.7 79.66 
L 192.7 79.66 
L 191.36 79.66 
z
" clip-path="url(#pbfc74ad81c)" style="fill: #88ae1d"/>
   </g>
   <g id="patch_150">
    <path d="M 192.7 79.66 
L 194.04 79.66 
L 194.04 79.66 
L 192.7 79.66 
z
" clip-path="url(#pbfc74ad81c)" style="fill: #88ae1d"/>
   </g>
   <g id="patch_151">
    <path d="M 194.04 79.66 
L 195.38 79.66 
L 195.38 79.66 
L 194.04 79.66 
z
" clip-path="url(#pbfc74ad81c)" style="fill: #88ae1d"/>
   </g>
   <g id="patch_152">
    <path d="M 195.38 79.66 
L 196.72 79.66 
L 196.72 79.66 
L 195.38 79.66 
z
" clip-path="url(#pbfc74ad81c)" style="fill: #88ae1d"/>
   </g>
   <g id="patch_153">
    <path d="M 196.72 79.66 
L 198.06 79.66 
L 198.06 79.66 
L 196.72 79.66 
z
" clip-path="url(#pbfc74ad81c)" style="fill: #88ae1d"/>
   </g>
   <g id="patch_154">
    <path d="M 198.06 79.66 
L 199.4 79.66 
L 199.4 79.66 
L 198.06 79.66 
z
" clip-path="url(#pbfc74ad81c)" style="fill: #88ae1d"/>
   </g>
   <g id="patch_155">
    <path d="M 199.4 79.66 
L 200.74 79.66 
L 200.74 79.66 
L 199.4 79.66 
z
" clip-path="url(#pbfc74ad81c)" style="fill: #88ae1d"/>
   </g>
   <g id="patch_156">
    <path d="M 200.74 79.66 
L 202.08 79.66 
L 202.08 79.66 
L 200.74 79.66 
z
" clip-path="url(#pbfc74ad81c)" style="fill: #88ae1d"/>
   </g>
   <g id="patch_157">
    <path d="M 202.08 79.66 
L 203.42 79.66 
L 203.42 79.66 
L 202.08 79.66 
z
" clip-path="url(#pbfc74ad81c)" style="fill: #88ae1d"/>
   </g>
   <g id="patch_158">
    <path d="M 136.42 79.66 
L 137.76 79.66 
L 137.76 79.66 
L 136.42 79.66 
z
" clip-path="url(#pbfc74ad81c)" style="fill: #cd3e78"/>
   </g>
   <g id="patch_159">
    <path d="M 137.76 79.66 
L 139.1 79.66 
L 139.1 79.66 
L 137.76 79.66 
z
" clip-path="url(#pbfc74ad81c)" style="fill: #cd3e78"/>
   </g>
   <g id="patch_160">
    <path d="M 139.1 79.66 
L 140.44 79.66 
L 140.44 79.66 
L 139.1 79.66 
z
" clip-path="url(#pbfc74ad81c)" style="fill: #cd3e78"/>
   </g>
   <g id="patch_161">
    <path d="M 140.44 79.66 
L 141.78 79.66 
L 141.78 79.66 
L 140.44 79.66 
z
" clip-path="url(#pbfc74ad81c)" style="fill: #cd3e78"/>
   </g>
   <g id="patch_162">
    <path d="M 141.78 79.66 
L 143.12 79.66 
L 143.12 79.66 
L 141.78 79.66 
z
" clip-path="url(#pbfc74ad81c)" style="fill: #cd3e78"/>
   </g>
   <g id="patch_163">
    <path d="M 143.12 79.66 
L 144.46 79.66 
L 144.46 79.66 
L 143.12 79.66 
z
" clip-path="url(#pbfc74ad81c)" style="fill: #cd3e78"/>
   </g>
   <g id="patch_164">
    <path d="M 144.46 79.66 
L 145.8 79.66 
L 145.8 79.66 
L 144.46 79.66 
z
" clip-path="url(#pbfc74ad81c)" style="fill: #cd3e78"/>
   </g>
   <g id="patch_165">
    <path d="M 145.8 79.66 
L 147.14 79.66 
L 147.14 79.66 
L 145.8 79.66 
z
" clip-path="url(#pbfc74ad81c)" style="fill: #cd3e78"/>
   </g>
   <g id="patch_166">
    <path d="M 147.14 79.66 
L 148.48 79.66 
L 148.48 79.66 
L 147.14 79.66 
z
" clip-path="url(#pbfc74ad81c)" style="fill: #cd3e78"/>
   </g>
   <g id="patch_167">
    <path d="M 148.48 79.66 
L 149.82 79.66 
L 149.82 79.66 
L 148.48 79.66 
z
" clip-path="url(#pbfc74ad81c)" style="fill: #cd3e78"/>
   </g>
   <g id="patch_168">
    <path d="M 149.82 79.66 
L 151.16 79.66 
L 151.16 79.66 
L 149.82 79.66 
z
" clip-path="url(#pbfc74ad81c)" style="fill: #cd3e78"/>
   </g>
   <g id="patch_169">
    <path d="M 151.16 79.66 
L 152.5 79.66 
L 152.5 79.66 
L 151.16 79.66 
z
" clip-path="url(#pbfc74ad81c)" style="fill: #cd3e78"/>
   </g>
   <g id="patch_170">
    <path d="M 152.5 79.66 
L 153.84 79.66 
L 153.84 79.66 
L 152.5 79.66 
z
" clip-path="url(#pbfc74ad81c)" style="fill: #cd3e78"/>
   </g>
   <g id="patch_171">
    <path d="M 153.84 79.66 
L 155.18 79.66 
L 155.18 79.66 
L 153.84 79.66 
z
" clip-path="url(#pbfc74ad81c)" style="fill: #cd3e78"/>
   </g>
   <g id="patch_172">
    <path d="M 155.18 79.66 
L 156.52 79.66 
L 156.52 78.67415 
L 155.18 78.67415 
z
" clip-path="url(#pbfc74ad81c)" style="fill: #cd3e78"/>
   </g>
   <g id="patch_173">
    <path d="M 156.52 79.66 
L 157.86 79.66 
L 157.86 79.66 
L 156.52 79.66 
z
" clip-path="url(#pbfc74ad81c)" style="fill: #cd3e78"/>
   </g>
   <g id="patch_174">
    <path d="M 157.86 79.66 
L 159.2 79.66 
L 159.2 79.66 
L 157.86 79.66 
z
" clip-path="url(#pbfc74ad81c)" style="fill: #cd3e78"/>
   </g>
   <g id="patch_175">
    <path d="M 159.2 79.66 
L 160.54 79.66 
L 160.54 79.66 
L 159.2 79.66 
z
" clip-path="url(#pbfc74ad81c)" style="fill: #cd3e78"/>
   </g>
   <g id="patch_176">
    <path d="M 160.54 79.66 
L 161.88 79.66 
L 161.88 78.67415 
L 160.54 78.67415 
z
" clip-path="url(#pbfc74ad81c)" style="fill: #cd3e78"/>
   </g>
   <g id="patch_177">
    <path d="M 161.88 79.66 
L 163.22 79.66 
L 163.22 79.66 
L 161.88 79.66 
z
" clip-path="url(#pbfc74ad81c)" style="fill: #cd3e78"/>
   </g>
   <g id="patch_178">
    <path d="M 163.22 79.66 
L 164.56 79.66 
L 164.56 79.66 
L 163.22 79.66 
z
" clip-path="url(#pbfc74ad81c)" style="fill: #cd3e78"/>
   </g>
   <g id="patch_179">
    <path d="M 164.56 79.66 
L 165.9 79.66 
L 165.9 79.66 
L 164.56 79.66 
z
" clip-path="url(#pbfc74ad81c)" style="fill: #cd3e78"/>
   </g>
   <g id="patch_180">
    <path d="M 165.9 79.66 
L 167.24 79.66 
L 167.24 79.66 
L 165.9 79.66 
z
" clip-path="url(#pbfc74ad81c)" style="fill: #cd3e78"/>
   </g>
   <g id="patch_181">
    <path d="M 167.24 79.66 
L 168.58 79.66 
L 168.58 76.702449 
L 167.24 76.702449 
z
" clip-path="url(#pbfc74ad81c)" style="fill: #cd3e78"/>
   </g>
   <g id="patch_182">
    <path d="M 168.58 79.66 
L 169.92 79.66 
L 169.92 76.702449 
L 168.58 76.702449 
z
" clip-path="url(#pbfc74ad81c)" style="fill: #cd3e78"/>
   </g>
   <g id="patch_183">
    <path d="M 169.92 79.66 
L 171.26 79.66 
L 171.26 76.702449 
L 169.92 76.702449 
z
" clip-path="url(#pbfc74ad81c)" style="fill: #cd3e78"/>
   </g>
   <g id="patch_184">
    <path d="M 171.26 79.66 
L 172.6 79.66 
L 172.6 77.688299 
L 171.26 77.688299 
z
" clip-path="url(#pbfc74ad81c)" style="fill: #cd3e78"/>
   </g>
   <g id="patch_185">
    <path d="M 172.6 79.66 
L 173.94 79.66 
L 173.94 76.702449 
L 172.6 76.702449 
z
" clip-path="url(#pbfc74ad81c)" style="fill: #cd3e78"/>
   </g>
   <g id="patch_186">
    <path d="M 173.94 79.66 
L 175.28 79.66 
L 175.28 77.688299 
L 173.94 77.688299 
z
" clip-path="url(#pbfc74ad81c)" style="fill: #cd3e78"/>
   </g>
   <g id="patch_187">
    <path d="M 175.28 79.66 
L 176.62 79.66 
L 176.62 74.730748 
L 175.28 74.730748 
z
" clip-path="url(#pbfc74ad81c)" style="fill: #cd3e78"/>
   </g>
   <g id="patch_188">
    <path d="M 176.62 79.66 
L 177.96 79.66 
L 177.96 74.730748 
L 176.62 74.730748 
z
" clip-path="url(#pbfc74ad81c)" style="fill: #cd3e78"/>
   </g>
   <g id="patch_189">
    <path d="M 177.96 79.66 
L 179.3 79.66 
L 179.3 69.801497 
L 177.96 69.801497 
z
" clip-path="url(#pbfc74ad81c)" style="fill: #cd3e78"/>
   </g>
   <g id="patch_190">
    <path d="M 179.3 79.66 
L 180.64 79.66 
L 180.64 72.759048 
L 179.3 72.759048 
z
" clip-path="url(#pbfc74ad81c)" style="fill: #cd3e78"/>
   </g>
   <g id="patch_191">
    <path d="M 180.64 79.66 
L 181.98 79.66 
L 181.98 72.759048 
L 180.64 72.759048 
z
" clip-path="url(#pbfc74ad81c)" style="fill: #cd3e78"/>
   </g>
   <g id="patch_192">
    <path d="M 181.98 79.66 
L 183.32 79.66 
L 183.32 73.744898 
L 181.98 73.744898 
z
" clip-path="url(#pbfc74ad81c)" style="fill: #cd3e78"/>
   </g>
   <g id="patch_193">
    <path d="M 183.32 79.66 
L 184.66 79.66 
L 184.66 74.730748 
L 183.32 74.730748 
z
" clip-path="url(#pbfc74ad81c)" style="fill: #cd3e78"/>
   </g>
   <g id="patch_194">
    <path d="M 184.66 79.66 
L 186 79.66 
L 186 71.773197 
L 184.66 71.773197 
z
" clip-path="url(#pbfc74ad81c)" style="fill: #cd3e78"/>
   </g>
   <g id="patch_195">
    <path d="M 186 79.66 
L 187.34 79.66 
L 187.34 72.759048 
L 186 72.759048 
z
" clip-path="url(#pbfc74ad81c)" style="fill: #cd3e78"/>
   </g>
   <g id="patch_196">
    <path d="M 187.34 79.66 
L 188.68 79.66 
L 188.68 74.730748 
L 187.34 74.730748 
z
" clip-path="url(#pbfc74ad81c)" style="fill: #cd3e78"/>
   </g>
   <g id="patch_197">
    <path d="M 188.68 79.66 
L 190.02 79.66 
L 190.02 73.744898 
L 188.68 73.744898 
z
" clip-path="url(#pbfc74ad81c)" style="fill: #cd3e78"/>
   </g>
   <g id="patch_198">
    <path d="M 190.02 79.66 
L 191.36 79.66 
L 191.36 75.716599 
L 190.02 75.716599 
z
" clip-path="url(#pbfc74ad81c)" style="fill: #cd3e78"/>
   </g>
   <g id="patch_199">
    <path d="M 191.36 79.66 
L 192.7 79.66 
L 192.7 77.688299 
L 191.36 77.688299 
z
" clip-path="url(#pbfc74ad81c)" style="fill: #cd3e78"/>
   </g>
   <g id="patch_200">
    <path d="M 192.7 79.66 
L 194.04 79.66 
L 194.04 75.716599 
L 192.7 75.716599 
z
" clip-path="url(#pbfc74ad81c)" style="fill: #cd3e78"/>
   </g>
   <g id="patch_201">
    <path d="M 194.04 79.66 
L 195.38 79.66 
L 195.38 78.67415 
L 194.04 78.67415 
z
" clip-path="url(#pbfc74ad81c)" style="fill: #cd3e78"/>
   </g>
   <g id="patch_202">
    <path d="M 195.38 79.66 
L 196.72 79.66 
L 196.72 79.66 
L 195.38 79.66 
z
" clip-path="url(#pbfc74ad81c)" style="fill: #cd3e78"/>
   </g>
   <g id="patch_203">
    <path d="M 196.72 79.66 
L 198.06 79.66 
L 198.06 79.66 
L 196.72 79.66 
z
" clip-path="url(#pbfc74ad81c)" style="fill: #cd3e78"/>
   </g>
   <g id="patch_204">
    <path d="M 198.06 79.66 
L 199.4 79.66 
L 199.4 79.66 
L 198.06 79.66 
z
" clip-path="url(#pbfc74ad81c)" style="fill: #cd3e78"/>
   </g>
   <g id="patch_205">
    <path d="M 199.4 79.66 
L 200.74 79.66 
L 200.74 79.66 
L 199.4 79.66 
z
" clip-path="url(#pbfc74ad81c)" style="fill: #cd3e78"/>
   </g>
   <g id="patch_206">
    <path d="M 200.74 79.66 
L 202.08 79.66 
L 202.08 79.66 
L 200.74 79.66 
z
" clip-path="url(#pbfc74ad81c)" style="fill: #cd3e78"/>
   </g>
   <g id="patch_207">
    <path d="M 202.08 79.66 
L 203.42 79.66 
L 203.42 79.66 
L 202.08 79.66 
z
" clip-path="url(#pbfc74ad81c)" style="fill: #cd3e78"/>
   </g>
   <g id="patch_208">
    <path d="M 136.42 79.66 
L 136.42 7.2 
" style="fill: none; stroke: #262626; stroke-width: 1.875; stroke-linejoin: miter; stroke-linecap: square"/>
   </g>
   <g id="patch_209">
    <path d="M 203.42 79.66 
L 203.42 7.2 
" style="fill: none; stroke: #262626; stroke-width: 1.875; stroke-linejoin: miter; stroke-linecap: square"/>
   </g>
   <g id="patch_210">
    <path d="M 136.42 79.66 
L 203.42 79.66 
" style="fill: none; stroke: #262626; stroke-width: 1.875; stroke-linejoin: miter; stroke-linecap: square"/>
   </g>
   <g id="patch_211">
    <path d="M 136.42 7.2 
L 203.42 7.2 
" style="fill: none; stroke: #262626; stroke-width: 1.875; stroke-linejoin: miter; stroke-linecap: square"/>
   </g>
  </g>
  <g id="axes_3">
   <g id="patch_212">
    <path d="M 243.46 79.66 
L 310.46 79.66 
L 310.46 7.2 
L 243.46 7.2 
z
" style="fill: #ffffff"/>
   </g>
   <g id="matplotlib.axis_5">
    <g id="text_5">
     <!-- $C$ -->
     <g style="fill: #262626" transform="translate(270.66 96.544062) scale(0.18 -0.18)">
      <use xlink:href="#DejaVuSans-Oblique-43" transform="translate(0 0.78125)"/>
     </g>
    </g>
   </g>
   <g id="matplotlib.axis_6">
    <g id="text_6">
     <!-- $P(C|s)$ -->
     <g style="fill: #262626" transform="translate(235.14 69.89) rotate(-90) scale(0.18 -0.18)">
      <use xlink:href="#DejaVuSans-Oblique-50" transform="translate(0 0.578125)"/>
      <use xlink:href="#DejaVuSans-28" transform="translate(60.302734 0.578125)"/>
      <use xlink:href="#DejaVuSans-Oblique-43" transform="translate(99.316406 0.578125)"/>
      <use xlink:href="#DejaVuSans-7c" transform="translate(169.140625 0.578125)"/>
      <use xlink:href="#DejaVuSans-Oblique-73" transform="translate(202.832031 0.578125)"/>
      <use xlink:href="#DejaVuSans-29" transform="translate(254.931641 0.578125)"/>
     </g>
    </g>
   </g>
   <g id="patch_213">
    <path d="M 243.46 79.66 
L 244.8 79.66 
L 244.8 79.66 
L 243.46 79.66 
z
" clip-path="url(#pcd9a041562)" style="fill: #88ae1d"/>
   </g>
   <g id="patch_214">
    <path d="M 244.8 79.66 
L 246.14 79.66 
L 246.14 79.66 
L 244.8 79.66 
z
" clip-path="url(#pcd9a041562)" style="fill: #88ae1d"/>
   </g>
   <g id="patch_215">
    <path d="M 246.14 79.66 
L 247.48 79.66 
L 247.48 79.66 
L 246.14 79.66 
z
" clip-path="url(#pcd9a041562)" style="fill: #88ae1d"/>
   </g>
   <g id="patch_216">
    <path d="M 247.48 79.66 
L 248.82 79.66 
L 248.82 79.66 
L 247.48 79.66 
z
" clip-path="url(#pcd9a041562)" style="fill: #88ae1d"/>
   </g>
   <g id="patch_217">
    <path d="M 248.82 79.66 
L 250.16 79.66 
L 250.16 79.66 
L 248.82 79.66 
z
" clip-path="url(#pcd9a041562)" style="fill: #88ae1d"/>
   </g>
   <g id="patch_218">
    <path d="M 250.16 79.66 
L 251.5 79.66 
L 251.5 79.66 
L 250.16 79.66 
z
" clip-path="url(#pcd9a041562)" style="fill: #88ae1d"/>
   </g>
   <g id="patch_219">
    <path d="M 251.5 79.66 
L 252.84 79.66 
L 252.84 79.66 
L 251.5 79.66 
z
" clip-path="url(#pcd9a041562)" style="fill: #88ae1d"/>
   </g>
   <g id="patch_220">
    <path d="M 252.84 79.66 
L 254.18 79.66 
L 254.18 79.66 
L 252.84 79.66 
z
" clip-path="url(#pcd9a041562)" style="fill: #88ae1d"/>
   </g>
   <g id="patch_221">
    <path d="M 254.18 79.66 
L 255.52 79.66 
L 255.52 79.66 
L 254.18 79.66 
z
" clip-path="url(#pcd9a041562)" style="fill: #88ae1d"/>
   </g>
   <g id="patch_222">
    <path d="M 255.52 79.66 
L 256.86 79.66 
L 256.86 79.66 
L 255.52 79.66 
z
" clip-path="url(#pcd9a041562)" style="fill: #88ae1d"/>
   </g>
   <g id="patch_223">
    <path d="M 256.86 79.66 
L 258.2 79.66 
L 258.2 79.66 
L 256.86 79.66 
z
" clip-path="url(#pcd9a041562)" style="fill: #88ae1d"/>
   </g>
   <g id="patch_224">
    <path d="M 258.2 79.66 
L 259.54 79.66 
L 259.54 79.66 
L 258.2 79.66 
z
" clip-path="url(#pcd9a041562)" style="fill: #88ae1d"/>
   </g>
   <g id="patch_225">
    <path d="M 259.54 79.66 
L 260.88 79.66 
L 260.88 79.66 
L 259.54 79.66 
z
" clip-path="url(#pcd9a041562)" style="fill: #88ae1d"/>
   </g>
   <g id="patch_226">
    <path d="M 260.88 79.66 
L 262.22 79.66 
L 262.22 79.66 
L 260.88 79.66 
z
" clip-path="url(#pcd9a041562)" style="fill: #88ae1d"/>
   </g>
   <g id="patch_227">
    <path d="M 262.22 79.66 
L 263.56 79.66 
L 263.56 79.66 
L 262.22 79.66 
z
" clip-path="url(#pcd9a041562)" style="fill: #88ae1d"/>
   </g>
   <g id="patch_228">
    <path d="M 263.56 79.66 
L 264.9 79.66 
L 264.9 79.66 
L 263.56 79.66 
z
" clip-path="url(#pcd9a041562)" style="fill: #88ae1d"/>
   </g>
   <g id="patch_229">
    <path d="M 264.9 79.66 
L 266.24 79.66 
L 266.24 79.66 
L 264.9 79.66 
z
" clip-path="url(#pcd9a041562)" style="fill: #88ae1d"/>
   </g>
   <g id="patch_230">
    <path d="M 266.24 79.66 
L 267.58 79.66 
L 267.58 79.66 
L 266.24 79.66 
z
" clip-path="url(#pcd9a041562)" style="fill: #88ae1d"/>
   </g>
   <g id="patch_231">
    <path d="M 267.58 79.66 
L 268.92 79.66 
L 268.92 79.66 
L 267.58 79.66 
z
" clip-path="url(#pcd9a041562)" style="fill: #88ae1d"/>
   </g>
   <g id="patch_232">
    <path d="M 268.92 79.66 
L 270.26 79.66 
L 270.26 79.66 
L 268.92 79.66 
z
" clip-path="url(#pcd9a041562)" style="fill: #88ae1d"/>
   </g>
   <g id="patch_233">
    <path d="M 270.26 79.66 
L 271.6 79.66 
L 271.6 79.66 
L 270.26 79.66 
z
" clip-path="url(#pcd9a041562)" style="fill: #88ae1d"/>
   </g>
   <g id="patch_234">
    <path d="M 271.6 79.66 
L 272.94 79.66 
L 272.94 79.66 
L 271.6 79.66 
z
" clip-path="url(#pcd9a041562)" style="fill: #88ae1d"/>
   </g>
   <g id="patch_235">
    <path d="M 272.94 79.66 
L 274.28 79.66 
L 274.28 79.66 
L 272.94 79.66 
z
" clip-path="url(#pcd9a041562)" style="fill: #88ae1d"/>
   </g>
   <g id="patch_236">
    <path d="M 274.28 79.66 
L 275.62 79.66 
L 275.62 79.66 
L 274.28 79.66 
z
" clip-path="url(#pcd9a041562)" style="fill: #88ae1d"/>
   </g>
   <g id="patch_237">
    <path d="M 275.62 79.66 
L 276.96 79.66 
L 276.96 79.66 
L 275.62 79.66 
z
" clip-path="url(#pcd9a041562)" style="fill: #88ae1d"/>
   </g>
   <g id="patch_238">
    <path d="M 276.96 79.66 
L 278.3 79.66 
L 278.3 79.66 
L 276.96 79.66 
z
" clip-path="url(#pcd9a041562)" style="fill: #88ae1d"/>
   </g>
   <g id="patch_239">
    <path d="M 278.3 79.66 
L 279.64 79.66 
L 279.64 79.66 
L 278.3 79.66 
z
" clip-path="url(#pcd9a041562)" style="fill: #88ae1d"/>
   </g>
   <g id="patch_240">
    <path d="M 279.64 79.66 
L 280.98 79.66 
L 280.98 79.66 
L 279.64 79.66 
z
" clip-path="url(#pcd9a041562)" style="fill: #88ae1d"/>
   </g>
   <g id="patch_241">
    <path d="M 280.98 79.66 
L 282.32 79.66 
L 282.32 79.66 
L 280.98 79.66 
z
" clip-path="url(#pcd9a041562)" style="fill: #88ae1d"/>
   </g>
   <g id="patch_242">
    <path d="M 282.32 79.66 
L 283.66 79.66 
L 283.66 79.66 
L 282.32 79.66 
z
" clip-path="url(#pcd9a041562)" style="fill: #88ae1d"/>
   </g>
   <g id="patch_243">
    <path d="M 283.66 79.66 
L 285 79.66 
L 285 79.66 
L 283.66 79.66 
z
" clip-path="url(#pcd9a041562)" style="fill: #88ae1d"/>
   </g>
   <g id="patch_244">
    <path d="M 285 79.66 
L 286.34 79.66 
L 286.34 79.66 
L 285 79.66 
z
" clip-path="url(#pcd9a041562)" style="fill: #88ae1d"/>
   </g>
   <g id="patch_245">
    <path d="M 286.34 79.66 
L 287.68 79.66 
L 287.68 79.66 
L 286.34 79.66 
z
" clip-path="url(#pcd9a041562)" style="fill: #88ae1d"/>
   </g>
   <g id="patch_246">
    <path d="M 287.68 79.66 
L 289.02 79.66 
L 289.02 79.66 
L 287.68 79.66 
z
" clip-path="url(#pcd9a041562)" style="fill: #88ae1d"/>
   </g>
   <g id="patch_247">
    <path d="M 289.02 79.66 
L 290.36 79.66 
L 290.36 79.66 
L 289.02 79.66 
z
" clip-path="url(#pcd9a041562)" style="fill: #88ae1d"/>
   </g>
   <g id="patch_248">
    <path d="M 290.36 79.66 
L 291.7 79.66 
L 291.7 79.66 
L 290.36 79.66 
z
" clip-path="url(#pcd9a041562)" style="fill: #88ae1d"/>
   </g>
   <g id="patch_249">
    <path d="M 291.7 79.66 
L 293.04 79.66 
L 293.04 79.66 
L 291.7 79.66 
z
" clip-path="url(#pcd9a041562)" style="fill: #88ae1d"/>
   </g>
   <g id="patch_250">
    <path d="M 293.04 79.66 
L 294.38 79.66 
L 294.38 10.650476 
L 293.04 10.650476 
z
" clip-path="url(#pcd9a041562)" style="fill: #88ae1d"/>
   </g>
   <g id="patch_251">
    <path d="M 294.38 79.66 
L 295.72 79.66 
L 295.72 48.655721 
L 294.38 48.655721 
z
" clip-path="url(#pcd9a041562)" style="fill: #88ae1d"/>
   </g>
   <g id="patch_252">
    <path d="M 295.72 79.66 
L 297.06 79.66 
L 297.06 79.66 
L 295.72 79.66 
z
" clip-path="url(#pcd9a041562)" style="fill: #88ae1d"/>
   </g>
   <g id="patch_253">
    <path d="M 297.06 79.66 
L 298.4 79.66 
L 298.4 79.66 
L 297.06 79.66 
z
" clip-path="url(#pcd9a041562)" style="fill: #88ae1d"/>
   </g>
   <g id="patch_254">
    <path d="M 298.4 79.66 
L 299.74 79.66 
L 299.74 79.66 
L 298.4 79.66 
z
" clip-path="url(#pcd9a041562)" style="fill: #88ae1d"/>
   </g>
   <g id="patch_255">
    <path d="M 299.74 79.66 
L 301.08 79.66 
L 301.08 79.66 
L 299.74 79.66 
z
" clip-path="url(#pcd9a041562)" style="fill: #88ae1d"/>
   </g>
   <g id="patch_256">
    <path d="M 301.08 79.66 
L 302.42 79.66 
L 302.42 79.66 
L 301.08 79.66 
z
" clip-path="url(#pcd9a041562)" style="fill: #88ae1d"/>
   </g>
   <g id="patch_257">
    <path d="M 302.42 79.66 
L 303.76 79.66 
L 303.76 79.66 
L 302.42 79.66 
z
" clip-path="url(#pcd9a041562)" style="fill: #88ae1d"/>
   </g>
   <g id="patch_258">
    <path d="M 303.76 79.66 
L 305.1 79.66 
L 305.1 79.66 
L 303.76 79.66 
z
" clip-path="url(#pcd9a041562)" style="fill: #88ae1d"/>
   </g>
   <g id="patch_259">
    <path d="M 305.1 79.66 
L 306.44 79.66 
L 306.44 79.66 
L 305.1 79.66 
z
" clip-path="url(#pcd9a041562)" style="fill: #88ae1d"/>
   </g>
   <g id="patch_260">
    <path d="M 306.44 79.66 
L 307.78 79.66 
L 307.78 79.66 
L 306.44 79.66 
z
" clip-path="url(#pcd9a041562)" style="fill: #88ae1d"/>
   </g>
   <g id="patch_261">
    <path d="M 307.78 79.66 
L 309.12 79.66 
L 309.12 79.66 
L 307.78 79.66 
z
" clip-path="url(#pcd9a041562)" style="fill: #88ae1d"/>
   </g>
   <g id="patch_262">
    <path d="M 309.12 79.66 
L 310.46 79.66 
L 310.46 79.66 
L 309.12 79.66 
z
" clip-path="url(#pcd9a041562)" style="fill: #88ae1d"/>
   </g>
   <g id="patch_263">
    <path d="M 243.46 79.66 
L 244.8 79.66 
L 244.8 79.66 
L 243.46 79.66 
z
" clip-path="url(#pcd9a041562)" style="fill: #cd3e78"/>
   </g>
   <g id="patch_264">
    <path d="M 244.8 79.66 
L 246.14 79.66 
L 246.14 79.66 
L 244.8 79.66 
z
" clip-path="url(#pcd9a041562)" style="fill: #cd3e78"/>
   </g>
   <g id="patch_265">
    <path d="M 246.14 79.66 
L 247.48 79.66 
L 247.48 79.66 
L 246.14 79.66 
z
" clip-path="url(#pcd9a041562)" style="fill: #cd3e78"/>
   </g>
   <g id="patch_266">
    <path d="M 247.48 79.66 
L 248.82 79.66 
L 248.82 79.66 
L 247.48 79.66 
z
" clip-path="url(#pcd9a041562)" style="fill: #cd3e78"/>
   </g>
   <g id="patch_267">
    <path d="M 248.82 79.66 
L 250.16 79.66 
L 250.16 79.66 
L 248.82 79.66 
z
" clip-path="url(#pcd9a041562)" style="fill: #cd3e78"/>
   </g>
   <g id="patch_268">
    <path d="M 250.16 79.66 
L 251.5 79.66 
L 251.5 79.66 
L 250.16 79.66 
z
" clip-path="url(#pcd9a041562)" style="fill: #cd3e78"/>
   </g>
   <g id="patch_269">
    <path d="M 251.5 79.66 
L 252.84 79.66 
L 252.84 79.66 
L 251.5 79.66 
z
" clip-path="url(#pcd9a041562)" style="fill: #cd3e78"/>
   </g>
   <g id="patch_270">
    <path d="M 252.84 79.66 
L 254.18 79.66 
L 254.18 79.66 
L 252.84 79.66 
z
" clip-path="url(#pcd9a041562)" style="fill: #cd3e78"/>
   </g>
   <g id="patch_271">
    <path d="M 254.18 79.66 
L 255.52 79.66 
L 255.52 79.66 
L 254.18 79.66 
z
" clip-path="url(#pcd9a041562)" style="fill: #cd3e78"/>
   </g>
   <g id="patch_272">
    <path d="M 255.52 79.66 
L 256.86 79.66 
L 256.86 79.66 
L 255.52 79.66 
z
" clip-path="url(#pcd9a041562)" style="fill: #cd3e78"/>
   </g>
   <g id="patch_273">
    <path d="M 256.86 79.66 
L 258.2 79.66 
L 258.2 79.66 
L 256.86 79.66 
z
" clip-path="url(#pcd9a041562)" style="fill: #cd3e78"/>
   </g>
   <g id="patch_274">
    <path d="M 258.2 79.66 
L 259.54 79.66 
L 259.54 79.66 
L 258.2 79.66 
z
" clip-path="url(#pcd9a041562)" style="fill: #cd3e78"/>
   </g>
   <g id="patch_275">
    <path d="M 259.54 79.66 
L 260.88 79.66 
L 260.88 79.66 
L 259.54 79.66 
z
" clip-path="url(#pcd9a041562)" style="fill: #cd3e78"/>
   </g>
   <g id="patch_276">
    <path d="M 260.88 79.66 
L 262.22 79.66 
L 262.22 79.66 
L 260.88 79.66 
z
" clip-path="url(#pcd9a041562)" style="fill: #cd3e78"/>
   </g>
   <g id="patch_277">
    <path d="M 262.22 79.66 
L 263.56 79.66 
L 263.56 79.66 
L 262.22 79.66 
z
" clip-path="url(#pcd9a041562)" style="fill: #cd3e78"/>
   </g>
   <g id="patch_278">
    <path d="M 263.56 79.66 
L 264.9 79.66 
L 264.9 79.66 
L 263.56 79.66 
z
" clip-path="url(#pcd9a041562)" style="fill: #cd3e78"/>
   </g>
   <g id="patch_279">
    <path d="M 264.9 79.66 
L 266.24 79.66 
L 266.24 79.66 
L 264.9 79.66 
z
" clip-path="url(#pcd9a041562)" style="fill: #cd3e78"/>
   </g>
   <g id="patch_280">
    <path d="M 266.24 79.66 
L 267.58 79.66 
L 267.58 79.66 
L 266.24 79.66 
z
" clip-path="url(#pcd9a041562)" style="fill: #cd3e78"/>
   </g>
   <g id="patch_281">
    <path d="M 267.58 79.66 
L 268.92 79.66 
L 268.92 79.66 
L 267.58 79.66 
z
" clip-path="url(#pcd9a041562)" style="fill: #cd3e78"/>
   </g>
   <g id="patch_282">
    <path d="M 268.92 79.66 
L 270.26 79.66 
L 270.26 79.66 
L 268.92 79.66 
z
" clip-path="url(#pcd9a041562)" style="fill: #cd3e78"/>
   </g>
   <g id="patch_283">
    <path d="M 270.26 79.66 
L 271.6 79.66 
L 271.6 79.66 
L 270.26 79.66 
z
" clip-path="url(#pcd9a041562)" style="fill: #cd3e78"/>
   </g>
   <g id="patch_284">
    <path d="M 271.6 79.66 
L 272.94 79.66 
L 272.94 79.66 
L 271.6 79.66 
z
" clip-path="url(#pcd9a041562)" style="fill: #cd3e78"/>
   </g>
   <g id="patch_285">
    <path d="M 272.94 79.66 
L 274.28 79.66 
L 274.28 79.66 
L 272.94 79.66 
z
" clip-path="url(#pcd9a041562)" style="fill: #cd3e78"/>
   </g>
   <g id="patch_286">
    <path d="M 274.28 79.66 
L 275.62 79.66 
L 275.62 79.66 
L 274.28 79.66 
z
" clip-path="url(#pcd9a041562)" style="fill: #cd3e78"/>
   </g>
   <g id="patch_287">
    <path d="M 275.62 79.66 
L 276.96 79.66 
L 276.96 79.66 
L 275.62 79.66 
z
" clip-path="url(#pcd9a041562)" style="fill: #cd3e78"/>
   </g>
   <g id="patch_288">
    <path d="M 276.96 79.66 
L 278.3 79.66 
L 278.3 79.66 
L 276.96 79.66 
z
" clip-path="url(#pcd9a041562)" style="fill: #cd3e78"/>
   </g>
   <g id="patch_289">
    <path d="M 278.3 79.66 
L 279.64 79.66 
L 279.64 79.66 
L 278.3 79.66 
z
" clip-path="url(#pcd9a041562)" style="fill: #cd3e78"/>
   </g>
   <g id="patch_290">
    <path d="M 279.64 79.66 
L 280.98 79.66 
L 280.98 79.66 
L 279.64 79.66 
z
" clip-path="url(#pcd9a041562)" style="fill: #cd3e78"/>
   </g>
   <g id="patch_291">
    <path d="M 280.98 79.66 
L 282.32 79.66 
L 282.32 79.66 
L 280.98 79.66 
z
" clip-path="url(#pcd9a041562)" style="fill: #cd3e78"/>
   </g>
   <g id="patch_292">
    <path d="M 282.32 79.66 
L 283.66 79.66 
L 283.66 79.66 
L 282.32 79.66 
z
" clip-path="url(#pcd9a041562)" style="fill: #cd3e78"/>
   </g>
   <g id="patch_293">
    <path d="M 283.66 79.66 
L 285 79.66 
L 285 79.66 
L 283.66 79.66 
z
" clip-path="url(#pcd9a041562)" style="fill: #cd3e78"/>
   </g>
   <g id="patch_294">
    <path d="M 285 79.66 
L 286.34 79.66 
L 286.34 79.66 
L 285 79.66 
z
" clip-path="url(#pcd9a041562)" style="fill: #cd3e78"/>
   </g>
   <g id="patch_295">
    <path d="M 286.34 79.66 
L 287.68 79.66 
L 287.68 79.66 
L 286.34 79.66 
z
" clip-path="url(#pcd9a041562)" style="fill: #cd3e78"/>
   </g>
   <g id="patch_296">
    <path d="M 287.68 79.66 
L 289.02 79.66 
L 289.02 79.66 
L 287.68 79.66 
z
" clip-path="url(#pcd9a041562)" style="fill: #cd3e78"/>
   </g>
   <g id="patch_297">
    <path d="M 289.02 79.66 
L 290.36 79.66 
L 290.36 79.66 
L 289.02 79.66 
z
" clip-path="url(#pcd9a041562)" style="fill: #cd3e78"/>
   </g>
   <g id="patch_298">
    <path d="M 290.36 79.66 
L 291.7 79.66 
L 291.7 79.66 
L 290.36 79.66 
z
" clip-path="url(#pcd9a041562)" style="fill: #cd3e78"/>
   </g>
   <g id="patch_299">
    <path d="M 291.7 79.66 
L 293.04 79.66 
L 293.04 79.66 
L 291.7 79.66 
z
" clip-path="url(#pcd9a041562)" style="fill: #cd3e78"/>
   </g>
   <g id="patch_300">
    <path d="M 293.04 79.66 
L 294.38 79.66 
L 294.38 79.66 
L 293.04 79.66 
z
" clip-path="url(#pcd9a041562)" style="fill: #cd3e78"/>
   </g>
   <g id="patch_301">
    <path d="M 294.38 79.66 
L 295.72 79.66 
L 295.72 79.66 
L 294.38 79.66 
z
" clip-path="url(#pcd9a041562)" style="fill: #cd3e78"/>
   </g>
   <g id="patch_302">
    <path d="M 295.72 79.66 
L 297.06 79.66 
L 297.06 79.66 
L 295.72 79.66 
z
" clip-path="url(#pcd9a041562)" style="fill: #cd3e78"/>
   </g>
   <g id="patch_303">
    <path d="M 297.06 79.66 
L 298.4 79.66 
L 298.4 79.66 
L 297.06 79.66 
z
" clip-path="url(#pcd9a041562)" style="fill: #cd3e78"/>
   </g>
   <g id="patch_304">
    <path d="M 298.4 79.66 
L 299.74 79.66 
L 299.74 79.66 
L 298.4 79.66 
z
" clip-path="url(#pcd9a041562)" style="fill: #cd3e78"/>
   </g>
   <g id="patch_305">
    <path d="M 299.74 79.66 
L 301.08 79.66 
L 301.08 79.66 
L 299.74 79.66 
z
" clip-path="url(#pcd9a041562)" style="fill: #cd3e78"/>
   </g>
   <g id="patch_306">
    <path d="M 301.08 79.66 
L 302.42 79.66 
L 302.42 79.66 
L 301.08 79.66 
z
" clip-path="url(#pcd9a041562)" style="fill: #cd3e78"/>
   </g>
   <g id="patch_307">
    <path d="M 302.42 79.66 
L 303.76 79.66 
L 303.76 79.66 
L 302.42 79.66 
z
" clip-path="url(#pcd9a041562)" style="fill: #cd3e78"/>
   </g>
   <g id="patch_308">
    <path d="M 303.76 79.66 
L 305.1 79.66 
L 305.1 79.66 
L 303.76 79.66 
z
" clip-path="url(#pcd9a041562)" style="fill: #cd3e78"/>
   </g>
   <g id="patch_309">
    <path d="M 305.1 79.66 
L 306.44 79.66 
L 306.44 79.66 
L 305.1 79.66 
z
" clip-path="url(#pcd9a041562)" style="fill: #cd3e78"/>
   </g>
   <g id="patch_310">
    <path d="M 306.44 79.66 
L 307.78 79.66 
L 307.78 19.651718 
L 306.44 19.651718 
z
" clip-path="url(#pcd9a041562)" style="fill: #cd3e78"/>
   </g>
   <g id="patch_311">
    <path d="M 307.78 79.66 
L 309.12 79.66 
L 309.12 39.654479 
L 307.78 39.654479 
z
" clip-path="url(#pcd9a041562)" style="fill: #cd3e78"/>
   </g>
   <g id="patch_312">
    <path d="M 309.12 79.66 
L 310.46 79.66 
L 310.46 79.66 
L 309.12 79.66 
z
" clip-path="url(#pcd9a041562)" style="fill: #cd3e78"/>
   </g>
   <g id="patch_313">
    <path d="M 243.46 79.66 
L 243.46 7.2 
" style="fill: none; stroke: #262626; stroke-width: 1.875; stroke-linejoin: miter; stroke-linecap: square"/>
   </g>
   <g id="patch_314">
    <path d="M 310.46 79.66 
L 310.46 7.2 
" style="fill: none; stroke: #262626; stroke-width: 1.875; stroke-linejoin: miter; stroke-linecap: square"/>
   </g>
   <g id="patch_315">
    <path d="M 243.46 79.66 
L 310.46 79.66 
" style="fill: none; stroke: #262626; stroke-width: 1.875; stroke-linejoin: miter; stroke-linecap: square"/>
   </g>
   <g id="patch_316">
    <path d="M 243.46 7.2 
L 310.46 7.2 
" style="fill: none; stroke: #262626; stroke-width: 1.875; stroke-linejoin: miter; stroke-linecap: square"/>
   </g>
  </g>
 </g>
 <defs>
  <clipPath id="p9501a62c91">
   <rect x="29.38" y="7.2" width="67" height="72.46"/>
  </clipPath>
  <clipPath id="pbfc74ad81c">
   <rect x="136.42" y="7.2" width="67" height="72.46"/>
  </clipPath>
  <clipPath id="pcd9a041562">
   <rect x="243.46" y="7.2" width="67" height="72.46"/>
  </clipPath>
 </defs>
</svg>
