<?xml version="1.0" encoding="utf-8" standalone="no"?>
<!DOCTYPE svg PUBLIC "-//W3C//DTD SVG 1.1//EN"
  "http://www.w3.org/Graphics/SVG/1.1/DTD/svg11.dtd">
<!-- Created with matplotlib (https://matplotlib.org/) -->
<svg height="303.415pt" version="1.1" viewBox="0 0 858.526562 303.415" width="858.526562pt" xmlns="http://www.w3.org/2000/svg" xmlns:xlink="http://www.w3.org/1999/xlink">
 <metadata>
  <rdf:RDF xmlns:cc="http://creativecommons.org/ns#" xmlns:dc="http://purl.org/dc/elements/1.1/" xmlns:rdf="http://www.w3.org/1999/02/22-rdf-syntax-ns#">
   <cc:Work>
    <dc:type rdf:resource="http://purl.org/dc/dcmitype/StillImage"/>
    <dc:date>2025-04-25T10:10:24.150493</dc:date>
    <dc:format>image/svg+xml</dc:format>
    <dc:creator>
     <cc:Agent>
      <dc:title>Matplotlib v3.3.4, https://matplotlib.org/</dc:title>
     </cc:Agent>
    </dc:creator>
   </cc:Work>
  </rdf:RDF>
 </metadata>
 <defs>
  <style type="text/css">*{stroke-linecap:butt;stroke-linejoin:round;}</style>
 </defs>
 <g id="figure_1">
  <g id="patch_1">
   <path d="M 0 303.415 
L 858.526562 303.415 
L 858.526562 0 
L 0 0 
z
" style="fill:#ffffff;"/>
  </g>
  <g id="axes_1">
   <g id="patch_2">
    <path d="M 72.831563 242.32 
L 402.766563 242.32 
L 402.766563 26.7 
L 72.831563 26.7 
z
" style="fill:#ffffff;"/>
   </g>
   <g id="matplotlib.axis_1">
    <g id="xtick_1">
     <g id="line2d_1">
      <defs>
       <path d="M 0 0 
L 0 9 
" id="m1927db45ef" style="stroke:#262626;stroke-width:1.875;"/>
      </defs>
      <g>
       <use style="fill:#262626;stroke:#262626;stroke-width:1.875;" x="144.210519" xlink:href="#m1927db45ef" y="242.32"/>
      </g>
     </g>
     <g id="text_1">
      <!-- $\mathdefault{10^{-2}}$ -->
      <g style="fill:#262626;" transform="translate(127.875519 271.835625)scale(0.165 -0.165)">
       <defs>
        <path d="M 37.25 0 
L 28.46875 0 
L 28.46875 56 
Q 25.296875 52.984375 20.140625 49.953125 
Q 14.984375 46.921875 10.890625 45.40625 
L 10.890625 53.90625 
Q 18.265625 57.375 23.78125 62.296875 
Q 29.296875 67.234375 31.59375 71.875 
L 37.25 71.875 
z
" id="ArialMT-49"/>
        <path d="M 4.15625 35.296875 
Q 4.15625 48 6.765625 55.734375 
Q 9.375 63.484375 14.515625 67.671875 
Q 19.671875 71.875 27.484375 71.875 
Q 33.25 71.875 37.59375 69.546875 
Q 41.9375 67.234375 44.765625 62.859375 
Q 47.609375 58.5 49.21875 52.21875 
Q 50.828125 45.953125 50.828125 35.296875 
Q 50.828125 22.703125 48.234375 14.96875 
Q 45.65625 7.234375 40.5 3 
Q 35.359375 -1.21875 27.484375 -1.21875 
Q 17.140625 -1.21875 11.234375 6.203125 
Q 4.15625 15.140625 4.15625 35.296875 
z
M 13.1875 35.296875 
Q 13.1875 17.671875 17.3125 11.828125 
Q 21.4375 6 27.484375 6 
Q 33.546875 6 37.671875 11.859375 
Q 41.796875 17.71875 41.796875 35.296875 
Q 41.796875 52.984375 37.671875 58.78125 
Q 33.546875 64.59375 27.390625 64.59375 
Q 21.34375 64.59375 17.71875 59.46875 
Q 13.1875 52.9375 13.1875 35.296875 
z
" id="ArialMT-48"/>
        <path d="M 52.828125 31.203125 
L 5.5625 31.203125 
L 5.5625 39.40625 
L 52.828125 39.40625 
z
" id="ArialMT-8722"/>
        <path d="M 50.34375 8.453125 
L 50.34375 0 
L 3.03125 0 
Q 2.9375 3.171875 4.046875 6.109375 
Q 5.859375 10.9375 9.828125 15.625 
Q 13.8125 20.3125 21.34375 26.46875 
Q 33.015625 36.03125 37.109375 41.625 
Q 41.21875 47.21875 41.21875 52.203125 
Q 41.21875 57.421875 37.46875 61 
Q 33.734375 64.59375 27.734375 64.59375 
Q 21.390625 64.59375 17.578125 60.78125 
Q 13.765625 56.984375 13.71875 50.25 
L 4.6875 51.171875 
Q 5.609375 61.28125 11.65625 66.578125 
Q 17.71875 71.875 27.9375 71.875 
Q 38.234375 71.875 44.234375 66.15625 
Q 50.25 60.453125 50.25 52 
Q 50.25 47.703125 48.484375 43.546875 
Q 46.734375 39.40625 42.65625 34.8125 
Q 38.578125 30.21875 29.109375 22.21875 
Q 21.1875 15.578125 18.9375 13.203125 
Q 16.703125 10.84375 15.234375 8.453125 
z
" id="ArialMT-50"/>
       </defs>
       <use transform="translate(0 0.99375)" xlink:href="#ArialMT-49"/>
       <use transform="translate(55.615234 0.99375)" xlink:href="#ArialMT-48"/>
       <use transform="translate(112.972813 70.6875)scale(0.7)" xlink:href="#ArialMT-8722"/>
       <use transform="translate(153.851719 70.6875)scale(0.7)" xlink:href="#ArialMT-50"/>
      </g>
     </g>
    </g>
    <g id="xtick_2">
     <g id="line2d_2">
      <g>
       <use style="fill:#262626;stroke:#262626;stroke-width:1.875;" x="236.50003" xlink:href="#m1927db45ef" y="242.32"/>
      </g>
     </g>
     <g id="text_2">
      <!-- $\mathdefault{10^{0}}$ -->
      <g style="fill:#262626;" transform="translate(223.54753 271.835625)scale(0.165 -0.165)">
       <use transform="translate(0 0.99375)" xlink:href="#ArialMT-49"/>
       <use transform="translate(55.615234 0.99375)" xlink:href="#ArialMT-48"/>
       <use transform="translate(112.972813 70.6875)scale(0.7)" xlink:href="#ArialMT-48"/>
      </g>
     </g>
    </g>
    <g id="xtick_3">
     <g id="line2d_3">
      <g>
       <use style="fill:#262626;stroke:#262626;stroke-width:1.875;" x="328.78954" xlink:href="#m1927db45ef" y="242.32"/>
      </g>
     </g>
     <g id="text_3">
      <!-- $\mathdefault{10^{2}}$ -->
      <g style="fill:#262626;" transform="translate(315.83704 271.835625)scale(0.165 -0.165)">
       <use transform="translate(0 0.99375)" xlink:href="#ArialMT-49"/>
       <use transform="translate(55.615234 0.99375)" xlink:href="#ArialMT-48"/>
       <use transform="translate(112.972813 70.6875)scale(0.7)" xlink:href="#ArialMT-50"/>
      </g>
     </g>
    </g>
    <g id="text_4">
     <!-- Averaging time $\tau$ (s) -->
     <g style="fill:#262626;" transform="translate(156.799063 292.255)scale(0.18 -0.18)">
      <defs>
       <path d="M -0.140625 0 
L 27.34375 71.578125 
L 37.546875 71.578125 
L 66.84375 0 
L 56.0625 0 
L 47.703125 21.6875 
L 17.78125 21.6875 
L 9.90625 0 
z
M 20.515625 29.390625 
L 44.78125 29.390625 
L 37.3125 49.21875 
Q 33.890625 58.25 32.234375 64.0625 
Q 30.859375 57.171875 28.375 50.390625 
z
" id="ArialMT-65"/>
       <path d="M 21 0 
L 1.265625 51.859375 
L 10.546875 51.859375 
L 21.6875 20.796875 
Q 23.484375 15.765625 25 10.359375 
Q 26.171875 14.453125 28.265625 20.21875 
L 39.796875 51.859375 
L 48.828125 51.859375 
L 29.203125 0 
z
" id="ArialMT-118"/>
       <path d="M 42.09375 16.703125 
L 51.171875 15.578125 
Q 49.03125 7.625 43.21875 3.21875 
Q 37.40625 -1.171875 28.375 -1.171875 
Q 17 -1.171875 10.328125 5.828125 
Q 3.65625 12.84375 3.65625 25.484375 
Q 3.65625 38.578125 10.390625 45.796875 
Q 17.140625 53.03125 27.875 53.03125 
Q 38.28125 53.03125 44.875 45.953125 
Q 51.46875 38.875 51.46875 26.03125 
Q 51.46875 25.25 51.421875 23.6875 
L 12.75 23.6875 
Q 13.234375 15.140625 17.578125 10.59375 
Q 21.921875 6.0625 28.421875 6.0625 
Q 33.25 6.0625 36.671875 8.59375 
Q 40.09375 11.140625 42.09375 16.703125 
z
M 13.234375 30.90625 
L 42.1875 30.90625 
Q 41.609375 37.453125 38.875 40.71875 
Q 34.671875 45.796875 27.984375 45.796875 
Q 21.921875 45.796875 17.796875 41.75 
Q 13.671875 37.703125 13.234375 30.90625 
z
" id="ArialMT-101"/>
       <path d="M 6.5 0 
L 6.5 51.859375 
L 14.40625 51.859375 
L 14.40625 44 
Q 17.4375 49.515625 20 51.265625 
Q 22.5625 53.03125 25.640625 53.03125 
Q 30.078125 53.03125 34.671875 50.203125 
L 31.640625 42.046875 
Q 28.421875 43.953125 25.203125 43.953125 
Q 22.3125 43.953125 20.015625 42.21875 
Q 17.71875 40.484375 16.75 37.40625 
Q 15.28125 32.71875 15.28125 27.15625 
L 15.28125 0 
z
" id="ArialMT-114"/>
       <path d="M 40.4375 6.390625 
Q 35.546875 2.25 31.03125 0.53125 
Q 26.515625 -1.171875 21.34375 -1.171875 
Q 12.796875 -1.171875 8.203125 3 
Q 3.609375 7.171875 3.609375 13.671875 
Q 3.609375 17.484375 5.34375 20.625 
Q 7.078125 23.78125 9.890625 25.6875 
Q 12.703125 27.59375 16.21875 28.5625 
Q 18.796875 29.25 24.03125 29.890625 
Q 34.671875 31.15625 39.703125 32.90625 
Q 39.75 34.71875 39.75 35.203125 
Q 39.75 40.578125 37.25 42.78125 
Q 33.890625 45.75 27.25 45.75 
Q 21.046875 45.75 18.09375 43.578125 
Q 15.140625 41.40625 13.71875 35.890625 
L 5.125 37.0625 
Q 6.296875 42.578125 8.984375 45.96875 
Q 11.671875 49.359375 16.75 51.1875 
Q 21.828125 53.03125 28.515625 53.03125 
Q 35.15625 53.03125 39.296875 51.46875 
Q 43.453125 49.90625 45.40625 47.53125 
Q 47.359375 45.171875 48.140625 41.546875 
Q 48.578125 39.3125 48.578125 33.453125 
L 48.578125 21.734375 
Q 48.578125 9.46875 49.140625 6.21875 
Q 49.703125 2.984375 51.375 0 
L 42.1875 0 
Q 40.828125 2.734375 40.4375 6.390625 
z
M 39.703125 26.03125 
Q 34.90625 24.078125 25.34375 22.703125 
Q 19.921875 21.921875 17.671875 20.9375 
Q 15.4375 19.96875 14.203125 18.09375 
Q 12.984375 16.21875 12.984375 13.921875 
Q 12.984375 10.40625 15.640625 8.0625 
Q 18.3125 5.71875 23.4375 5.71875 
Q 28.515625 5.71875 32.46875 7.9375 
Q 36.421875 10.15625 38.28125 14.015625 
Q 39.703125 17 39.703125 22.796875 
z
" id="ArialMT-97"/>
       <path d="M 4.984375 -4.296875 
L 13.53125 -5.5625 
Q 14.0625 -9.515625 16.5 -11.328125 
Q 19.78125 -13.765625 25.4375 -13.765625 
Q 31.546875 -13.765625 34.859375 -11.328125 
Q 38.1875 -8.890625 39.359375 -4.5 
Q 40.046875 -1.8125 39.984375 6.78125 
Q 34.234375 0 25.640625 0 
Q 14.9375 0 9.078125 7.71875 
Q 3.21875 15.4375 3.21875 26.21875 
Q 3.21875 33.640625 5.90625 39.90625 
Q 8.59375 46.1875 13.6875 49.609375 
Q 18.796875 53.03125 25.6875 53.03125 
Q 34.859375 53.03125 40.828125 45.609375 
L 40.828125 51.859375 
L 48.921875 51.859375 
L 48.921875 7.03125 
Q 48.921875 -5.078125 46.453125 -10.125 
Q 44 -15.1875 38.640625 -18.109375 
Q 33.296875 -21.046875 25.484375 -21.046875 
Q 16.21875 -21.046875 10.5 -16.875 
Q 4.78125 -12.703125 4.984375 -4.296875 
z
M 12.25 26.859375 
Q 12.25 16.65625 16.296875 11.96875 
Q 20.359375 7.28125 26.46875 7.28125 
Q 32.515625 7.28125 36.609375 11.9375 
Q 40.71875 16.609375 40.71875 26.5625 
Q 40.71875 36.078125 36.5 40.90625 
Q 32.28125 45.75 26.3125 45.75 
Q 20.453125 45.75 16.34375 40.984375 
Q 12.25 36.234375 12.25 26.859375 
z
" id="ArialMT-103"/>
       <path d="M 6.640625 61.46875 
L 6.640625 71.578125 
L 15.4375 71.578125 
L 15.4375 61.46875 
z
M 6.640625 0 
L 6.640625 51.859375 
L 15.4375 51.859375 
L 15.4375 0 
z
" id="ArialMT-105"/>
       <path d="M 6.59375 0 
L 6.59375 51.859375 
L 14.5 51.859375 
L 14.5 44.484375 
Q 20.21875 53.03125 31 53.03125 
Q 35.6875 53.03125 39.625 51.34375 
Q 43.5625 49.65625 45.515625 46.921875 
Q 47.46875 44.1875 48.25 40.4375 
Q 48.734375 37.984375 48.734375 31.890625 
L 48.734375 0 
L 39.9375 0 
L 39.9375 31.546875 
Q 39.9375 36.921875 38.90625 39.578125 
Q 37.890625 42.234375 35.28125 43.8125 
Q 32.671875 45.40625 29.15625 45.40625 
Q 23.53125 45.40625 19.453125 41.84375 
Q 15.375 38.28125 15.375 28.328125 
L 15.375 0 
z
" id="ArialMT-110"/>
       <path id="ArialMT-32"/>
       <path d="M 25.78125 7.859375 
L 27.046875 0.09375 
Q 23.34375 -0.6875 20.40625 -0.6875 
Q 15.625 -0.6875 12.984375 0.828125 
Q 10.359375 2.34375 9.28125 4.8125 
Q 8.203125 7.28125 8.203125 15.1875 
L 8.203125 45.015625 
L 1.765625 45.015625 
L 1.765625 51.859375 
L 8.203125 51.859375 
L 8.203125 64.703125 
L 16.9375 69.96875 
L 16.9375 51.859375 
L 25.78125 51.859375 
L 25.78125 45.015625 
L 16.9375 45.015625 
L 16.9375 14.703125 
Q 16.9375 10.9375 17.40625 9.859375 
Q 17.875 8.796875 18.921875 8.15625 
Q 19.96875 7.515625 21.921875 7.515625 
Q 23.390625 7.515625 25.78125 7.859375 
z
" id="ArialMT-116"/>
       <path d="M 6.59375 0 
L 6.59375 51.859375 
L 14.453125 51.859375 
L 14.453125 44.578125 
Q 16.890625 48.390625 20.9375 50.703125 
Q 25 53.03125 30.171875 53.03125 
Q 35.9375 53.03125 39.625 50.640625 
Q 43.3125 48.25 44.828125 43.953125 
Q 50.984375 53.03125 60.84375 53.03125 
Q 68.5625 53.03125 72.703125 48.75 
Q 76.859375 44.484375 76.859375 35.59375 
L 76.859375 0 
L 68.109375 0 
L 68.109375 32.671875 
Q 68.109375 37.9375 67.25 40.25 
Q 66.40625 42.578125 64.15625 43.984375 
Q 61.921875 45.40625 58.890625 45.40625 
Q 53.421875 45.40625 49.796875 41.765625 
Q 46.1875 38.140625 46.1875 30.125 
L 46.1875 0 
L 37.40625 0 
L 37.40625 33.6875 
Q 37.40625 39.546875 35.25 42.46875 
Q 33.109375 45.40625 28.21875 45.40625 
Q 24.515625 45.40625 21.359375 43.453125 
Q 18.21875 41.5 16.796875 37.734375 
Q 15.375 33.984375 15.375 26.90625 
L 15.375 0 
z
" id="ArialMT-109"/>
       <path d="M 32.859375 9.96875 
Q 34.1875 7.625 39.453125 7.625 
L 43.75 7.625 
L 42.28125 0 
L 36.921875 0 
Q 28.125 0 25 4.6875 
Q 21.921875 9.46875 23.96875 19.828125 
L 29 45.703125 
L 8.453125 45.703125 
L 10.203125 54.6875 
L 60.640625 54.6875 
L 58.890625 45.703125 
L 38.1875 45.703125 
L 33.015625 19.28125 
Q 31.640625 12.203125 32.859375 9.96875 
z
" id="DejaVuSans-Oblique-964"/>
       <path d="M 23.390625 -21.046875 
Q 16.109375 -11.859375 11.078125 0.4375 
Q 6.0625 12.75 6.0625 25.921875 
Q 6.0625 37.546875 9.8125 48.1875 
Q 14.203125 60.546875 23.390625 72.796875 
L 29.6875 72.796875 
Q 23.78125 62.640625 21.875 58.296875 
Q 18.890625 51.5625 17.1875 44.234375 
Q 15.09375 35.109375 15.09375 25.875 
Q 15.09375 2.390625 29.6875 -21.046875 
z
" id="ArialMT-40"/>
       <path d="M 3.078125 15.484375 
L 11.765625 16.84375 
Q 12.5 11.625 15.84375 8.84375 
Q 19.1875 6.0625 25.203125 6.0625 
Q 31.25 6.0625 34.171875 8.515625 
Q 37.109375 10.984375 37.109375 14.3125 
Q 37.109375 17.28125 34.515625 19 
Q 32.71875 20.171875 25.53125 21.96875 
Q 15.875 24.421875 12.140625 26.203125 
Q 8.40625 27.984375 6.46875 31.125 
Q 4.546875 34.28125 4.546875 38.09375 
Q 4.546875 41.546875 6.125 44.5 
Q 7.71875 47.46875 10.453125 49.421875 
Q 12.5 50.921875 16.03125 51.96875 
Q 19.578125 53.03125 23.640625 53.03125 
Q 29.734375 53.03125 34.34375 51.265625 
Q 38.96875 49.515625 41.15625 46.5 
Q 43.359375 43.5 44.1875 38.484375 
L 35.59375 37.3125 
Q 35.015625 41.3125 32.203125 43.546875 
Q 29.390625 45.796875 24.265625 45.796875 
Q 18.21875 45.796875 15.625 43.796875 
Q 13.03125 41.796875 13.03125 39.109375 
Q 13.03125 37.40625 14.109375 36.03125 
Q 15.1875 34.625 17.484375 33.6875 
Q 18.796875 33.203125 25.25 31.453125 
Q 34.578125 28.953125 38.25 27.359375 
Q 41.9375 25.78125 44.03125 22.75 
Q 46.140625 19.734375 46.140625 15.234375 
Q 46.140625 10.84375 43.578125 6.953125 
Q 41.015625 3.078125 36.171875 0.953125 
Q 31.34375 -1.171875 25.25 -1.171875 
Q 15.140625 -1.171875 9.84375 3.03125 
Q 4.546875 7.234375 3.078125 15.484375 
z
" id="ArialMT-115"/>
       <path d="M 12.359375 -21.046875 
L 6.0625 -21.046875 
Q 20.65625 2.390625 20.65625 25.875 
Q 20.65625 35.0625 18.5625 44.09375 
Q 16.890625 51.421875 13.921875 58.15625 
Q 12.015625 62.546875 6.0625 72.796875 
L 12.359375 72.796875 
Q 21.53125 60.546875 25.921875 48.1875 
Q 29.6875 37.546875 29.6875 25.921875 
Q 29.6875 12.75 24.625 0.4375 
Q 19.578125 -11.859375 12.359375 -21.046875 
z
" id="ArialMT-41"/>
      </defs>
      <use transform="translate(0 0.203125)" xlink:href="#ArialMT-65"/>
      <use transform="translate(66.699219 0.203125)" xlink:href="#ArialMT-118"/>
      <use transform="translate(116.699219 0.203125)" xlink:href="#ArialMT-101"/>
      <use transform="translate(172.314453 0.203125)" xlink:href="#ArialMT-114"/>
      <use transform="translate(205.615234 0.203125)" xlink:href="#ArialMT-97"/>
      <use transform="translate(261.230469 0.203125)" xlink:href="#ArialMT-103"/>
      <use transform="translate(316.845703 0.203125)" xlink:href="#ArialMT-105"/>
      <use transform="translate(339.0625 0.203125)" xlink:href="#ArialMT-110"/>
      <use transform="translate(394.677734 0.203125)" xlink:href="#ArialMT-103"/>
      <use transform="translate(450.292969 0.203125)" xlink:href="#ArialMT-32"/>
      <use transform="translate(478.076172 0.203125)" xlink:href="#ArialMT-116"/>
      <use transform="translate(505.859375 0.203125)" xlink:href="#ArialMT-105"/>
      <use transform="translate(528.076172 0.203125)" xlink:href="#ArialMT-109"/>
      <use transform="translate(611.376953 0.203125)" xlink:href="#ArialMT-101"/>
      <use transform="translate(666.992188 0.203125)" xlink:href="#ArialMT-32"/>
      <use transform="translate(694.775391 0.203125)" xlink:href="#DejaVuSans-Oblique-964"/>
      <use transform="translate(754.980469 0.203125)" xlink:href="#ArialMT-32"/>
      <use transform="translate(782.763672 0.203125)" xlink:href="#ArialMT-40"/>
      <use transform="translate(816.064453 0.203125)" xlink:href="#ArialMT-115"/>
      <use transform="translate(866.064453 0.203125)" xlink:href="#ArialMT-41"/>
     </g>
    </g>
   </g>
   <g id="matplotlib.axis_2">
    <g id="ytick_1">
     <g id="line2d_4">
      <defs>
       <path d="M 0 0 
L -9 0 
" id="m7d7faaa5b3" style="stroke:#262626;stroke-width:1.875;"/>
      </defs>
      <g>
       <use style="fill:#262626;stroke:#262626;stroke-width:1.875;" x="72.831563" xlink:href="#m7d7faaa5b3" y="232.519091"/>
      </g>
     </g>
     <g id="text_5">
      <!-- $\mathdefault{10^{-3}}$ -->
      <g style="fill:#262626;" transform="translate(27.661563 241.026903)scale(0.165 -0.165)">
       <defs>
        <path d="M 4.203125 18.890625 
L 12.984375 20.0625 
Q 14.5 12.59375 18.140625 9.296875 
Q 21.78125 6 27 6 
Q 33.203125 6 37.46875 10.296875 
Q 41.75 14.59375 41.75 20.953125 
Q 41.75 27 37.796875 30.921875 
Q 33.84375 34.859375 27.734375 34.859375 
Q 25.25 34.859375 21.53125 33.890625 
L 22.515625 41.609375 
Q 23.390625 41.5 23.921875 41.5 
Q 29.546875 41.5 34.03125 44.421875 
Q 38.53125 47.359375 38.53125 53.46875 
Q 38.53125 58.296875 35.25 61.46875 
Q 31.984375 64.65625 26.8125 64.65625 
Q 21.6875 64.65625 18.265625 61.421875 
Q 14.84375 58.203125 13.875 51.765625 
L 5.078125 53.328125 
Q 6.6875 62.15625 12.390625 67.015625 
Q 18.109375 71.875 26.609375 71.875 
Q 32.46875 71.875 37.390625 69.359375 
Q 42.328125 66.84375 44.9375 62.5 
Q 47.5625 58.15625 47.5625 53.265625 
Q 47.5625 48.640625 45.0625 44.828125 
Q 42.578125 41.015625 37.703125 38.765625 
Q 44.046875 37.3125 47.5625 32.6875 
Q 51.078125 28.078125 51.078125 21.140625 
Q 51.078125 11.765625 44.234375 5.25 
Q 37.40625 -1.265625 26.953125 -1.265625 
Q 17.53125 -1.265625 11.296875 4.34375 
Q 5.078125 9.96875 4.203125 18.890625 
z
" id="ArialMT-51"/>
       </defs>
       <use transform="translate(0 0.99375)" xlink:href="#ArialMT-49"/>
       <use transform="translate(55.615234 0.99375)" xlink:href="#ArialMT-48"/>
       <use transform="translate(112.972813 70.6875)scale(0.7)" xlink:href="#ArialMT-8722"/>
       <use transform="translate(153.851719 70.6875)scale(0.7)" xlink:href="#ArialMT-51"/>
      </g>
     </g>
    </g>
    <g id="ytick_2">
     <g id="line2d_5">
      <g>
       <use style="fill:#262626;stroke:#262626;stroke-width:1.875;" x="72.831563" xlink:href="#m7d7faaa5b3" y="167.179697"/>
      </g>
     </g>
     <g id="text_6">
      <!-- $\mathdefault{10^{-2}}$ -->
      <g style="fill:#262626;" transform="translate(27.661563 175.687509)scale(0.165 -0.165)">
       <use transform="translate(0 0.99375)" xlink:href="#ArialMT-49"/>
       <use transform="translate(55.615234 0.99375)" xlink:href="#ArialMT-48"/>
       <use transform="translate(112.972813 70.6875)scale(0.7)" xlink:href="#ArialMT-8722"/>
       <use transform="translate(153.851719 70.6875)scale(0.7)" xlink:href="#ArialMT-50"/>
      </g>
     </g>
    </g>
    <g id="ytick_3">
     <g id="line2d_6">
      <g>
       <use style="fill:#262626;stroke:#262626;stroke-width:1.875;" x="72.831563" xlink:href="#m7d7faaa5b3" y="101.840303"/>
      </g>
     </g>
     <g id="text_7">
      <!-- $\mathdefault{10^{-1}}$ -->
      <g style="fill:#262626;" transform="translate(27.661563 110.348116)scale(0.165 -0.165)">
       <use transform="translate(0 0.99375)" xlink:href="#ArialMT-49"/>
       <use transform="translate(55.615234 0.99375)" xlink:href="#ArialMT-48"/>
       <use transform="translate(112.972813 70.6875)scale(0.7)" xlink:href="#ArialMT-8722"/>
       <use transform="translate(153.851719 70.6875)scale(0.7)" xlink:href="#ArialMT-49"/>
      </g>
     </g>
    </g>
    <g id="ytick_4">
     <g id="line2d_7">
      <g>
       <use style="fill:#262626;stroke:#262626;stroke-width:1.875;" x="72.831563" xlink:href="#m7d7faaa5b3" y="36.500909"/>
      </g>
     </g>
     <g id="text_8">
      <!-- $\mathdefault{10^{0}}$ -->
      <g style="fill:#262626;" transform="translate(34.426563 45.008722)scale(0.165 -0.165)">
       <use transform="translate(0 0.99375)" xlink:href="#ArialMT-49"/>
       <use transform="translate(55.615234 0.99375)" xlink:href="#ArialMT-48"/>
       <use transform="translate(112.972813 70.6875)scale(0.7)" xlink:href="#ArialMT-48"/>
      </g>
     </g>
    </g>
    <g id="ytick_5">
     <g id="line2d_8">
      <defs>
       <path d="M 0 0 
L -6 0 
" id="m54be488c27" style="stroke:#262626;stroke-width:1.5;"/>
      </defs>
      <g>
       <use style="fill:#262626;stroke:#262626;stroke-width:1.5;" x="72.831563" xlink:href="#m54be488c27" y="238.851132"/>
      </g>
     </g>
    </g>
    <g id="ytick_6">
     <g id="line2d_9">
      <g>
       <use style="fill:#262626;stroke:#262626;stroke-width:1.5;" x="72.831563" xlink:href="#m54be488c27" y="235.508858"/>
      </g>
     </g>
    </g>
    <g id="ytick_7">
     <g id="line2d_10">
      <g>
       <use style="fill:#262626;stroke:#262626;stroke-width:1.5;" x="72.831563" xlink:href="#m54be488c27" y="212.849973"/>
      </g>
     </g>
    </g>
    <g id="ytick_8">
     <g id="line2d_11">
      <g>
       <use style="fill:#262626;stroke:#262626;stroke-width:1.5;" x="72.831563" xlink:href="#m54be488c27" y="201.344277"/>
      </g>
     </g>
    </g>
    <g id="ytick_9">
     <g id="line2d_12">
      <g>
       <use style="fill:#262626;stroke:#262626;stroke-width:1.5;" x="72.831563" xlink:href="#m54be488c27" y="193.180856"/>
      </g>
     </g>
    </g>
    <g id="ytick_10">
     <g id="line2d_13">
      <g>
       <use style="fill:#262626;stroke:#262626;stroke-width:1.5;" x="72.831563" xlink:href="#m54be488c27" y="186.848814"/>
      </g>
     </g>
    </g>
    <g id="ytick_11">
     <g id="line2d_14">
      <g>
       <use style="fill:#262626;stroke:#262626;stroke-width:1.5;" x="72.831563" xlink:href="#m54be488c27" y="181.67516"/>
      </g>
     </g>
    </g>
    <g id="ytick_12">
     <g id="line2d_15">
      <g>
       <use style="fill:#262626;stroke:#262626;stroke-width:1.5;" x="72.831563" xlink:href="#m54be488c27" y="177.300897"/>
      </g>
     </g>
    </g>
    <g id="ytick_13">
     <g id="line2d_16">
      <g>
       <use style="fill:#262626;stroke:#262626;stroke-width:1.5;" x="72.831563" xlink:href="#m54be488c27" y="173.511738"/>
      </g>
     </g>
    </g>
    <g id="ytick_14">
     <g id="line2d_17">
      <g>
       <use style="fill:#262626;stroke:#262626;stroke-width:1.5;" x="72.831563" xlink:href="#m54be488c27" y="170.169464"/>
      </g>
     </g>
    </g>
    <g id="ytick_15">
     <g id="line2d_18">
      <g>
       <use style="fill:#262626;stroke:#262626;stroke-width:1.5;" x="72.831563" xlink:href="#m54be488c27" y="147.510579"/>
      </g>
     </g>
    </g>
    <g id="ytick_16">
     <g id="line2d_19">
      <g>
       <use style="fill:#262626;stroke:#262626;stroke-width:1.5;" x="72.831563" xlink:href="#m54be488c27" y="136.004883"/>
      </g>
     </g>
    </g>
    <g id="ytick_17">
     <g id="line2d_20">
      <g>
       <use style="fill:#262626;stroke:#262626;stroke-width:1.5;" x="72.831563" xlink:href="#m54be488c27" y="127.841462"/>
      </g>
     </g>
    </g>
    <g id="ytick_18">
     <g id="line2d_21">
      <g>
       <use style="fill:#262626;stroke:#262626;stroke-width:1.5;" x="72.831563" xlink:href="#m54be488c27" y="121.509421"/>
      </g>
     </g>
    </g>
    <g id="ytick_19">
     <g id="line2d_22">
      <g>
       <use style="fill:#262626;stroke:#262626;stroke-width:1.5;" x="72.831563" xlink:href="#m54be488c27" y="116.335766"/>
      </g>
     </g>
    </g>
    <g id="ytick_20">
     <g id="line2d_23">
      <g>
       <use style="fill:#262626;stroke:#262626;stroke-width:1.5;" x="72.831563" xlink:href="#m54be488c27" y="111.961503"/>
      </g>
     </g>
    </g>
    <g id="ytick_21">
     <g id="line2d_24">
      <g>
       <use style="fill:#262626;stroke:#262626;stroke-width:1.5;" x="72.831563" xlink:href="#m54be488c27" y="108.172345"/>
      </g>
     </g>
    </g>
    <g id="ytick_22">
     <g id="line2d_25">
      <g>
       <use style="fill:#262626;stroke:#262626;stroke-width:1.5;" x="72.831563" xlink:href="#m54be488c27" y="104.83007"/>
      </g>
     </g>
    </g>
    <g id="ytick_23">
     <g id="line2d_26">
      <g>
       <use style="fill:#262626;stroke:#262626;stroke-width:1.5;" x="72.831563" xlink:href="#m54be488c27" y="82.171186"/>
      </g>
     </g>
    </g>
    <g id="ytick_24">
     <g id="line2d_27">
      <g>
       <use style="fill:#262626;stroke:#262626;stroke-width:1.5;" x="72.831563" xlink:href="#m54be488c27" y="70.665489"/>
      </g>
     </g>
    </g>
    <g id="ytick_25">
     <g id="line2d_28">
      <g>
       <use style="fill:#262626;stroke:#262626;stroke-width:1.5;" x="72.831563" xlink:href="#m54be488c27" y="62.502068"/>
      </g>
     </g>
    </g>
    <g id="ytick_26">
     <g id="line2d_29">
      <g>
       <use style="fill:#262626;stroke:#262626;stroke-width:1.5;" x="72.831563" xlink:href="#m54be488c27" y="56.170027"/>
      </g>
     </g>
    </g>
    <g id="ytick_27">
     <g id="line2d_30">
      <g>
       <use style="fill:#262626;stroke:#262626;stroke-width:1.5;" x="72.831563" xlink:href="#m54be488c27" y="50.996372"/>
      </g>
     </g>
    </g>
    <g id="ytick_28">
     <g id="line2d_31">
      <g>
       <use style="fill:#262626;stroke:#262626;stroke-width:1.5;" x="72.831563" xlink:href="#m54be488c27" y="46.622109"/>
      </g>
     </g>
    </g>
    <g id="ytick_29">
     <g id="line2d_32">
      <g>
       <use style="fill:#262626;stroke:#262626;stroke-width:1.5;" x="72.831563" xlink:href="#m54be488c27" y="42.832951"/>
      </g>
     </g>
    </g>
    <g id="ytick_30">
     <g id="line2d_33">
      <g>
       <use style="fill:#262626;stroke:#262626;stroke-width:1.5;" x="72.831563" xlink:href="#m54be488c27" y="39.490676"/>
      </g>
     </g>
    </g>
    <g id="text_9">
     <!-- Standard deviation $\sigma_{C}$ -->
     <g style="fill:#262626;" transform="translate(20.084062 222.44)rotate(-90)scale(0.18 -0.18)">
      <defs>
       <path d="M 4.5 23 
L 13.421875 23.78125 
Q 14.0625 18.40625 16.375 14.96875 
Q 18.703125 11.53125 23.578125 9.40625 
Q 28.46875 7.28125 34.578125 7.28125 
Q 39.984375 7.28125 44.140625 8.890625 
Q 48.296875 10.5 50.3125 13.296875 
Q 52.34375 16.109375 52.34375 19.4375 
Q 52.34375 22.796875 50.390625 25.3125 
Q 48.4375 27.828125 43.953125 29.546875 
Q 41.0625 30.671875 31.203125 33.03125 
Q 21.34375 35.40625 17.390625 37.5 
Q 12.25 40.1875 9.734375 44.15625 
Q 7.234375 48.140625 7.234375 53.078125 
Q 7.234375 58.5 10.296875 63.203125 
Q 13.375 67.921875 19.28125 70.359375 
Q 25.203125 72.796875 32.421875 72.796875 
Q 40.375 72.796875 46.453125 70.234375 
Q 52.546875 67.671875 55.8125 62.6875 
Q 59.078125 57.71875 59.328125 51.421875 
L 50.25 50.734375 
Q 49.515625 57.515625 45.28125 60.984375 
Q 41.0625 64.453125 32.8125 64.453125 
Q 24.21875 64.453125 20.28125 61.296875 
Q 16.359375 58.15625 16.359375 53.71875 
Q 16.359375 49.859375 19.140625 47.359375 
Q 21.875 44.875 33.421875 42.265625 
Q 44.96875 39.65625 49.265625 37.703125 
Q 55.515625 34.8125 58.484375 30.390625 
Q 61.46875 25.984375 61.46875 20.21875 
Q 61.46875 14.5 58.203125 9.4375 
Q 54.9375 4.390625 48.796875 1.578125 
Q 42.671875 -1.21875 35.015625 -1.21875 
Q 25.296875 -1.21875 18.71875 1.609375 
Q 12.15625 4.4375 8.421875 10.125 
Q 4.6875 15.828125 4.5 23 
z
" id="ArialMT-83"/>
       <path d="M 40.234375 0 
L 40.234375 6.546875 
Q 35.296875 -1.171875 25.734375 -1.171875 
Q 19.53125 -1.171875 14.328125 2.25 
Q 9.125 5.671875 6.265625 11.796875 
Q 3.421875 17.921875 3.421875 25.875 
Q 3.421875 33.640625 6 39.96875 
Q 8.59375 46.296875 13.765625 49.65625 
Q 18.953125 53.03125 25.34375 53.03125 
Q 30.03125 53.03125 33.6875 51.046875 
Q 37.359375 49.078125 39.65625 45.90625 
L 39.65625 71.578125 
L 48.390625 71.578125 
L 48.390625 0 
z
M 12.453125 25.875 
Q 12.453125 15.921875 16.640625 10.984375 
Q 20.84375 6.0625 26.5625 6.0625 
Q 32.328125 6.0625 36.34375 10.765625 
Q 40.375 15.484375 40.375 25.140625 
Q 40.375 35.796875 36.265625 40.765625 
Q 32.171875 45.75 26.171875 45.75 
Q 20.3125 45.75 16.375 40.96875 
Q 12.453125 36.1875 12.453125 25.875 
z
" id="ArialMT-100"/>
       <path d="M 3.328125 25.921875 
Q 3.328125 40.328125 11.328125 47.265625 
Q 18.015625 53.03125 27.640625 53.03125 
Q 38.328125 53.03125 45.109375 46.015625 
Q 51.90625 39.015625 51.90625 26.65625 
Q 51.90625 16.65625 48.90625 10.90625 
Q 45.90625 5.171875 40.15625 2 
Q 34.421875 -1.171875 27.640625 -1.171875 
Q 16.75 -1.171875 10.03125 5.8125 
Q 3.328125 12.796875 3.328125 25.921875 
z
M 12.359375 25.921875 
Q 12.359375 15.96875 16.703125 11.015625 
Q 21.046875 6.0625 27.640625 6.0625 
Q 34.1875 6.0625 38.53125 11.03125 
Q 42.875 16.015625 42.875 26.21875 
Q 42.875 35.84375 38.5 40.796875 
Q 34.125 45.75 27.640625 45.75 
Q 21.046875 45.75 16.703125 40.8125 
Q 12.359375 35.890625 12.359375 25.921875 
z
" id="ArialMT-111"/>
       <path d="M 34.671875 47.5625 
Q 27.25 47.5625 22.21875 42.1875 
Q 16.890625 36.578125 15.140625 27.296875 
Q 13.1875 17.484375 16.3125 11.8125 
Q 19.390625 6.203125 26.65625 6.203125 
Q 33.84375 6.203125 39.109375 11.859375 
Q 44.4375 17.53125 46.34375 27.296875 
Q 48.046875 36.234375 45.015625 42.1875 
Q 42.1875 47.5625 34.671875 47.5625 
z
M 36.078125 54.734375 
L 65.921875 54.6875 
L 64.15625 45.703125 
L 54.109375 45.703125 
Q 57.90625 38.09375 55.859375 27.296875 
Q 53.21875 13.875 45.0625 6.25 
Q 36.859375 -1.421875 25.140625 -1.421875 
Q 13.375 -1.421875 8.203125 6.25 
Q 3.03125 13.875 5.671875 27.296875 
Q 8.25 40.765625 16.40625 48.390625 
Q 23.1875 54.734375 36.078125 54.734375 
z
" id="DejaVuSans-Oblique-963"/>
       <path d="M 69.484375 67.28125 
L 67.484375 56.890625 
Q 62.796875 61.625 57.546875 63.921875 
Q 52.296875 66.21875 46.1875 66.21875 
Q 37.84375 66.21875 31.515625 62.203125 
Q 25.203125 58.203125 20.609375 50 
Q 17.671875 44.734375 16.125 38.84375 
Q 14.59375 32.953125 14.59375 27 
Q 14.59375 17.046875 19.75 11.8125 
Q 24.90625 6.59375 34.71875 6.59375 
Q 41.5 6.59375 47.75 8.765625 
Q 54 10.9375 59.90625 15.28125 
L 57.625 3.609375 
Q 51.8125 1.125 45.875 -0.140625 
Q 39.9375 -1.421875 33.984375 -1.421875 
Q 19.96875 -1.421875 12.078125 6.1875 
Q 4.203125 13.8125 4.203125 27.390625 
Q 4.203125 36.078125 7.203125 44.46875 
Q 10.203125 52.875 15.828125 59.8125 
Q 21.78125 67.1875 29.421875 70.703125 
Q 37.0625 74.21875 47.21875 74.21875 
Q 53.46875 74.21875 59.0625 72.484375 
Q 64.65625 70.75 69.484375 67.28125 
z
" id="DejaVuSans-Oblique-67"/>
      </defs>
      <use transform="translate(0 0.203125)" xlink:href="#ArialMT-83"/>
      <use transform="translate(66.699219 0.203125)" xlink:href="#ArialMT-116"/>
      <use transform="translate(94.482422 0.203125)" xlink:href="#ArialMT-97"/>
      <use transform="translate(150.097656 0.203125)" xlink:href="#ArialMT-110"/>
      <use transform="translate(205.712891 0.203125)" xlink:href="#ArialMT-100"/>
      <use transform="translate(261.328125 0.203125)" xlink:href="#ArialMT-97"/>
      <use transform="translate(316.943359 0.203125)" xlink:href="#ArialMT-114"/>
      <use transform="translate(350.244141 0.203125)" xlink:href="#ArialMT-100"/>
      <use transform="translate(405.859375 0.203125)" xlink:href="#ArialMT-32"/>
      <use transform="translate(433.642578 0.203125)" xlink:href="#ArialMT-100"/>
      <use transform="translate(489.257812 0.203125)" xlink:href="#ArialMT-101"/>
      <use transform="translate(544.873047 0.203125)" xlink:href="#ArialMT-118"/>
      <use transform="translate(594.873047 0.203125)" xlink:href="#ArialMT-105"/>
      <use transform="translate(617.089844 0.203125)" xlink:href="#ArialMT-97"/>
      <use transform="translate(672.705078 0.203125)" xlink:href="#ArialMT-116"/>
      <use transform="translate(700.488281 0.203125)" xlink:href="#ArialMT-105"/>
      <use transform="translate(722.705078 0.203125)" xlink:href="#ArialMT-111"/>
      <use transform="translate(778.320312 0.203125)" xlink:href="#ArialMT-110"/>
      <use transform="translate(833.935547 0.203125)" xlink:href="#ArialMT-32"/>
      <use transform="translate(861.71875 0.203125)" xlink:href="#DejaVuSans-Oblique-963"/>
      <use transform="translate(925.097656 -16.203125)scale(0.7)" xlink:href="#DejaVuSans-Oblique-67"/>
     </g>
    </g>
   </g>
   <g id="line2d_34">
    <path clip-path="url(#pb6585d54ce)" d="M 87.828608 81.672495 
L 145.509552 81.801514 
L 166.274692 82.048445 
L 180.118118 82.42512 
L 189.347069 82.860315 
L 198.576021 83.535943 
L 205.497734 84.271139 
L 212.419447 85.274592 
L 217.033923 86.131058 
L 221.648398 87.166776 
L 226.262874 88.406557 
L 230.877349 89.872206 
L 235.491825 91.579104 
L 240.1063 93.53253 
L 244.720776 95.724846 
L 249.335251 98.1351 
L 256.256965 102.089554 
L 263.178678 106.346495 
L 272.407629 112.327317 
L 283.943818 120.094485 
L 300.094482 131.251033 
L 327.781335 150.687492 
L 387.769517 193.105812 
L 387.769517 193.105812 
" style="fill:none;stroke:#4c72b0;stroke-linecap:round;stroke-width:2.25;"/>
   </g>
   <g id="line2d_35">
    <path clip-path="url(#pb6585d54ce)" d="M 87.828608 67.600337 
L 168.58193 67.720546 
L 193.961545 67.958313 
L 210.112209 68.284866 
L 221.648398 68.69577 
L 230.877349 69.211431 
L 237.799063 69.761061 
L 244.720776 70.502715 
L 251.642489 71.496755 
L 256.256965 72.335242 
L 260.87144 73.342229 
L 265.485916 74.542319 
L 270.100391 75.958332 
L 274.714867 77.608064 
L 279.329342 79.500519 
L 283.943818 81.632594 
L 288.558293 83.987719 
L 293.172769 86.537803 
L 300.094482 90.653125 
L 307.016195 95.019257 
L 316.245146 101.091396 
L 330.088573 110.510001 
L 350.853713 124.968925 
L 387.769517 150.993873 
L 387.769517 150.993873 
" style="fill:none;stroke:#dd8452;stroke-linecap:round;stroke-width:2.25;"/>
   </g>
   <g id="line2d_36">
    <path clip-path="url(#pb6585d54ce)" d="M 87.828608 62.376859 
L 203.190496 62.487126 
L 228.570111 62.710534 
L 247.028014 63.088443 
L 260.87144 63.569406 
L 272.407629 64.167079 
L 281.63658 64.852801 
L 288.558293 65.554468 
L 295.480007 66.484988 
L 300.094482 67.269853 
L 304.708958 68.215598 
L 309.323433 69.34815 
L 313.937909 70.691955 
L 318.552384 72.266997 
L 323.16686 74.085182 
L 327.781335 76.146866 
L 332.395811 78.438887 
L 337.010286 80.935606 
L 343.932 84.990407 
L 350.853713 89.31576 
L 360.082664 95.353759 
L 373.92609 104.744981 
L 387.769517 114.344927 
L 387.769517 114.344927 
" style="fill:none;stroke:#55a868;stroke-linecap:round;stroke-width:2.25;"/>
   </g>
   <g id="line2d_37">
    <path clip-path="url(#pb6585d54ce)" d="M 87.828608 60.414262 
L 120.129937 60.432254 
L 235.491825 60.610099 
L 279.329342 61.027886 
L 304.708958 61.394567 
L 318.552384 61.797599 
L 327.781335 62.248323 
L 337.010286 62.941134 
L 343.932 63.691916 
L 350.853713 64.714422 
L 355.468188 65.585914 
L 360.082664 66.638636 
L 364.697139 67.897291 
L 369.311615 69.383309 
L 373.92609 71.111376 
L 378.540566 73.085779 
L 383.155042 75.297738 
L 387.769517 77.725273 
L 387.769517 77.725273 
" style="fill:none;stroke:#c44e52;stroke-linecap:round;stroke-width:2.25;"/>
   </g>
   <g id="line2d_38">
    <path clip-path="url(#pb6585d54ce)" d="M 230.367027 232.519091 
L 230.367027 36.500909 
" style="fill:none;stroke:#4c72b0;stroke-dasharray:2.25,3.7125;stroke-dashoffset:0;stroke-width:2.25;"/>
   </g>
   <g id="line2d_39">
    <path clip-path="url(#pb6585d54ce)" d="M 98.065764 81.677631 
L 147.951986 81.819187 
L 168.183621 82.0865 
L 181.209467 82.467064 
L 191.186712 82.972553 
L 199.223936 83.595271 
L 206.152578 84.353437 
L 212.249783 85.246189 
L 217.792697 86.288373 
L 222.781319 87.451347 
L 227.492795 88.774347 
L 231.927126 90.238944 
L 236.361457 91.928432 
L 240.795788 93.845288 
L 245.507264 96.120999 
L 250.773032 98.925889 
L 256.593092 102.290201 
L 263.521733 106.563462 
L 272.113249 112.132634 
L 283.476222 119.775412 
L 299.827817 131.065214 
L 326.710948 149.932702 
L 374.934296 184.021166 
L 374.934296 184.021166 
" style="fill:none;stroke:#1a1a1a;stroke-dasharray:2.25,3.7125;stroke-dashoffset:0;stroke-width:2.25;"/>
   </g>
   <g id="line2d_40">
    <path clip-path="url(#pb6585d54ce)" d="M 270.00509 232.519091 
L 270.00509 36.500909 
" style="fill:none;stroke:#dd8452;stroke-dasharray:2.25,3.7125;stroke-dashoffset:0;stroke-width:2.25;"/>
   </g>
   <g id="line2d_41">
    <path clip-path="url(#pb6585d54ce)" d="M 98.065764 67.599679 
L 182.595196 67.718311 
L 204.76685 67.960373 
L 218.901279 68.326893 
L 229.155669 68.803424 
L 237.47004 69.403093 
L 244.398682 70.114473 
L 250.495887 70.953978 
L 256.0388 71.93661 
L 261.027422 73.036565 
L 265.738899 74.292422 
L 270.450375 75.783011 
L 274.884706 77.415317 
L 279.319037 79.275379 
L 284.030514 81.494454 
L 289.019136 84.09314 
L 294.562049 87.234069 
L 301.213546 91.272377 
L 309.25077 96.421173 
L 319.782306 103.443823 
L 334.471027 113.525925 
L 357.474118 129.614997 
L 374.934296 141.923789 
L 374.934296 141.923789 
" style="fill:none;stroke:#1a1a1a;stroke-dasharray:2.25,3.7125;stroke-dashoffset:0;stroke-width:2.25;"/>
   </g>
   <g id="line2d_42">
    <path clip-path="url(#pb6585d54ce)" d="M 314.646384 232.519091 
L 314.646384 36.500909 
" style="fill:none;stroke:#55a868;stroke-dasharray:2.25,3.7125;stroke-dashoffset:0;stroke-width:2.25;"/>
   </g>
   <g id="line2d_43">
    <path clip-path="url(#pb6585d54ce)" d="M 98.065764 62.376099 
L 225.829921 62.488171 
L 248.833013 62.728187 
L 262.967442 63.084535 
L 273.498978 63.564016 
L 281.813348 64.155314 
L 289.019136 64.889983 
L 295.116341 65.728712 
L 300.659254 66.710473 
L 305.647876 67.809503 
L 310.359353 69.06437 
L 315.070829 70.553879 
L 319.50516 72.185117 
L 323.939491 74.044114 
L 328.650968 76.262119 
L 333.63959 78.859805 
L 339.182503 81.999838 
L 345.834 86.037365 
L 353.871224 91.185544 
L 364.40276 98.207716 
L 374.934296 105.413383 
L 374.934296 105.413383 
" style="fill:none;stroke:#1a1a1a;stroke-dasharray:2.25,3.7125;stroke-dashoffset:0;stroke-width:2.25;"/>
   </g>
   <g id="line2d_44">
    <path clip-path="url(#pb6585d54ce)" d="M 367.552152 232.519091 
L 367.552152 36.500909 
" style="fill:none;stroke:#c44e52;stroke-dasharray:2.25,3.7125;stroke-dashoffset:0;stroke-width:2.25;"/>
   </g>
   <g id="line2d_45">
    <path clip-path="url(#pb6585d54ce)" d="M 98.065764 60.434415 
L 231.927126 60.44545 
L 284.584805 60.584782 
L 304.816439 60.844901 
L 318.119432 61.22606 
L 328.096676 61.724914 
L 336.133901 62.339638 
L 343.062543 63.088342 
L 349.159748 63.970346 
L 354.702661 65.000538 
L 359.691283 66.150861 
L 364.40276 67.46043 
L 369.114236 69.00943 
L 373.548567 70.69902 
L 374.934296 71.273826 
L 374.934296 71.273826 
" style="fill:none;stroke:#1a1a1a;stroke-dasharray:2.25,3.7125;stroke-dashoffset:0;stroke-width:2.25;"/>
   </g>
   <g id="patch_3">
    <path d="M 72.831563 242.32 
L 72.831563 26.7 
" style="fill:none;stroke:#262626;stroke-linecap:square;stroke-linejoin:miter;stroke-width:1.875;"/>
   </g>
   <g id="patch_4">
    <path d="M 402.766563 242.32 
L 402.766563 26.7 
" style="fill:none;stroke:#262626;stroke-linecap:square;stroke-linejoin:miter;stroke-width:1.875;"/>
   </g>
   <g id="patch_5">
    <path d="M 72.831563 242.32 
L 402.766563 242.32 
" style="fill:none;stroke:#262626;stroke-linecap:square;stroke-linejoin:miter;stroke-width:1.875;"/>
   </g>
   <g id="patch_6">
    <path d="M 72.831563 26.7 
L 402.766563 26.7 
" style="fill:none;stroke:#262626;stroke-linecap:square;stroke-linejoin:miter;stroke-width:1.875;"/>
   </g>
   <g id="text_10">
    <!-- $\mu=-14.0$ -->
    <g style="fill:#262626;" transform="translate(189.919063 20.7)scale(0.18 -0.18)">
     <defs>
      <path d="M -1.3125 -20.796875 
L 13.375 54.6875 
L 22.40625 54.6875 
L 15.765625 20.65625 
Q 15.578125 19.625 15.421875 18.359375 
Q 15.28125 17.09375 15.28125 15.828125 
Q 15.28125 11.28125 18.140625 8.828125 
Q 21 6.390625 26.3125 6.390625 
Q 33.546875 6.390625 37.984375 10.484375 
Q 42.4375 14.59375 44 22.796875 
L 50.203125 54.6875 
L 59.1875 54.6875 
L 51.03125 12.640625 
Q 50.828125 11.71875 50.75 11.03125 
Q 50.6875 10.359375 50.6875 9.8125 
Q 50.6875 8.296875 51.296875 7.59375 
Q 51.90625 6.890625 53.21875 6.890625 
Q 53.71875 6.890625 54.5625 7.125 
Q 55.421875 7.375 56.984375 8.015625 
L 55.609375 0.78125 
Q 53.46875 -0.296875 51.515625 -0.859375 
Q 49.5625 -1.421875 47.703125 -1.421875 
Q 44.484375 -1.421875 42.65625 0.625 
Q 40.828125 2.6875 40.828125 6.296875 
Q 38.09375 2.390625 34.296875 0.484375 
Q 30.515625 -1.421875 25.390625 -1.421875 
Q 20.84375 -1.421875 17.453125 0.671875 
Q 14.0625 2.78125 12.984375 6.203125 
L 7.71875 -20.796875 
z
" id="DejaVuSans-Oblique-956"/>
      <path d="M 10.59375 45.40625 
L 73.1875 45.40625 
L 73.1875 37.203125 
L 10.59375 37.203125 
z
M 10.59375 25.484375 
L 73.1875 25.484375 
L 73.1875 17.1875 
L 10.59375 17.1875 
z
" id="DejaVuSans-61"/>
      <path d="M 10.59375 35.5 
L 73.1875 35.5 
L 73.1875 27.203125 
L 10.59375 27.203125 
z
" id="DejaVuSans-8722"/>
      <path d="M 12.40625 8.296875 
L 28.515625 8.296875 
L 28.515625 63.921875 
L 10.984375 60.40625 
L 10.984375 69.390625 
L 28.421875 72.90625 
L 38.28125 72.90625 
L 38.28125 8.296875 
L 54.390625 8.296875 
L 54.390625 0 
L 12.40625 0 
z
" id="DejaVuSans-49"/>
      <path d="M 37.796875 64.3125 
L 12.890625 25.390625 
L 37.796875 25.390625 
z
M 35.203125 72.90625 
L 47.609375 72.90625 
L 47.609375 25.390625 
L 58.015625 25.390625 
L 58.015625 17.1875 
L 47.609375 17.1875 
L 47.609375 0 
L 37.796875 0 
L 37.796875 17.1875 
L 4.890625 17.1875 
L 4.890625 26.703125 
z
" id="DejaVuSans-52"/>
      <path d="M 10.6875 12.40625 
L 21 12.40625 
L 21 0 
L 10.6875 0 
z
" id="DejaVuSans-46"/>
      <path d="M 31.78125 66.40625 
Q 24.171875 66.40625 20.328125 58.90625 
Q 16.5 51.421875 16.5 36.375 
Q 16.5 21.390625 20.328125 13.890625 
Q 24.171875 6.390625 31.78125 6.390625 
Q 39.453125 6.390625 43.28125 13.890625 
Q 47.125 21.390625 47.125 36.375 
Q 47.125 51.421875 43.28125 58.90625 
Q 39.453125 66.40625 31.78125 66.40625 
z
M 31.78125 74.21875 
Q 44.046875 74.21875 50.515625 64.515625 
Q 56.984375 54.828125 56.984375 36.375 
Q 56.984375 17.96875 50.515625 8.265625 
Q 44.046875 -1.421875 31.78125 -1.421875 
Q 19.53125 -1.421875 13.0625 8.265625 
Q 6.59375 17.96875 6.59375 36.375 
Q 6.59375 54.828125 13.0625 64.515625 
Q 19.53125 74.21875 31.78125 74.21875 
z
" id="DejaVuSans-48"/>
     </defs>
     <use transform="translate(0 0.78125)" xlink:href="#DejaVuSans-Oblique-956"/>
     <use transform="translate(83.105469 0.78125)" xlink:href="#DejaVuSans-61"/>
     <use transform="translate(205.859375 0.78125)" xlink:href="#DejaVuSans-8722"/>
     <use transform="translate(309.130859 0.78125)" xlink:href="#DejaVuSans-49"/>
     <use transform="translate(372.753906 0.78125)" xlink:href="#DejaVuSans-52"/>
     <use transform="translate(436.376953 0.78125)" xlink:href="#DejaVuSans-46"/>
     <use transform="translate(468.164062 0.78125)" xlink:href="#DejaVuSans-48"/>
    </g>
   </g>
   <g id="legend_1">
    <g id="patch_7">
     <path d="M 84.381563 234.07 
L 199.056562 234.07 
Q 202.356562 234.07 202.356562 230.77 
L 202.356562 136.06 
Q 202.356562 132.76 199.056562 132.76 
L 84.381563 132.76 
Q 81.081563 132.76 81.081563 136.06 
L 81.081563 230.77 
Q 81.081563 234.07 84.381563 234.07 
z
" style="fill:#ffffff;opacity:0.8;stroke:#cccccc;stroke-linejoin:miter;stroke-width:1.5;"/>
    </g>
    <g id="line2d_46">
     <path d="M 87.681562 145.96 
L 120.681562 145.96 
" style="fill:none;stroke:#4c72b0;stroke-linecap:round;stroke-width:2.25;"/>
    </g>
    <g id="line2d_47"/>
    <g id="text_11">
     <!-- $J=0.0$ -->
     <g style="fill:#262626;" transform="translate(133.881563 151.735)scale(0.165 -0.165)">
      <defs>
       <path d="M 16.703125 72.90625 
L 26.609375 72.90625 
L 13.375 5.078125 
Q 10.796875 -8.15625 4.65625 -14.078125 
Q -1.46875 -20.015625 -12.5 -20.015625 
L -16.40625 -20.015625 
L -14.796875 -11.71875 
L -11.71875 -11.71875 
Q -5.125 -11.71875 -1.703125 -7.953125 
Q 1.703125 -4.203125 3.515625 5.078125 
z
" id="DejaVuSans-Oblique-74"/>
      </defs>
      <use transform="translate(0 0.78125)" xlink:href="#DejaVuSans-Oblique-74"/>
      <use transform="translate(48.974609 0.78125)" xlink:href="#DejaVuSans-61"/>
      <use transform="translate(152.246094 0.78125)" xlink:href="#DejaVuSans-48"/>
      <use transform="translate(215.869141 0.78125)" xlink:href="#DejaVuSans-46"/>
      <use transform="translate(247.65625 0.78125)" xlink:href="#DejaVuSans-48"/>
     </g>
    </g>
    <g id="line2d_48">
     <path d="M 87.681562 170.05 
L 120.681562 170.05 
" style="fill:none;stroke:#dd8452;stroke-linecap:round;stroke-width:2.25;"/>
    </g>
    <g id="line2d_49"/>
    <g id="text_12">
     <!-- $J=3.5$ -->
     <g style="fill:#262626;" transform="translate(133.881563 175.825)scale(0.165 -0.165)">
      <defs>
       <path d="M 40.578125 39.3125 
Q 47.65625 37.796875 51.625 33 
Q 55.609375 28.21875 55.609375 21.1875 
Q 55.609375 10.40625 48.1875 4.484375 
Q 40.765625 -1.421875 27.09375 -1.421875 
Q 22.515625 -1.421875 17.65625 -0.515625 
Q 12.796875 0.390625 7.625 2.203125 
L 7.625 11.71875 
Q 11.71875 9.328125 16.59375 8.109375 
Q 21.484375 6.890625 26.8125 6.890625 
Q 36.078125 6.890625 40.9375 10.546875 
Q 45.796875 14.203125 45.796875 21.1875 
Q 45.796875 27.640625 41.28125 31.265625 
Q 36.765625 34.90625 28.71875 34.90625 
L 20.21875 34.90625 
L 20.21875 43.015625 
L 29.109375 43.015625 
Q 36.375 43.015625 40.234375 45.921875 
Q 44.09375 48.828125 44.09375 54.296875 
Q 44.09375 59.90625 40.109375 62.90625 
Q 36.140625 65.921875 28.71875 65.921875 
Q 24.65625 65.921875 20.015625 65.03125 
Q 15.375 64.15625 9.8125 62.3125 
L 9.8125 71.09375 
Q 15.4375 72.65625 20.34375 73.4375 
Q 25.25 74.21875 29.59375 74.21875 
Q 40.828125 74.21875 47.359375 69.109375 
Q 53.90625 64.015625 53.90625 55.328125 
Q 53.90625 49.265625 50.4375 45.09375 
Q 46.96875 40.921875 40.578125 39.3125 
z
" id="DejaVuSans-51"/>
       <path d="M 10.796875 72.90625 
L 49.515625 72.90625 
L 49.515625 64.59375 
L 19.828125 64.59375 
L 19.828125 46.734375 
Q 21.96875 47.46875 24.109375 47.828125 
Q 26.265625 48.1875 28.421875 48.1875 
Q 40.625 48.1875 47.75 41.5 
Q 54.890625 34.8125 54.890625 23.390625 
Q 54.890625 11.625 47.5625 5.09375 
Q 40.234375 -1.421875 26.90625 -1.421875 
Q 22.3125 -1.421875 17.546875 -0.640625 
Q 12.796875 0.140625 7.71875 1.703125 
L 7.71875 11.625 
Q 12.109375 9.234375 16.796875 8.0625 
Q 21.484375 6.890625 26.703125 6.890625 
Q 35.15625 6.890625 40.078125 11.328125 
Q 45.015625 15.765625 45.015625 23.390625 
Q 45.015625 31 40.078125 35.4375 
Q 35.15625 39.890625 26.703125 39.890625 
Q 22.75 39.890625 18.8125 39.015625 
Q 14.890625 38.140625 10.796875 36.28125 
z
" id="DejaVuSans-53"/>
      </defs>
      <use transform="translate(0 0.78125)" xlink:href="#DejaVuSans-Oblique-74"/>
      <use transform="translate(48.974609 0.78125)" xlink:href="#DejaVuSans-61"/>
      <use transform="translate(152.246094 0.78125)" xlink:href="#DejaVuSans-51"/>
      <use transform="translate(215.869141 0.78125)" xlink:href="#DejaVuSans-46"/>
      <use transform="translate(247.65625 0.78125)" xlink:href="#DejaVuSans-53"/>
     </g>
    </g>
    <g id="line2d_50">
     <path d="M 87.681562 194.14 
L 120.681562 194.14 
" style="fill:none;stroke:#55a868;stroke-linecap:round;stroke-width:2.25;"/>
    </g>
    <g id="line2d_51"/>
    <g id="text_13">
     <!-- $J=7.0$ -->
     <g style="fill:#262626;" transform="translate(133.881563 199.915)scale(0.165 -0.165)">
      <defs>
       <path d="M 8.203125 72.90625 
L 55.078125 72.90625 
L 55.078125 68.703125 
L 28.609375 0 
L 18.3125 0 
L 43.21875 64.59375 
L 8.203125 64.59375 
z
" id="DejaVuSans-55"/>
      </defs>
      <use transform="translate(0 0.78125)" xlink:href="#DejaVuSans-Oblique-74"/>
      <use transform="translate(48.974609 0.78125)" xlink:href="#DejaVuSans-61"/>
      <use transform="translate(152.246094 0.78125)" xlink:href="#DejaVuSans-55"/>
      <use transform="translate(215.869141 0.78125)" xlink:href="#DejaVuSans-46"/>
      <use transform="translate(247.65625 0.78125)" xlink:href="#DejaVuSans-48"/>
     </g>
    </g>
    <g id="line2d_52">
     <path d="M 87.681562 218.23 
L 120.681562 218.23 
" style="fill:none;stroke:#c44e52;stroke-linecap:round;stroke-width:2.25;"/>
    </g>
    <g id="line2d_53"/>
    <g id="text_14">
     <!-- $J=10.5$ -->
     <g style="fill:#262626;" transform="translate(133.881563 224.005)scale(0.165 -0.165)">
      <use transform="translate(0 0.78125)" xlink:href="#DejaVuSans-Oblique-74"/>
      <use transform="translate(48.974609 0.78125)" xlink:href="#DejaVuSans-61"/>
      <use transform="translate(152.246094 0.78125)" xlink:href="#DejaVuSans-49"/>
      <use transform="translate(215.869141 0.78125)" xlink:href="#DejaVuSans-48"/>
      <use transform="translate(279.492188 0.78125)" xlink:href="#DejaVuSans-46"/>
      <use transform="translate(311.279297 0.78125)" xlink:href="#DejaVuSans-53"/>
     </g>
    </g>
   </g>
  </g>
  <g id="axes_2">
   <g id="patch_8">
    <path d="M 521.391562 242.32 
L 851.326562 242.32 
L 851.326562 26.7 
L 521.391562 26.7 
z
" style="fill:#ffffff;"/>
   </g>
   <g id="matplotlib.axis_3">
    <g id="xtick_4">
     <g id="line2d_54">
      <g>
       <use style="fill:#262626;stroke:#262626;stroke-width:1.875;" x="592.770519" xlink:href="#m1927db45ef" y="242.32"/>
      </g>
     </g>
     <g id="text_15">
      <!-- $\mathdefault{10^{-2}}$ -->
      <g style="fill:#262626;" transform="translate(576.435519 271.835625)scale(0.165 -0.165)">
       <use transform="translate(0 0.99375)" xlink:href="#ArialMT-49"/>
       <use transform="translate(55.615234 0.99375)" xlink:href="#ArialMT-48"/>
       <use transform="translate(112.972813 70.6875)scale(0.7)" xlink:href="#ArialMT-8722"/>
       <use transform="translate(153.851719 70.6875)scale(0.7)" xlink:href="#ArialMT-50"/>
      </g>
     </g>
    </g>
    <g id="xtick_5">
     <g id="line2d_55">
      <g>
       <use style="fill:#262626;stroke:#262626;stroke-width:1.875;" x="685.06003" xlink:href="#m1927db45ef" y="242.32"/>
      </g>
     </g>
     <g id="text_16">
      <!-- $\mathdefault{10^{0}}$ -->
      <g style="fill:#262626;" transform="translate(672.10753 271.835625)scale(0.165 -0.165)">
       <use transform="translate(0 0.99375)" xlink:href="#ArialMT-49"/>
       <use transform="translate(55.615234 0.99375)" xlink:href="#ArialMT-48"/>
       <use transform="translate(112.972813 70.6875)scale(0.7)" xlink:href="#ArialMT-48"/>
      </g>
     </g>
    </g>
    <g id="xtick_6">
     <g id="line2d_56">
      <g>
       <use style="fill:#262626;stroke:#262626;stroke-width:1.875;" x="777.34954" xlink:href="#m1927db45ef" y="242.32"/>
      </g>
     </g>
     <g id="text_17">
      <!-- $\mathdefault{10^{2}}$ -->
      <g style="fill:#262626;" transform="translate(764.39704 271.835625)scale(0.165 -0.165)">
       <use transform="translate(0 0.99375)" xlink:href="#ArialMT-49"/>
       <use transform="translate(55.615234 0.99375)" xlink:href="#ArialMT-48"/>
       <use transform="translate(112.972813 70.6875)scale(0.7)" xlink:href="#ArialMT-50"/>
      </g>
     </g>
    </g>
    <g id="text_18">
     <!-- Averaging time $\tau$ (s) -->
     <g style="fill:#262626;" transform="translate(605.359062 292.255)scale(0.18 -0.18)">
      <use transform="translate(0 0.203125)" xlink:href="#ArialMT-65"/>
      <use transform="translate(66.699219 0.203125)" xlink:href="#ArialMT-118"/>
      <use transform="translate(116.699219 0.203125)" xlink:href="#ArialMT-101"/>
      <use transform="translate(172.314453 0.203125)" xlink:href="#ArialMT-114"/>
      <use transform="translate(205.615234 0.203125)" xlink:href="#ArialMT-97"/>
      <use transform="translate(261.230469 0.203125)" xlink:href="#ArialMT-103"/>
      <use transform="translate(316.845703 0.203125)" xlink:href="#ArialMT-105"/>
      <use transform="translate(339.0625 0.203125)" xlink:href="#ArialMT-110"/>
      <use transform="translate(394.677734 0.203125)" xlink:href="#ArialMT-103"/>
      <use transform="translate(450.292969 0.203125)" xlink:href="#ArialMT-32"/>
      <use transform="translate(478.076172 0.203125)" xlink:href="#ArialMT-116"/>
      <use transform="translate(505.859375 0.203125)" xlink:href="#ArialMT-105"/>
      <use transform="translate(528.076172 0.203125)" xlink:href="#ArialMT-109"/>
      <use transform="translate(611.376953 0.203125)" xlink:href="#ArialMT-101"/>
      <use transform="translate(666.992188 0.203125)" xlink:href="#ArialMT-32"/>
      <use transform="translate(694.775391 0.203125)" xlink:href="#DejaVuSans-Oblique-964"/>
      <use transform="translate(754.980469 0.203125)" xlink:href="#ArialMT-32"/>
      <use transform="translate(782.763672 0.203125)" xlink:href="#ArialMT-40"/>
      <use transform="translate(816.064453 0.203125)" xlink:href="#ArialMT-115"/>
      <use transform="translate(866.064453 0.203125)" xlink:href="#ArialMT-41"/>
     </g>
    </g>
   </g>
   <g id="matplotlib.axis_4">
    <g id="ytick_31">
     <g id="line2d_57">
      <g>
       <use style="fill:#262626;stroke:#262626;stroke-width:1.875;" x="521.391562" xlink:href="#m7d7faaa5b3" y="232.519091"/>
      </g>
     </g>
     <g id="text_19">
      <!-- $\mathdefault{10^{-3}}$ -->
      <g style="fill:#262626;" transform="translate(476.221562 241.026903)scale(0.165 -0.165)">
       <use transform="translate(0 0.99375)" xlink:href="#ArialMT-49"/>
       <use transform="translate(55.615234 0.99375)" xlink:href="#ArialMT-48"/>
       <use transform="translate(112.972813 70.6875)scale(0.7)" xlink:href="#ArialMT-8722"/>
       <use transform="translate(153.851719 70.6875)scale(0.7)" xlink:href="#ArialMT-51"/>
      </g>
     </g>
    </g>
    <g id="ytick_32">
     <g id="line2d_58">
      <g>
       <use style="fill:#262626;stroke:#262626;stroke-width:1.875;" x="521.391562" xlink:href="#m7d7faaa5b3" y="167.179697"/>
      </g>
     </g>
     <g id="text_20">
      <!-- $\mathdefault{10^{-2}}$ -->
      <g style="fill:#262626;" transform="translate(476.221562 175.687509)scale(0.165 -0.165)">
       <use transform="translate(0 0.99375)" xlink:href="#ArialMT-49"/>
       <use transform="translate(55.615234 0.99375)" xlink:href="#ArialMT-48"/>
       <use transform="translate(112.972813 70.6875)scale(0.7)" xlink:href="#ArialMT-8722"/>
       <use transform="translate(153.851719 70.6875)scale(0.7)" xlink:href="#ArialMT-50"/>
      </g>
     </g>
    </g>
    <g id="ytick_33">
     <g id="line2d_59">
      <g>
       <use style="fill:#262626;stroke:#262626;stroke-width:1.875;" x="521.391562" xlink:href="#m7d7faaa5b3" y="101.840303"/>
      </g>
     </g>
     <g id="text_21">
      <!-- $\mathdefault{10^{-1}}$ -->
      <g style="fill:#262626;" transform="translate(476.221562 110.348116)scale(0.165 -0.165)">
       <use transform="translate(0 0.99375)" xlink:href="#ArialMT-49"/>
       <use transform="translate(55.615234 0.99375)" xlink:href="#ArialMT-48"/>
       <use transform="translate(112.972813 70.6875)scale(0.7)" xlink:href="#ArialMT-8722"/>
       <use transform="translate(153.851719 70.6875)scale(0.7)" xlink:href="#ArialMT-49"/>
      </g>
     </g>
    </g>
    <g id="ytick_34">
     <g id="line2d_60">
      <g>
       <use style="fill:#262626;stroke:#262626;stroke-width:1.875;" x="521.391562" xlink:href="#m7d7faaa5b3" y="36.500909"/>
      </g>
     </g>
     <g id="text_22">
      <!-- $\mathdefault{10^{0}}$ -->
      <g style="fill:#262626;" transform="translate(482.986562 45.008722)scale(0.165 -0.165)">
       <use transform="translate(0 0.99375)" xlink:href="#ArialMT-49"/>
       <use transform="translate(55.615234 0.99375)" xlink:href="#ArialMT-48"/>
       <use transform="translate(112.972813 70.6875)scale(0.7)" xlink:href="#ArialMT-48"/>
      </g>
     </g>
    </g>
    <g id="ytick_35">
     <g id="line2d_61">
      <g>
       <use style="fill:#262626;stroke:#262626;stroke-width:1.5;" x="521.391562" xlink:href="#m54be488c27" y="238.851132"/>
      </g>
     </g>
    </g>
    <g id="ytick_36">
     <g id="line2d_62">
      <g>
       <use style="fill:#262626;stroke:#262626;stroke-width:1.5;" x="521.391562" xlink:href="#m54be488c27" y="235.508858"/>
      </g>
     </g>
    </g>
    <g id="ytick_37">
     <g id="line2d_63">
      <g>
       <use style="fill:#262626;stroke:#262626;stroke-width:1.5;" x="521.391562" xlink:href="#m54be488c27" y="212.849973"/>
      </g>
     </g>
    </g>
    <g id="ytick_38">
     <g id="line2d_64">
      <g>
       <use style="fill:#262626;stroke:#262626;stroke-width:1.5;" x="521.391562" xlink:href="#m54be488c27" y="201.344277"/>
      </g>
     </g>
    </g>
    <g id="ytick_39">
     <g id="line2d_65">
      <g>
       <use style="fill:#262626;stroke:#262626;stroke-width:1.5;" x="521.391562" xlink:href="#m54be488c27" y="193.180856"/>
      </g>
     </g>
    </g>
    <g id="ytick_40">
     <g id="line2d_66">
      <g>
       <use style="fill:#262626;stroke:#262626;stroke-width:1.5;" x="521.391562" xlink:href="#m54be488c27" y="186.848814"/>
      </g>
     </g>
    </g>
    <g id="ytick_41">
     <g id="line2d_67">
      <g>
       <use style="fill:#262626;stroke:#262626;stroke-width:1.5;" x="521.391562" xlink:href="#m54be488c27" y="181.67516"/>
      </g>
     </g>
    </g>
    <g id="ytick_42">
     <g id="line2d_68">
      <g>
       <use style="fill:#262626;stroke:#262626;stroke-width:1.5;" x="521.391562" xlink:href="#m54be488c27" y="177.300897"/>
      </g>
     </g>
    </g>
    <g id="ytick_43">
     <g id="line2d_69">
      <g>
       <use style="fill:#262626;stroke:#262626;stroke-width:1.5;" x="521.391562" xlink:href="#m54be488c27" y="173.511738"/>
      </g>
     </g>
    </g>
    <g id="ytick_44">
     <g id="line2d_70">
      <g>
       <use style="fill:#262626;stroke:#262626;stroke-width:1.5;" x="521.391562" xlink:href="#m54be488c27" y="170.169464"/>
      </g>
     </g>
    </g>
    <g id="ytick_45">
     <g id="line2d_71">
      <g>
       <use style="fill:#262626;stroke:#262626;stroke-width:1.5;" x="521.391562" xlink:href="#m54be488c27" y="147.510579"/>
      </g>
     </g>
    </g>
    <g id="ytick_46">
     <g id="line2d_72">
      <g>
       <use style="fill:#262626;stroke:#262626;stroke-width:1.5;" x="521.391562" xlink:href="#m54be488c27" y="136.004883"/>
      </g>
     </g>
    </g>
    <g id="ytick_47">
     <g id="line2d_73">
      <g>
       <use style="fill:#262626;stroke:#262626;stroke-width:1.5;" x="521.391562" xlink:href="#m54be488c27" y="127.841462"/>
      </g>
     </g>
    </g>
    <g id="ytick_48">
     <g id="line2d_74">
      <g>
       <use style="fill:#262626;stroke:#262626;stroke-width:1.5;" x="521.391562" xlink:href="#m54be488c27" y="121.509421"/>
      </g>
     </g>
    </g>
    <g id="ytick_49">
     <g id="line2d_75">
      <g>
       <use style="fill:#262626;stroke:#262626;stroke-width:1.5;" x="521.391562" xlink:href="#m54be488c27" y="116.335766"/>
      </g>
     </g>
    </g>
    <g id="ytick_50">
     <g id="line2d_76">
      <g>
       <use style="fill:#262626;stroke:#262626;stroke-width:1.5;" x="521.391562" xlink:href="#m54be488c27" y="111.961503"/>
      </g>
     </g>
    </g>
    <g id="ytick_51">
     <g id="line2d_77">
      <g>
       <use style="fill:#262626;stroke:#262626;stroke-width:1.5;" x="521.391562" xlink:href="#m54be488c27" y="108.172345"/>
      </g>
     </g>
    </g>
    <g id="ytick_52">
     <g id="line2d_78">
      <g>
       <use style="fill:#262626;stroke:#262626;stroke-width:1.5;" x="521.391562" xlink:href="#m54be488c27" y="104.83007"/>
      </g>
     </g>
    </g>
    <g id="ytick_53">
     <g id="line2d_79">
      <g>
       <use style="fill:#262626;stroke:#262626;stroke-width:1.5;" x="521.391562" xlink:href="#m54be488c27" y="82.171186"/>
      </g>
     </g>
    </g>
    <g id="ytick_54">
     <g id="line2d_80">
      <g>
       <use style="fill:#262626;stroke:#262626;stroke-width:1.5;" x="521.391562" xlink:href="#m54be488c27" y="70.665489"/>
      </g>
     </g>
    </g>
    <g id="ytick_55">
     <g id="line2d_81">
      <g>
       <use style="fill:#262626;stroke:#262626;stroke-width:1.5;" x="521.391562" xlink:href="#m54be488c27" y="62.502068"/>
      </g>
     </g>
    </g>
    <g id="ytick_56">
     <g id="line2d_82">
      <g>
       <use style="fill:#262626;stroke:#262626;stroke-width:1.5;" x="521.391562" xlink:href="#m54be488c27" y="56.170027"/>
      </g>
     </g>
    </g>
    <g id="ytick_57">
     <g id="line2d_83">
      <g>
       <use style="fill:#262626;stroke:#262626;stroke-width:1.5;" x="521.391562" xlink:href="#m54be488c27" y="50.996372"/>
      </g>
     </g>
    </g>
    <g id="ytick_58">
     <g id="line2d_84">
      <g>
       <use style="fill:#262626;stroke:#262626;stroke-width:1.5;" x="521.391562" xlink:href="#m54be488c27" y="46.622109"/>
      </g>
     </g>
    </g>
    <g id="ytick_59">
     <g id="line2d_85">
      <g>
       <use style="fill:#262626;stroke:#262626;stroke-width:1.5;" x="521.391562" xlink:href="#m54be488c27" y="42.832951"/>
      </g>
     </g>
    </g>
    <g id="ytick_60">
     <g id="line2d_86">
      <g>
       <use style="fill:#262626;stroke:#262626;stroke-width:1.5;" x="521.391562" xlink:href="#m54be488c27" y="39.490676"/>
      </g>
     </g>
    </g>
    <g id="text_23">
     <!-- Standard deviation $\sigma_{C}$ -->
     <g style="fill:#262626;" transform="translate(468.644062 222.44)rotate(-90)scale(0.18 -0.18)">
      <use transform="translate(0 0.203125)" xlink:href="#ArialMT-83"/>
      <use transform="translate(66.699219 0.203125)" xlink:href="#ArialMT-116"/>
      <use transform="translate(94.482422 0.203125)" xlink:href="#ArialMT-97"/>
      <use transform="translate(150.097656 0.203125)" xlink:href="#ArialMT-110"/>
      <use transform="translate(205.712891 0.203125)" xlink:href="#ArialMT-100"/>
      <use transform="translate(261.328125 0.203125)" xlink:href="#ArialMT-97"/>
      <use transform="translate(316.943359 0.203125)" xlink:href="#ArialMT-114"/>
      <use transform="translate(350.244141 0.203125)" xlink:href="#ArialMT-100"/>
      <use transform="translate(405.859375 0.203125)" xlink:href="#ArialMT-32"/>
      <use transform="translate(433.642578 0.203125)" xlink:href="#ArialMT-100"/>
      <use transform="translate(489.257812 0.203125)" xlink:href="#ArialMT-101"/>
      <use transform="translate(544.873047 0.203125)" xlink:href="#ArialMT-118"/>
      <use transform="translate(594.873047 0.203125)" xlink:href="#ArialMT-105"/>
      <use transform="translate(617.089844 0.203125)" xlink:href="#ArialMT-97"/>
      <use transform="translate(672.705078 0.203125)" xlink:href="#ArialMT-116"/>
      <use transform="translate(700.488281 0.203125)" xlink:href="#ArialMT-105"/>
      <use transform="translate(722.705078 0.203125)" xlink:href="#ArialMT-111"/>
      <use transform="translate(778.320312 0.203125)" xlink:href="#ArialMT-110"/>
      <use transform="translate(833.935547 0.203125)" xlink:href="#ArialMT-32"/>
      <use transform="translate(861.71875 0.203125)" xlink:href="#DejaVuSans-Oblique-963"/>
      <use transform="translate(925.097656 -16.203125)scale(0.7)" xlink:href="#DejaVuSans-Oblique-67"/>
     </g>
    </g>
   </g>
   <g id="line2d_87">
    <path clip-path="url(#p206cf502b1)" d="M 536.388608 86.010941 
L 582.533363 86.143781 
L 603.298503 86.410278 
L 617.14193 86.816434 
L 626.370881 87.285134 
L 633.292594 87.799571 
L 640.214307 88.509462 
L 647.136021 89.479625 
L 651.750496 90.308856 
L 656.364972 91.313131 
L 660.979447 92.517489 
L 665.593923 93.944446 
L 670.208398 95.610708 
L 674.822874 97.523461 
L 679.437349 99.67732 
L 684.051825 102.05342 
L 688.6663 104.621918 
L 695.588014 108.758515 
L 704.816965 114.638562 
L 716.353153 122.335499 
L 732.503818 133.444642 
L 757.883433 151.227766 
L 817.871615 193.629945 
L 836.329517 206.695656 
L 836.329517 206.695656 
" style="fill:none;stroke:#4c72b0;stroke-linecap:round;stroke-width:2.25;"/>
   </g>
   <g id="line2d_88">
    <path clip-path="url(#p206cf502b1)" d="M 536.388608 93.712022 
L 591.762314 93.84285 
L 612.527454 94.088651 
L 626.370881 94.451413 
L 637.907069 94.988996 
L 647.136021 95.669899 
L 654.057734 96.393917 
L 660.979447 97.364133 
L 665.593923 98.180862 
L 670.208398 99.15852 
L 674.822874 100.318511 
L 679.437349 101.680504 
L 684.051825 103.26039 
L 688.6663 105.067895 
L 693.280776 107.104218 
L 697.895251 109.360352 
L 702.509727 111.816964 
L 709.43144 115.816504 
L 716.353153 120.100719 
L 725.582104 126.103617 
L 737.118293 133.886227 
L 755.576195 146.663501 
L 785.570286 167.751902 
L 836.329517 203.649815 
L 836.329517 203.649815 
" style="fill:none;stroke:#dd8452;stroke-linecap:round;stroke-width:2.25;"/>
   </g>
   <g id="line2d_89">
    <path clip-path="url(#p206cf502b1)" d="M 536.388608 104.025378 
L 594.069552 104.162606 
L 614.834692 104.412094 
L 628.678118 104.786355 
L 637.907069 105.212953 
L 647.136021 105.864246 
L 654.057734 106.55864 
L 660.979447 107.483704 
L 667.90116 108.690075 
L 674.822874 110.220436 
L 679.437349 111.432495 
L 686.359062 113.533302 
L 693.280776 115.935113 
L 700.202489 118.568461 
L 709.43144 122.327166 
L 718.660391 126.334579 
L 725.582104 129.562515 
L 732.503818 133.053457 
L 739.425531 136.848568 
L 746.347244 140.939326 
L 753.268958 145.272842 
L 762.497909 151.314201 
L 776.341335 160.707865 
L 794.799237 173.535012 
L 829.407804 197.908069 
L 836.329517 202.8004 
L 836.329517 202.8004 
" style="fill:none;stroke:#55a868;stroke-linecap:round;stroke-width:2.25;"/>
   </g>
   <g id="line2d_90">
    <path clip-path="url(#p206cf502b1)" d="M 536.388608 112.440171 
L 594.069552 112.566784 
L 614.834692 112.807104 
L 628.678118 113.169069 
L 640.214307 113.71333 
L 649.443258 114.403593 
L 656.364972 115.128147 
L 663.286685 116.073832 
L 670.208398 117.271123 
L 677.130111 118.726953 
L 684.051825 120.408258 
L 709.43144 126.922888 
L 716.353153 128.368672 
L 723.274867 129.61148 
L 732.503818 131.016114 
L 757.883433 134.617835 
L 764.805146 135.926816 
L 769.419622 136.972756 
L 774.034097 138.192092 
L 778.648573 139.612037 
L 783.263049 141.254346 
L 787.877524 143.131781 
L 792.492 145.244849 
L 797.106475 147.580215 
L 801.720951 150.112222 
L 808.642664 154.206137 
L 815.564377 158.557599 
L 824.793328 164.617414 
L 836.329517 172.440141 
L 836.329517 172.440141 
" style="fill:none;stroke:#c44e52;stroke-linecap:round;stroke-width:2.25;"/>
   </g>
   <g id="line2d_91">
    <path clip-path="url(#p206cf502b1)" d="M 665.847881 232.519091 
L 665.847881 36.500909 
" style="fill:none;stroke:#4c72b0;stroke-dasharray:2.25,3.7125;stroke-dashoffset:0;stroke-width:2.25;"/>
   </g>
   <g id="line2d_92">
    <path clip-path="url(#p206cf502b1)" d="M 546.625764 86.020802 
L 587.089033 86.181341 
L 605.657793 86.461591 
L 618.129349 86.857226 
L 627.829448 87.380022 
L 635.589527 88.010569 
L 642.241023 88.763343 
L 648.061082 89.633053 
L 653.32685 90.630961 
L 658.315472 91.796398 
L 663.026949 93.122008 
L 667.461279 94.589254 
L 671.89561 96.281481 
L 676.329941 98.20104 
L 681.041418 100.479426 
L 686.307185 103.286892 
L 692.127245 106.653435 
L 699.055887 110.928569 
L 707.647403 116.49922 
L 719.010375 124.14312 
L 735.36197 135.433704 
L 762.245101 154.301636 
L 823.494296 197.609826 
L 823.494296 197.609826 
" style="fill:none;stroke:#1a1a1a;stroke-dasharray:2.25,3.7125;stroke-dashoffset:0;stroke-width:2.25;"/>
   </g>
   <g id="line2d_93">
    <path clip-path="url(#p206cf502b1)" d="M 681.038501 232.519091 
L 681.038501 36.500909 
" style="fill:none;stroke:#dd8452;stroke-dasharray:2.25,3.7125;stroke-dashoffset:0;stroke-width:2.25;"/>
   </g>
   <g id="line2d_94">
    <path clip-path="url(#p206cf502b1)" d="M 546.625764 93.714653 
L 598.17486 93.854084 
L 618.406495 94.115539 
L 631.709487 94.498633 
L 641.686731 94.999978 
L 649.723956 95.617703 
L 656.652598 96.36996 
L 662.749803 97.256003 
L 668.292716 98.290701 
L 673.281339 99.445781 
L 677.992815 100.760404 
L 682.704292 102.314872 
L 687.138623 104.009792 
L 691.850099 106.059547 
L 696.561576 108.354398 
L 701.827343 111.177683 
L 707.647403 114.557883 
L 714.576045 118.844467 
L 723.444706 124.607705 
L 735.084825 132.453474 
L 751.713565 143.949974 
L 779.705279 163.609184 
L 823.494296 194.565164 
L 823.494296 194.565164 
" style="fill:none;stroke:#1a1a1a;stroke-dasharray:2.25,3.7125;stroke-dashoffset:0;stroke-width:2.25;"/>
   </g>
   <g id="line2d_95">
    <path clip-path="url(#p206cf502b1)" d="M 696.828666 232.519091 
L 696.828666 36.500909 
" style="fill:none;stroke:#55a868;stroke-dasharray:2.25,3.7125;stroke-dashoffset:0;stroke-width:2.25;"/>
   </g>
   <g id="line2d_96">
    <path clip-path="url(#p206cf502b1)" d="M 546.625764 104.021771 
L 611.477853 104.149922 
L 632.81807 104.401727 
L 646.398208 104.77008 
L 656.652598 105.262307 
L 664.966968 105.881303 
L 671.89561 106.61498 
L 677.992815 107.479894 
L 683.535729 108.490989 
L 688.524351 109.621123 
L 693.235827 110.909209 
L 697.947304 112.434911 
L 702.381635 114.101725 
L 706.815966 115.996147 
L 711.527442 118.249586 
L 716.516064 120.880171 
L 722.336124 124.213825 
L 728.98762 128.286791 
L 737.30199 133.64509 
L 748.387817 141.07157 
L 763.907975 151.759329 
L 788.851086 169.238888 
L 823.494296 193.70638 
L 823.494296 193.70638 
" style="fill:none;stroke:#1a1a1a;stroke-dasharray:2.25,3.7125;stroke-dashoffset:0;stroke-width:2.25;"/>
   </g>
   <g id="line2d_97">
    <path clip-path="url(#p206cf502b1)" d="M 752.179085 232.519091 
L 752.179085 36.500909 
" style="fill:none;stroke:#c44e52;stroke-dasharray:2.25,3.7125;stroke-dashoffset:0;stroke-width:2.25;"/>
   </g>
   <g id="line2d_98">
    <path clip-path="url(#p206cf502b1)" d="M 546.625764 112.432458 
L 663.58124 112.545619 
L 686.307185 112.783386 
L 700.441615 113.138714 
L 710.973151 113.616844 
L 719.287521 114.206511 
L 726.493309 114.939208 
L 732.590514 115.77576 
L 738.133427 116.755079 
L 743.122049 117.851515 
L 747.833526 119.103605 
L 752.545002 120.590078 
L 756.979333 122.218323 
L 761.413664 124.074326 
L 766.125141 126.289321 
L 771.113763 128.884198 
L 776.656676 132.021709 
L 783.308172 136.057037 
L 791.345397 141.20348 
L 801.876933 148.224307 
L 816.565654 158.30511 
L 823.494296 163.125564 
L 823.494296 163.125564 
" style="fill:none;stroke:#1a1a1a;stroke-dasharray:2.25,3.7125;stroke-dashoffset:0;stroke-width:2.25;"/>
   </g>
   <g id="patch_9">
    <path d="M 521.391562 242.32 
L 521.391562 26.7 
" style="fill:none;stroke:#262626;stroke-linecap:square;stroke-linejoin:miter;stroke-width:1.875;"/>
   </g>
   <g id="patch_10">
    <path d="M 851.326562 242.32 
L 851.326562 26.7 
" style="fill:none;stroke:#262626;stroke-linecap:square;stroke-linejoin:miter;stroke-width:1.875;"/>
   </g>
   <g id="patch_11">
    <path d="M 521.391562 242.32 
L 851.326562 242.32 
" style="fill:none;stroke:#262626;stroke-linecap:square;stroke-linejoin:miter;stroke-width:1.875;"/>
   </g>
   <g id="patch_12">
    <path d="M 521.391562 26.7 
L 851.326562 26.7 
" style="fill:none;stroke:#262626;stroke-linecap:square;stroke-linejoin:miter;stroke-width:1.875;"/>
   </g>
   <g id="text_24">
    <!-- $\mu=-13.0$ -->
    <g style="fill:#262626;" transform="translate(638.479062 20.7)scale(0.18 -0.18)">
     <use transform="translate(0 0.78125)" xlink:href="#DejaVuSans-Oblique-956"/>
     <use transform="translate(83.105469 0.78125)" xlink:href="#DejaVuSans-61"/>
     <use transform="translate(205.859375 0.78125)" xlink:href="#DejaVuSans-8722"/>
     <use transform="translate(309.130859 0.78125)" xlink:href="#DejaVuSans-49"/>
     <use transform="translate(372.753906 0.78125)" xlink:href="#DejaVuSans-51"/>
     <use transform="translate(436.376953 0.78125)" xlink:href="#DejaVuSans-46"/>
     <use transform="translate(468.164062 0.78125)" xlink:href="#DejaVuSans-48"/>
    </g>
   </g>
  </g>
 </g>
 <defs>
  <clipPath id="pb6585d54ce">
   <rect height="215.62" width="329.935" x="72.831563" y="26.7"/>
  </clipPath>
  <clipPath id="p206cf502b1">
   <rect height="215.62" width="329.935" x="521.391562" y="26.7"/>
  </clipPath>
 </defs>
</svg>
