<?xml version="1.0" encoding="utf-8" standalone="no"?>
<!DOCTYPE svg PUBLIC "-//W3C//DTD SVG 1.1//EN"
  "http://www.w3.org/Graphics/SVG/1.1/DTD/svg11.dtd">
<!-- Created with matplotlib (https://matplotlib.org/) -->
<svg height="335.685766pt" version="1.1" viewBox="0 0 692.210547 335.685766" width="692.210547pt" xmlns="http://www.w3.org/2000/svg" xmlns:xlink="http://www.w3.org/1999/xlink">
 <metadata>
  <rdf:RDF xmlns:cc="http://creativecommons.org/ns#" xmlns:dc="http://purl.org/dc/elements/1.1/" xmlns:rdf="http://www.w3.org/1999/02/22-rdf-syntax-ns#">
   <cc:Work>
    <dc:type rdf:resource="http://purl.org/dc/dcmitype/StillImage"/>
    <dc:date>2025-09-12T12:46:52.443305</dc:date>
    <dc:format>image/svg+xml</dc:format>
    <dc:creator>
     <cc:Agent>
      <dc:title>Matplotlib v3.3.4, https://matplotlib.org/</dc:title>
     </cc:Agent>
    </dc:creator>
   </cc:Work>
  </rdf:RDF>
 </metadata>
 <defs>
  <style type="text/css">*{stroke-linecap:butt;stroke-linejoin:round;}</style>
 </defs>
 <g id="figure_1">
  <g id="patch_1">
   <path d="M 0 335.685766 
L 692.210547 335.685766 
L 692.210547 0 
L 0 0 
z
" style="fill:#ffffff;"/>
  </g>
  <g id="axes_1">
   <g id="patch_2">
    <path d="M 50.515547 279.256 
L 317.450547 279.256 
L 317.450547 63.636 
L 50.515547 63.636 
z
" style="fill:#ffffff;"/>
   </g>
   <g id="line2d_1">
    <path clip-path="url(#p43ead7523a)" d="M 62.648956 269.455091 
L 62.648956 74.034421 
" style="fill:none;stroke:#9a4508;stroke-dasharray:7.4,3.2;stroke-dashoffset:0;stroke-width:2;"/>
   </g>
   <g id="matplotlib.axis_1">
    <g id="xtick_1">
     <g id="line2d_2">
      <defs>
       <path d="M 0 0 
L 0 9 
" id="m6536bb7289" style="stroke:#262626;stroke-width:1.875;"/>
      </defs>
      <g>
       <use style="fill:#262626;stroke:#262626;stroke-width:1.875;" x="62.648956" xlink:href="#m6536bb7289" y="279.256"/>
      </g>
     </g>
     <g id="text_1">
      <!-- 0 -->
      <g style="fill:#262626;" transform="translate(58.061183 303.566391)scale(0.165 -0.165)">
       <defs>
        <path d="M 4.15625 35.296875 
Q 4.15625 48 6.765625 55.734375 
Q 9.375 63.484375 14.515625 67.671875 
Q 19.671875 71.875 27.484375 71.875 
Q 33.25 71.875 37.59375 69.546875 
Q 41.9375 67.234375 44.765625 62.859375 
Q 47.609375 58.5 49.21875 52.21875 
Q 50.828125 45.953125 50.828125 35.296875 
Q 50.828125 22.703125 48.234375 14.96875 
Q 45.65625 7.234375 40.5 3 
Q 35.359375 -1.21875 27.484375 -1.21875 
Q 17.140625 -1.21875 11.234375 6.203125 
Q 4.15625 15.140625 4.15625 35.296875 
z
M 13.1875 35.296875 
Q 13.1875 17.671875 17.3125 11.828125 
Q 21.4375 6 27.484375 6 
Q 33.546875 6 37.671875 11.859375 
Q 41.796875 17.71875 41.796875 35.296875 
Q 41.796875 52.984375 37.671875 58.78125 
Q 33.546875 64.59375 27.390625 64.59375 
Q 21.34375 64.59375 17.71875 59.46875 
Q 13.1875 52.9375 13.1875 35.296875 
z
" id="ArialMT-48"/>
       </defs>
       <use xlink:href="#ArialMT-48"/>
      </g>
     </g>
    </g>
    <g id="xtick_2">
     <g id="line2d_3">
      <g>
       <use style="fill:#262626;stroke:#262626;stroke-width:1.875;" x="149.316164" xlink:href="#m6536bb7289" y="279.256"/>
      </g>
     </g>
     <g id="text_2">
      <!-- 5 -->
      <g style="fill:#262626;" transform="translate(144.72839 303.566391)scale(0.165 -0.165)">
       <defs>
        <path d="M 4.15625 18.75 
L 13.375 19.53125 
Q 14.40625 12.796875 18.140625 9.390625 
Q 21.875 6 27.15625 6 
Q 33.5 6 37.890625 10.78125 
Q 42.28125 15.578125 42.28125 23.484375 
Q 42.28125 31 38.0625 35.34375 
Q 33.84375 39.703125 27 39.703125 
Q 22.75 39.703125 19.328125 37.765625 
Q 15.921875 35.84375 13.96875 32.765625 
L 5.71875 33.84375 
L 12.640625 70.609375 
L 48.25 70.609375 
L 48.25 62.203125 
L 19.671875 62.203125 
L 15.828125 42.96875 
Q 22.265625 47.46875 29.34375 47.46875 
Q 38.71875 47.46875 45.15625 40.96875 
Q 51.609375 34.46875 51.609375 24.265625 
Q 51.609375 14.546875 45.953125 7.46875 
Q 39.0625 -1.21875 27.15625 -1.21875 
Q 17.390625 -1.21875 11.203125 4.25 
Q 5.03125 9.71875 4.15625 18.75 
z
" id="ArialMT-53"/>
       </defs>
       <use xlink:href="#ArialMT-53"/>
      </g>
     </g>
    </g>
    <g id="xtick_3">
     <g id="line2d_4">
      <g>
       <use style="fill:#262626;stroke:#262626;stroke-width:1.875;" x="235.983372" xlink:href="#m6536bb7289" y="279.256"/>
      </g>
     </g>
     <g id="text_3">
      <!-- 10 -->
      <g style="fill:#262626;" transform="translate(226.807825 303.566391)scale(0.165 -0.165)">
       <defs>
        <path d="M 37.25 0 
L 28.46875 0 
L 28.46875 56 
Q 25.296875 52.984375 20.140625 49.953125 
Q 14.984375 46.921875 10.890625 45.40625 
L 10.890625 53.90625 
Q 18.265625 57.375 23.78125 62.296875 
Q 29.296875 67.234375 31.59375 71.875 
L 37.25 71.875 
z
" id="ArialMT-49"/>
       </defs>
       <use xlink:href="#ArialMT-49"/>
       <use x="55.615234" xlink:href="#ArialMT-48"/>
      </g>
     </g>
    </g>
    <g id="text_4">
     <!-- $J$ ($k_BT$) -->
     <g style="fill:#262626;" transform="translate(157.523047 324.525766)scale(0.18 -0.18)">
      <defs>
       <path d="M 16.703125 72.90625 
L 26.609375 72.90625 
L 13.375 5.078125 
Q 10.796875 -8.15625 4.65625 -14.078125 
Q -1.46875 -20.015625 -12.5 -20.015625 
L -16.40625 -20.015625 
L -14.796875 -11.71875 
L -11.71875 -11.71875 
Q -5.125 -11.71875 -1.703125 -7.953125 
Q 1.703125 -4.203125 3.515625 5.078125 
z
" id="DejaVuSans-Oblique-74"/>
       <path id="ArialMT-32"/>
       <path d="M 23.390625 -21.046875 
Q 16.109375 -11.859375 11.078125 0.4375 
Q 6.0625 12.75 6.0625 25.921875 
Q 6.0625 37.546875 9.8125 48.1875 
Q 14.203125 60.546875 23.390625 72.796875 
L 29.6875 72.796875 
Q 23.78125 62.640625 21.875 58.296875 
Q 18.890625 51.5625 17.1875 44.234375 
Q 15.09375 35.109375 15.09375 25.875 
Q 15.09375 2.390625 29.6875 -21.046875 
z
" id="ArialMT-40"/>
       <path d="M 18.3125 75.984375 
L 27.296875 75.984375 
L 18.703125 31.6875 
L 49.515625 54.6875 
L 61.1875 54.6875 
L 26.8125 28.515625 
L 51.90625 0 
L 41.015625 0 
L 17.671875 26.703125 
L 12.5 0 
L 3.515625 0 
z
" id="DejaVuSans-Oblique-107"/>
       <path d="M 16.890625 72.90625 
L 42.09375 72.90625 
Q 52.34375 72.90625 57.421875 69.09375 
Q 62.5 65.28125 62.5 57.625 
Q 62.5 50.59375 58.125 45.484375 
Q 53.765625 40.375 46.6875 39.3125 
Q 52.734375 37.9375 55.765625 34.078125 
Q 58.796875 30.21875 58.796875 23.78125 
Q 58.796875 12.796875 50.65625 6.390625 
Q 42.53125 0 28.421875 0 
L 2.6875 0 
z
M 19.28125 34.8125 
L 14.109375 8.109375 
L 29.984375 8.109375 
Q 38.921875 8.109375 43.75 12.203125 
Q 48.578125 16.3125 48.578125 23.78125 
Q 48.578125 29.546875 45.375 32.171875 
Q 42.1875 34.8125 35.109375 34.8125 
z
M 25.09375 64.796875 
L 20.796875 42.828125 
L 35.5 42.828125 
Q 43.359375 42.828125 47.78125 46.234375 
Q 52.203125 49.65625 52.203125 55.71875 
Q 52.203125 60.453125 49.21875 62.625 
Q 46.234375 64.796875 39.703125 64.796875 
z
" id="DejaVuSans-Oblique-66"/>
       <path d="M 5.90625 72.90625 
L 67.578125 72.90625 
L 66.015625 64.59375 
L 39.984375 64.59375 
L 27.484375 0 
L 17.578125 0 
L 30.078125 64.59375 
L 4.296875 64.59375 
z
" id="DejaVuSans-Oblique-84"/>
       <path d="M 12.359375 -21.046875 
L 6.0625 -21.046875 
Q 20.65625 2.390625 20.65625 25.875 
Q 20.65625 35.0625 18.5625 44.09375 
Q 16.890625 51.421875 13.921875 58.15625 
Q 12.015625 62.546875 6.0625 72.796875 
L 12.359375 72.796875 
Q 21.53125 60.546875 25.921875 48.1875 
Q 29.6875 37.546875 29.6875 25.921875 
Q 29.6875 12.75 24.625 0.4375 
Q 19.578125 -11.859375 12.359375 -21.046875 
z
" id="ArialMT-41"/>
      </defs>
      <use transform="translate(0 0.015625)" xlink:href="#DejaVuSans-Oblique-74"/>
      <use transform="translate(29.492188 0.015625)" xlink:href="#ArialMT-32"/>
      <use transform="translate(57.275391 0.015625)" xlink:href="#ArialMT-40"/>
      <use transform="translate(90.576172 0.015625)" xlink:href="#DejaVuSans-Oblique-107"/>
      <use transform="translate(148.486328 -16.390625)scale(0.7)" xlink:href="#DejaVuSans-Oblique-66"/>
      <use transform="translate(199.243164 0.015625)" xlink:href="#DejaVuSans-Oblique-84"/>
      <use transform="translate(260.327148 0.015625)" xlink:href="#ArialMT-41"/>
     </g>
    </g>
   </g>
   <g id="matplotlib.axis_2">
    <g id="ytick_1">
     <g id="line2d_5">
      <defs>
       <path d="M 0 0 
L -9 0 
" id="ma3fa7e181b" style="stroke:#262626;stroke-width:1.875;"/>
      </defs>
      <g>
       <use style="fill:#262626;stroke:#262626;stroke-width:1.875;" x="50.515547" xlink:href="#ma3fa7e181b" y="240.511197"/>
      </g>
     </g>
     <g id="text_5">
      <!-- 2 -->
      <g style="fill:#262626;" transform="translate(28.84 246.416392)scale(0.165 -0.165)">
       <defs>
        <path d="M 50.34375 8.453125 
L 50.34375 0 
L 3.03125 0 
Q 2.9375 3.171875 4.046875 6.109375 
Q 5.859375 10.9375 9.828125 15.625 
Q 13.8125 20.3125 21.34375 26.46875 
Q 33.015625 36.03125 37.109375 41.625 
Q 41.21875 47.21875 41.21875 52.203125 
Q 41.21875 57.421875 37.46875 61 
Q 33.734375 64.59375 27.734375 64.59375 
Q 21.390625 64.59375 17.578125 60.78125 
Q 13.765625 56.984375 13.71875 50.25 
L 4.6875 51.171875 
Q 5.609375 61.28125 11.65625 66.578125 
Q 17.71875 71.875 27.9375 71.875 
Q 38.234375 71.875 44.234375 66.15625 
Q 50.25 60.453125 50.25 52 
Q 50.25 47.703125 48.484375 43.546875 
Q 46.734375 39.40625 42.65625 34.8125 
Q 38.578125 30.21875 29.109375 22.21875 
Q 21.1875 15.578125 18.9375 13.203125 
Q 16.703125 10.84375 15.234375 8.453125 
z
" id="ArialMT-50"/>
       </defs>
       <use xlink:href="#ArialMT-50"/>
      </g>
     </g>
    </g>
    <g id="ytick_2">
     <g id="line2d_6">
      <g>
       <use style="fill:#262626;stroke:#262626;stroke-width:1.875;" x="50.515547" xlink:href="#ma3fa7e181b" y="174.059889"/>
      </g>
     </g>
     <g id="text_6">
      <!-- 3 -->
      <g style="fill:#262626;" transform="translate(28.84 179.965084)scale(0.165 -0.165)">
       <defs>
        <path d="M 4.203125 18.890625 
L 12.984375 20.0625 
Q 14.5 12.59375 18.140625 9.296875 
Q 21.78125 6 27 6 
Q 33.203125 6 37.46875 10.296875 
Q 41.75 14.59375 41.75 20.953125 
Q 41.75 27 37.796875 30.921875 
Q 33.84375 34.859375 27.734375 34.859375 
Q 25.25 34.859375 21.53125 33.890625 
L 22.515625 41.609375 
Q 23.390625 41.5 23.921875 41.5 
Q 29.546875 41.5 34.03125 44.421875 
Q 38.53125 47.359375 38.53125 53.46875 
Q 38.53125 58.296875 35.25 61.46875 
Q 31.984375 64.65625 26.8125 64.65625 
Q 21.6875 64.65625 18.265625 61.421875 
Q 14.84375 58.203125 13.875 51.765625 
L 5.078125 53.328125 
Q 6.6875 62.15625 12.390625 67.015625 
Q 18.109375 71.875 26.609375 71.875 
Q 32.46875 71.875 37.390625 69.359375 
Q 42.328125 66.84375 44.9375 62.5 
Q 47.5625 58.15625 47.5625 53.265625 
Q 47.5625 48.640625 45.0625 44.828125 
Q 42.578125 41.015625 37.703125 38.765625 
Q 44.046875 37.3125 47.5625 32.6875 
Q 51.078125 28.078125 51.078125 21.140625 
Q 51.078125 11.765625 44.234375 5.25 
Q 37.40625 -1.265625 26.953125 -1.265625 
Q 17.53125 -1.265625 11.296875 4.34375 
Q 5.078125 9.96875 4.203125 18.890625 
z
" id="ArialMT-51"/>
       </defs>
       <use xlink:href="#ArialMT-51"/>
      </g>
     </g>
    </g>
    <g id="ytick_3">
     <g id="line2d_7">
      <g>
       <use style="fill:#262626;stroke:#262626;stroke-width:1.875;" x="50.515547" xlink:href="#ma3fa7e181b" y="107.60858"/>
      </g>
     </g>
     <g id="text_7">
      <!-- 4 -->
      <g style="fill:#262626;" transform="translate(28.84 113.513776)scale(0.165 -0.165)">
       <defs>
        <path d="M 32.328125 0 
L 32.328125 17.140625 
L 1.265625 17.140625 
L 1.265625 25.203125 
L 33.9375 71.578125 
L 41.109375 71.578125 
L 41.109375 25.203125 
L 50.78125 25.203125 
L 50.78125 17.140625 
L 41.109375 17.140625 
L 41.109375 0 
z
M 32.328125 25.203125 
L 32.328125 57.46875 
L 9.90625 25.203125 
z
" id="ArialMT-52"/>
       </defs>
       <use xlink:href="#ArialMT-52"/>
      </g>
     </g>
    </g>
    <g id="text_8">
     <!-- $I(C;s)$ (bits) -->
     <g style="fill:#262626;" transform="translate(20.88 219.416)rotate(-90)scale(0.18 -0.18)">
      <defs>
       <path d="M 16.890625 72.90625 
L 26.8125 72.90625 
L 12.59375 0 
L 2.6875 0 
z
" id="DejaVuSans-Oblique-73"/>
       <path d="M 31 75.875 
Q 24.46875 64.65625 21.28125 53.65625 
Q 18.109375 42.671875 18.109375 31.390625 
Q 18.109375 20.125 21.3125 9.0625 
Q 24.515625 -2 31 -13.1875 
L 23.1875 -13.1875 
Q 15.875 -1.703125 12.234375 9.375 
Q 8.59375 20.453125 8.59375 31.390625 
Q 8.59375 42.28125 12.203125 53.3125 
Q 15.828125 64.359375 23.1875 75.875 
z
" id="DejaVuSans-40"/>
       <path d="M 69.484375 67.28125 
L 67.484375 56.890625 
Q 62.796875 61.625 57.546875 63.921875 
Q 52.296875 66.21875 46.1875 66.21875 
Q 37.84375 66.21875 31.515625 62.203125 
Q 25.203125 58.203125 20.609375 50 
Q 17.671875 44.734375 16.125 38.84375 
Q 14.59375 32.953125 14.59375 27 
Q 14.59375 17.046875 19.75 11.8125 
Q 24.90625 6.59375 34.71875 6.59375 
Q 41.5 6.59375 47.75 8.765625 
Q 54 10.9375 59.90625 15.28125 
L 57.625 3.609375 
Q 51.8125 1.125 45.875 -0.140625 
Q 39.9375 -1.421875 33.984375 -1.421875 
Q 19.96875 -1.421875 12.078125 6.1875 
Q 4.203125 13.8125 4.203125 27.390625 
Q 4.203125 36.078125 7.203125 44.46875 
Q 10.203125 52.875 15.828125 59.8125 
Q 21.78125 67.1875 29.421875 70.703125 
Q 37.0625 74.21875 47.21875 74.21875 
Q 53.46875 74.21875 59.0625 72.484375 
Q 64.65625 70.75 69.484375 67.28125 
z
" id="DejaVuSans-Oblique-67"/>
       <path d="M 11.71875 51.703125 
L 22.015625 51.703125 
L 22.015625 39.3125 
L 11.71875 39.3125 
z
M 11.71875 12.40625 
L 22.015625 12.40625 
L 22.015625 4 
L 14.015625 -11.625 
L 7.71875 -11.625 
L 11.71875 4 
z
" id="DejaVuSans-59"/>
       <path d="M 50 53.078125 
L 48.296875 44.578125 
Q 44.734375 46.53125 40.765625 47.5 
Q 36.8125 48.484375 32.625 48.484375 
Q 25.53125 48.484375 21.453125 46.0625 
Q 17.390625 43.65625 17.390625 39.5 
Q 17.390625 34.671875 26.859375 32.078125 
Q 27.59375 31.890625 27.9375 31.78125 
L 30.8125 30.90625 
Q 39.796875 28.421875 42.796875 25.6875 
Q 45.796875 22.953125 45.796875 18.21875 
Q 45.796875 9.515625 38.890625 4.046875 
Q 31.984375 -1.421875 20.796875 -1.421875 
Q 16.453125 -1.421875 11.671875 -0.578125 
Q 6.890625 0.25 1.125 2 
L 2.875 11.28125 
Q 7.8125 8.734375 12.59375 7.421875 
Q 17.390625 6.109375 21.78125 6.109375 
Q 28.375 6.109375 32.5 8.9375 
Q 36.625 11.765625 36.625 16.109375 
Q 36.625 20.796875 25.78125 23.6875 
L 24.859375 23.921875 
L 21.78125 24.703125 
Q 14.9375 26.515625 11.765625 29.46875 
Q 8.59375 32.421875 8.59375 37.015625 
Q 8.59375 45.75 15.15625 50.875 
Q 21.734375 56 33.015625 56 
Q 37.453125 56 41.671875 55.265625 
Q 45.90625 54.546875 50 53.078125 
z
" id="DejaVuSans-Oblique-115"/>
       <path d="M 8.015625 75.875 
L 15.828125 75.875 
Q 23.140625 64.359375 26.78125 53.3125 
Q 30.421875 42.28125 30.421875 31.390625 
Q 30.421875 20.453125 26.78125 9.375 
Q 23.140625 -1.703125 15.828125 -13.1875 
L 8.015625 -13.1875 
Q 14.5 -2 17.703125 9.0625 
Q 20.90625 20.125 20.90625 31.390625 
Q 20.90625 42.671875 17.703125 53.65625 
Q 14.5 64.65625 8.015625 75.875 
z
" id="DejaVuSans-41"/>
       <path d="M 14.703125 0 
L 6.546875 0 
L 6.546875 71.578125 
L 15.328125 71.578125 
L 15.328125 46.046875 
Q 20.90625 53.03125 29.546875 53.03125 
Q 34.328125 53.03125 38.59375 51.09375 
Q 42.875 49.171875 45.625 45.671875 
Q 48.390625 42.1875 49.953125 37.25 
Q 51.515625 32.328125 51.515625 26.703125 
Q 51.515625 13.375 44.921875 6.09375 
Q 38.328125 -1.171875 29.109375 -1.171875 
Q 19.921875 -1.171875 14.703125 6.5 
z
M 14.59375 26.3125 
Q 14.59375 17 17.140625 12.84375 
Q 21.296875 6.0625 28.375 6.0625 
Q 34.125 6.0625 38.328125 11.0625 
Q 42.53125 16.0625 42.53125 25.984375 
Q 42.53125 36.140625 38.5 40.96875 
Q 34.46875 45.796875 28.765625 45.796875 
Q 23 45.796875 18.796875 40.796875 
Q 14.59375 35.796875 14.59375 26.3125 
z
" id="ArialMT-98"/>
       <path d="M 6.640625 61.46875 
L 6.640625 71.578125 
L 15.4375 71.578125 
L 15.4375 61.46875 
z
M 6.640625 0 
L 6.640625 51.859375 
L 15.4375 51.859375 
L 15.4375 0 
z
" id="ArialMT-105"/>
       <path d="M 25.78125 7.859375 
L 27.046875 0.09375 
Q 23.34375 -0.6875 20.40625 -0.6875 
Q 15.625 -0.6875 12.984375 0.828125 
Q 10.359375 2.34375 9.28125 4.8125 
Q 8.203125 7.28125 8.203125 15.1875 
L 8.203125 45.015625 
L 1.765625 45.015625 
L 1.765625 51.859375 
L 8.203125 51.859375 
L 8.203125 64.703125 
L 16.9375 69.96875 
L 16.9375 51.859375 
L 25.78125 51.859375 
L 25.78125 45.015625 
L 16.9375 45.015625 
L 16.9375 14.703125 
Q 16.9375 10.9375 17.40625 9.859375 
Q 17.875 8.796875 18.921875 8.15625 
Q 19.96875 7.515625 21.921875 7.515625 
Q 23.390625 7.515625 25.78125 7.859375 
z
" id="ArialMT-116"/>
       <path d="M 3.078125 15.484375 
L 11.765625 16.84375 
Q 12.5 11.625 15.84375 8.84375 
Q 19.1875 6.0625 25.203125 6.0625 
Q 31.25 6.0625 34.171875 8.515625 
Q 37.109375 10.984375 37.109375 14.3125 
Q 37.109375 17.28125 34.515625 19 
Q 32.71875 20.171875 25.53125 21.96875 
Q 15.875 24.421875 12.140625 26.203125 
Q 8.40625 27.984375 6.46875 31.125 
Q 4.546875 34.28125 4.546875 38.09375 
Q 4.546875 41.546875 6.125 44.5 
Q 7.71875 47.46875 10.453125 49.421875 
Q 12.5 50.921875 16.03125 51.96875 
Q 19.578125 53.03125 23.640625 53.03125 
Q 29.734375 53.03125 34.34375 51.265625 
Q 38.96875 49.515625 41.15625 46.5 
Q 43.359375 43.5 44.1875 38.484375 
L 35.59375 37.3125 
Q 35.015625 41.3125 32.203125 43.546875 
Q 29.390625 45.796875 24.265625 45.796875 
Q 18.21875 45.796875 15.625 43.796875 
Q 13.03125 41.796875 13.03125 39.109375 
Q 13.03125 37.40625 14.109375 36.03125 
Q 15.1875 34.625 17.484375 33.6875 
Q 18.796875 33.203125 25.25 31.453125 
Q 34.578125 28.953125 38.25 27.359375 
Q 41.9375 25.78125 44.03125 22.75 
Q 46.140625 19.734375 46.140625 15.234375 
Q 46.140625 10.84375 43.578125 6.953125 
Q 41.015625 3.078125 36.171875 0.953125 
Q 31.34375 -1.171875 25.25 -1.171875 
Q 15.140625 -1.171875 9.84375 3.03125 
Q 4.546875 7.234375 3.078125 15.484375 
z
" id="ArialMT-115"/>
      </defs>
      <use transform="translate(0 0.125)" xlink:href="#DejaVuSans-Oblique-73"/>
      <use transform="translate(29.492188 0.125)" xlink:href="#DejaVuSans-40"/>
      <use transform="translate(68.505859 0.125)" xlink:href="#DejaVuSans-Oblique-67"/>
      <use transform="translate(138.330078 0.125)" xlink:href="#DejaVuSans-59"/>
      <use transform="translate(191.503906 0.125)" xlink:href="#DejaVuSans-Oblique-115"/>
      <use transform="translate(243.603516 0.125)" xlink:href="#DejaVuSans-41"/>
      <use transform="translate(282.617188 0.125)" xlink:href="#ArialMT-32"/>
      <use transform="translate(310.400391 0.125)" xlink:href="#ArialMT-40"/>
      <use transform="translate(343.701172 0.125)" xlink:href="#ArialMT-98"/>
      <use transform="translate(399.316406 0.125)" xlink:href="#ArialMT-105"/>
      <use transform="translate(421.533203 0.125)" xlink:href="#ArialMT-116"/>
      <use transform="translate(449.316406 0.125)" xlink:href="#ArialMT-115"/>
      <use transform="translate(499.316406 0.125)" xlink:href="#ArialMT-41"/>
     </g>
    </g>
   </g>
   <g id="PolyCollection_1">
    <defs>
     <path d="M 62.648956 -262.149836 
L 62.648956 -261.152852 
L 79.982398 -253.810371 
L 97.315839 -244.952691 
L 114.649281 -235.783059 
L 131.982722 -222.846485 
L 149.316164 -205.269837 
L 166.649605 -180.510664 
L 183.983047 -157.511727 
L 201.316488 -145.662598 
L 218.64993 -137.463698 
L 235.983372 -125.954896 
L 253.316813 -114.878032 
L 270.650255 -105.209784 
L 287.983696 -97.103966 
L 305.317138 -89.683094 
L 305.317138 -91.546356 
L 305.317138 -91.546356 
L 287.983696 -98.122396 
L 270.650255 -106.394563 
L 253.316813 -117.036164 
L 235.983372 -128.188441 
L 218.64993 -138.368177 
L 201.316488 -148.19824 
L 183.983047 -160.310456 
L 166.649605 -182.74425 
L 149.316164 -207.90338 
L 131.982722 -224.16651 
L 114.649281 -237.173212 
L 97.315839 -245.819433 
L 79.982398 -254.275261 
L 62.648956 -262.149836 
z
" id="md405a481f1" style="stroke:#9a4508;stroke-opacity:0.3;stroke-width:1.5;"/>
    </defs>
    <g clip-path="url(#p43ead7523a)">
     <use style="fill:#9a4508;fill-opacity:0.3;stroke:#9a4508;stroke-opacity:0.3;stroke-width:1.5;" x="0" xlink:href="#md405a481f1" y="335.685766"/>
    </g>
   </g>
   <g id="PolyCollection_2">
    <defs>
     <path d="M 62.648956 -262.248857 
L 62.648956 -261.167063 
L 79.982398 -253.704215 
L 97.315839 -244.926531 
L 114.649281 -236.416293 
L 131.982722 -222.165209 
L 149.316164 -204.310076 
L 166.649605 -178.520343 
L 183.983047 -159.761613 
L 201.316488 -144.789183 
L 218.64993 -137.155785 
L 235.983372 -127.057045 
L 253.316813 -117.028483 
L 270.650255 -107.071274 
L 287.983696 -92.565705 
L 305.317138 -66.24501 
L 305.317138 -67.092432 
L 305.317138 -67.092432 
L 287.983696 -94.786747 
L 270.650255 -109.243406 
L 253.316813 -119.943918 
L 235.983372 -129.211014 
L 218.64993 -138.678107 
L 201.316488 -146.077503 
L 183.983047 -161.482648 
L 166.649605 -181.075053 
L 149.316164 -205.662466 
L 131.982722 -224.278199 
L 114.649281 -237.736086 
L 97.315839 -246.316478 
L 79.982398 -254.379037 
L 62.648956 -262.248857 
z
" id="m8fd025c670" style="stroke:#fbb44d;stroke-opacity:0.3;stroke-width:1.5;"/>
    </defs>
    <g clip-path="url(#p43ead7523a)">
     <use style="fill:#fbb44d;fill-opacity:0.3;stroke:#fbb44d;stroke-opacity:0.3;stroke-width:1.5;" x="0" xlink:href="#m8fd025c670" y="335.685766"/>
    </g>
   </g>
   <g id="line2d_8">
    <path clip-path="url(#p43ead7523a)" d="M 62.648956 74.034421 
L 79.982398 81.64295 
L 97.315839 90.299703 
L 114.649281 99.20763 
L 131.982722 112.179268 
L 149.316164 129.099157 
L 166.649605 154.058308 
L 183.983047 176.774674 
L 201.316488 188.755346 
L 218.64993 197.769828 
L 235.983372 208.614097 
L 253.316813 219.728668 
L 270.650255 229.883592 
L 287.983696 238.072585 
L 305.317138 245.07104 
" style="fill:none;stroke:#9a4508;stroke-linecap:round;stroke-width:3;"/>
   </g>
   <g id="line2d_9">
    <path clip-path="url(#p43ead7523a)" d="M 62.648956 73.977806 
L 79.982398 81.644139 
L 97.315839 90.064261 
L 114.649281 98.609576 
L 131.982722 112.464062 
L 149.316164 130.699495 
L 166.649605 155.888068 
L 183.983047 175.063635 
L 201.316488 190.252422 
L 218.64993 197.76882 
L 235.983372 207.551736 
L 253.316813 217.199565 
L 270.650255 227.528426 
L 287.983696 242.009539 
L 305.317138 269.017044 
" style="fill:none;stroke:#fbb44d;stroke-dasharray:19.2,4.8,3,4.8;stroke-dashoffset:0;stroke-width:3;"/>
   </g>
   <g id="line2d_10">
    <path clip-path="url(#p43ead7523a)" d="M 62.648956 75.3711 
L 79.982398 83.609774 
L 97.315839 92.801782 
L 114.649281 103.486604 
L 131.982722 120.558109 
L 149.316164 143.149806 
L 166.649605 163.323027 
L 183.983047 181.626763 
L 201.316488 198.550699 
L 218.64993 212.02773 
L 235.983372 221.58922 
L 253.316813 227.92589 
L 270.650255 232.205134 
L 287.983696 235.307372 
L 305.317138 237.494716 
" style="fill:none;stroke:#9a4508;stroke-dasharray:3,4.95;stroke-dashoffset:0;stroke-width:3;"/>
   </g>
   <g id="line2d_11">
    <path clip-path="url(#p43ead7523a)" d="M 62.648956 75.3711 
L 79.982398 83.609729 
L 97.315839 92.801584 
L 114.649281 103.485932 
L 131.982722 120.556026 
L 149.316164 143.143591 
L 166.649605 163.304472 
L 183.983047 181.571296 
L 201.316488 198.390343 
L 218.64993 211.632324 
L 235.983372 220.634663 
L 253.316813 225.70593 
L 270.650255 227.139604 
L 287.983696 224.958235 
L 305.317138 222.152656 
" style="fill:none;stroke:#fbb44d;stroke-dasharray:3,4.95;stroke-dashoffset:0;stroke-width:3;"/>
   </g>
   <g id="patch_3">
    <path d="M 50.515547 279.256 
L 50.515547 63.636 
" style="fill:none;stroke:#262626;stroke-linecap:square;stroke-linejoin:miter;stroke-width:1.875;"/>
   </g>
   <g id="patch_4">
    <path d="M 317.450547 279.256 
L 317.450547 63.636 
" style="fill:none;stroke:#262626;stroke-linecap:square;stroke-linejoin:miter;stroke-width:1.875;"/>
   </g>
   <g id="patch_5">
    <path d="M 50.515547 279.256 
L 317.450547 279.256 
" style="fill:none;stroke:#262626;stroke-linecap:square;stroke-linejoin:miter;stroke-width:1.875;"/>
   </g>
   <g id="patch_6">
    <path d="M 50.515547 63.636 
L 317.450547 63.636 
" style="fill:none;stroke:#262626;stroke-linecap:square;stroke-linejoin:miter;stroke-width:1.875;"/>
   </g>
   <g id="text_9">
    <!-- $\tau=600$ s -->
    <g style="fill:#9a4508;" transform="translate(224.023297 85.198)scale(0.18 -0.18)">
     <defs>
      <path d="M 32.859375 9.96875 
Q 34.1875 7.625 39.453125 7.625 
L 43.75 7.625 
L 42.28125 0 
L 36.921875 0 
Q 28.125 0 25 4.6875 
Q 21.921875 9.46875 23.96875 19.828125 
L 29 45.703125 
L 8.453125 45.703125 
L 10.203125 54.6875 
L 60.640625 54.6875 
L 58.890625 45.703125 
L 38.1875 45.703125 
L 33.015625 19.28125 
Q 31.640625 12.203125 32.859375 9.96875 
z
" id="DejaVuSans-Oblique-964"/>
      <path d="M 10.59375 45.40625 
L 73.1875 45.40625 
L 73.1875 37.203125 
L 10.59375 37.203125 
z
M 10.59375 25.484375 
L 73.1875 25.484375 
L 73.1875 17.1875 
L 10.59375 17.1875 
z
" id="DejaVuSans-61"/>
      <path d="M 33.015625 40.375 
Q 26.375 40.375 22.484375 35.828125 
Q 18.609375 31.296875 18.609375 23.390625 
Q 18.609375 15.53125 22.484375 10.953125 
Q 26.375 6.390625 33.015625 6.390625 
Q 39.65625 6.390625 43.53125 10.953125 
Q 47.40625 15.53125 47.40625 23.390625 
Q 47.40625 31.296875 43.53125 35.828125 
Q 39.65625 40.375 33.015625 40.375 
z
M 52.59375 71.296875 
L 52.59375 62.3125 
Q 48.875 64.0625 45.09375 64.984375 
Q 41.3125 65.921875 37.59375 65.921875 
Q 27.828125 65.921875 22.671875 59.328125 
Q 17.53125 52.734375 16.796875 39.40625 
Q 19.671875 43.65625 24.015625 45.921875 
Q 28.375 48.1875 33.59375 48.1875 
Q 44.578125 48.1875 50.953125 41.515625 
Q 57.328125 34.859375 57.328125 23.390625 
Q 57.328125 12.15625 50.6875 5.359375 
Q 44.046875 -1.421875 33.015625 -1.421875 
Q 20.359375 -1.421875 13.671875 8.265625 
Q 6.984375 17.96875 6.984375 36.375 
Q 6.984375 53.65625 15.1875 63.9375 
Q 23.390625 74.21875 37.203125 74.21875 
Q 40.921875 74.21875 44.703125 73.484375 
Q 48.484375 72.75 52.59375 71.296875 
z
" id="DejaVuSans-54"/>
      <path d="M 31.78125 66.40625 
Q 24.171875 66.40625 20.328125 58.90625 
Q 16.5 51.421875 16.5 36.375 
Q 16.5 21.390625 20.328125 13.890625 
Q 24.171875 6.390625 31.78125 6.390625 
Q 39.453125 6.390625 43.28125 13.890625 
Q 47.125 21.390625 47.125 36.375 
Q 47.125 51.421875 43.28125 58.90625 
Q 39.453125 66.40625 31.78125 66.40625 
z
M 31.78125 74.21875 
Q 44.046875 74.21875 50.515625 64.515625 
Q 56.984375 54.828125 56.984375 36.375 
Q 56.984375 17.96875 50.515625 8.265625 
Q 44.046875 -1.421875 31.78125 -1.421875 
Q 19.53125 -1.421875 13.0625 8.265625 
Q 6.59375 17.96875 6.59375 36.375 
Q 6.59375 54.828125 13.0625 64.515625 
Q 19.53125 74.21875 31.78125 74.21875 
z
" id="DejaVuSans-48"/>
     </defs>
     <use transform="translate(0 0.78125)" xlink:href="#DejaVuSans-Oblique-964"/>
     <use transform="translate(79.6875 0.78125)" xlink:href="#DejaVuSans-61"/>
     <use transform="translate(182.958984 0.78125)" xlink:href="#DejaVuSans-54"/>
     <use transform="translate(246.582031 0.78125)" xlink:href="#DejaVuSans-48"/>
     <use transform="translate(310.205078 0.78125)" xlink:href="#DejaVuSans-48"/>
     <use transform="translate(373.828125 0.78125)" xlink:href="#ArialMT-32"/>
     <use transform="translate(401.611328 0.78125)" xlink:href="#ArialMT-115"/>
    </g>
   </g>
   <g id="legend_1">
    <g id="patch_7">
     <path d="M 55.258704 53.134969 
L 677.308704 53.134969 
Q 680.608704 53.134969 680.608704 49.834969 
L 680.608704 10.5 
Q 680.608704 7.2 677.308704 7.2 
L 55.258704 7.2 
Q 51.958704 7.2 51.958704 10.5 
L 51.958704 49.834969 
Q 51.958704 53.134969 55.258704 53.134969 
z
" style="fill:#ffffff;opacity:0.8;stroke:#cccccc;stroke-linejoin:miter;stroke-width:1.5;"/>
    </g>
    <g id="line2d_12">
     <path d="M 58.558704 30.29768 
L 91.558704 30.29768 
" style="fill:none;stroke:#9a4508;stroke-linecap:round;stroke-width:3;"/>
    </g>
    <g id="line2d_13"/>
    <g id="text_10">
     <!-- Binding site region: -->
     <g style="fill:#262626;" transform="translate(104.758704 25.610391)scale(0.165 -0.165)">
      <defs>
       <path d="M 7.328125 0 
L 7.328125 71.578125 
L 34.1875 71.578125 
Q 42.390625 71.578125 47.34375 69.40625 
Q 52.296875 67.234375 55.09375 62.71875 
Q 57.90625 58.203125 57.90625 53.265625 
Q 57.90625 48.6875 55.421875 44.625 
Q 52.9375 40.578125 47.90625 38.09375 
Q 54.390625 36.1875 57.875 31.59375 
Q 61.375 27 61.375 20.75 
Q 61.375 15.71875 59.25 11.390625 
Q 57.125 7.078125 54 4.734375 
Q 50.875 2.390625 46.15625 1.1875 
Q 41.453125 0 34.625 0 
z
M 16.796875 41.5 
L 32.28125 41.5 
Q 38.578125 41.5 41.3125 42.328125 
Q 44.921875 43.40625 46.75 45.890625 
Q 48.578125 48.390625 48.578125 52.15625 
Q 48.578125 55.71875 46.875 58.421875 
Q 45.171875 61.140625 41.984375 62.140625 
Q 38.8125 63.140625 31.109375 63.140625 
L 16.796875 63.140625 
z
M 16.796875 8.453125 
L 34.625 8.453125 
Q 39.203125 8.453125 41.0625 8.796875 
Q 44.34375 9.375 46.53125 10.734375 
Q 48.734375 12.109375 50.140625 14.71875 
Q 51.5625 17.328125 51.5625 20.75 
Q 51.5625 24.75 49.515625 27.703125 
Q 47.46875 30.671875 43.828125 31.859375 
Q 40.1875 33.0625 33.34375 33.0625 
L 16.796875 33.0625 
z
" id="ArialMT-66"/>
       <path d="M 6.59375 0 
L 6.59375 51.859375 
L 14.5 51.859375 
L 14.5 44.484375 
Q 20.21875 53.03125 31 53.03125 
Q 35.6875 53.03125 39.625 51.34375 
Q 43.5625 49.65625 45.515625 46.921875 
Q 47.46875 44.1875 48.25 40.4375 
Q 48.734375 37.984375 48.734375 31.890625 
L 48.734375 0 
L 39.9375 0 
L 39.9375 31.546875 
Q 39.9375 36.921875 38.90625 39.578125 
Q 37.890625 42.234375 35.28125 43.8125 
Q 32.671875 45.40625 29.15625 45.40625 
Q 23.53125 45.40625 19.453125 41.84375 
Q 15.375 38.28125 15.375 28.328125 
L 15.375 0 
z
" id="ArialMT-110"/>
       <path d="M 40.234375 0 
L 40.234375 6.546875 
Q 35.296875 -1.171875 25.734375 -1.171875 
Q 19.53125 -1.171875 14.328125 2.25 
Q 9.125 5.671875 6.265625 11.796875 
Q 3.421875 17.921875 3.421875 25.875 
Q 3.421875 33.640625 6 39.96875 
Q 8.59375 46.296875 13.765625 49.65625 
Q 18.953125 53.03125 25.34375 53.03125 
Q 30.03125 53.03125 33.6875 51.046875 
Q 37.359375 49.078125 39.65625 45.90625 
L 39.65625 71.578125 
L 48.390625 71.578125 
L 48.390625 0 
z
M 12.453125 25.875 
Q 12.453125 15.921875 16.640625 10.984375 
Q 20.84375 6.0625 26.5625 6.0625 
Q 32.328125 6.0625 36.34375 10.765625 
Q 40.375 15.484375 40.375 25.140625 
Q 40.375 35.796875 36.265625 40.765625 
Q 32.171875 45.75 26.171875 45.75 
Q 20.3125 45.75 16.375 40.96875 
Q 12.453125 36.1875 12.453125 25.875 
z
" id="ArialMT-100"/>
       <path d="M 4.984375 -4.296875 
L 13.53125 -5.5625 
Q 14.0625 -9.515625 16.5 -11.328125 
Q 19.78125 -13.765625 25.4375 -13.765625 
Q 31.546875 -13.765625 34.859375 -11.328125 
Q 38.1875 -8.890625 39.359375 -4.5 
Q 40.046875 -1.8125 39.984375 6.78125 
Q 34.234375 0 25.640625 0 
Q 14.9375 0 9.078125 7.71875 
Q 3.21875 15.4375 3.21875 26.21875 
Q 3.21875 33.640625 5.90625 39.90625 
Q 8.59375 46.1875 13.6875 49.609375 
Q 18.796875 53.03125 25.6875 53.03125 
Q 34.859375 53.03125 40.828125 45.609375 
L 40.828125 51.859375 
L 48.921875 51.859375 
L 48.921875 7.03125 
Q 48.921875 -5.078125 46.453125 -10.125 
Q 44 -15.1875 38.640625 -18.109375 
Q 33.296875 -21.046875 25.484375 -21.046875 
Q 16.21875 -21.046875 10.5 -16.875 
Q 4.78125 -12.703125 4.984375 -4.296875 
z
M 12.25 26.859375 
Q 12.25 16.65625 16.296875 11.96875 
Q 20.359375 7.28125 26.46875 7.28125 
Q 32.515625 7.28125 36.609375 11.9375 
Q 40.71875 16.609375 40.71875 26.5625 
Q 40.71875 36.078125 36.5 40.90625 
Q 32.28125 45.75 26.3125 45.75 
Q 20.453125 45.75 16.34375 40.984375 
Q 12.25 36.234375 12.25 26.859375 
z
" id="ArialMT-103"/>
       <path d="M 42.09375 16.703125 
L 51.171875 15.578125 
Q 49.03125 7.625 43.21875 3.21875 
Q 37.40625 -1.171875 28.375 -1.171875 
Q 17 -1.171875 10.328125 5.828125 
Q 3.65625 12.84375 3.65625 25.484375 
Q 3.65625 38.578125 10.390625 45.796875 
Q 17.140625 53.03125 27.875 53.03125 
Q 38.28125 53.03125 44.875 45.953125 
Q 51.46875 38.875 51.46875 26.03125 
Q 51.46875 25.25 51.421875 23.6875 
L 12.75 23.6875 
Q 13.234375 15.140625 17.578125 10.59375 
Q 21.921875 6.0625 28.421875 6.0625 
Q 33.25 6.0625 36.671875 8.59375 
Q 40.09375 11.140625 42.09375 16.703125 
z
M 13.234375 30.90625 
L 42.1875 30.90625 
Q 41.609375 37.453125 38.875 40.71875 
Q 34.671875 45.796875 27.984375 45.796875 
Q 21.921875 45.796875 17.796875 41.75 
Q 13.671875 37.703125 13.234375 30.90625 
z
" id="ArialMT-101"/>
       <path d="M 6.5 0 
L 6.5 51.859375 
L 14.40625 51.859375 
L 14.40625 44 
Q 17.4375 49.515625 20 51.265625 
Q 22.5625 53.03125 25.640625 53.03125 
Q 30.078125 53.03125 34.671875 50.203125 
L 31.640625 42.046875 
Q 28.421875 43.953125 25.203125 43.953125 
Q 22.3125 43.953125 20.015625 42.21875 
Q 17.71875 40.484375 16.75 37.40625 
Q 15.28125 32.71875 15.28125 27.15625 
L 15.28125 0 
z
" id="ArialMT-114"/>
       <path d="M 3.328125 25.921875 
Q 3.328125 40.328125 11.328125 47.265625 
Q 18.015625 53.03125 27.640625 53.03125 
Q 38.328125 53.03125 45.109375 46.015625 
Q 51.90625 39.015625 51.90625 26.65625 
Q 51.90625 16.65625 48.90625 10.90625 
Q 45.90625 5.171875 40.15625 2 
Q 34.421875 -1.171875 27.640625 -1.171875 
Q 16.75 -1.171875 10.03125 5.8125 
Q 3.328125 12.796875 3.328125 25.921875 
z
M 12.359375 25.921875 
Q 12.359375 15.96875 16.703125 11.015625 
Q 21.046875 6.0625 27.640625 6.0625 
Q 34.1875 6.0625 38.53125 11.03125 
Q 42.875 16.015625 42.875 26.21875 
Q 42.875 35.84375 38.5 40.796875 
Q 34.125 45.75 27.640625 45.75 
Q 21.046875 45.75 16.703125 40.8125 
Q 12.359375 35.890625 12.359375 25.921875 
z
" id="ArialMT-111"/>
       <path d="M 9.03125 41.84375 
L 9.03125 51.859375 
L 19.046875 51.859375 
L 19.046875 41.84375 
z
M 9.03125 0 
L 9.03125 10.015625 
L 19.046875 10.015625 
L 19.046875 0 
z
" id="ArialMT-58"/>
      </defs>
      <use xlink:href="#ArialMT-66"/>
      <use x="66.699219" xlink:href="#ArialMT-105"/>
      <use x="88.916016" xlink:href="#ArialMT-110"/>
      <use x="144.53125" xlink:href="#ArialMT-100"/>
      <use x="200.146484" xlink:href="#ArialMT-105"/>
      <use x="222.363281" xlink:href="#ArialMT-110"/>
      <use x="277.978516" xlink:href="#ArialMT-103"/>
      <use x="333.59375" xlink:href="#ArialMT-32"/>
      <use x="361.376953" xlink:href="#ArialMT-115"/>
      <use x="411.376953" xlink:href="#ArialMT-105"/>
      <use x="433.59375" xlink:href="#ArialMT-116"/>
      <use x="461.376953" xlink:href="#ArialMT-101"/>
      <use x="516.992188" xlink:href="#ArialMT-32"/>
      <use x="544.775391" xlink:href="#ArialMT-114"/>
      <use x="578.076172" xlink:href="#ArialMT-101"/>
      <use x="633.691406" xlink:href="#ArialMT-103"/>
      <use x="689.306641" xlink:href="#ArialMT-105"/>
      <use x="711.523438" xlink:href="#ArialMT-111"/>
      <use x="767.138672" xlink:href="#ArialMT-110"/>
      <use x="822.753906" xlink:href="#ArialMT-58"/>
     </g>
     <!--  -->
     <g style="fill:#262626;" transform="translate(104.758704 43.255594)scale(0.165 -0.165)"/>
    </g>
    <g id="line2d_14">
     <path d="M 278.088626 30.29768 
L 311.088626 30.29768 
" style="fill:none;stroke:#fbb44d;stroke-dasharray:19.2,4.8,3,4.8;stroke-dashoffset:0;stroke-width:3;"/>
    </g>
    <g id="line2d_15"/>
    <g id="text_11">
     <!-- DNA region:                  -->
     <g style="fill:#262626;" transform="translate(324.288626 25.610391)scale(0.165 -0.165)">
      <defs>
       <path d="M 7.71875 0 
L 7.71875 71.578125 
L 32.375 71.578125 
Q 40.71875 71.578125 45.125 70.5625 
Q 51.265625 69.140625 55.609375 65.4375 
Q 61.28125 60.640625 64.078125 53.1875 
Q 66.890625 45.75 66.890625 36.1875 
Q 66.890625 28.03125 64.984375 21.734375 
Q 63.09375 15.4375 60.109375 11.296875 
Q 57.125 7.171875 53.578125 4.796875 
Q 50.046875 2.4375 45.046875 1.21875 
Q 40.046875 0 33.546875 0 
z
M 17.1875 8.453125 
L 32.46875 8.453125 
Q 39.546875 8.453125 43.578125 9.765625 
Q 47.609375 11.078125 50 13.484375 
Q 53.375 16.84375 55.25 22.53125 
Q 57.125 28.21875 57.125 36.328125 
Q 57.125 47.5625 53.4375 53.59375 
Q 49.75 59.625 44.484375 61.671875 
Q 40.671875 63.140625 32.234375 63.140625 
L 17.1875 63.140625 
z
" id="ArialMT-68"/>
       <path d="M 7.625 0 
L 7.625 71.578125 
L 17.328125 71.578125 
L 54.9375 15.375 
L 54.9375 71.578125 
L 64.015625 71.578125 
L 64.015625 0 
L 54.296875 0 
L 16.703125 56.25 
L 16.703125 0 
z
" id="ArialMT-78"/>
       <path d="M -0.140625 0 
L 27.34375 71.578125 
L 37.546875 71.578125 
L 66.84375 0 
L 56.0625 0 
L 47.703125 21.6875 
L 17.78125 21.6875 
L 9.90625 0 
z
M 20.515625 29.390625 
L 44.78125 29.390625 
L 37.3125 49.21875 
Q 33.890625 58.25 32.234375 64.0625 
Q 30.859375 57.171875 28.375 50.390625 
z
" id="ArialMT-65"/>
      </defs>
      <use xlink:href="#ArialMT-68"/>
      <use x="72.216797" xlink:href="#ArialMT-78"/>
      <use x="144.433594" xlink:href="#ArialMT-65"/>
      <use x="205.632812" xlink:href="#ArialMT-32"/>
      <use x="233.416016" xlink:href="#ArialMT-114"/>
      <use x="266.716797" xlink:href="#ArialMT-101"/>
      <use x="322.332031" xlink:href="#ArialMT-103"/>
      <use x="377.947266" xlink:href="#ArialMT-105"/>
      <use x="400.164062" xlink:href="#ArialMT-111"/>
      <use x="455.779297" xlink:href="#ArialMT-110"/>
      <use x="511.394531" xlink:href="#ArialMT-58"/>
      <use x="539.177734" xlink:href="#ArialMT-32"/>
      <use x="566.960938" xlink:href="#ArialMT-32"/>
      <use x="594.744141" xlink:href="#ArialMT-32"/>
      <use x="622.527344" xlink:href="#ArialMT-32"/>
      <use x="650.310547" xlink:href="#ArialMT-32"/>
      <use x="678.09375" xlink:href="#ArialMT-32"/>
      <use x="705.876953" xlink:href="#ArialMT-32"/>
      <use x="733.660156" xlink:href="#ArialMT-32"/>
      <use x="761.443359" xlink:href="#ArialMT-32"/>
      <use x="789.226562" xlink:href="#ArialMT-32"/>
      <use x="817.009766" xlink:href="#ArialMT-32"/>
      <use x="844.792969" xlink:href="#ArialMT-32"/>
      <use x="872.576172" xlink:href="#ArialMT-32"/>
      <use x="900.359375" xlink:href="#ArialMT-32"/>
      <use x="928.142578" xlink:href="#ArialMT-32"/>
      <use x="955.925781" xlink:href="#ArialMT-32"/>
      <use x="983.708984" xlink:href="#ArialMT-32"/>
     </g>
     <!--  -->
     <g style="fill:#262626;" transform="translate(324.288626 43.255594)scale(0.165 -0.165)"/>
    </g>
    <g id="line2d_16">
     <path d="M 524.175814 30.29768 
L 557.175814 30.29768 
" style="fill:none;stroke:#9a4508;stroke-dasharray:3,4.95;stroke-dashoffset:0;stroke-width:3;"/>
    </g>
    <g id="line2d_17"/>
    <g id="text_12">
     <!-- Gaussian -->
     <g style="fill:#262626;" transform="translate(570.375814 25.70707)scale(0.165 -0.165)">
      <defs>
       <path d="M 41.21875 28.078125 
L 41.21875 36.46875 
L 71.53125 36.53125 
L 71.53125 9.96875 
Q 64.546875 4.390625 57.125 1.578125 
Q 49.703125 -1.21875 41.890625 -1.21875 
Q 31.34375 -1.21875 22.71875 3.296875 
Q 14.109375 7.8125 9.71875 16.359375 
Q 5.328125 24.90625 5.328125 35.453125 
Q 5.328125 45.90625 9.6875 54.953125 
Q 14.0625 64.015625 22.265625 68.40625 
Q 30.46875 72.796875 41.15625 72.796875 
Q 48.921875 72.796875 55.1875 70.28125 
Q 61.46875 67.78125 65.03125 63.28125 
Q 68.609375 58.796875 70.453125 51.5625 
L 61.921875 49.21875 
Q 60.296875 54.6875 57.90625 57.8125 
Q 55.515625 60.9375 51.0625 62.8125 
Q 46.625 64.703125 41.21875 64.703125 
Q 34.71875 64.703125 29.984375 62.71875 
Q 25.25 60.75 22.34375 57.515625 
Q 19.4375 54.296875 17.828125 50.4375 
Q 15.09375 43.796875 15.09375 36.03125 
Q 15.09375 26.46875 18.390625 20.015625 
Q 21.6875 13.578125 27.984375 10.453125 
Q 34.28125 7.328125 41.359375 7.328125 
Q 47.515625 7.328125 53.375 9.6875 
Q 59.234375 12.0625 62.25 14.75 
L 62.25 28.078125 
z
" id="ArialMT-71"/>
       <path d="M 40.4375 6.390625 
Q 35.546875 2.25 31.03125 0.53125 
Q 26.515625 -1.171875 21.34375 -1.171875 
Q 12.796875 -1.171875 8.203125 3 
Q 3.609375 7.171875 3.609375 13.671875 
Q 3.609375 17.484375 5.34375 20.625 
Q 7.078125 23.78125 9.890625 25.6875 
Q 12.703125 27.59375 16.21875 28.5625 
Q 18.796875 29.25 24.03125 29.890625 
Q 34.671875 31.15625 39.703125 32.90625 
Q 39.75 34.71875 39.75 35.203125 
Q 39.75 40.578125 37.25 42.78125 
Q 33.890625 45.75 27.25 45.75 
Q 21.046875 45.75 18.09375 43.578125 
Q 15.140625 41.40625 13.71875 35.890625 
L 5.125 37.0625 
Q 6.296875 42.578125 8.984375 45.96875 
Q 11.671875 49.359375 16.75 51.1875 
Q 21.828125 53.03125 28.515625 53.03125 
Q 35.15625 53.03125 39.296875 51.46875 
Q 43.453125 49.90625 45.40625 47.53125 
Q 47.359375 45.171875 48.140625 41.546875 
Q 48.578125 39.3125 48.578125 33.453125 
L 48.578125 21.734375 
Q 48.578125 9.46875 49.140625 6.21875 
Q 49.703125 2.984375 51.375 0 
L 42.1875 0 
Q 40.828125 2.734375 40.4375 6.390625 
z
M 39.703125 26.03125 
Q 34.90625 24.078125 25.34375 22.703125 
Q 19.921875 21.921875 17.671875 20.9375 
Q 15.4375 19.96875 14.203125 18.09375 
Q 12.984375 16.21875 12.984375 13.921875 
Q 12.984375 10.40625 15.640625 8.0625 
Q 18.3125 5.71875 23.4375 5.71875 
Q 28.515625 5.71875 32.46875 7.9375 
Q 36.421875 10.15625 38.28125 14.015625 
Q 39.703125 17 39.703125 22.796875 
z
" id="ArialMT-97"/>
       <path d="M 40.578125 0 
L 40.578125 7.625 
Q 34.515625 -1.171875 24.125 -1.171875 
Q 19.53125 -1.171875 15.546875 0.578125 
Q 11.578125 2.34375 9.640625 5 
Q 7.71875 7.671875 6.9375 11.53125 
Q 6.390625 14.109375 6.390625 19.734375 
L 6.390625 51.859375 
L 15.1875 51.859375 
L 15.1875 23.09375 
Q 15.1875 16.21875 15.71875 13.8125 
Q 16.546875 10.359375 19.234375 8.375 
Q 21.921875 6.390625 25.875 6.390625 
Q 29.828125 6.390625 33.296875 8.421875 
Q 36.765625 10.453125 38.203125 13.9375 
Q 39.65625 17.4375 39.65625 24.078125 
L 39.65625 51.859375 
L 48.4375 51.859375 
L 48.4375 0 
z
" id="ArialMT-117"/>
      </defs>
      <use xlink:href="#ArialMT-71"/>
      <use x="77.783203" xlink:href="#ArialMT-97"/>
      <use x="133.398438" xlink:href="#ArialMT-117"/>
      <use x="189.013672" xlink:href="#ArialMT-115"/>
      <use x="239.013672" xlink:href="#ArialMT-115"/>
      <use x="289.013672" xlink:href="#ArialMT-105"/>
      <use x="311.230469" xlink:href="#ArialMT-97"/>
      <use x="366.845703" xlink:href="#ArialMT-110"/>
     </g>
     <!-- approximation -->
     <g style="fill:#262626;" transform="translate(570.375814 43.158914)scale(0.165 -0.165)">
      <defs>
       <path d="M 6.59375 -19.875 
L 6.59375 51.859375 
L 14.59375 51.859375 
L 14.59375 45.125 
Q 17.4375 49.078125 21 51.046875 
Q 24.5625 53.03125 29.640625 53.03125 
Q 36.28125 53.03125 41.359375 49.609375 
Q 46.4375 46.1875 49.015625 39.953125 
Q 51.609375 33.734375 51.609375 26.3125 
Q 51.609375 18.359375 48.75 11.984375 
Q 45.90625 5.609375 40.453125 2.21875 
Q 35.015625 -1.171875 29 -1.171875 
Q 24.609375 -1.171875 21.109375 0.6875 
Q 17.625 2.546875 15.375 5.375 
L 15.375 -19.875 
z
M 14.546875 25.640625 
Q 14.546875 15.625 18.59375 10.84375 
Q 22.65625 6.0625 28.421875 6.0625 
Q 34.28125 6.0625 38.453125 11.015625 
Q 42.625 15.96875 42.625 26.375 
Q 42.625 36.28125 38.546875 41.203125 
Q 34.46875 46.140625 28.8125 46.140625 
Q 23.1875 46.140625 18.859375 40.890625 
Q 14.546875 35.640625 14.546875 25.640625 
z
" id="ArialMT-112"/>
       <path d="M 0.734375 0 
L 19.671875 26.953125 
L 2.15625 51.859375 
L 13.140625 51.859375 
L 21.09375 39.703125 
Q 23.34375 36.234375 24.703125 33.890625 
Q 26.859375 37.109375 28.65625 39.59375 
L 37.40625 51.859375 
L 47.90625 51.859375 
L 29.984375 27.4375 
L 49.265625 0 
L 38.484375 0 
L 27.828125 16.109375 
L 25 20.453125 
L 11.375 0 
z
" id="ArialMT-120"/>
       <path d="M 6.59375 0 
L 6.59375 51.859375 
L 14.453125 51.859375 
L 14.453125 44.578125 
Q 16.890625 48.390625 20.9375 50.703125 
Q 25 53.03125 30.171875 53.03125 
Q 35.9375 53.03125 39.625 50.640625 
Q 43.3125 48.25 44.828125 43.953125 
Q 50.984375 53.03125 60.84375 53.03125 
Q 68.5625 53.03125 72.703125 48.75 
Q 76.859375 44.484375 76.859375 35.59375 
L 76.859375 0 
L 68.109375 0 
L 68.109375 32.671875 
Q 68.109375 37.9375 67.25 40.25 
Q 66.40625 42.578125 64.15625 43.984375 
Q 61.921875 45.40625 58.890625 45.40625 
Q 53.421875 45.40625 49.796875 41.765625 
Q 46.1875 38.140625 46.1875 30.125 
L 46.1875 0 
L 37.40625 0 
L 37.40625 33.6875 
Q 37.40625 39.546875 35.25 42.46875 
Q 33.109375 45.40625 28.21875 45.40625 
Q 24.515625 45.40625 21.359375 43.453125 
Q 18.21875 41.5 16.796875 37.734375 
Q 15.375 33.984375 15.375 26.90625 
L 15.375 0 
z
" id="ArialMT-109"/>
      </defs>
      <use xlink:href="#ArialMT-97"/>
      <use x="55.615234" xlink:href="#ArialMT-112"/>
      <use x="111.230469" xlink:href="#ArialMT-112"/>
      <use x="166.845703" xlink:href="#ArialMT-114"/>
      <use x="200.146484" xlink:href="#ArialMT-111"/>
      <use x="255.761719" xlink:href="#ArialMT-120"/>
      <use x="305.761719" xlink:href="#ArialMT-105"/>
      <use x="327.978516" xlink:href="#ArialMT-109"/>
      <use x="411.279297" xlink:href="#ArialMT-97"/>
      <use x="466.894531" xlink:href="#ArialMT-116"/>
      <use x="494.677734" xlink:href="#ArialMT-105"/>
      <use x="516.894531" xlink:href="#ArialMT-111"/>
      <use x="572.509766" xlink:href="#ArialMT-110"/>
     </g>
    </g>
   </g>
  </g>
  <g id="axes_2">
   <g id="patch_8">
    <path d="M 418.075547 279.256 
L 685.010547 279.256 
L 685.010547 63.636 
L 418.075547 63.636 
z
" style="fill:#ffffff;"/>
   </g>
   <g id="PolyCollection_3">
    <defs>
     <path d="M 430.208956 -262.248857 
L 430.208956 -66.640284 
L 534.209605 -66.640284 
L 534.209605 -262.248857 
L 534.209605 -262.248857 
L 430.208956 -262.248857 
z
" id="ma9b216daac" style="stroke:#fbb44d;stroke-opacity:0.2;stroke-width:1.5;"/>
    </defs>
    <g clip-path="url(#pdaa48fa78c)">
     <use style="fill:#fbb44d;fill-opacity:0.2;stroke:#fbb44d;stroke-opacity:0.2;stroke-width:1.5;" x="0" xlink:href="#ma9b216daac" y="335.685766"/>
    </g>
   </g>
   <g id="line2d_18">
    <path clip-path="url(#pdaa48fa78c)" d="M 430.208956 269.045482 
L 430.208956 73.545842 
" style="fill:none;stroke:#9a4508;stroke-dasharray:7.4,3.2;stroke-dashoffset:0;stroke-width:2;"/>
   </g>
   <g id="matplotlib.axis_3">
    <g id="xtick_4">
     <g id="line2d_19">
      <g>
       <use style="fill:#262626;stroke:#262626;stroke-width:1.875;" x="430.208956" xlink:href="#m6536bb7289" y="279.256"/>
      </g>
     </g>
     <g id="text_13">
      <!-- 0 -->
      <g style="fill:#262626;" transform="translate(425.621183 303.566391)scale(0.165 -0.165)">
       <use xlink:href="#ArialMT-48"/>
      </g>
     </g>
    </g>
    <g id="xtick_5">
     <g id="line2d_20">
      <g>
       <use style="fill:#262626;stroke:#262626;stroke-width:1.875;" x="516.876164" xlink:href="#m6536bb7289" y="279.256"/>
      </g>
     </g>
     <g id="text_14">
      <!-- 5 -->
      <g style="fill:#262626;" transform="translate(512.28839 303.566391)scale(0.165 -0.165)">
       <use xlink:href="#ArialMT-53"/>
      </g>
     </g>
    </g>
    <g id="xtick_6">
     <g id="line2d_21">
      <g>
       <use style="fill:#262626;stroke:#262626;stroke-width:1.875;" x="603.543372" xlink:href="#m6536bb7289" y="279.256"/>
      </g>
     </g>
     <g id="text_15">
      <!-- 10 -->
      <g style="fill:#262626;" transform="translate(594.367825 303.566391)scale(0.165 -0.165)">
       <use xlink:href="#ArialMT-49"/>
       <use x="55.615234" xlink:href="#ArialMT-48"/>
      </g>
     </g>
    </g>
    <g id="text_16">
     <!-- $J$ ($k_BT$) -->
     <g style="fill:#262626;" transform="translate(525.083047 324.525766)scale(0.18 -0.18)">
      <use transform="translate(0 0.015625)" xlink:href="#DejaVuSans-Oblique-74"/>
      <use transform="translate(29.492188 0.015625)" xlink:href="#ArialMT-32"/>
      <use transform="translate(57.275391 0.015625)" xlink:href="#ArialMT-40"/>
      <use transform="translate(90.576172 0.015625)" xlink:href="#DejaVuSans-Oblique-107"/>
      <use transform="translate(148.486328 -16.390625)scale(0.7)" xlink:href="#DejaVuSans-Oblique-66"/>
      <use transform="translate(199.243164 0.015625)" xlink:href="#DejaVuSans-Oblique-84"/>
      <use transform="translate(260.327148 0.015625)" xlink:href="#ArialMT-41"/>
     </g>
    </g>
   </g>
   <g id="matplotlib.axis_4">
    <g id="ytick_4">
     <g id="line2d_22">
      <g>
       <use style="fill:#262626;stroke:#262626;stroke-width:1.875;" x="418.075547" xlink:href="#ma3fa7e181b" y="210.800836"/>
      </g>
     </g>
     <g id="text_17">
      <!-- 1.4 -->
      <g style="fill:#262626;" transform="translate(382.640547 216.706032)scale(0.165 -0.165)">
       <defs>
        <path d="M 9.078125 0 
L 9.078125 10.015625 
L 19.09375 10.015625 
L 19.09375 0 
z
" id="ArialMT-46"/>
       </defs>
       <use xlink:href="#ArialMT-49"/>
       <use x="55.615234" xlink:href="#ArialMT-46"/>
       <use x="83.398438" xlink:href="#ArialMT-52"/>
      </g>
     </g>
    </g>
    <g id="ytick_5">
     <g id="line2d_23">
      <g>
       <use style="fill:#262626;stroke:#262626;stroke-width:1.875;" x="418.075547" xlink:href="#ma3fa7e181b" y="141.125505"/>
      </g>
     </g>
     <g id="text_18">
      <!-- 1.6 -->
      <g style="fill:#262626;" transform="translate(382.640547 147.030701)scale(0.165 -0.165)">
       <defs>
        <path d="M 49.75 54.046875 
L 41.015625 53.375 
Q 39.84375 58.546875 37.703125 60.890625 
Q 34.125 64.65625 28.90625 64.65625 
Q 24.703125 64.65625 21.53125 62.3125 
Q 17.390625 59.28125 14.984375 53.46875 
Q 12.59375 47.65625 12.5 36.921875 
Q 15.671875 41.75 20.265625 44.09375 
Q 24.859375 46.4375 29.890625 46.4375 
Q 38.671875 46.4375 44.84375 39.96875 
Q 51.03125 33.5 51.03125 23.25 
Q 51.03125 16.5 48.125 10.71875 
Q 45.21875 4.9375 40.140625 1.859375 
Q 35.0625 -1.21875 28.609375 -1.21875 
Q 17.625 -1.21875 10.6875 6.859375 
Q 3.765625 14.9375 3.765625 33.5 
Q 3.765625 54.25 11.421875 63.671875 
Q 18.109375 71.875 29.4375 71.875 
Q 37.890625 71.875 43.28125 67.140625 
Q 48.6875 62.40625 49.75 54.046875 
z
M 13.875 23.1875 
Q 13.875 18.65625 15.796875 14.5 
Q 17.71875 10.359375 21.1875 8.171875 
Q 24.65625 6 28.46875 6 
Q 34.03125 6 38.03125 10.484375 
Q 42.046875 14.984375 42.046875 22.703125 
Q 42.046875 30.125 38.078125 34.390625 
Q 34.125 38.671875 28.125 38.671875 
Q 22.171875 38.671875 18.015625 34.390625 
Q 13.875 30.125 13.875 23.1875 
z
" id="ArialMT-54"/>
       </defs>
       <use xlink:href="#ArialMT-49"/>
       <use x="55.615234" xlink:href="#ArialMT-46"/>
       <use x="83.398438" xlink:href="#ArialMT-54"/>
      </g>
     </g>
    </g>
    <g id="ytick_6">
     <g id="line2d_24">
      <g>
       <use style="fill:#262626;stroke:#262626;stroke-width:1.875;" x="418.075547" xlink:href="#ma3fa7e181b" y="71.450174"/>
      </g>
     </g>
     <g id="text_19">
      <!-- 1.8 -->
      <g style="fill:#262626;" transform="translate(382.640547 77.35537)scale(0.165 -0.165)">
       <defs>
        <path d="M 17.671875 38.8125 
Q 12.203125 40.828125 9.5625 44.53125 
Q 6.9375 48.25 6.9375 53.421875 
Q 6.9375 61.234375 12.546875 66.546875 
Q 18.171875 71.875 27.484375 71.875 
Q 36.859375 71.875 42.578125 66.421875 
Q 48.296875 60.984375 48.296875 53.171875 
Q 48.296875 48.1875 45.671875 44.5 
Q 43.0625 40.828125 37.75 38.8125 
Q 44.34375 36.671875 47.78125 31.875 
Q 51.21875 27.09375 51.21875 20.453125 
Q 51.21875 11.28125 44.71875 5.03125 
Q 38.234375 -1.21875 27.640625 -1.21875 
Q 17.046875 -1.21875 10.546875 5.046875 
Q 4.046875 11.328125 4.046875 20.703125 
Q 4.046875 27.6875 7.59375 32.390625 
Q 11.140625 37.109375 17.671875 38.8125 
z
M 15.921875 53.71875 
Q 15.921875 48.640625 19.1875 45.40625 
Q 22.46875 42.1875 27.6875 42.1875 
Q 32.765625 42.1875 36.015625 45.375 
Q 39.265625 48.578125 39.265625 53.21875 
Q 39.265625 58.0625 35.90625 61.359375 
Q 32.5625 64.65625 27.59375 64.65625 
Q 22.5625 64.65625 19.234375 61.421875 
Q 15.921875 58.203125 15.921875 53.71875 
z
M 13.09375 20.65625 
Q 13.09375 16.890625 14.875 13.375 
Q 16.65625 9.859375 20.171875 7.921875 
Q 23.6875 6 27.734375 6 
Q 34.03125 6 38.125 10.046875 
Q 42.234375 14.109375 42.234375 20.359375 
Q 42.234375 26.703125 38.015625 30.859375 
Q 33.796875 35.015625 27.4375 35.015625 
Q 21.234375 35.015625 17.15625 30.90625 
Q 13.09375 26.8125 13.09375 20.65625 
z
" id="ArialMT-56"/>
       </defs>
       <use xlink:href="#ArialMT-49"/>
       <use x="55.615234" xlink:href="#ArialMT-46"/>
       <use x="83.398438" xlink:href="#ArialMT-56"/>
      </g>
     </g>
    </g>
    <g id="text_20">
     <!-- $I(C;x)$ (bits) -->
     <g style="fill:#262626;" transform="translate(374.680547 220.046)rotate(-90)scale(0.18 -0.18)">
      <defs>
       <path d="M 60.015625 54.6875 
L 34.90625 27.875 
L 50.296875 0 
L 39.984375 0 
L 28.421875 21.6875 
L 8.296875 0 
L -2.59375 0 
L 24.3125 28.8125 
L 10.015625 54.6875 
L 20.3125 54.6875 
L 30.8125 34.90625 
L 49.125 54.6875 
z
" id="DejaVuSans-Oblique-120"/>
      </defs>
      <use transform="translate(0 0.125)" xlink:href="#DejaVuSans-Oblique-73"/>
      <use transform="translate(29.492188 0.125)" xlink:href="#DejaVuSans-40"/>
      <use transform="translate(68.505859 0.125)" xlink:href="#DejaVuSans-Oblique-67"/>
      <use transform="translate(138.330078 0.125)" xlink:href="#DejaVuSans-59"/>
      <use transform="translate(191.503906 0.125)" xlink:href="#DejaVuSans-Oblique-120"/>
      <use transform="translate(250.683594 0.125)" xlink:href="#DejaVuSans-41"/>
      <use transform="translate(289.697266 0.125)" xlink:href="#ArialMT-32"/>
      <use transform="translate(317.480469 0.125)" xlink:href="#ArialMT-40"/>
      <use transform="translate(350.78125 0.125)" xlink:href="#ArialMT-98"/>
      <use transform="translate(406.396484 0.125)" xlink:href="#ArialMT-105"/>
      <use transform="translate(428.613281 0.125)" xlink:href="#ArialMT-116"/>
      <use transform="translate(456.396484 0.125)" xlink:href="#ArialMT-115"/>
      <use transform="translate(506.396484 0.125)" xlink:href="#ArialMT-41"/>
     </g>
    </g>
   </g>
   <g id="PolyCollection_4">
    <defs>
     <path d="M 430.208956 -262.19209 
L 430.208956 -262.087756 
L 447.542398 -261.061017 
L 464.875839 -259.34612 
L 482.209281 -257.090856 
L 499.542722 -253.707389 
L 516.876164 -249.048677 
L 534.209605 -241.757051 
L 551.543047 -228.96983 
L 568.876488 -216.25658 
L 586.20993 -202.637262 
L 603.543372 -190.28266 
L 620.876813 -177.459346 
L 638.210255 -166.699871 
L 655.543696 -154.6103 
L 672.877138 -143.193251 
L 672.877138 -147.742139 
L 672.877138 -147.742139 
L 655.543696 -157.498956 
L 638.210255 -169.915844 
L 620.876813 -182.701976 
L 603.543372 -193.666484 
L 586.20993 -205.611091 
L 568.876488 -217.536309 
L 551.543047 -230.449271 
L 534.209605 -242.891542 
L 516.876164 -249.471447 
L 499.542722 -254.06908 
L 482.209281 -257.431068 
L 464.875839 -259.539611 
L 447.542398 -261.149315 
L 430.208956 -262.19209 
z
" id="ma909f9b9ed" style="stroke:#9a4508;stroke-opacity:0.3;stroke-width:1.5;"/>
    </defs>
    <g clip-path="url(#pdaa48fa78c)">
     <use style="fill:#9a4508;fill-opacity:0.3;stroke:#9a4508;stroke-opacity:0.3;stroke-width:1.5;" x="0" xlink:href="#ma909f9b9ed" y="335.685766"/>
    </g>
   </g>
   <g id="PolyCollection_5">
    <defs>
     <path d="M 430.208956 -262.221603 
L 430.208956 -262.127081 
L 447.542398 -261.031806 
L 464.875839 -259.34523 
L 482.209281 -257.135757 
L 499.542722 -253.606743 
L 516.876164 -248.731208 
L 534.209605 -240.963219 
L 551.543047 -229.975746 
L 568.876488 -214.521156 
L 586.20993 -203.873727 
L 603.543372 -190.944859 
L 620.876813 -179.833481 
L 638.210255 -168.059706 
L 655.543696 -142.702395 
L 672.877138 -66.230675 
L 672.877138 -68.911248 
L 672.877138 -68.911248 
L 655.543696 -145.950256 
L 638.210255 -172.798955 
L 620.876813 -185.127693 
L 603.543372 -192.999521 
L 586.20993 -205.640174 
L 568.876488 -215.564266 
L 551.543047 -230.577058 
L 534.209605 -242.007727 
L 516.876164 -249.001969 
L 499.542722 -254.025289 
L 482.209281 -257.458082 
L 464.875839 -259.616775 
L 447.542398 -261.150692 
L 430.208956 -262.221603 
z
" id="m526236bd86" style="stroke:#fbb44d;stroke-opacity:0.3;stroke-width:1.5;"/>
    </defs>
    <g clip-path="url(#pdaa48fa78c)">
     <use style="fill:#fbb44d;fill-opacity:0.3;stroke:#fbb44d;stroke-opacity:0.3;stroke-width:1.5;" x="0" xlink:href="#m526236bd86" y="335.685766"/>
    </g>
   </g>
   <g id="line2d_25">
    <path clip-path="url(#pdaa48fa78c)" d="M 430.208956 73.545842 
L 447.542398 74.580599 
L 464.875839 76.2429 
L 482.209281 78.424804 
L 499.542722 81.797531 
L 516.876164 86.425704 
L 534.209605 93.36147 
L 551.543047 105.976215 
L 568.876488 118.789321 
L 586.20993 131.561589 
L 603.543372 143.711194 
L 620.876813 155.605104 
L 638.210255 167.377908 
L 655.543696 179.631138 
L 672.877138 190.218071 
" style="fill:none;stroke:#9a4508;stroke-linecap:round;stroke-width:3;"/>
   </g>
   <g id="line2d_26">
    <path clip-path="url(#pdaa48fa78c)" d="M 430.208956 73.511423 
L 447.542398 74.594517 
L 464.875839 76.204763 
L 482.209281 78.388846 
L 499.542722 81.869749 
L 516.876164 86.819177 
L 534.209605 94.200292 
L 551.543047 105.409364 
L 568.876488 120.643055 
L 586.20993 130.928815 
L 603.543372 143.713576 
L 620.876813 153.205179 
L 638.210255 165.256435 
L 655.543696 191.35944 
L 672.877138 268.114804 
" style="fill:none;stroke:#fbb44d;stroke-dasharray:19.2,4.8,3,4.8;stroke-dashoffset:0;stroke-width:3;"/>
   </g>
   <g id="line2d_27">
    <path clip-path="url(#pdaa48fa78c)" d="M 430.208956 73.5715 
L 447.542398 74.644851 
L 464.875839 76.318625 
L 482.209281 78.72112 
L 499.542722 82.467022 
L 516.876164 88.372831 
L 534.209605 98.594591 
L 551.543047 119.940994 
L 568.876488 151.813836 
L 586.20993 181.900255 
L 603.543372 204.968426 
L 620.876813 220.952934 
L 638.210255 232.451277 
L 655.543696 241.314378 
L 672.877138 247.106552 
" style="fill:none;stroke:#9a4508;stroke-dasharray:3,4.95;stroke-dashoffset:0;stroke-width:3;"/>
   </g>
   <g id="line2d_28">
    <path clip-path="url(#pdaa48fa78c)" d="M 430.208956 73.5715 
L 447.542398 74.644844 
L 464.875839 76.318578 
L 482.209281 78.720901 
L 499.542722 82.466144 
L 516.876164 88.369418 
L 534.209605 98.580394 
L 551.543047 119.878899 
L 568.876488 151.575055 
L 586.20993 181.142479 
L 603.543372 202.898805 
L 620.876813 215.581356 
L 638.210255 218.232064 
L 655.543696 209.298711 
L 672.877138 198.827383 
" style="fill:none;stroke:#fbb44d;stroke-dasharray:3,4.95;stroke-dashoffset:0;stroke-width:3;"/>
   </g>
   <g id="patch_9">
    <path d="M 418.075547 279.256 
L 418.075547 63.636 
" style="fill:none;stroke:#262626;stroke-linecap:square;stroke-linejoin:miter;stroke-width:1.875;"/>
   </g>
   <g id="patch_10">
    <path d="M 685.010547 279.256 
L 685.010547 63.636 
" style="fill:none;stroke:#262626;stroke-linecap:square;stroke-linejoin:miter;stroke-width:1.875;"/>
   </g>
   <g id="patch_11">
    <path d="M 418.075547 279.256 
L 685.010547 279.256 
" style="fill:none;stroke:#262626;stroke-linecap:square;stroke-linejoin:miter;stroke-width:1.875;"/>
   </g>
   <g id="patch_12">
    <path d="M 418.075547 63.636 
L 685.010547 63.636 
" style="fill:none;stroke:#262626;stroke-linecap:square;stroke-linejoin:miter;stroke-width:1.875;"/>
   </g>
   <g id="text_21">
    <!-- $\tau=600$ s -->
    <g style="fill:#9a4508;" transform="translate(591.583297 85.223618)scale(0.18 -0.18)">
     <use transform="translate(0 0.78125)" xlink:href="#DejaVuSans-Oblique-964"/>
     <use transform="translate(79.6875 0.78125)" xlink:href="#DejaVuSans-61"/>
     <use transform="translate(182.958984 0.78125)" xlink:href="#DejaVuSans-54"/>
     <use transform="translate(246.582031 0.78125)" xlink:href="#DejaVuSans-48"/>
     <use transform="translate(310.205078 0.78125)" xlink:href="#DejaVuSans-48"/>
     <use transform="translate(373.828125 0.78125)" xlink:href="#ArialMT-32"/>
     <use transform="translate(401.611328 0.78125)" xlink:href="#ArialMT-115"/>
    </g>
   </g>
  </g>
 </g>
 <defs>
  <clipPath id="p43ead7523a">
   <rect height="215.62" width="266.935" x="50.515547" y="63.636"/>
  </clipPath>
  <clipPath id="pdaa48fa78c">
   <rect height="215.62" width="266.935" x="418.075547" y="63.636"/>
  </clipPath>
 </defs>
</svg>
