<?xml version="1.0" encoding="utf-8" standalone="no"?>
<!DOCTYPE svg PUBLIC "-//W3C//DTD SVG 1.1//EN"
  "http://www.w3.org/Graphics/SVG/1.1/DTD/svg11.dtd">
<svg xmlns:xlink="http://www.w3.org/1999/xlink" width="370.938047pt" height="247.655391pt" viewBox="0 0 370.938047 247.655391" xmlns="http://www.w3.org/2000/svg" version="1.1">
 <metadata>
  <rdf:RDF xmlns:dc="http://purl.org/dc/elements/1.1/" xmlns:cc="http://creativecommons.org/ns#" xmlns:rdf="http://www.w3.org/1999/02/22-rdf-syntax-ns#">
   <cc:Work>
    <dc:type rdf:resource="http://purl.org/dc/dcmitype/StillImage"/>
    <dc:date>2025-11-19T19:34:51.909587</dc:date>
    <dc:format>image/svg+xml</dc:format>
    <dc:creator>
     <cc:Agent>
      <dc:title>Matplotlib v3.10.7, https://matplotlib.org/</dc:title>
     </cc:Agent>
    </dc:creator>
   </cc:Work>
  </rdf:RDF>
 </metadata>
 <defs>
  <style type="text/css">*{stroke-linejoin: round; stroke-linecap: butt}</style>
 </defs>
 <g id="figure_1">
  <g id="patch_1">
   <path d="M 0 247.655391 
L 370.938047 247.655391 
L 370.938047 -0 
L 0 -0 
z
" style="fill: #ffffff"/>
  </g>
  <g id="axes_1">
   <g id="patch_2">
    <path d="M 73.270547 192.404063 
L 352.270547 192.404063 
L 352.270547 26.084063 
L 73.270547 26.084063 
z
" style="fill: #ffffff"/>
   </g>
   <g id="matplotlib.axis_1">
    <g id="xtick_1">
     <g id="line2d_1">
      <defs>
       <path id="mb360a856d7" d="M 0 0 
L 0 9 
" style="stroke: #262626; stroke-width: 1.875"/>
      </defs>
      <g>
       <use xlink:href="#mb360a856d7" x="73.270547" y="192.404063" style="fill: #262626; stroke: #262626; stroke-width: 1.875"/>
      </g>
     </g>
     <g id="text_1">
      <!-- 0.0 -->
      <g style="fill: #262626" transform="translate(61.803047 216.714453) scale(0.165 -0.165)">
       <defs>
        <path id="ArialMT-30" d="M 266 2259 
Q 266 3072 433 3567 
Q 600 4063 929 4331 
Q 1259 4600 1759 4600 
Q 2128 4600 2406 4451 
Q 2684 4303 2865 4023 
Q 3047 3744 3150 3342 
Q 3253 2941 3253 2259 
Q 3253 1453 3087 958 
Q 2922 463 2592 192 
Q 2263 -78 1759 -78 
Q 1097 -78 719 397 
Q 266 969 266 2259 
z
M 844 2259 
Q 844 1131 1108 757 
Q 1372 384 1759 384 
Q 2147 384 2411 759 
Q 2675 1134 2675 2259 
Q 2675 3391 2411 3762 
Q 2147 4134 1753 4134 
Q 1366 4134 1134 3806 
Q 844 3388 844 2259 
z
" transform="scale(0.015625)"/>
        <path id="ArialMT-2e" d="M 581 0 
L 581 641 
L 1222 641 
L 1222 0 
L 581 0 
z
" transform="scale(0.015625)"/>
       </defs>
       <use xlink:href="#ArialMT-30"/>
       <use xlink:href="#ArialMT-2e" transform="translate(55.615234 0)"/>
       <use xlink:href="#ArialMT-30" transform="translate(83.398438 0)"/>
      </g>
     </g>
    </g>
    <g id="xtick_2">
     <g id="line2d_2">
      <g>
       <use xlink:href="#mb360a856d7" x="166.270547" y="192.404063" style="fill: #262626; stroke: #262626; stroke-width: 1.875"/>
      </g>
     </g>
     <g id="text_2">
      <!-- 0.2 -->
      <g style="fill: #262626" transform="translate(154.803047 216.714453) scale(0.165 -0.165)">
       <defs>
        <path id="ArialMT-32" d="M 3222 541 
L 3222 0 
L 194 0 
Q 188 203 259 391 
Q 375 700 629 1000 
Q 884 1300 1366 1694 
Q 2113 2306 2375 2664 
Q 2638 3022 2638 3341 
Q 2638 3675 2398 3904 
Q 2159 4134 1775 4134 
Q 1369 4134 1125 3890 
Q 881 3647 878 3216 
L 300 3275 
Q 359 3922 746 4261 
Q 1134 4600 1788 4600 
Q 2447 4600 2831 4234 
Q 3216 3869 3216 3328 
Q 3216 3053 3103 2787 
Q 2991 2522 2730 2228 
Q 2469 1934 1863 1422 
Q 1356 997 1212 845 
Q 1069 694 975 541 
L 3222 541 
z
" transform="scale(0.015625)"/>
       </defs>
       <use xlink:href="#ArialMT-30"/>
       <use xlink:href="#ArialMT-2e" transform="translate(55.615234 0)"/>
       <use xlink:href="#ArialMT-32" transform="translate(83.398438 0)"/>
      </g>
     </g>
    </g>
    <g id="xtick_3">
     <g id="line2d_3">
      <g>
       <use xlink:href="#mb360a856d7" x="259.270547" y="192.404063" style="fill: #262626; stroke: #262626; stroke-width: 1.875"/>
      </g>
     </g>
     <g id="text_3">
      <!-- 0.4 -->
      <g style="fill: #262626" transform="translate(247.803047 216.714453) scale(0.165 -0.165)">
       <defs>
        <path id="ArialMT-34" d="M 2069 0 
L 2069 1097 
L 81 1097 
L 81 1613 
L 2172 4581 
L 2631 4581 
L 2631 1613 
L 3250 1613 
L 3250 1097 
L 2631 1097 
L 2631 0 
L 2069 0 
z
M 2069 1613 
L 2069 3678 
L 634 1613 
L 2069 1613 
z
" transform="scale(0.015625)"/>
       </defs>
       <use xlink:href="#ArialMT-30"/>
       <use xlink:href="#ArialMT-2e" transform="translate(55.615234 0)"/>
       <use xlink:href="#ArialMT-34" transform="translate(83.398438 0)"/>
      </g>
     </g>
    </g>
    <g id="xtick_4">
     <g id="line2d_4">
      <g>
       <use xlink:href="#mb360a856d7" x="352.270547" y="192.404063" style="fill: #262626; stroke: #262626; stroke-width: 1.875"/>
      </g>
     </g>
     <g id="text_4">
      <!-- 0.6 -->
      <g style="fill: #262626" transform="translate(340.803047 216.714453) scale(0.165 -0.165)">
       <defs>
        <path id="ArialMT-36" d="M 3184 3459 
L 2625 3416 
Q 2550 3747 2413 3897 
Q 2184 4138 1850 4138 
Q 1581 4138 1378 3988 
Q 1113 3794 959 3422 
Q 806 3050 800 2363 
Q 1003 2672 1297 2822 
Q 1591 2972 1913 2972 
Q 2475 2972 2870 2558 
Q 3266 2144 3266 1488 
Q 3266 1056 3080 686 
Q 2894 316 2569 119 
Q 2244 -78 1831 -78 
Q 1128 -78 684 439 
Q 241 956 241 2144 
Q 241 3472 731 4075 
Q 1159 4600 1884 4600 
Q 2425 4600 2770 4297 
Q 3116 3994 3184 3459 
z
M 888 1484 
Q 888 1194 1011 928 
Q 1134 663 1356 523 
Q 1578 384 1822 384 
Q 2178 384 2434 671 
Q 2691 959 2691 1453 
Q 2691 1928 2437 2201 
Q 2184 2475 1800 2475 
Q 1419 2475 1153 2201 
Q 888 1928 888 1484 
z
" transform="scale(0.015625)"/>
       </defs>
       <use xlink:href="#ArialMT-30"/>
       <use xlink:href="#ArialMT-2e" transform="translate(55.615234 0)"/>
       <use xlink:href="#ArialMT-36" transform="translate(83.398438 0)"/>
      </g>
     </g>
    </g>
    <g id="text_5">
     <!-- Bicoid concentration $s$ -->
     <g style="fill: #262626" transform="translate(124.480547 236.877891) scale(0.18 -0.18)">
      <defs>
       <path id="ArialMT-42" d="M 469 0 
L 469 4581 
L 2188 4581 
Q 2713 4581 3030 4442 
Q 3347 4303 3526 4014 
Q 3706 3725 3706 3409 
Q 3706 3116 3547 2856 
Q 3388 2597 3066 2438 
Q 3481 2316 3704 2022 
Q 3928 1728 3928 1328 
Q 3928 1006 3792 729 
Q 3656 453 3456 303 
Q 3256 153 2954 76 
Q 2653 0 2216 0 
L 469 0 
z
M 1075 2656 
L 2066 2656 
Q 2469 2656 2644 2709 
Q 2875 2778 2992 2937 
Q 3109 3097 3109 3338 
Q 3109 3566 3000 3739 
Q 2891 3913 2687 3977 
Q 2484 4041 1991 4041 
L 1075 4041 
L 1075 2656 
z
M 1075 541 
L 2216 541 
Q 2509 541 2628 563 
Q 2838 600 2978 687 
Q 3119 775 3209 942 
Q 3300 1109 3300 1328 
Q 3300 1584 3169 1773 
Q 3038 1963 2805 2039 
Q 2572 2116 2134 2116 
L 1075 2116 
L 1075 541 
z
" transform="scale(0.015625)"/>
       <path id="ArialMT-69" d="M 425 3934 
L 425 4581 
L 988 4581 
L 988 3934 
L 425 3934 
z
M 425 0 
L 425 3319 
L 988 3319 
L 988 0 
L 425 0 
z
" transform="scale(0.015625)"/>
       <path id="ArialMT-63" d="M 2588 1216 
L 3141 1144 
Q 3050 572 2676 248 
Q 2303 -75 1759 -75 
Q 1078 -75 664 370 
Q 250 816 250 1647 
Q 250 2184 428 2587 
Q 606 2991 970 3192 
Q 1334 3394 1763 3394 
Q 2303 3394 2647 3120 
Q 2991 2847 3088 2344 
L 2541 2259 
Q 2463 2594 2264 2762 
Q 2066 2931 1784 2931 
Q 1359 2931 1093 2626 
Q 828 2322 828 1663 
Q 828 994 1084 691 
Q 1341 388 1753 388 
Q 2084 388 2306 591 
Q 2528 794 2588 1216 
z
" transform="scale(0.015625)"/>
       <path id="ArialMT-6f" d="M 213 1659 
Q 213 2581 725 3025 
Q 1153 3394 1769 3394 
Q 2453 3394 2887 2945 
Q 3322 2497 3322 1706 
Q 3322 1066 3130 698 
Q 2938 331 2570 128 
Q 2203 -75 1769 -75 
Q 1072 -75 642 372 
Q 213 819 213 1659 
z
M 791 1659 
Q 791 1022 1069 705 
Q 1347 388 1769 388 
Q 2188 388 2466 706 
Q 2744 1025 2744 1678 
Q 2744 2294 2464 2611 
Q 2184 2928 1769 2928 
Q 1347 2928 1069 2612 
Q 791 2297 791 1659 
z
" transform="scale(0.015625)"/>
       <path id="ArialMT-64" d="M 2575 0 
L 2575 419 
Q 2259 -75 1647 -75 
Q 1250 -75 917 144 
Q 584 363 401 755 
Q 219 1147 219 1656 
Q 219 2153 384 2558 
Q 550 2963 881 3178 
Q 1213 3394 1622 3394 
Q 1922 3394 2156 3267 
Q 2391 3141 2538 2938 
L 2538 4581 
L 3097 4581 
L 3097 0 
L 2575 0 
z
M 797 1656 
Q 797 1019 1065 703 
Q 1334 388 1700 388 
Q 2069 388 2326 689 
Q 2584 991 2584 1609 
Q 2584 2291 2321 2609 
Q 2059 2928 1675 2928 
Q 1300 2928 1048 2622 
Q 797 2316 797 1656 
z
" transform="scale(0.015625)"/>
       <path id="ArialMT-20" transform="scale(0.015625)"/>
       <path id="ArialMT-6e" d="M 422 0 
L 422 3319 
L 928 3319 
L 928 2847 
Q 1294 3394 1984 3394 
Q 2284 3394 2536 3286 
Q 2788 3178 2913 3003 
Q 3038 2828 3088 2588 
Q 3119 2431 3119 2041 
L 3119 0 
L 2556 0 
L 2556 2019 
Q 2556 2363 2490 2533 
Q 2425 2703 2258 2804 
Q 2091 2906 1866 2906 
Q 1506 2906 1245 2678 
Q 984 2450 984 1813 
L 984 0 
L 422 0 
z
" transform="scale(0.015625)"/>
       <path id="ArialMT-65" d="M 2694 1069 
L 3275 997 
Q 3138 488 2766 206 
Q 2394 -75 1816 -75 
Q 1088 -75 661 373 
Q 234 822 234 1631 
Q 234 2469 665 2931 
Q 1097 3394 1784 3394 
Q 2450 3394 2872 2941 
Q 3294 2488 3294 1666 
Q 3294 1616 3291 1516 
L 816 1516 
Q 847 969 1125 678 
Q 1403 388 1819 388 
Q 2128 388 2347 550 
Q 2566 713 2694 1069 
z
M 847 1978 
L 2700 1978 
Q 2663 2397 2488 2606 
Q 2219 2931 1791 2931 
Q 1403 2931 1139 2672 
Q 875 2413 847 1978 
z
" transform="scale(0.015625)"/>
       <path id="ArialMT-74" d="M 1650 503 
L 1731 6 
Q 1494 -44 1306 -44 
Q 1000 -44 831 53 
Q 663 150 594 308 
Q 525 466 525 972 
L 525 2881 
L 113 2881 
L 113 3319 
L 525 3319 
L 525 4141 
L 1084 4478 
L 1084 3319 
L 1650 3319 
L 1650 2881 
L 1084 2881 
L 1084 941 
Q 1084 700 1114 631 
Q 1144 563 1211 522 
Q 1278 481 1403 481 
Q 1497 481 1650 503 
z
" transform="scale(0.015625)"/>
       <path id="ArialMT-72" d="M 416 0 
L 416 3319 
L 922 3319 
L 922 2816 
Q 1116 3169 1280 3281 
Q 1444 3394 1641 3394 
Q 1925 3394 2219 3213 
L 2025 2691 
Q 1819 2813 1613 2813 
Q 1428 2813 1281 2702 
Q 1134 2591 1072 2394 
Q 978 2094 978 1738 
L 978 0 
L 416 0 
z
" transform="scale(0.015625)"/>
       <path id="ArialMT-61" d="M 2588 409 
Q 2275 144 1986 34 
Q 1697 -75 1366 -75 
Q 819 -75 525 192 
Q 231 459 231 875 
Q 231 1119 342 1320 
Q 453 1522 633 1644 
Q 813 1766 1038 1828 
Q 1203 1872 1538 1913 
Q 2219 1994 2541 2106 
Q 2544 2222 2544 2253 
Q 2544 2597 2384 2738 
Q 2169 2928 1744 2928 
Q 1347 2928 1158 2789 
Q 969 2650 878 2297 
L 328 2372 
Q 403 2725 575 2942 
Q 747 3159 1072 3276 
Q 1397 3394 1825 3394 
Q 2250 3394 2515 3294 
Q 2781 3194 2906 3042 
Q 3031 2891 3081 2659 
Q 3109 2516 3109 2141 
L 3109 1391 
Q 3109 606 3145 398 
Q 3181 191 3288 0 
L 2700 0 
Q 2613 175 2588 409 
z
M 2541 1666 
Q 2234 1541 1622 1453 
Q 1275 1403 1131 1340 
Q 988 1278 909 1158 
Q 831 1038 831 891 
Q 831 666 1001 516 
Q 1172 366 1500 366 
Q 1825 366 2078 508 
Q 2331 650 2450 897 
Q 2541 1088 2541 1459 
L 2541 1666 
z
" transform="scale(0.015625)"/>
       <path id="DejaVuSans-Oblique-73" d="M 3200 3397 
L 3091 2853 
Q 2863 2978 2609 3040 
Q 2356 3103 2088 3103 
Q 1634 3103 1373 2948 
Q 1113 2794 1113 2528 
Q 1113 2219 1719 2053 
Q 1766 2041 1788 2034 
L 1972 1978 
Q 2547 1819 2739 1644 
Q 2931 1469 2931 1166 
Q 2931 609 2489 259 
Q 2047 -91 1331 -91 
Q 1053 -91 747 -37 
Q 441 16 72 128 
L 184 722 
Q 500 559 806 475 
Q 1113 391 1394 391 
Q 1816 391 2080 572 
Q 2344 753 2344 1031 
Q 2344 1331 1650 1516 
L 1591 1531 
L 1394 1581 
Q 956 1697 753 1886 
Q 550 2075 550 2369 
Q 550 2928 970 3256 
Q 1391 3584 2113 3584 
Q 2397 3584 2667 3537 
Q 2938 3491 3200 3397 
z
" transform="scale(0.015625)"/>
      </defs>
      <use xlink:href="#ArialMT-42" transform="translate(0 0.421875)"/>
      <use xlink:href="#ArialMT-69" transform="translate(66.699219 0.421875)"/>
      <use xlink:href="#ArialMT-63" transform="translate(88.916016 0.421875)"/>
      <use xlink:href="#ArialMT-6f" transform="translate(138.916016 0.421875)"/>
      <use xlink:href="#ArialMT-69" transform="translate(194.53125 0.421875)"/>
      <use xlink:href="#ArialMT-64" transform="translate(216.748047 0.421875)"/>
      <use xlink:href="#ArialMT-20" transform="translate(272.363281 0.421875)"/>
      <use xlink:href="#ArialMT-63" transform="translate(300.146484 0.421875)"/>
      <use xlink:href="#ArialMT-6f" transform="translate(350.146484 0.421875)"/>
      <use xlink:href="#ArialMT-6e" transform="translate(405.761719 0.421875)"/>
      <use xlink:href="#ArialMT-63" transform="translate(461.376953 0.421875)"/>
      <use xlink:href="#ArialMT-65" transform="translate(511.376953 0.421875)"/>
      <use xlink:href="#ArialMT-6e" transform="translate(566.992188 0.421875)"/>
      <use xlink:href="#ArialMT-74" transform="translate(622.607422 0.421875)"/>
      <use xlink:href="#ArialMT-72" transform="translate(650.390625 0.421875)"/>
      <use xlink:href="#ArialMT-61" transform="translate(683.691406 0.421875)"/>
      <use xlink:href="#ArialMT-74" transform="translate(739.306641 0.421875)"/>
      <use xlink:href="#ArialMT-69" transform="translate(767.089844 0.421875)"/>
      <use xlink:href="#ArialMT-6f" transform="translate(789.306641 0.421875)"/>
      <use xlink:href="#ArialMT-6e" transform="translate(844.921875 0.421875)"/>
      <use xlink:href="#ArialMT-20" transform="translate(900.537109 0.421875)"/>
      <use xlink:href="#DejaVuSans-Oblique-73" transform="translate(928.320312 0.421875)"/>
     </g>
    </g>
   </g>
   <g id="matplotlib.axis_2">
    <g id="ytick_1">
     <g id="line2d_5">
      <defs>
       <path id="m14cbc76c46" d="M 0 0 
L -9 0 
" style="stroke: #262626; stroke-width: 1.875"/>
      </defs>
      <g>
       <use xlink:href="#m14cbc76c46" x="73.270547" y="184.389715" style="fill: #262626; stroke: #262626; stroke-width: 1.875"/>
      </g>
     </g>
     <g id="text_6">
      <!-- 0.00 -->
      <g style="fill: #262626" transform="translate(28.66 190.29491) scale(0.165 -0.165)">
       <use xlink:href="#ArialMT-30"/>
       <use xlink:href="#ArialMT-2e" transform="translate(55.615234 0)"/>
       <use xlink:href="#ArialMT-30" transform="translate(83.398438 0)"/>
       <use xlink:href="#ArialMT-30" transform="translate(139.013672 0)"/>
      </g>
     </g>
    </g>
    <g id="ytick_2">
     <g id="line2d_6">
      <g>
       <use xlink:href="#m14cbc76c46" x="73.270547" y="146.692836" style="fill: #262626; stroke: #262626; stroke-width: 1.875"/>
      </g>
     </g>
     <g id="text_7">
      <!-- 0.25 -->
      <g style="fill: #262626" transform="translate(28.66 152.598031) scale(0.165 -0.165)">
       <defs>
        <path id="ArialMT-35" d="M 266 1200 
L 856 1250 
Q 922 819 1161 601 
Q 1400 384 1738 384 
Q 2144 384 2425 690 
Q 2706 997 2706 1503 
Q 2706 1984 2436 2262 
Q 2166 2541 1728 2541 
Q 1456 2541 1237 2417 
Q 1019 2294 894 2097 
L 366 2166 
L 809 4519 
L 3088 4519 
L 3088 3981 
L 1259 3981 
L 1013 2750 
Q 1425 3038 1878 3038 
Q 2478 3038 2890 2622 
Q 3303 2206 3303 1553 
Q 3303 931 2941 478 
Q 2500 -78 1738 -78 
Q 1113 -78 717 272 
Q 322 622 266 1200 
z
" transform="scale(0.015625)"/>
       </defs>
       <use xlink:href="#ArialMT-30"/>
       <use xlink:href="#ArialMT-2e" transform="translate(55.615234 0)"/>
       <use xlink:href="#ArialMT-32" transform="translate(83.398438 0)"/>
       <use xlink:href="#ArialMT-35" transform="translate(139.013672 0)"/>
      </g>
     </g>
    </g>
    <g id="ytick_3">
     <g id="line2d_7">
      <g>
       <use xlink:href="#m14cbc76c46" x="73.270547" y="108.995957" style="fill: #262626; stroke: #262626; stroke-width: 1.875"/>
      </g>
     </g>
     <g id="text_8">
      <!-- 0.50 -->
      <g style="fill: #262626" transform="translate(28.66 114.901152) scale(0.165 -0.165)">
       <use xlink:href="#ArialMT-30"/>
       <use xlink:href="#ArialMT-2e" transform="translate(55.615234 0)"/>
       <use xlink:href="#ArialMT-35" transform="translate(83.398438 0)"/>
       <use xlink:href="#ArialMT-30" transform="translate(139.013672 0)"/>
      </g>
     </g>
    </g>
    <g id="ytick_4">
     <g id="line2d_8">
      <g>
       <use xlink:href="#m14cbc76c46" x="73.270547" y="71.299078" style="fill: #262626; stroke: #262626; stroke-width: 1.875"/>
      </g>
     </g>
     <g id="text_9">
      <!-- 0.75 -->
      <g style="fill: #262626" transform="translate(28.66 77.204273) scale(0.165 -0.165)">
       <defs>
        <path id="ArialMT-37" d="M 303 3981 
L 303 4522 
L 3269 4522 
L 3269 4084 
Q 2831 3619 2401 2847 
Q 1972 2075 1738 1259 
Q 1569 684 1522 0 
L 944 0 
Q 953 541 1156 1306 
Q 1359 2072 1739 2783 
Q 2119 3494 2547 3981 
L 303 3981 
z
" transform="scale(0.015625)"/>
       </defs>
       <use xlink:href="#ArialMT-30"/>
       <use xlink:href="#ArialMT-2e" transform="translate(55.615234 0)"/>
       <use xlink:href="#ArialMT-37" transform="translate(83.398438 0)"/>
       <use xlink:href="#ArialMT-35" transform="translate(139.013672 0)"/>
      </g>
     </g>
    </g>
    <g id="ytick_5">
     <g id="line2d_9">
      <g>
       <use xlink:href="#m14cbc76c46" x="73.270547" y="33.602199" style="fill: #262626; stroke: #262626; stroke-width: 1.875"/>
      </g>
     </g>
     <g id="text_10">
      <!-- 1.00 -->
      <g style="fill: #262626" transform="translate(28.66 39.507394) scale(0.165 -0.165)">
       <defs>
        <path id="ArialMT-31" d="M 2384 0 
L 1822 0 
L 1822 3584 
Q 1619 3391 1289 3197 
Q 959 3003 697 2906 
L 697 3450 
Q 1169 3672 1522 3987 
Q 1875 4303 2022 4600 
L 2384 4600 
L 2384 0 
z
" transform="scale(0.015625)"/>
       </defs>
       <use xlink:href="#ArialMT-31"/>
       <use xlink:href="#ArialMT-2e" transform="translate(55.615234 0)"/>
       <use xlink:href="#ArialMT-30" transform="translate(83.398438 0)"/>
       <use xlink:href="#ArialMT-30" transform="translate(139.013672 0)"/>
      </g>
     </g>
    </g>
    <g id="text_11">
     <!-- Occupancy $C$ -->
     <g style="fill: #262626" transform="translate(20.7 163.064062) rotate(-90) scale(0.18 -0.18)">
      <defs>
       <path id="ArialMT-4f" d="M 309 2231 
Q 309 3372 921 4017 
Q 1534 4663 2503 4663 
Q 3138 4663 3647 4359 
Q 4156 4056 4423 3514 
Q 4691 2972 4691 2284 
Q 4691 1588 4409 1038 
Q 4128 488 3612 205 
Q 3097 -78 2500 -78 
Q 1853 -78 1343 234 
Q 834 547 571 1087 
Q 309 1628 309 2231 
z
M 934 2222 
Q 934 1394 1379 917 
Q 1825 441 2497 441 
Q 3181 441 3623 922 
Q 4066 1403 4066 2288 
Q 4066 2847 3877 3264 
Q 3688 3681 3323 3911 
Q 2959 4141 2506 4141 
Q 1863 4141 1398 3698 
Q 934 3256 934 2222 
z
" transform="scale(0.015625)"/>
       <path id="ArialMT-75" d="M 2597 0 
L 2597 488 
Q 2209 -75 1544 -75 
Q 1250 -75 995 37 
Q 741 150 617 320 
Q 494 491 444 738 
Q 409 903 409 1263 
L 409 3319 
L 972 3319 
L 972 1478 
Q 972 1038 1006 884 
Q 1059 663 1231 536 
Q 1403 409 1656 409 
Q 1909 409 2131 539 
Q 2353 669 2445 892 
Q 2538 1116 2538 1541 
L 2538 3319 
L 3100 3319 
L 3100 0 
L 2597 0 
z
" transform="scale(0.015625)"/>
       <path id="ArialMT-70" d="M 422 -1272 
L 422 3319 
L 934 3319 
L 934 2888 
Q 1116 3141 1344 3267 
Q 1572 3394 1897 3394 
Q 2322 3394 2647 3175 
Q 2972 2956 3137 2557 
Q 3303 2159 3303 1684 
Q 3303 1175 3120 767 
Q 2938 359 2589 142 
Q 2241 -75 1856 -75 
Q 1575 -75 1351 44 
Q 1128 163 984 344 
L 984 -1272 
L 422 -1272 
z
M 931 1641 
Q 931 1000 1190 694 
Q 1450 388 1819 388 
Q 2194 388 2461 705 
Q 2728 1022 2728 1688 
Q 2728 2322 2467 2637 
Q 2206 2953 1844 2953 
Q 1484 2953 1207 2617 
Q 931 2281 931 1641 
z
" transform="scale(0.015625)"/>
       <path id="ArialMT-79" d="M 397 -1278 
L 334 -750 
Q 519 -800 656 -800 
Q 844 -800 956 -737 
Q 1069 -675 1141 -563 
Q 1194 -478 1313 -144 
Q 1328 -97 1363 -6 
L 103 3319 
L 709 3319 
L 1400 1397 
Q 1534 1031 1641 628 
Q 1738 1016 1872 1384 
L 2581 3319 
L 3144 3319 
L 1881 -56 
Q 1678 -603 1566 -809 
Q 1416 -1088 1222 -1217 
Q 1028 -1347 759 -1347 
Q 597 -1347 397 -1278 
z
" transform="scale(0.015625)"/>
       <path id="DejaVuSans-Oblique-43" d="M 4447 4306 
L 4319 3641 
Q 4019 3944 3683 4091 
Q 3347 4238 2956 4238 
Q 2422 4238 2017 3981 
Q 1613 3725 1319 3200 
Q 1131 2863 1032 2486 
Q 934 2109 934 1728 
Q 934 1091 1264 756 
Q 1594 422 2222 422 
Q 2656 422 3056 561 
Q 3456 700 3834 978 
L 3688 231 
Q 3316 72 2936 -9 
Q 2556 -91 2175 -91 
Q 1278 -91 773 396 
Q 269 884 269 1753 
Q 269 2309 461 2846 
Q 653 3384 1013 3828 
Q 1394 4300 1883 4525 
Q 2372 4750 3022 4750 
Q 3422 4750 3780 4639 
Q 4138 4528 4447 4306 
z
" transform="scale(0.015625)"/>
      </defs>
      <use xlink:href="#ArialMT-4f" transform="translate(0 0.78125)"/>
      <use xlink:href="#ArialMT-63" transform="translate(77.783203 0.78125)"/>
      <use xlink:href="#ArialMT-63" transform="translate(127.783203 0.78125)"/>
      <use xlink:href="#ArialMT-75" transform="translate(177.783203 0.78125)"/>
      <use xlink:href="#ArialMT-70" transform="translate(233.398438 0.78125)"/>
      <use xlink:href="#ArialMT-61" transform="translate(289.013672 0.78125)"/>
      <use xlink:href="#ArialMT-6e" transform="translate(344.628906 0.78125)"/>
      <use xlink:href="#ArialMT-63" transform="translate(400.244141 0.78125)"/>
      <use xlink:href="#ArialMT-79" transform="translate(450.244141 0.78125)"/>
      <use xlink:href="#ArialMT-20" transform="translate(500.244141 0.78125)"/>
      <use xlink:href="#DejaVuSans-Oblique-43" transform="translate(528.027344 0.78125)"/>
     </g>
    </g>
   </g>
   <g id="FillBetweenPolyCollection_1">
    <path d="M 77.145547 174.391038 
L 77.145547 175.862705 
L 84.895547 160.712939 
L 92.645547 148.394563 
L 100.395547 138.228333 
L 108.145547 129.705816 
L 115.895547 122.461833 
L 123.645547 116.230359 
L 131.395547 110.813781 
L 139.145547 106.062504 
L 146.895547 101.8613 
L 154.645547 98.12003 
L 162.395547 94.767185 
L 170.145547 91.745329 
L 177.895547 89.007799 
L 185.645547 86.516304 
L 193.395547 84.239123 
L 201.145547 82.149762 
L 208.895547 80.225916 
L 216.645547 78.448676 
L 224.395547 76.801907 
L 232.145547 75.271755 
L 239.895547 73.846261 
L 247.645547 72.515046 
L 255.395547 71.269058 
L 263.145547 70.10037 
L 270.895547 69.002006 
L 278.645547 67.967805 
L 286.395547 66.992306 
L 294.145547 66.07065 
L 301.895547 65.198499 
L 309.645547 64.37197 
L 317.395547 63.587575 
L 325.145547 62.842172 
L 332.895547 62.132926 
L 340.645547 61.457268 
L 348.395547 60.812867 
L 356.145547 60.197604 
L 363.895547 59.609547 
L 371.645547 59.046929 
L 379.395547 58.508137 
L 387.145547 57.991686 
L 394.895547 57.496218 
L 402.645547 57.020477 
L 410.395547 56.56331 
L 418.145547 56.123649 
L 425.895547 55.700507 
L 433.645547 55.292972 
L 441.395547 54.900195 
L 449.145547 54.521388 
L 456.895547 54.155821 
L 464.645547 53.80281 
L 472.395547 53.461719 
L 480.145547 53.131955 
L 487.895547 52.812963 
L 495.645547 52.504224 
L 503.395547 52.205251 
L 511.145547 51.915587 
L 518.895547 51.634806 
L 526.645547 51.362504 
L 534.395547 51.098303 
L 542.145547 50.841847 
L 549.895547 50.5928 
L 557.645547 50.350846 
L 565.395547 50.115686 
L 573.145547 49.887038 
L 573.145547 49.253213 
L 573.145547 49.253213 
L 565.395547 49.473487 
L 557.645547 49.70005 
L 549.895547 49.933176 
L 542.145547 50.173153 
L 534.395547 50.420289 
L 526.645547 50.674908 
L 518.895547 50.937355 
L 511.145547 51.207997 
L 503.395547 51.487224 
L 495.645547 51.775452 
L 487.895547 52.073122 
L 480.145547 52.380706 
L 472.395547 52.698708 
L 464.645547 53.027667 
L 456.895547 53.368158 
L 449.145547 53.720799 
L 441.395547 54.086252 
L 433.645547 54.465229 
L 425.895547 54.858494 
L 418.145547 55.26687 
L 410.395547 55.691246 
L 402.645547 56.132582 
L 394.895547 56.591914 
L 387.145547 57.070366 
L 379.395547 57.569157 
L 371.645547 58.089614 
L 363.895547 58.633179 
L 356.145547 59.201425 
L 348.395547 59.796074 
L 340.645547 60.41901 
L 332.895547 61.072299 
L 325.145547 61.758218 
L 317.395547 62.479272 
L 309.645547 63.238233 
L 301.895547 64.038173 
L 294.145547 64.882501 
L 286.395547 65.775019 
L 278.645547 66.719975 
L 270.895547 67.722131 
L 263.145547 68.786843 
L 255.395547 69.920161 
L 247.645547 71.128937 
L 239.895547 72.420969 
L 232.145547 73.805168 
L 224.395547 75.291767 
L 216.645547 76.892569 
L 208.895547 78.621265 
L 201.145547 80.493829 
L 193.395547 82.529013 
L 185.645547 84.748975 
L 177.895547 87.180097 
L 170.145547 89.85404 
L 162.395547 92.809137 
L 154.645547 96.092249 
L 146.895547 99.761287 
L 139.145547 103.888681 
L 131.395547 108.566256 
L 123.645547 113.912233 
L 115.895547 120.081526 
L 108.145547 127.281374 
L 100.395547 135.79598 
L 92.645547 146.027457 
L 84.895547 158.570484 
L 77.145547 174.391038 
z
" clip-path="url(#p1b6d583cf0)" style="fill: #88ae1d; fill-opacity: 0.3; stroke: #88ae1d; stroke-opacity: 0.3; stroke-width: 1.5"/>
   </g>
   <g id="FillBetweenPolyCollection_2">
    <path d="M 77.145547 184.287275 
L 77.145547 184.415651 
L 84.895547 184.579759 
L 92.645547 184.844062 
L 100.395547 184.489328 
L 108.145547 181.417639 
L 115.895547 172.259484 
L 123.645547 154.951872 
L 131.395547 132.074199 
L 139.145547 109.264964 
L 146.895547 90.478311 
L 154.645547 76.568931 
L 162.395547 66.733891 
L 170.145547 59.846098 
L 177.895547 54.97422 
L 185.645547 51.46098 
L 193.395547 48.868247 
L 201.145547 46.90856 
L 208.895547 45.392689 
L 216.645547 44.194497 
L 224.395547 43.228475 
L 232.145547 42.435568 
L 239.895547 41.774204 
L 247.645547 41.21457 
L 255.395547 40.734897 
L 263.145547 40.319015 
L 270.895547 39.954727 
L 278.645547 39.632689 
L 286.395547 39.345651 
L 294.145547 39.087916 
L 301.895547 38.854952 
L 309.645547 38.643119 
L 317.395547 38.449465 
L 325.145547 38.27157 
L 332.895547 38.107438 
L 340.645547 37.955404 
L 348.395547 37.814073 
L 356.145547 37.682266 
L 363.895547 37.558976 
L 371.645547 37.443344 
L 379.395547 37.334627 
L 387.145547 37.23218 
L 394.895547 37.135442 
L 402.645547 37.04392 
L 410.395547 36.95718 
L 418.145547 36.874835 
L 425.895547 36.796545 
L 433.645547 36.722003 
L 441.395547 36.650934 
L 449.145547 36.583093 
L 456.895547 36.518256 
L 464.645547 36.456221 
L 472.395547 36.396805 
L 480.145547 36.33984 
L 487.895547 36.285175 
L 495.645547 36.232669 
L 503.395547 36.182193 
L 511.145547 36.13363 
L 518.895547 36.086871 
L 526.645547 36.041816 
L 534.395547 35.998371 
L 542.145547 35.95645 
L 549.895547 35.915974 
L 557.645547 35.876868 
L 565.395547 35.839062 
L 573.145547 35.802493 
L 573.145547 35.525668 
L 573.145547 35.525668 
L 565.395547 35.557283 
L 557.645547 35.589945 
L 549.895547 35.623707 
L 542.145547 35.658626 
L 534.395547 35.694761 
L 526.645547 35.732176 
L 518.895547 35.770942 
L 511.145547 35.81113 
L 503.395547 35.852821 
L 495.645547 35.896099 
L 487.895547 35.941057 
L 480.145547 35.987791 
L 472.395547 36.03641 
L 464.645547 36.087027 
L 456.895547 36.139766 
L 449.145547 36.194761 
L 441.395547 36.252158 
L 433.645547 36.312114 
L 425.895547 36.374799 
L 418.145547 36.4404 
L 410.395547 36.509119 
L 402.645547 36.581177 
L 394.895547 36.656815 
L 387.145547 36.736294 
L 379.395547 36.819904 
L 371.645547 36.907959 
L 363.895547 37.000806 
L 356.145547 37.098823 
L 348.395547 37.202428 
L 340.645547 37.312083 
L 332.895547 37.428296 
L 325.145547 37.551631 
L 317.395547 37.682716 
L 309.645547 37.822252 
L 301.895547 37.971029 
L 294.145547 38.129944 
L 286.395547 38.300029 
L 278.645547 38.482485 
L 270.895547 38.67874 
L 263.145547 38.890531 
L 255.395547 39.120021 
L 247.645547 39.369992 
L 239.895547 39.644142 
L 232.145547 39.947559 
L 224.395547 40.287511 
L 216.645547 40.674774 
L 208.895547 41.125914 
L 201.145547 41.667314 
L 193.395547 42.342432 
L 185.645547 43.225108 
L 177.895547 44.444347 
L 170.145547 46.230617 
L 162.395547 49.000672 
L 154.645547 53.501821 
L 146.895547 61.00673 
L 139.145547 73.381614 
L 131.395547 92.398659 
L 123.645547 117.491105 
L 115.895547 143.610061 
L 108.145547 164.013019 
L 100.395547 176.033387 
L 92.645547 181.584967 
L 84.895547 183.66141 
L 77.145547 184.287275 
z
" clip-path="url(#p1b6d583cf0)" style="fill: #cd3e78; fill-opacity: 0.3; stroke: #cd3e78; stroke-opacity: 0.3; stroke-width: 1.5"/>
   </g>
   <g id="line2d_10">
    <path d="M 77.145547 175.126872 
L 84.895547 159.641712 
L 92.645547 147.21101 
L 100.395547 137.012157 
L 108.145547 128.493595 
L 115.895547 121.27168 
L 123.645547 115.071296 
L 131.395547 109.690019 
L 139.145547 104.975592 
L 146.895547 100.811294 
L 154.645547 97.106139 
L 162.395547 93.788161 
L 170.145547 90.799685 
L 177.895547 88.093948 
L 185.645547 85.632639 
L 193.395547 83.384068 
L 201.145547 81.321796 
L 208.895547 79.42359 
L 216.645547 77.670622 
L 224.395547 76.046837 
L 232.145547 74.538462 
L 239.895547 73.133615 
L 247.645547 71.821991 
L 255.395547 70.59461 
L 263.145547 69.443607 
L 270.895547 68.362068 
L 278.645547 67.34389 
L 286.395547 66.383662 
L 294.145547 65.476575 
L 301.895547 64.618336 
L 309.645547 63.805102 
L 317.395547 63.033423 
L 325.145547 62.300195 
L 332.895547 61.602613 
L 340.645547 60.938139 
L 348.395547 60.304471 
L 356.145547 59.699515 
L 363.895547 59.121363 
L 371.645547 58.568272 
L 371.938047 58.548283 
" clip-path="url(#p1b6d583cf0)" style="fill: none; stroke: #88ae1d; stroke-width: 2.25; stroke-linecap: round"/>
   </g>
   <g id="line2d_11">
    <path d="M 77.145547 184.351463 
L 84.895547 184.120584 
L 92.645547 183.214515 
L 100.395547 180.261357 
L 108.145547 172.715329 
L 115.895547 157.934773 
L 123.645547 136.221489 
L 131.395547 112.236429 
L 139.145547 91.323289 
L 146.895547 75.742521 
L 154.645547 65.035376 
L 162.395547 57.867281 
L 170.145547 53.038357 
L 177.895547 49.709283 
L 185.645547 47.343044 
L 193.395547 45.605339 
L 201.145547 44.287937 
L 208.895547 43.259301 
L 216.645547 42.434636 
L 224.395547 41.757993 
L 232.145547 41.191563 
L 239.895547 40.709173 
L 247.645547 40.292281 
L 255.395547 39.927459 
L 263.145547 39.604773 
L 270.895547 39.316733 
L 278.645547 39.057587 
L 286.395547 38.82284 
L 294.145547 38.60893 
L 301.895547 38.41299 
L 309.645547 38.232686 
L 317.395547 38.06609 
L 325.145547 37.911601 
L 332.895547 37.767867 
L 340.645547 37.633744 
L 348.395547 37.508251 
L 356.145547 37.390544 
L 363.895547 37.279891 
L 371.645547 37.175652 
L 371.938047 37.171938 
" clip-path="url(#p1b6d583cf0)" style="fill: none; stroke: #cd3e78; stroke-width: 2.25; stroke-linecap: round"/>
   </g>
   <g id="line2d_12">
    <path d="M 77.145547 175.126907 
L 84.895547 159.641758 
L 92.645547 147.211051 
L 100.395547 137.012188 
L 108.145547 128.493617 
L 115.895547 121.271693 
L 123.645547 115.071302 
L 131.395547 109.690019 
L 139.145547 104.975588 
L 146.895547 100.811286 
L 154.645547 97.106129 
L 162.395547 93.788149 
L 170.145547 90.799671 
L 177.895547 88.093933 
L 185.645547 85.632624 
L 193.395547 83.384052 
L 201.145547 81.32178 
L 208.895547 79.423575 
L 216.645547 77.670607 
L 224.395547 76.046822 
L 232.145547 74.538447 
L 239.895547 73.133601 
L 247.645547 71.821978 
L 255.395547 70.594597 
L 263.145547 69.443595 
L 270.895547 68.362058 
L 278.645547 67.343881 
L 286.395547 66.383654 
L 294.145547 65.476568 
L 301.895547 64.618329 
L 309.645547 63.805096 
L 317.395547 63.033419 
L 325.145547 62.300192 
L 332.895547 61.60261 
L 340.645547 60.938137 
L 348.395547 60.30447 
L 356.145547 59.699515 
L 363.895547 59.121364 
L 371.645547 58.568274 
L 371.938047 58.548285 
" clip-path="url(#p1b6d583cf0)" style="fill: none; stroke-dasharray: 2.25,3.7125; stroke-dashoffset: 0; stroke: #749a09; stroke-width: 2.25"/>
   </g>
   <g id="line2d_13">
    <path d="M 77.145547 184.385418 
L 84.895547 184.098769 
L 92.645547 182.346563 
L 100.395547 177.212388 
L 108.145547 166.908101 
L 115.895547 151.101156 
L 123.645547 131.646114 
L 131.395547 111.659101 
L 139.145547 93.761584 
L 146.895547 79.174415 
L 154.645547 67.948713 
L 162.395547 59.56851 
L 170.145547 53.389726 
L 177.895547 48.839949 
L 185.645547 45.47226 
L 193.395547 42.957673 
L 201.145547 41.060304 
L 208.895547 39.612592 
L 216.645547 38.495512 
L 224.395547 37.624082 
L 232.145547 36.937134 
L 239.895547 36.390224 
L 247.645547 35.95073 
L 255.395547 35.594456 
L 263.145547 35.303275 
L 270.895547 35.06347 
L 278.645547 34.86456 
L 286.395547 34.698465 
L 294.145547 34.558901 
L 301.895547 34.44094 
L 309.645547 34.340689 
L 317.395547 34.255047 
L 325.145547 34.181527 
L 332.895547 34.118125 
L 340.645547 34.06321 
L 348.395547 34.015452 
L 356.145547 33.973757 
L 363.895547 33.937221 
L 371.645547 33.905095 
L 371.938047 33.904026 
" clip-path="url(#p1b6d583cf0)" style="fill: none; stroke-dasharray: 2.25,3.7125; stroke-dashoffset: 0; stroke: #b92a63; stroke-width: 2.25"/>
   </g>
   <g id="patch_3">
    <path d="M 73.270547 192.404062 
L 73.270547 26.084063 
" style="fill: none; stroke: #262626; stroke-width: 1.875; stroke-linejoin: miter; stroke-linecap: square"/>
   </g>
   <g id="patch_4">
    <path d="M 352.270547 192.404062 
L 352.270547 26.084063 
" style="fill: none; stroke: #262626; stroke-width: 1.875; stroke-linejoin: miter; stroke-linecap: square"/>
   </g>
   <g id="patch_5">
    <path d="M 73.270547 192.404063 
L 352.270547 192.404063 
" style="fill: none; stroke: #262626; stroke-width: 1.875; stroke-linejoin: miter; stroke-linecap: square"/>
   </g>
   <g id="patch_6">
    <path d="M 73.270547 26.084063 
L 352.270547 26.084063 
" style="fill: none; stroke: #262626; stroke-width: 1.875; stroke-linejoin: miter; stroke-linecap: square"/>
   </g>
   <g id="text_12">
    <!-- DNA region -->
    <g style="fill: #262626" transform="translate(166.746797 20.084063) scale(0.18 -0.18)">
     <defs>
      <path id="ArialMT-44" d="M 494 0 
L 494 4581 
L 2072 4581 
Q 2606 4581 2888 4516 
Q 3281 4425 3559 4188 
Q 3922 3881 4101 3404 
Q 4281 2928 4281 2316 
Q 4281 1794 4159 1391 
Q 4038 988 3847 723 
Q 3656 459 3429 307 
Q 3203 156 2883 78 
Q 2563 0 2147 0 
L 494 0 
z
M 1100 541 
L 2078 541 
Q 2531 541 2789 625 
Q 3047 709 3200 863 
Q 3416 1078 3536 1442 
Q 3656 1806 3656 2325 
Q 3656 3044 3420 3430 
Q 3184 3816 2847 3947 
Q 2603 4041 2063 4041 
L 1100 4041 
L 1100 541 
z
" transform="scale(0.015625)"/>
      <path id="ArialMT-4e" d="M 488 0 
L 488 4581 
L 1109 4581 
L 3516 984 
L 3516 4581 
L 4097 4581 
L 4097 0 
L 3475 0 
L 1069 3600 
L 1069 0 
L 488 0 
z
" transform="scale(0.015625)"/>
      <path id="ArialMT-41" d="M -9 0 
L 1750 4581 
L 2403 4581 
L 4278 0 
L 3588 0 
L 3053 1388 
L 1138 1388 
L 634 0 
L -9 0 
z
M 1313 1881 
L 2866 1881 
L 2388 3150 
Q 2169 3728 2063 4100 
Q 1975 3659 1816 3225 
L 1313 1881 
z
" transform="scale(0.015625)"/>
      <path id="ArialMT-67" d="M 319 -275 
L 866 -356 
Q 900 -609 1056 -725 
Q 1266 -881 1628 -881 
Q 2019 -881 2231 -725 
Q 2444 -569 2519 -288 
Q 2563 -116 2559 434 
Q 2191 0 1641 0 
Q 956 0 581 494 
Q 206 988 206 1678 
Q 206 2153 378 2554 
Q 550 2956 876 3175 
Q 1203 3394 1644 3394 
Q 2231 3394 2613 2919 
L 2613 3319 
L 3131 3319 
L 3131 450 
Q 3131 -325 2973 -648 
Q 2816 -972 2473 -1159 
Q 2131 -1347 1631 -1347 
Q 1038 -1347 672 -1080 
Q 306 -813 319 -275 
z
M 784 1719 
Q 784 1066 1043 766 
Q 1303 466 1694 466 
Q 2081 466 2343 764 
Q 2606 1063 2606 1700 
Q 2606 2309 2336 2618 
Q 2066 2928 1684 2928 
Q 1309 2928 1046 2623 
Q 784 2319 784 1719 
z
" transform="scale(0.015625)"/>
     </defs>
     <use xlink:href="#ArialMT-44"/>
     <use xlink:href="#ArialMT-4e" transform="translate(72.216797 0)"/>
     <use xlink:href="#ArialMT-41" transform="translate(144.433594 0)"/>
     <use xlink:href="#ArialMT-20" transform="translate(205.632812 0)"/>
     <use xlink:href="#ArialMT-72" transform="translate(233.416016 0)"/>
     <use xlink:href="#ArialMT-65" transform="translate(266.716797 0)"/>
     <use xlink:href="#ArialMT-67" transform="translate(322.332031 0)"/>
     <use xlink:href="#ArialMT-69" transform="translate(377.947266 0)"/>
     <use xlink:href="#ArialMT-6f" transform="translate(400.164062 0)"/>
     <use xlink:href="#ArialMT-6e" transform="translate(455.779297 0)"/>
    </g>
   </g>
   <g id="legend_1">
    <g id="patch_7">
     <path d="M 219.610547 184.154062 
L 340.720547 184.154062 
Q 344.020547 184.154062 344.020547 180.854062 
L 344.020547 133.994062 
Q 344.020547 130.694062 340.720547 130.694062 
L 219.610547 130.694062 
Q 216.310547 130.694062 216.310547 133.994062 
L 216.310547 180.854062 
Q 216.310547 184.154062 219.610547 184.154062 
z
" style="fill: #ffffff; opacity: 0.8; stroke: #cccccc; stroke-width: 1.5; stroke-linejoin: miter"/>
    </g>
    <g id="line2d_14">
     <path d="M 222.910547 144.059062 
L 239.410547 144.059062 
L 255.910547 144.059062 
" style="fill: none; stroke: #88ae1d; stroke-width: 2.25; stroke-linecap: round"/>
    </g>
    <g id="text_13">
     <!-- $J=0$ $k_BT$ -->
     <g style="fill: #262626" transform="translate(269.110547 149.834062) scale(0.165 -0.165)">
      <defs>
       <path id="DejaVuSans-Oblique-4a" d="M 1069 4666 
L 1703 4666 
L 856 325 
Q 691 -522 298 -901 
Q -94 -1281 -800 -1281 
L -1050 -1281 
L -947 -750 
L -750 -750 
Q -328 -750 -109 -509 
Q 109 -269 225 325 
L 1069 4666 
z
" transform="scale(0.015625)"/>
       <path id="DejaVuSans-3d" d="M 678 2906 
L 4684 2906 
L 4684 2381 
L 678 2381 
L 678 2906 
z
M 678 1631 
L 4684 1631 
L 4684 1100 
L 678 1100 
L 678 1631 
z
" transform="scale(0.015625)"/>
       <path id="DejaVuSans-30" d="M 2034 4250 
Q 1547 4250 1301 3770 
Q 1056 3291 1056 2328 
Q 1056 1369 1301 889 
Q 1547 409 2034 409 
Q 2525 409 2770 889 
Q 3016 1369 3016 2328 
Q 3016 3291 2770 3770 
Q 2525 4250 2034 4250 
z
M 2034 4750 
Q 2819 4750 3233 4129 
Q 3647 3509 3647 2328 
Q 3647 1150 3233 529 
Q 2819 -91 2034 -91 
Q 1250 -91 836 529 
Q 422 1150 422 2328 
Q 422 3509 836 4129 
Q 1250 4750 2034 4750 
z
" transform="scale(0.015625)"/>
       <path id="DejaVuSans-Oblique-6b" d="M 1172 4863 
L 1747 4863 
L 1197 2028 
L 3169 3500 
L 3916 3500 
L 1716 1825 
L 3322 0 
L 2625 0 
L 1131 1709 
L 800 0 
L 225 0 
L 1172 4863 
z
" transform="scale(0.015625)"/>
       <path id="DejaVuSans-Oblique-42" d="M 1081 4666 
L 2694 4666 
Q 3350 4666 3675 4422 
Q 4000 4178 4000 3688 
Q 4000 3238 3720 2911 
Q 3441 2584 2988 2516 
Q 3375 2428 3569 2181 
Q 3763 1934 3763 1522 
Q 3763 819 3242 409 
Q 2722 0 1819 0 
L 172 0 
L 1081 4666 
z
M 1234 2228 
L 903 519 
L 1919 519 
Q 2491 519 2800 781 
Q 3109 1044 3109 1522 
Q 3109 1891 2904 2059 
Q 2700 2228 2247 2228 
L 1234 2228 
z
M 1606 4147 
L 1331 2741 
L 2272 2741 
Q 2775 2741 3058 2959 
Q 3341 3178 3341 3566 
Q 3341 3869 3150 4008 
Q 2959 4147 2541 4147 
L 1606 4147 
z
" transform="scale(0.015625)"/>
       <path id="DejaVuSans-Oblique-54" d="M 378 4666 
L 4325 4666 
L 4225 4134 
L 2559 4134 
L 1759 0 
L 1125 0 
L 1925 4134 
L 275 4134 
L 378 4666 
z
" transform="scale(0.015625)"/>
      </defs>
      <use xlink:href="#DejaVuSans-Oblique-4a" transform="translate(0 0.015625)"/>
      <use xlink:href="#DejaVuSans-3d" transform="translate(48.974609 0.015625)"/>
      <use xlink:href="#DejaVuSans-30" transform="translate(152.246094 0.015625)"/>
      <use xlink:href="#ArialMT-20" transform="translate(215.869141 0.015625)"/>
      <use xlink:href="#DejaVuSans-Oblique-6b" transform="translate(243.652344 0.015625)"/>
      <use xlink:href="#DejaVuSans-Oblique-42" transform="translate(301.5625 -16.390625) scale(0.7)"/>
      <use xlink:href="#DejaVuSans-Oblique-54" transform="translate(352.319336 0.015625)"/>
     </g>
    </g>
    <g id="line2d_15">
     <path d="M 222.910547 168.314062 
L 239.410547 168.314062 
L 255.910547 168.314062 
" style="fill: none; stroke: #cd3e78; stroke-width: 2.25; stroke-linecap: round"/>
    </g>
    <g id="text_14">
     <!-- $J=7$ $k_BT$ -->
     <g style="fill: #262626" transform="translate(269.110547 174.089062) scale(0.165 -0.165)">
      <defs>
       <path id="DejaVuSans-37" d="M 525 4666 
L 3525 4666 
L 3525 4397 
L 1831 0 
L 1172 0 
L 2766 4134 
L 525 4134 
L 525 4666 
z
" transform="scale(0.015625)"/>
      </defs>
      <use xlink:href="#DejaVuSans-Oblique-4a" transform="translate(0 0.015625)"/>
      <use xlink:href="#DejaVuSans-3d" transform="translate(48.974609 0.015625)"/>
      <use xlink:href="#DejaVuSans-37" transform="translate(152.246094 0.015625)"/>
      <use xlink:href="#ArialMT-20" transform="translate(215.869141 0.015625)"/>
      <use xlink:href="#DejaVuSans-Oblique-6b" transform="translate(243.652344 0.015625)"/>
      <use xlink:href="#DejaVuSans-Oblique-42" transform="translate(301.5625 -16.390625) scale(0.7)"/>
      <use xlink:href="#DejaVuSans-Oblique-54" transform="translate(352.319336 0.015625)"/>
     </g>
    </g>
   </g>
  </g>
 </g>
 <defs>
  <clipPath id="p1b6d583cf0">
   <rect x="73.270547" y="26.084063" width="279" height="166.32"/>
  </clipPath>
 </defs>
</svg>
