<?xml version="1.0" encoding="utf-8" standalone="no"?>
<!DOCTYPE svg PUBLIC "-//W3C//DTD SVG 1.1//EN"
  "http://www.w3.org/Graphics/SVG/1.1/DTD/svg11.dtd">
<!-- Created with matplotlib (https://matplotlib.org/) -->
<svg height="342.717pt" version="1.1" viewBox="0 0 417.450562 342.717" width="417.450562pt" xmlns="http://www.w3.org/2000/svg" xmlns:xlink="http://www.w3.org/1999/xlink">
 <metadata>
  <rdf:RDF xmlns:cc="http://creativecommons.org/ns#" xmlns:dc="http://purl.org/dc/elements/1.1/" xmlns:rdf="http://www.w3.org/1999/02/22-rdf-syntax-ns#">
   <cc:Work>
    <dc:type rdf:resource="http://purl.org/dc/dcmitype/StillImage"/>
    <dc:date>2025-04-25T10:56:28.784559</dc:date>
    <dc:format>image/svg+xml</dc:format>
    <dc:creator>
     <cc:Agent>
      <dc:title>Matplotlib v3.3.4, https://matplotlib.org/</dc:title>
     </cc:Agent>
    </dc:creator>
   </cc:Work>
  </rdf:RDF>
 </metadata>
 <defs>
  <style type="text/css">*{stroke-linecap:butt;stroke-linejoin:round;}</style>
 </defs>
 <g id="figure_1">
  <g id="patch_1">
   <path d="M 0 342.717 
L 417.450562 342.717 
L 417.450562 0 
L 0 0 
z
" style="fill:#ffffff;"/>
  </g>
  <g id="axes_1">
   <g id="patch_2">
    <path d="M 72.831563 281.622 
L 407.631563 281.622 
L 407.631563 64.182 
L 72.831563 64.182 
z
" style="fill:#ffffff;"/>
   </g>
   <g id="matplotlib.axis_1">
    <g id="xtick_1">
     <g id="line2d_1">
      <defs>
       <path d="M 0 0 
L 0 9 
" id="m6572dbcf22" style="stroke:#262626;stroke-width:1.875;"/>
      </defs>
      <g>
       <use style="fill:#262626;stroke:#262626;stroke-width:1.875;" x="145.263026" xlink:href="#m6572dbcf22" y="281.622"/>
      </g>
     </g>
     <g id="text_1">
      <!-- $\mathdefault{10^{-2}}$ -->
      <g style="fill:#262626;" transform="translate(128.928026 311.137625)scale(0.165 -0.165)">
       <defs>
        <path d="M 37.25 0 
L 28.46875 0 
L 28.46875 56 
Q 25.296875 52.984375 20.140625 49.953125 
Q 14.984375 46.921875 10.890625 45.40625 
L 10.890625 53.90625 
Q 18.265625 57.375 23.78125 62.296875 
Q 29.296875 67.234375 31.59375 71.875 
L 37.25 71.875 
z
" id="ArialMT-49"/>
        <path d="M 4.15625 35.296875 
Q 4.15625 48 6.765625 55.734375 
Q 9.375 63.484375 14.515625 67.671875 
Q 19.671875 71.875 27.484375 71.875 
Q 33.25 71.875 37.59375 69.546875 
Q 41.9375 67.234375 44.765625 62.859375 
Q 47.609375 58.5 49.21875 52.21875 
Q 50.828125 45.953125 50.828125 35.296875 
Q 50.828125 22.703125 48.234375 14.96875 
Q 45.65625 7.234375 40.5 3 
Q 35.359375 -1.21875 27.484375 -1.21875 
Q 17.140625 -1.21875 11.234375 6.203125 
Q 4.15625 15.140625 4.15625 35.296875 
z
M 13.1875 35.296875 
Q 13.1875 17.671875 17.3125 11.828125 
Q 21.4375 6 27.484375 6 
Q 33.546875 6 37.671875 11.859375 
Q 41.796875 17.71875 41.796875 35.296875 
Q 41.796875 52.984375 37.671875 58.78125 
Q 33.546875 64.59375 27.390625 64.59375 
Q 21.34375 64.59375 17.71875 59.46875 
Q 13.1875 52.9375 13.1875 35.296875 
z
" id="ArialMT-48"/>
        <path d="M 52.828125 31.203125 
L 5.5625 31.203125 
L 5.5625 39.40625 
L 52.828125 39.40625 
z
" id="ArialMT-8722"/>
        <path d="M 50.34375 8.453125 
L 50.34375 0 
L 3.03125 0 
Q 2.9375 3.171875 4.046875 6.109375 
Q 5.859375 10.9375 9.828125 15.625 
Q 13.8125 20.3125 21.34375 26.46875 
Q 33.015625 36.03125 37.109375 41.625 
Q 41.21875 47.21875 41.21875 52.203125 
Q 41.21875 57.421875 37.46875 61 
Q 33.734375 64.59375 27.734375 64.59375 
Q 21.390625 64.59375 17.578125 60.78125 
Q 13.765625 56.984375 13.71875 50.25 
L 4.6875 51.171875 
Q 5.609375 61.28125 11.65625 66.578125 
Q 17.71875 71.875 27.9375 71.875 
Q 38.234375 71.875 44.234375 66.15625 
Q 50.25 60.453125 50.25 52 
Q 50.25 47.703125 48.484375 43.546875 
Q 46.734375 39.40625 42.65625 34.8125 
Q 38.578125 30.21875 29.109375 22.21875 
Q 21.1875 15.578125 18.9375 13.203125 
Q 16.703125 10.84375 15.234375 8.453125 
z
" id="ArialMT-50"/>
       </defs>
       <use transform="translate(0 0.99375)" xlink:href="#ArialMT-49"/>
       <use transform="translate(55.615234 0.99375)" xlink:href="#ArialMT-48"/>
       <use transform="translate(112.972813 70.6875)scale(0.7)" xlink:href="#ArialMT-8722"/>
       <use transform="translate(153.851719 70.6875)scale(0.7)" xlink:href="#ArialMT-50"/>
      </g>
     </g>
    </g>
    <g id="xtick_2">
     <g id="line2d_2">
      <g>
       <use style="fill:#262626;stroke:#262626;stroke-width:1.875;" x="238.913375" xlink:href="#m6572dbcf22" y="281.622"/>
      </g>
     </g>
     <g id="text_2">
      <!-- $\mathdefault{10^{0}}$ -->
      <g style="fill:#262626;" transform="translate(225.960875 311.137625)scale(0.165 -0.165)">
       <use transform="translate(0 0.99375)" xlink:href="#ArialMT-49"/>
       <use transform="translate(55.615234 0.99375)" xlink:href="#ArialMT-48"/>
       <use transform="translate(112.972813 70.6875)scale(0.7)" xlink:href="#ArialMT-48"/>
      </g>
     </g>
    </g>
    <g id="xtick_3">
     <g id="line2d_3">
      <g>
       <use style="fill:#262626;stroke:#262626;stroke-width:1.875;" x="332.563725" xlink:href="#m6572dbcf22" y="281.622"/>
      </g>
     </g>
     <g id="text_3">
      <!-- $\mathdefault{10^{2}}$ -->
      <g style="fill:#262626;" transform="translate(319.611225 311.137625)scale(0.165 -0.165)">
       <use transform="translate(0 0.99375)" xlink:href="#ArialMT-49"/>
       <use transform="translate(55.615234 0.99375)" xlink:href="#ArialMT-48"/>
       <use transform="translate(112.972813 70.6875)scale(0.7)" xlink:href="#ArialMT-50"/>
      </g>
     </g>
    </g>
    <g id="text_4">
     <!-- Averaging time $\tau$ (s) -->
     <g style="fill:#262626;" transform="translate(159.231562 331.557)scale(0.18 -0.18)">
      <defs>
       <path d="M -0.140625 0 
L 27.34375 71.578125 
L 37.546875 71.578125 
L 66.84375 0 
L 56.0625 0 
L 47.703125 21.6875 
L 17.78125 21.6875 
L 9.90625 0 
z
M 20.515625 29.390625 
L 44.78125 29.390625 
L 37.3125 49.21875 
Q 33.890625 58.25 32.234375 64.0625 
Q 30.859375 57.171875 28.375 50.390625 
z
" id="ArialMT-65"/>
       <path d="M 21 0 
L 1.265625 51.859375 
L 10.546875 51.859375 
L 21.6875 20.796875 
Q 23.484375 15.765625 25 10.359375 
Q 26.171875 14.453125 28.265625 20.21875 
L 39.796875 51.859375 
L 48.828125 51.859375 
L 29.203125 0 
z
" id="ArialMT-118"/>
       <path d="M 42.09375 16.703125 
L 51.171875 15.578125 
Q 49.03125 7.625 43.21875 3.21875 
Q 37.40625 -1.171875 28.375 -1.171875 
Q 17 -1.171875 10.328125 5.828125 
Q 3.65625 12.84375 3.65625 25.484375 
Q 3.65625 38.578125 10.390625 45.796875 
Q 17.140625 53.03125 27.875 53.03125 
Q 38.28125 53.03125 44.875 45.953125 
Q 51.46875 38.875 51.46875 26.03125 
Q 51.46875 25.25 51.421875 23.6875 
L 12.75 23.6875 
Q 13.234375 15.140625 17.578125 10.59375 
Q 21.921875 6.0625 28.421875 6.0625 
Q 33.25 6.0625 36.671875 8.59375 
Q 40.09375 11.140625 42.09375 16.703125 
z
M 13.234375 30.90625 
L 42.1875 30.90625 
Q 41.609375 37.453125 38.875 40.71875 
Q 34.671875 45.796875 27.984375 45.796875 
Q 21.921875 45.796875 17.796875 41.75 
Q 13.671875 37.703125 13.234375 30.90625 
z
" id="ArialMT-101"/>
       <path d="M 6.5 0 
L 6.5 51.859375 
L 14.40625 51.859375 
L 14.40625 44 
Q 17.4375 49.515625 20 51.265625 
Q 22.5625 53.03125 25.640625 53.03125 
Q 30.078125 53.03125 34.671875 50.203125 
L 31.640625 42.046875 
Q 28.421875 43.953125 25.203125 43.953125 
Q 22.3125 43.953125 20.015625 42.21875 
Q 17.71875 40.484375 16.75 37.40625 
Q 15.28125 32.71875 15.28125 27.15625 
L 15.28125 0 
z
" id="ArialMT-114"/>
       <path d="M 40.4375 6.390625 
Q 35.546875 2.25 31.03125 0.53125 
Q 26.515625 -1.171875 21.34375 -1.171875 
Q 12.796875 -1.171875 8.203125 3 
Q 3.609375 7.171875 3.609375 13.671875 
Q 3.609375 17.484375 5.34375 20.625 
Q 7.078125 23.78125 9.890625 25.6875 
Q 12.703125 27.59375 16.21875 28.5625 
Q 18.796875 29.25 24.03125 29.890625 
Q 34.671875 31.15625 39.703125 32.90625 
Q 39.75 34.71875 39.75 35.203125 
Q 39.75 40.578125 37.25 42.78125 
Q 33.890625 45.75 27.25 45.75 
Q 21.046875 45.75 18.09375 43.578125 
Q 15.140625 41.40625 13.71875 35.890625 
L 5.125 37.0625 
Q 6.296875 42.578125 8.984375 45.96875 
Q 11.671875 49.359375 16.75 51.1875 
Q 21.828125 53.03125 28.515625 53.03125 
Q 35.15625 53.03125 39.296875 51.46875 
Q 43.453125 49.90625 45.40625 47.53125 
Q 47.359375 45.171875 48.140625 41.546875 
Q 48.578125 39.3125 48.578125 33.453125 
L 48.578125 21.734375 
Q 48.578125 9.46875 49.140625 6.21875 
Q 49.703125 2.984375 51.375 0 
L 42.1875 0 
Q 40.828125 2.734375 40.4375 6.390625 
z
M 39.703125 26.03125 
Q 34.90625 24.078125 25.34375 22.703125 
Q 19.921875 21.921875 17.671875 20.9375 
Q 15.4375 19.96875 14.203125 18.09375 
Q 12.984375 16.21875 12.984375 13.921875 
Q 12.984375 10.40625 15.640625 8.0625 
Q 18.3125 5.71875 23.4375 5.71875 
Q 28.515625 5.71875 32.46875 7.9375 
Q 36.421875 10.15625 38.28125 14.015625 
Q 39.703125 17 39.703125 22.796875 
z
" id="ArialMT-97"/>
       <path d="M 4.984375 -4.296875 
L 13.53125 -5.5625 
Q 14.0625 -9.515625 16.5 -11.328125 
Q 19.78125 -13.765625 25.4375 -13.765625 
Q 31.546875 -13.765625 34.859375 -11.328125 
Q 38.1875 -8.890625 39.359375 -4.5 
Q 40.046875 -1.8125 39.984375 6.78125 
Q 34.234375 0 25.640625 0 
Q 14.9375 0 9.078125 7.71875 
Q 3.21875 15.4375 3.21875 26.21875 
Q 3.21875 33.640625 5.90625 39.90625 
Q 8.59375 46.1875 13.6875 49.609375 
Q 18.796875 53.03125 25.6875 53.03125 
Q 34.859375 53.03125 40.828125 45.609375 
L 40.828125 51.859375 
L 48.921875 51.859375 
L 48.921875 7.03125 
Q 48.921875 -5.078125 46.453125 -10.125 
Q 44 -15.1875 38.640625 -18.109375 
Q 33.296875 -21.046875 25.484375 -21.046875 
Q 16.21875 -21.046875 10.5 -16.875 
Q 4.78125 -12.703125 4.984375 -4.296875 
z
M 12.25 26.859375 
Q 12.25 16.65625 16.296875 11.96875 
Q 20.359375 7.28125 26.46875 7.28125 
Q 32.515625 7.28125 36.609375 11.9375 
Q 40.71875 16.609375 40.71875 26.5625 
Q 40.71875 36.078125 36.5 40.90625 
Q 32.28125 45.75 26.3125 45.75 
Q 20.453125 45.75 16.34375 40.984375 
Q 12.25 36.234375 12.25 26.859375 
z
" id="ArialMT-103"/>
       <path d="M 6.640625 61.46875 
L 6.640625 71.578125 
L 15.4375 71.578125 
L 15.4375 61.46875 
z
M 6.640625 0 
L 6.640625 51.859375 
L 15.4375 51.859375 
L 15.4375 0 
z
" id="ArialMT-105"/>
       <path d="M 6.59375 0 
L 6.59375 51.859375 
L 14.5 51.859375 
L 14.5 44.484375 
Q 20.21875 53.03125 31 53.03125 
Q 35.6875 53.03125 39.625 51.34375 
Q 43.5625 49.65625 45.515625 46.921875 
Q 47.46875 44.1875 48.25 40.4375 
Q 48.734375 37.984375 48.734375 31.890625 
L 48.734375 0 
L 39.9375 0 
L 39.9375 31.546875 
Q 39.9375 36.921875 38.90625 39.578125 
Q 37.890625 42.234375 35.28125 43.8125 
Q 32.671875 45.40625 29.15625 45.40625 
Q 23.53125 45.40625 19.453125 41.84375 
Q 15.375 38.28125 15.375 28.328125 
L 15.375 0 
z
" id="ArialMT-110"/>
       <path id="ArialMT-32"/>
       <path d="M 25.78125 7.859375 
L 27.046875 0.09375 
Q 23.34375 -0.6875 20.40625 -0.6875 
Q 15.625 -0.6875 12.984375 0.828125 
Q 10.359375 2.34375 9.28125 4.8125 
Q 8.203125 7.28125 8.203125 15.1875 
L 8.203125 45.015625 
L 1.765625 45.015625 
L 1.765625 51.859375 
L 8.203125 51.859375 
L 8.203125 64.703125 
L 16.9375 69.96875 
L 16.9375 51.859375 
L 25.78125 51.859375 
L 25.78125 45.015625 
L 16.9375 45.015625 
L 16.9375 14.703125 
Q 16.9375 10.9375 17.40625 9.859375 
Q 17.875 8.796875 18.921875 8.15625 
Q 19.96875 7.515625 21.921875 7.515625 
Q 23.390625 7.515625 25.78125 7.859375 
z
" id="ArialMT-116"/>
       <path d="M 6.59375 0 
L 6.59375 51.859375 
L 14.453125 51.859375 
L 14.453125 44.578125 
Q 16.890625 48.390625 20.9375 50.703125 
Q 25 53.03125 30.171875 53.03125 
Q 35.9375 53.03125 39.625 50.640625 
Q 43.3125 48.25 44.828125 43.953125 
Q 50.984375 53.03125 60.84375 53.03125 
Q 68.5625 53.03125 72.703125 48.75 
Q 76.859375 44.484375 76.859375 35.59375 
L 76.859375 0 
L 68.109375 0 
L 68.109375 32.671875 
Q 68.109375 37.9375 67.25 40.25 
Q 66.40625 42.578125 64.15625 43.984375 
Q 61.921875 45.40625 58.890625 45.40625 
Q 53.421875 45.40625 49.796875 41.765625 
Q 46.1875 38.140625 46.1875 30.125 
L 46.1875 0 
L 37.40625 0 
L 37.40625 33.6875 
Q 37.40625 39.546875 35.25 42.46875 
Q 33.109375 45.40625 28.21875 45.40625 
Q 24.515625 45.40625 21.359375 43.453125 
Q 18.21875 41.5 16.796875 37.734375 
Q 15.375 33.984375 15.375 26.90625 
L 15.375 0 
z
" id="ArialMT-109"/>
       <path d="M 32.859375 9.96875 
Q 34.1875 7.625 39.453125 7.625 
L 43.75 7.625 
L 42.28125 0 
L 36.921875 0 
Q 28.125 0 25 4.6875 
Q 21.921875 9.46875 23.96875 19.828125 
L 29 45.703125 
L 8.453125 45.703125 
L 10.203125 54.6875 
L 60.640625 54.6875 
L 58.890625 45.703125 
L 38.1875 45.703125 
L 33.015625 19.28125 
Q 31.640625 12.203125 32.859375 9.96875 
z
" id="DejaVuSans-Oblique-964"/>
       <path d="M 23.390625 -21.046875 
Q 16.109375 -11.859375 11.078125 0.4375 
Q 6.0625 12.75 6.0625 25.921875 
Q 6.0625 37.546875 9.8125 48.1875 
Q 14.203125 60.546875 23.390625 72.796875 
L 29.6875 72.796875 
Q 23.78125 62.640625 21.875 58.296875 
Q 18.890625 51.5625 17.1875 44.234375 
Q 15.09375 35.109375 15.09375 25.875 
Q 15.09375 2.390625 29.6875 -21.046875 
z
" id="ArialMT-40"/>
       <path d="M 3.078125 15.484375 
L 11.765625 16.84375 
Q 12.5 11.625 15.84375 8.84375 
Q 19.1875 6.0625 25.203125 6.0625 
Q 31.25 6.0625 34.171875 8.515625 
Q 37.109375 10.984375 37.109375 14.3125 
Q 37.109375 17.28125 34.515625 19 
Q 32.71875 20.171875 25.53125 21.96875 
Q 15.875 24.421875 12.140625 26.203125 
Q 8.40625 27.984375 6.46875 31.125 
Q 4.546875 34.28125 4.546875 38.09375 
Q 4.546875 41.546875 6.125 44.5 
Q 7.71875 47.46875 10.453125 49.421875 
Q 12.5 50.921875 16.03125 51.96875 
Q 19.578125 53.03125 23.640625 53.03125 
Q 29.734375 53.03125 34.34375 51.265625 
Q 38.96875 49.515625 41.15625 46.5 
Q 43.359375 43.5 44.1875 38.484375 
L 35.59375 37.3125 
Q 35.015625 41.3125 32.203125 43.546875 
Q 29.390625 45.796875 24.265625 45.796875 
Q 18.21875 45.796875 15.625 43.796875 
Q 13.03125 41.796875 13.03125 39.109375 
Q 13.03125 37.40625 14.109375 36.03125 
Q 15.1875 34.625 17.484375 33.6875 
Q 18.796875 33.203125 25.25 31.453125 
Q 34.578125 28.953125 38.25 27.359375 
Q 41.9375 25.78125 44.03125 22.75 
Q 46.140625 19.734375 46.140625 15.234375 
Q 46.140625 10.84375 43.578125 6.953125 
Q 41.015625 3.078125 36.171875 0.953125 
Q 31.34375 -1.171875 25.25 -1.171875 
Q 15.140625 -1.171875 9.84375 3.03125 
Q 4.546875 7.234375 3.078125 15.484375 
z
" id="ArialMT-115"/>
       <path d="M 12.359375 -21.046875 
L 6.0625 -21.046875 
Q 20.65625 2.390625 20.65625 25.875 
Q 20.65625 35.0625 18.5625 44.09375 
Q 16.890625 51.421875 13.921875 58.15625 
Q 12.015625 62.546875 6.0625 72.796875 
L 12.359375 72.796875 
Q 21.53125 60.546875 25.921875 48.1875 
Q 29.6875 37.546875 29.6875 25.921875 
Q 29.6875 12.75 24.625 0.4375 
Q 19.578125 -11.859375 12.359375 -21.046875 
z
" id="ArialMT-41"/>
      </defs>
      <use transform="translate(0 0.203125)" xlink:href="#ArialMT-65"/>
      <use transform="translate(66.699219 0.203125)" xlink:href="#ArialMT-118"/>
      <use transform="translate(116.699219 0.203125)" xlink:href="#ArialMT-101"/>
      <use transform="translate(172.314453 0.203125)" xlink:href="#ArialMT-114"/>
      <use transform="translate(205.615234 0.203125)" xlink:href="#ArialMT-97"/>
      <use transform="translate(261.230469 0.203125)" xlink:href="#ArialMT-103"/>
      <use transform="translate(316.845703 0.203125)" xlink:href="#ArialMT-105"/>
      <use transform="translate(339.0625 0.203125)" xlink:href="#ArialMT-110"/>
      <use transform="translate(394.677734 0.203125)" xlink:href="#ArialMT-103"/>
      <use transform="translate(450.292969 0.203125)" xlink:href="#ArialMT-32"/>
      <use transform="translate(478.076172 0.203125)" xlink:href="#ArialMT-116"/>
      <use transform="translate(505.859375 0.203125)" xlink:href="#ArialMT-105"/>
      <use transform="translate(528.076172 0.203125)" xlink:href="#ArialMT-109"/>
      <use transform="translate(611.376953 0.203125)" xlink:href="#ArialMT-101"/>
      <use transform="translate(666.992188 0.203125)" xlink:href="#ArialMT-32"/>
      <use transform="translate(694.775391 0.203125)" xlink:href="#DejaVuSans-Oblique-964"/>
      <use transform="translate(754.980469 0.203125)" xlink:href="#ArialMT-32"/>
      <use transform="translate(782.763672 0.203125)" xlink:href="#ArialMT-40"/>
      <use transform="translate(816.064453 0.203125)" xlink:href="#ArialMT-115"/>
      <use transform="translate(866.064453 0.203125)" xlink:href="#ArialMT-41"/>
     </g>
    </g>
   </g>
   <g id="matplotlib.axis_2">
    <g id="ytick_1">
     <g id="line2d_4">
      <defs>
       <path d="M 0 0 
L -9 0 
" id="m108349aeed" style="stroke:#262626;stroke-width:1.875;"/>
      </defs>
      <g>
       <use style="fill:#262626;stroke:#262626;stroke-width:1.875;" x="72.831563" xlink:href="#m108349aeed" y="173.981321"/>
      </g>
     </g>
     <g id="text_5">
      <!-- $\mathdefault{10^{-1}}$ -->
      <g style="fill:#262626;" transform="translate(27.661563 182.489134)scale(0.165 -0.165)">
       <use transform="translate(0 0.99375)" xlink:href="#ArialMT-49"/>
       <use transform="translate(55.615234 0.99375)" xlink:href="#ArialMT-48"/>
       <use transform="translate(112.972813 70.6875)scale(0.7)" xlink:href="#ArialMT-8722"/>
       <use transform="translate(153.851719 70.6875)scale(0.7)" xlink:href="#ArialMT-49"/>
      </g>
     </g>
    </g>
    <g id="ytick_2">
     <g id="line2d_5">
      <g>
       <use style="fill:#262626;stroke:#262626;stroke-width:1.875;" x="72.831563" xlink:href="#m108349aeed" y="64.182"/>
      </g>
     </g>
     <g id="text_6">
      <!-- $\mathdefault{10^{0}}$ -->
      <g style="fill:#262626;" transform="translate(34.426563 72.689813)scale(0.165 -0.165)">
       <use transform="translate(0 0.99375)" xlink:href="#ArialMT-49"/>
       <use transform="translate(55.615234 0.99375)" xlink:href="#ArialMT-48"/>
       <use transform="translate(112.972813 70.6875)scale(0.7)" xlink:href="#ArialMT-48"/>
      </g>
     </g>
    </g>
    <g id="ytick_3">
     <g id="line2d_6">
      <defs>
       <path d="M 0 0 
L -6 0 
" id="m13ef3a8731" style="stroke:#262626;stroke-width:1.5;"/>
      </defs>
      <g>
       <use style="fill:#262626;stroke:#262626;stroke-width:1.5;" x="72.831563" xlink:href="#m13ef3a8731" y="250.727753"/>
      </g>
     </g>
    </g>
    <g id="ytick_4">
     <g id="line2d_7">
      <g>
       <use style="fill:#262626;stroke:#262626;stroke-width:1.5;" x="72.831563" xlink:href="#m13ef3a8731" y="231.393053"/>
      </g>
     </g>
    </g>
    <g id="ytick_5">
     <g id="line2d_8">
      <g>
       <use style="fill:#262626;stroke:#262626;stroke-width:1.5;" x="72.831563" xlink:href="#m13ef3a8731" y="217.674864"/>
      </g>
     </g>
    </g>
    <g id="ytick_6">
     <g id="line2d_9">
      <g>
       <use style="fill:#262626;stroke:#262626;stroke-width:1.5;" x="72.831563" xlink:href="#m13ef3a8731" y="207.034211"/>
      </g>
     </g>
    </g>
    <g id="ytick_7">
     <g id="line2d_10">
      <g>
       <use style="fill:#262626;stroke:#262626;stroke-width:1.5;" x="72.831563" xlink:href="#m13ef3a8731" y="198.340164"/>
      </g>
     </g>
    </g>
    <g id="ytick_8">
     <g id="line2d_11">
      <g>
       <use style="fill:#262626;stroke:#262626;stroke-width:1.5;" x="72.831563" xlink:href="#m13ef3a8731" y="190.989451"/>
      </g>
     </g>
    </g>
    <g id="ytick_9">
     <g id="line2d_12">
      <g>
       <use style="fill:#262626;stroke:#262626;stroke-width:1.5;" x="72.831563" xlink:href="#m13ef3a8731" y="184.621975"/>
      </g>
     </g>
    </g>
    <g id="ytick_10">
     <g id="line2d_13">
      <g>
       <use style="fill:#262626;stroke:#262626;stroke-width:1.5;" x="72.831563" xlink:href="#m13ef3a8731" y="179.005463"/>
      </g>
     </g>
    </g>
    <g id="ytick_11">
     <g id="line2d_14">
      <g>
       <use style="fill:#262626;stroke:#262626;stroke-width:1.5;" x="72.831563" xlink:href="#m13ef3a8731" y="140.928432"/>
      </g>
     </g>
    </g>
    <g id="ytick_12">
     <g id="line2d_15">
      <g>
       <use style="fill:#262626;stroke:#262626;stroke-width:1.5;" x="72.831563" xlink:href="#m13ef3a8731" y="121.593731"/>
      </g>
     </g>
    </g>
    <g id="ytick_13">
     <g id="line2d_16">
      <g>
       <use style="fill:#262626;stroke:#262626;stroke-width:1.5;" x="72.831563" xlink:href="#m13ef3a8731" y="107.875543"/>
      </g>
     </g>
    </g>
    <g id="ytick_14">
     <g id="line2d_17">
      <g>
       <use style="fill:#262626;stroke:#262626;stroke-width:1.5;" x="72.831563" xlink:href="#m13ef3a8731" y="97.234889"/>
      </g>
     </g>
    </g>
    <g id="ytick_15">
     <g id="line2d_18">
      <g>
       <use style="fill:#262626;stroke:#262626;stroke-width:1.5;" x="72.831563" xlink:href="#m13ef3a8731" y="88.540842"/>
      </g>
     </g>
    </g>
    <g id="ytick_16">
     <g id="line2d_19">
      <g>
       <use style="fill:#262626;stroke:#262626;stroke-width:1.5;" x="72.831563" xlink:href="#m13ef3a8731" y="81.19013"/>
      </g>
     </g>
    </g>
    <g id="ytick_17">
     <g id="line2d_20">
      <g>
       <use style="fill:#262626;stroke:#262626;stroke-width:1.5;" x="72.831563" xlink:href="#m13ef3a8731" y="74.822654"/>
      </g>
     </g>
    </g>
    <g id="ytick_18">
     <g id="line2d_21">
      <g>
       <use style="fill:#262626;stroke:#262626;stroke-width:1.5;" x="72.831563" xlink:href="#m13ef3a8731" y="69.206141"/>
      </g>
     </g>
    </g>
    <g id="text_7">
     <!-- Standard deviation $\sigma_{C}$ -->
     <g style="fill:#262626;" transform="translate(20.084062 260.832)rotate(-90)scale(0.18 -0.18)">
      <defs>
       <path d="M 4.5 23 
L 13.421875 23.78125 
Q 14.0625 18.40625 16.375 14.96875 
Q 18.703125 11.53125 23.578125 9.40625 
Q 28.46875 7.28125 34.578125 7.28125 
Q 39.984375 7.28125 44.140625 8.890625 
Q 48.296875 10.5 50.3125 13.296875 
Q 52.34375 16.109375 52.34375 19.4375 
Q 52.34375 22.796875 50.390625 25.3125 
Q 48.4375 27.828125 43.953125 29.546875 
Q 41.0625 30.671875 31.203125 33.03125 
Q 21.34375 35.40625 17.390625 37.5 
Q 12.25 40.1875 9.734375 44.15625 
Q 7.234375 48.140625 7.234375 53.078125 
Q 7.234375 58.5 10.296875 63.203125 
Q 13.375 67.921875 19.28125 70.359375 
Q 25.203125 72.796875 32.421875 72.796875 
Q 40.375 72.796875 46.453125 70.234375 
Q 52.546875 67.671875 55.8125 62.6875 
Q 59.078125 57.71875 59.328125 51.421875 
L 50.25 50.734375 
Q 49.515625 57.515625 45.28125 60.984375 
Q 41.0625 64.453125 32.8125 64.453125 
Q 24.21875 64.453125 20.28125 61.296875 
Q 16.359375 58.15625 16.359375 53.71875 
Q 16.359375 49.859375 19.140625 47.359375 
Q 21.875 44.875 33.421875 42.265625 
Q 44.96875 39.65625 49.265625 37.703125 
Q 55.515625 34.8125 58.484375 30.390625 
Q 61.46875 25.984375 61.46875 20.21875 
Q 61.46875 14.5 58.203125 9.4375 
Q 54.9375 4.390625 48.796875 1.578125 
Q 42.671875 -1.21875 35.015625 -1.21875 
Q 25.296875 -1.21875 18.71875 1.609375 
Q 12.15625 4.4375 8.421875 10.125 
Q 4.6875 15.828125 4.5 23 
z
" id="ArialMT-83"/>
       <path d="M 40.234375 0 
L 40.234375 6.546875 
Q 35.296875 -1.171875 25.734375 -1.171875 
Q 19.53125 -1.171875 14.328125 2.25 
Q 9.125 5.671875 6.265625 11.796875 
Q 3.421875 17.921875 3.421875 25.875 
Q 3.421875 33.640625 6 39.96875 
Q 8.59375 46.296875 13.765625 49.65625 
Q 18.953125 53.03125 25.34375 53.03125 
Q 30.03125 53.03125 33.6875 51.046875 
Q 37.359375 49.078125 39.65625 45.90625 
L 39.65625 71.578125 
L 48.390625 71.578125 
L 48.390625 0 
z
M 12.453125 25.875 
Q 12.453125 15.921875 16.640625 10.984375 
Q 20.84375 6.0625 26.5625 6.0625 
Q 32.328125 6.0625 36.34375 10.765625 
Q 40.375 15.484375 40.375 25.140625 
Q 40.375 35.796875 36.265625 40.765625 
Q 32.171875 45.75 26.171875 45.75 
Q 20.3125 45.75 16.375 40.96875 
Q 12.453125 36.1875 12.453125 25.875 
z
" id="ArialMT-100"/>
       <path d="M 3.328125 25.921875 
Q 3.328125 40.328125 11.328125 47.265625 
Q 18.015625 53.03125 27.640625 53.03125 
Q 38.328125 53.03125 45.109375 46.015625 
Q 51.90625 39.015625 51.90625 26.65625 
Q 51.90625 16.65625 48.90625 10.90625 
Q 45.90625 5.171875 40.15625 2 
Q 34.421875 -1.171875 27.640625 -1.171875 
Q 16.75 -1.171875 10.03125 5.8125 
Q 3.328125 12.796875 3.328125 25.921875 
z
M 12.359375 25.921875 
Q 12.359375 15.96875 16.703125 11.015625 
Q 21.046875 6.0625 27.640625 6.0625 
Q 34.1875 6.0625 38.53125 11.03125 
Q 42.875 16.015625 42.875 26.21875 
Q 42.875 35.84375 38.5 40.796875 
Q 34.125 45.75 27.640625 45.75 
Q 21.046875 45.75 16.703125 40.8125 
Q 12.359375 35.890625 12.359375 25.921875 
z
" id="ArialMT-111"/>
       <path d="M 34.671875 47.5625 
Q 27.25 47.5625 22.21875 42.1875 
Q 16.890625 36.578125 15.140625 27.296875 
Q 13.1875 17.484375 16.3125 11.8125 
Q 19.390625 6.203125 26.65625 6.203125 
Q 33.84375 6.203125 39.109375 11.859375 
Q 44.4375 17.53125 46.34375 27.296875 
Q 48.046875 36.234375 45.015625 42.1875 
Q 42.1875 47.5625 34.671875 47.5625 
z
M 36.078125 54.734375 
L 65.921875 54.6875 
L 64.15625 45.703125 
L 54.109375 45.703125 
Q 57.90625 38.09375 55.859375 27.296875 
Q 53.21875 13.875 45.0625 6.25 
Q 36.859375 -1.421875 25.140625 -1.421875 
Q 13.375 -1.421875 8.203125 6.25 
Q 3.03125 13.875 5.671875 27.296875 
Q 8.25 40.765625 16.40625 48.390625 
Q 23.1875 54.734375 36.078125 54.734375 
z
" id="DejaVuSans-Oblique-963"/>
       <path d="M 69.484375 67.28125 
L 67.484375 56.890625 
Q 62.796875 61.625 57.546875 63.921875 
Q 52.296875 66.21875 46.1875 66.21875 
Q 37.84375 66.21875 31.515625 62.203125 
Q 25.203125 58.203125 20.609375 50 
Q 17.671875 44.734375 16.125 38.84375 
Q 14.59375 32.953125 14.59375 27 
Q 14.59375 17.046875 19.75 11.8125 
Q 24.90625 6.59375 34.71875 6.59375 
Q 41.5 6.59375 47.75 8.765625 
Q 54 10.9375 59.90625 15.28125 
L 57.625 3.609375 
Q 51.8125 1.125 45.875 -0.140625 
Q 39.9375 -1.421875 33.984375 -1.421875 
Q 19.96875 -1.421875 12.078125 6.1875 
Q 4.203125 13.8125 4.203125 27.390625 
Q 4.203125 36.078125 7.203125 44.46875 
Q 10.203125 52.875 15.828125 59.8125 
Q 21.78125 67.1875 29.421875 70.703125 
Q 37.0625 74.21875 47.21875 74.21875 
Q 53.46875 74.21875 59.0625 72.484375 
Q 64.65625 70.75 69.484375 67.28125 
z
" id="DejaVuSans-Oblique-67"/>
      </defs>
      <use transform="translate(0 0.203125)" xlink:href="#ArialMT-83"/>
      <use transform="translate(66.699219 0.203125)" xlink:href="#ArialMT-116"/>
      <use transform="translate(94.482422 0.203125)" xlink:href="#ArialMT-97"/>
      <use transform="translate(150.097656 0.203125)" xlink:href="#ArialMT-110"/>
      <use transform="translate(205.712891 0.203125)" xlink:href="#ArialMT-100"/>
      <use transform="translate(261.328125 0.203125)" xlink:href="#ArialMT-97"/>
      <use transform="translate(316.943359 0.203125)" xlink:href="#ArialMT-114"/>
      <use transform="translate(350.244141 0.203125)" xlink:href="#ArialMT-100"/>
      <use transform="translate(405.859375 0.203125)" xlink:href="#ArialMT-32"/>
      <use transform="translate(433.642578 0.203125)" xlink:href="#ArialMT-100"/>
      <use transform="translate(489.257812 0.203125)" xlink:href="#ArialMT-101"/>
      <use transform="translate(544.873047 0.203125)" xlink:href="#ArialMT-118"/>
      <use transform="translate(594.873047 0.203125)" xlink:href="#ArialMT-105"/>
      <use transform="translate(617.089844 0.203125)" xlink:href="#ArialMT-97"/>
      <use transform="translate(672.705078 0.203125)" xlink:href="#ArialMT-116"/>
      <use transform="translate(700.488281 0.203125)" xlink:href="#ArialMT-105"/>
      <use transform="translate(722.705078 0.203125)" xlink:href="#ArialMT-111"/>
      <use transform="translate(778.320312 0.203125)" xlink:href="#ArialMT-110"/>
      <use transform="translate(833.935547 0.203125)" xlink:href="#ArialMT-32"/>
      <use transform="translate(861.71875 0.203125)" xlink:href="#DejaVuSans-Oblique-963"/>
      <use transform="translate(925.097656 -16.203125)scale(0.7)" xlink:href="#DejaVuSans-Oblique-67"/>
     </g>
    </g>
   </g>
   <g id="PolyCollection_1">
    <defs>
     <path d="M 88.049744 -221.850101 
L 88.049744 -230.182996 
L 90.391003 -232.112096 
L 92.732262 -227.41689 
L 95.073521 -227.409863 
L 97.414779 -230.421669 
L 99.756038 -227.155803 
L 102.097297 -231.213687 
L 104.438556 -234.0185 
L 106.779814 -230.664661 
L 109.121073 -217.655477 
L 111.462332 -232.290137 
L 113.80359 -227.034598 
L 116.144849 -231.335301 
L 118.486108 -226.096749 
L 120.827367 -223.231231 
L 123.168625 -225.566701 
L 125.509884 -231.097267 
L 127.851143 -228.678395 
L 130.192402 -229.091132 
L 132.53366 -228.777149 
L 134.874919 -228.94075 
L 137.216178 -230.16859 
L 139.557437 -224.804385 
L 141.898695 -228.053224 
L 144.239954 -222.947348 
L 146.581213 -233.896498 
L 148.922472 -224.770928 
L 151.26373 -227.461638 
L 153.604989 -228.313845 
L 155.946248 -225.220158 
L 158.287507 -228.069846 
L 160.628765 -226.841219 
L 162.970024 -227.16003 
L 165.311283 -232.20451 
L 167.652542 -229.873729 
L 169.9938 -231.188432 
L 172.335059 -225.711934 
L 174.676318 -225.56987 
L 177.017576 -229.741891 
L 179.358835 -229.926069 
L 181.700094 -232.893431 
L 184.041353 -228.997321 
L 186.382611 -229.844597 
L 188.72387 -228.152467 
L 191.065129 -231.869812 
L 193.406388 -229.20445 
L 195.747646 -231.80744 
L 198.088905 -228.936733 
L 200.430164 -228.083471 
L 202.771423 -230.285305 
L 205.112681 -228.834065 
L 207.45394 -230.731392 
L 209.795199 -230.281976 
L 212.136458 -225.872849 
L 214.477716 -230.781848 
L 216.818975 -228.982695 
L 219.160234 -226.452046 
L 221.501493 -227.975421 
L 223.842751 -229.205668 
L 226.18401 -231.585187 
L 228.525269 -229.082064 
L 230.866528 -227.336597 
L 233.207786 -226.595417 
L 235.549045 -231.116961 
L 237.890304 -223.356526 
L 240.231562 -222.06696 
L 242.572821 -231.428299 
L 244.91408 -225.385364 
L 247.255339 -223.610602 
L 249.596597 -221.609933 
L 251.937856 -226.306146 
L 254.279115 -223.178983 
L 256.620374 -225.142099 
L 258.961632 -221.597338 
L 261.302891 -218.25418 
L 263.64415 -221.706304 
L 265.985409 -212.973015 
L 268.326667 -218.915037 
L 270.667926 -218.040915 
L 273.009185 -217.607873 
L 275.350444 -210.38205 
L 277.691702 -216.693241 
L 280.032961 -215.136498 
L 282.37422 -212.759004 
L 284.715479 -212.634401 
L 287.056737 -205.98373 
L 289.397996 -205.037117 
L 291.739255 -204.026346 
L 294.080514 -205.392948 
L 296.421772 -196.225708 
L 298.763031 -197.50357 
L 301.10429 -192.157235 
L 303.445549 -188.317161 
L 305.786807 -189.398869 
L 308.128066 -187.503349 
L 310.469325 -178.315374 
L 312.810583 -178.017588 
L 315.151842 -182.542855 
L 317.493101 -173.289884 
L 319.83436 -175.748448 
L 322.175618 -170.654596 
L 324.516877 -168.676251 
L 326.858136 -163.190528 
L 329.199395 -163.231347 
L 331.540653 -161.462362 
L 333.881912 -158.481802 
L 336.223171 -155.417937 
L 338.56443 -159.274471 
L 340.905688 -150.154235 
L 343.246947 -146.744545 
L 345.588206 -146.868641 
L 347.929465 -141.372433 
L 350.270723 -133.286716 
L 352.611982 -134.616448 
L 354.953241 -134.004937 
L 357.2945 -131.28673 
L 359.635758 -121.586763 
L 361.977017 -121.661154 
L 364.318276 -121.762016 
L 366.659535 -123.542097 
L 369.000793 -114.379182 
L 371.342052 -123.070741 
L 373.683311 -116.825063 
L 376.024569 -108.922822 
L 378.365828 -110.269001 
L 380.707087 -103.2535 
L 383.048346 -101.21279 
L 385.389604 -96.331636 
L 387.730863 -85.535683 
L 390.072122 -90.526035 
L 392.413381 -86.695314 
L 392.413381 -80.476197 
L 392.413381 -80.476197 
L 390.072122 -79.134174 
L 387.730863 -69.329452 
L 385.389604 -84.954105 
L 383.048346 -89.963275 
L 380.707087 -87.105388 
L 378.365828 -97.559861 
L 376.024569 -97.124339 
L 373.683311 -96.328296 
L 371.342052 -103.747577 
L 369.000793 -108.76199 
L 366.659535 -113.218102 
L 364.318276 -113.405576 
L 361.977017 -114.462062 
L 359.635758 -108.621157 
L 357.2945 -118.122552 
L 354.953241 -128.533427 
L 352.611982 -120.365229 
L 350.270723 -118.487145 
L 347.929465 -127.263548 
L 345.588206 -134.819233 
L 343.246947 -135.291157 
L 340.905688 -138.864429 
L 338.56443 -136.271652 
L 336.223171 -142.33078 
L 333.881912 -152.708005 
L 331.540653 -152.805308 
L 329.199395 -148.618156 
L 326.858136 -152.514287 
L 324.516877 -156.818544 
L 322.175618 -157.340153 
L 319.83436 -162.661108 
L 317.493101 -165.776414 
L 315.151842 -168.706859 
L 312.810583 -165.796032 
L 310.469325 -169.234867 
L 308.128066 -177.048035 
L 305.786807 -168.827764 
L 303.445549 -179.225124 
L 301.10429 -186.684743 
L 298.763031 -180.021959 
L 296.421772 -184.913192 
L 294.080514 -180.725387 
L 291.739255 -197.678296 
L 289.397996 -197.362881 
L 287.056737 -189.547255 
L 284.715479 -207.70653 
L 282.37422 -202.591015 
L 280.032961 -205.169231 
L 277.691702 -211.704195 
L 275.350444 -202.758991 
L 273.009185 -209.301057 
L 270.667926 -208.483708 
L 268.326667 -196.163408 
L 265.985409 -207.635512 
L 263.64415 -209.217975 
L 261.302891 -209.198715 
L 258.961632 -212.775079 
L 256.620374 -198.541117 
L 254.279115 -215.185929 
L 251.937856 -215.924713 
L 249.596597 -219.486509 
L 247.255339 -216.140964 
L 244.91408 -210.185774 
L 242.572821 -215.083409 
L 240.231562 -215.323376 
L 237.890304 -213.517209 
L 235.549045 -219.285684 
L 233.207786 -222.239376 
L 230.866528 -211.089252 
L 228.525269 -214.812219 
L 226.18401 -222.920784 
L 223.842751 -221.037008 
L 221.501493 -214.787853 
L 219.160234 -216.866693 
L 216.818975 -219.336045 
L 214.477716 -218.26175 
L 212.136458 -223.350527 
L 209.795199 -224.036922 
L 207.45394 -216.105372 
L 205.112681 -220.626265 
L 202.771423 -215.977447 
L 200.430164 -224.092894 
L 198.088905 -224.364865 
L 195.747646 -220.522258 
L 193.406388 -220.80149 
L 191.065129 -218.715114 
L 188.72387 -208.941793 
L 186.382611 -223.642213 
L 184.041353 -223.027736 
L 181.700094 -225.413748 
L 179.358835 -214.97212 
L 177.017576 -217.122265 
L 174.676318 -209.931046 
L 172.335059 -214.857946 
L 169.9938 -223.163383 
L 167.652542 -225.680642 
L 165.311283 -228.450066 
L 162.970024 -216.054245 
L 160.628765 -213.858048 
L 158.287507 -222.852698 
L 155.946248 -219.137704 
L 153.604989 -218.532082 
L 151.26373 -223.36011 
L 148.922472 -213.516581 
L 146.581213 -227.276266 
L 144.239954 -217.261248 
L 141.898695 -208.392599 
L 139.557437 -215.088932 
L 137.216178 -221.735078 
L 134.874919 -219.817604 
L 132.53366 -218.550498 
L 130.192402 -214.695361 
L 127.851143 -217.652632 
L 125.509884 -219.340321 
L 123.168625 -222.091251 
L 120.827367 -208.520962 
L 118.486108 -219.849079 
L 116.144849 -217.34385 
L 113.80359 -215.873789 
L 111.462332 -220.679335 
L 109.121073 -209.188408 
L 106.779814 -221.961836 
L 104.438556 -224.317077 
L 102.097297 -218.499443 
L 99.756038 -223.370704 
L 97.414779 -221.190984 
L 95.073521 -215.371278 
L 92.732262 -213.559701 
L 90.391003 -213.282998 
L 88.049744 -221.850101 
z
" id="m946481b9f7" style="stroke:#5caadb;stroke-opacity:0.3;stroke-width:1.5;"/>
    </defs>
    <g clip-path="url(#p260736702a)">
     <use style="fill:#5caadb;fill-opacity:0.3;stroke:#5caadb;stroke-opacity:0.3;stroke-width:1.5;" x="0" xlink:href="#m946481b9f7" y="342.717"/>
    </g>
   </g>
   <g id="line2d_22">
    <path clip-path="url(#p260736702a)" d="M 88.049744 116.518663 
L 92.732262 121.727109 
L 95.073521 120.947528 
L 97.414779 116.687667 
L 99.756038 117.4162 
L 102.097297 117.437937 
L 104.438556 113.30292 
L 106.779814 116.205488 
L 109.121073 129.107375 
L 111.462332 115.879747 
L 113.80359 120.937023 
L 116.144849 117.866096 
L 118.486108 119.641839 
L 120.827367 126.275898 
L 123.168625 118.856368 
L 125.509884 117.136781 
L 127.851143 119.233523 
L 130.192402 120.282559 
L 132.53366 118.779547 
L 134.874919 118.119975 
L 137.216178 116.578967 
L 139.557437 122.523338 
L 141.898695 123.487926 
L 144.239954 122.527999 
L 146.581213 112.015823 
L 148.922472 123.241991 
L 151.26373 117.262042 
L 153.604989 119.043656 
L 155.946248 120.441154 
L 158.287507 117.184414 
L 160.628765 121.926862 
L 162.970024 120.787277 
L 165.311283 112.352771 
L 167.652542 114.893741 
L 169.9938 115.372472 
L 172.335059 122.123905 
L 174.676318 124.328282 
L 177.017576 118.868671 
L 179.358835 119.684103 
L 181.700094 113.416908 
L 184.041353 116.611118 
L 186.382611 115.872824 
L 188.72387 123.20893 
L 191.065129 116.972353 
L 193.406388 117.529176 
L 195.747646 116.219083 
L 198.088905 116.011431 
L 200.430164 116.587085 
L 202.771423 119.050995 
L 205.112681 117.810457 
L 207.45394 118.740041 
L 209.795199 115.455389 
L 212.136458 118.088637 
L 214.477716 117.785471 
L 216.818975 118.314107 
L 219.160234 120.817187 
L 221.501493 120.880923 
L 223.842751 117.42096 
L 226.18401 115.267495 
L 228.525269 120.238056 
L 230.866528 122.815421 
L 233.207786 118.24988 
L 235.549045 117.14968 
L 237.890304 124.026802 
L 240.231562 123.902723 
L 242.572821 118.764238 
L 244.91408 124.328372 
L 247.255339 122.695107 
L 249.596597 122.15696 
L 251.937856 121.319612 
L 254.279115 123.367264 
L 256.620374 129.044052 
L 258.961632 125.327056 
L 261.302891 128.77592 
L 263.64415 126.847201 
L 265.985409 132.338096 
L 268.326667 133.833546 
L 270.667926 129.215653 
L 273.009185 129.081882 
L 275.350444 135.994311 
L 277.691702 128.453064 
L 280.032961 132.304186 
L 282.37422 134.771486 
L 284.715479 132.482906 
L 287.056737 144.246806 
L 289.397996 141.362786 
L 291.739255 141.759122 
L 294.080514 148.080241 
L 296.421772 151.812871 
L 298.763031 153.157578 
L 301.10429 153.217549 
L 303.445549 158.72949 
L 305.786807 162.5029 
L 308.128066 160.15533 
L 310.469325 168.72606 
L 312.810583 170.419714 
L 315.151842 166.592074 
L 317.493101 173.036023 
L 319.83436 173.064642 
L 322.175618 178.256428 
L 324.516877 179.601972 
L 326.858136 184.566427 
L 329.199395 186.234647 
L 331.540653 185.386978 
L 333.881912 187.034762 
L 336.223171 193.395074 
L 338.56443 193.570144 
L 340.905688 197.874328 
L 343.246947 201.356103 
L 345.588206 201.493481 
L 347.929465 207.879093 
L 350.270723 216.258211 
L 352.611982 214.695741 
L 354.953241 211.369384 
L 357.2945 217.559525 
L 359.635758 227.173723 
L 361.977017 224.519664 
L 364.318276 224.950388 
L 366.659535 224.058047 
L 369.000793 231.063751 
L 371.342052 228.335691 
L 373.683311 235.047418 
L 376.024569 239.329443 
L 378.365828 238.380409 
L 380.707087 246.857248 
L 383.048346 246.797997 
L 385.389604 251.735601 
L 387.730863 264.599242 
L 390.072122 257.547516 
L 392.413381 259.029929 
L 392.413381 259.029929 
" style="fill:none;stroke:#5caadb;stroke-linecap:round;stroke-width:2.25;"/>
   </g>
   <g id="line2d_23">
    <path clip-path="url(#p260736702a)" d="M 88.049744 116.442908 
L 158.287507 116.560202 
L 184.041353 116.815526 
L 200.430164 117.167544 
L 212.136458 117.593223 
L 221.501493 118.116702 
L 228.525269 118.67313 
L 235.549045 119.427669 
L 242.572821 120.448909 
L 247.255339 121.320197 
L 251.937856 122.379533 
L 256.620374 123.662336 
L 261.302891 125.207758 
L 265.985409 127.057105 
L 270.667926 129.250806 
L 275.350444 131.82375 
L 280.032961 134.799251 
L 284.715479 138.182823 
L 289.397996 141.957913 
L 294.080514 146.086199 
L 298.763031 150.513838 
L 305.786807 157.588744 
L 312.810583 165.032594 
L 322.175618 175.326261 
L 333.881912 188.55028 
L 350.270723 207.415343 
L 378.365828 240.146136 
L 392.413381 256.581241 
L 392.413381 256.581241 
" style="fill:none;stroke:#fbb44d;stroke-linecap:round;stroke-width:2.25;"/>
   </g>
   <g id="line2d_24">
    <path clip-path="url(#p260736702a)" d="M 88.049744 116.438816 
L 392.413381 116.438816 
L 392.413381 116.438816 
" style="fill:none;stroke:#172e48;stroke-dasharray:8.325,3.6;stroke-dashoffset:0;stroke-width:2.25;"/>
   </g>
   <g id="line2d_25">
    <path clip-path="url(#p260736702a)" d="M 172.74623 -1 
L 392.413381 256.546332 
L 392.413381 256.546332 
" style="fill:none;stroke:#9a4508;stroke-dasharray:8.325,3.6;stroke-dashoffset:0;stroke-width:2.25;"/>
   </g>
   <g id="line2d_26">
    <path clip-path="url(#p260736702a)" d="M 272.912479 273.387548 
L 272.912479 64.182 
" style="fill:none;stroke:#808080;stroke-dasharray:2.25,3.7125;stroke-dashoffset:0;stroke-width:2.25;"/>
   </g>
   <g id="patch_3">
    <path d="M 72.831563 281.622 
L 72.831563 64.182 
" style="fill:none;stroke:#262626;stroke-linecap:square;stroke-linejoin:miter;stroke-width:1.875;"/>
   </g>
   <g id="patch_4">
    <path d="M 407.631563 281.622 
L 407.631563 64.182 
" style="fill:none;stroke:#262626;stroke-linecap:square;stroke-linejoin:miter;stroke-width:1.875;"/>
   </g>
   <g id="patch_5">
    <path d="M 72.831562 281.622 
L 407.631562 281.622 
" style="fill:none;stroke:#262626;stroke-linecap:square;stroke-linejoin:miter;stroke-width:1.875;"/>
   </g>
   <g id="patch_6">
    <path d="M 72.831562 64.182 
L 407.631562 64.182 
" style="fill:none;stroke:#262626;stroke-linecap:square;stroke-linejoin:miter;stroke-width:1.875;"/>
   </g>
   <g id="legend_1">
    <g id="patch_7">
     <path d="M 60.945562 42.18 
L 406.950562 42.18 
Q 410.250563 42.18 410.250563 38.88 
L 410.250563 10.5 
Q 410.250563 7.2 406.950562 7.2 
L 60.945562 7.2 
Q 57.645562 7.2 57.645562 10.5 
L 57.645562 38.88 
Q 57.645562 42.18 60.945562 42.18 
z
" style="fill:#ffffff;opacity:0.8;stroke:#cccccc;stroke-linejoin:miter;stroke-width:1.5;"/>
    </g>
    <g id="line2d_27">
     <path d="M 64.245562 26.525625 
L 97.245562 26.525625 
" style="fill:none;stroke:#172e48;stroke-dasharray:8.325,3.6;stroke-dashoffset:0;stroke-width:2.25;"/>
    </g>
    <g id="line2d_28"/>
    <g id="text_8">
     <!-- $\sigma_{C}=\sigma_{inst}$ -->
     <g style="fill:#262626;" transform="translate(110.445562 32.300625)scale(0.165 -0.165)">
      <defs>
       <path d="M 10.59375 45.40625 
L 73.1875 45.40625 
L 73.1875 37.203125 
L 10.59375 37.203125 
z
M 10.59375 25.484375 
L 73.1875 25.484375 
L 73.1875 17.1875 
L 10.59375 17.1875 
z
" id="DejaVuSans-61"/>
       <path d="M 18.3125 75.984375 
L 27.296875 75.984375 
L 25.09375 64.59375 
L 16.109375 64.59375 
z
M 14.203125 54.6875 
L 23.1875 54.6875 
L 12.5 0 
L 3.515625 0 
z
" id="DejaVuSans-Oblique-105"/>
       <path d="M 55.71875 33.015625 
L 49.3125 0 
L 40.28125 0 
L 46.6875 32.671875 
Q 47.125 34.96875 47.359375 36.71875 
Q 47.609375 38.484375 47.609375 39.5 
Q 47.609375 43.609375 45.015625 45.890625 
Q 42.4375 48.1875 37.796875 48.1875 
Q 30.5625 48.1875 25.34375 43.375 
Q 20.125 38.578125 18.5 30.328125 
L 12.5 0 
L 3.515625 0 
L 14.109375 54.6875 
L 23.09375 54.6875 
L 21.296875 46.09375 
Q 25.046875 50.828125 30.3125 53.40625 
Q 35.59375 56 41.40625 56 
Q 48.640625 56 52.609375 52.09375 
Q 56.59375 48.1875 56.59375 41.109375 
Q 56.59375 39.359375 56.375 37.359375 
Q 56.15625 35.359375 55.71875 33.015625 
z
" id="DejaVuSans-Oblique-110"/>
       <path d="M 50 53.078125 
L 48.296875 44.578125 
Q 44.734375 46.53125 40.765625 47.5 
Q 36.8125 48.484375 32.625 48.484375 
Q 25.53125 48.484375 21.453125 46.0625 
Q 17.390625 43.65625 17.390625 39.5 
Q 17.390625 34.671875 26.859375 32.078125 
Q 27.59375 31.890625 27.9375 31.78125 
L 30.8125 30.90625 
Q 39.796875 28.421875 42.796875 25.6875 
Q 45.796875 22.953125 45.796875 18.21875 
Q 45.796875 9.515625 38.890625 4.046875 
Q 31.984375 -1.421875 20.796875 -1.421875 
Q 16.453125 -1.421875 11.671875 -0.578125 
Q 6.890625 0.25 1.125 2 
L 2.875 11.28125 
Q 7.8125 8.734375 12.59375 7.421875 
Q 17.390625 6.109375 21.78125 6.109375 
Q 28.375 6.109375 32.5 8.9375 
Q 36.625 11.765625 36.625 16.109375 
Q 36.625 20.796875 25.78125 23.6875 
L 24.859375 23.921875 
L 21.78125 24.703125 
Q 14.9375 26.515625 11.765625 29.46875 
Q 8.59375 32.421875 8.59375 37.015625 
Q 8.59375 45.75 15.15625 50.875 
Q 21.734375 56 33.015625 56 
Q 37.453125 56 41.671875 55.265625 
Q 45.90625 54.546875 50 53.078125 
z
" id="DejaVuSans-Oblique-115"/>
       <path d="M 42.28125 54.6875 
L 40.921875 47.703125 
L 23 47.703125 
L 17.1875 18.015625 
Q 16.890625 16.359375 16.75 15.234375 
Q 16.609375 14.109375 16.609375 13.484375 
Q 16.609375 10.359375 18.484375 8.9375 
Q 20.359375 7.515625 24.515625 7.515625 
L 33.59375 7.515625 
L 32.078125 0 
L 23.484375 0 
Q 15.484375 0 11.546875 3.125 
Q 7.625 6.25 7.625 12.59375 
Q 7.625 13.71875 7.765625 15.0625 
Q 7.90625 16.40625 8.203125 18.015625 
L 14.015625 47.703125 
L 6.390625 47.703125 
L 7.8125 54.6875 
L 15.28125 54.6875 
L 18.3125 70.21875 
L 27.296875 70.21875 
L 24.3125 54.6875 
z
" id="DejaVuSans-Oblique-116"/>
      </defs>
      <use transform="translate(0 0.265625)" xlink:href="#DejaVuSans-Oblique-963"/>
      <use transform="translate(63.378906 -16.140625)scale(0.7)" xlink:href="#DejaVuSans-Oblique-67"/>
      <use transform="translate(134.472656 0.265625)" xlink:href="#DejaVuSans-61"/>
      <use transform="translate(237.744141 0.265625)" xlink:href="#DejaVuSans-Oblique-963"/>
      <use transform="translate(301.123047 -16.140625)scale(0.7)" xlink:href="#DejaVuSans-Oblique-105"/>
      <use transform="translate(320.571289 -16.140625)scale(0.7)" xlink:href="#DejaVuSans-Oblique-110"/>
      <use transform="translate(364.936523 -16.140625)scale(0.7)" xlink:href="#DejaVuSans-Oblique-115"/>
      <use transform="translate(401.40625 -16.140625)scale(0.7)" xlink:href="#DejaVuSans-Oblique-116"/>
     </g>
    </g>
    <g id="line2d_29">
     <path d="M 214.725563 26.525625 
L 247.725563 26.525625 
" style="fill:none;stroke:#9a4508;stroke-dasharray:8.325,3.6;stroke-dashoffset:0;stroke-width:2.25;"/>
    </g>
    <g id="line2d_30"/>
    <g id="text_9">
     <!-- $\sigma_{C}=\sqrt{(2\tau_c)/\tau}\sigma_{inst}$ -->
     <g style="fill:#262626;" transform="translate(260.925563 32.300625)scale(0.165 -0.165)">
      <defs>
       <path d="M 108.90625 155.203125 
L 52.703125 -29.5 
L 48.5 -29.5 
L 25.40625 45.59375 
Q 24.296875 49.203125 22.890625 50.796875 
Q 21.5 52.40625 19.203125 52.40625 
Q 15.796875 52.40625 12.40625 49.703125 
L 11.203125 51.703125 
L 27.59375 64.296875 
L 30.09375 64.296875 
L 52.796875 -9.40625 
L 53.203125 -9.40625 
L 103.203125 155.203125 
z
" id="STIXSizeOneSym-Regular-8730"/>
       <path d="M 31 75.875 
Q 24.46875 64.65625 21.28125 53.65625 
Q 18.109375 42.671875 18.109375 31.390625 
Q 18.109375 20.125 21.3125 9.0625 
Q 24.515625 -2 31 -13.1875 
L 23.1875 -13.1875 
Q 15.875 -1.703125 12.234375 9.375 
Q 8.59375 20.453125 8.59375 31.390625 
Q 8.59375 42.28125 12.203125 53.3125 
Q 15.828125 64.359375 23.1875 75.875 
z
" id="DejaVuSans-40"/>
       <path d="M 19.1875 8.296875 
L 53.609375 8.296875 
L 53.609375 0 
L 7.328125 0 
L 7.328125 8.296875 
Q 12.9375 14.109375 22.625 23.890625 
Q 32.328125 33.6875 34.8125 36.53125 
Q 39.546875 41.84375 41.421875 45.53125 
Q 43.3125 49.21875 43.3125 52.78125 
Q 43.3125 58.59375 39.234375 62.25 
Q 35.15625 65.921875 28.609375 65.921875 
Q 23.96875 65.921875 18.8125 64.3125 
Q 13.671875 62.703125 7.8125 59.421875 
L 7.8125 69.390625 
Q 13.765625 71.78125 18.9375 73 
Q 24.125 74.21875 28.421875 74.21875 
Q 39.75 74.21875 46.484375 68.546875 
Q 53.21875 62.890625 53.21875 53.421875 
Q 53.21875 48.921875 51.53125 44.890625 
Q 49.859375 40.875 45.40625 35.40625 
Q 44.1875 33.984375 37.640625 27.21875 
Q 31.109375 20.453125 19.1875 8.296875 
z
" id="DejaVuSans-50"/>
       <path d="M 53.609375 52.59375 
L 51.8125 43.703125 
Q 48.578125 46.046875 44.9375 47.21875 
Q 41.3125 48.390625 37.40625 48.390625 
Q 33.109375 48.390625 29.21875 46.875 
Q 25.34375 45.359375 22.703125 42.578125 
Q 18.5 38.328125 16.203125 32.609375 
Q 13.921875 26.90625 13.921875 20.796875 
Q 13.921875 13.421875 17.609375 9.8125 
Q 21.296875 6.203125 28.8125 6.203125 
Q 32.515625 6.203125 36.6875 7.328125 
Q 40.875 8.453125 45.40625 10.6875 
L 43.703125 1.8125 
Q 39.796875 0.203125 35.671875 -0.609375 
Q 31.546875 -1.421875 27.203125 -1.421875 
Q 16.3125 -1.421875 10.453125 4.015625 
Q 4.59375 9.46875 4.59375 19.578125 
Q 4.59375 28.078125 7.640625 35.234375 
Q 10.6875 42.390625 16.703125 48.09375 
Q 20.796875 52 26.3125 54 
Q 31.84375 56 38.375 56 
Q 42.1875 56 45.9375 55.140625 
Q 49.703125 54.296875 53.609375 52.59375 
z
" id="DejaVuSans-Oblique-99"/>
       <path d="M 8.015625 75.875 
L 15.828125 75.875 
Q 23.140625 64.359375 26.78125 53.3125 
Q 30.421875 42.28125 30.421875 31.390625 
Q 30.421875 20.453125 26.78125 9.375 
Q 23.140625 -1.703125 15.828125 -13.1875 
L 8.015625 -13.1875 
Q 14.5 -2 17.703125 9.0625 
Q 20.90625 20.125 20.90625 31.390625 
Q 20.90625 42.671875 17.703125 53.65625 
Q 14.5 64.65625 8.015625 75.875 
z
" id="DejaVuSans-41"/>
       <path d="M 25.390625 72.90625 
L 33.6875 72.90625 
L 8.296875 -9.28125 
L 0 -9.28125 
z
" id="DejaVuSans-47"/>
      </defs>
      <use transform="translate(0 0.901562)" xlink:href="#DejaVuSans-Oblique-963"/>
      <use transform="translate(63.378906 -15.504687)scale(0.7)" xlink:href="#DejaVuSans-Oblique-67"/>
      <use transform="translate(134.472656 0.901562)" xlink:href="#DejaVuSans-61"/>
      <use transform="translate(237.744141 3.390625)scale(0.674198)" xlink:href="#STIXSizeOneSym-Regular-8730"/>
      <use transform="translate(321.492523 0.875)" xlink:href="#DejaVuSans-40"/>
      <use transform="translate(360.506195 0.875)" xlink:href="#DejaVuSans-50"/>
      <use transform="translate(424.129242 0.875)" xlink:href="#DejaVuSans-Oblique-964"/>
      <use transform="translate(484.33432 -15.53125)scale(0.7)" xlink:href="#DejaVuSans-Oblique-99"/>
      <use transform="translate(525.555023 0.875)" xlink:href="#DejaVuSans-41"/>
      <use transform="translate(564.568695 0.875)" xlink:href="#DejaVuSans-47"/>
      <use transform="translate(598.260101 0.875)" xlink:href="#DejaVuSans-Oblique-964"/>
      <use transform="translate(670.965179 0.901562)" xlink:href="#DejaVuSans-Oblique-963"/>
      <use transform="translate(734.344086 -15.504687)scale(0.7)" xlink:href="#DejaVuSans-Oblique-105"/>
      <use transform="translate(753.792328 -15.504687)scale(0.7)" xlink:href="#DejaVuSans-Oblique-110"/>
      <use transform="translate(798.157562 -15.504687)scale(0.7)" xlink:href="#DejaVuSans-Oblique-115"/>
      <use transform="translate(834.627289 -15.504687)scale(0.7)" xlink:href="#DejaVuSans-Oblique-116"/>
      <path d="M 308.992523 101.5 
L 308.992523 107.75 
L 670.965179 107.75 
L 670.965179 101.5 
L 308.992523 101.5 
z
"/>
     </g>
    </g>
   </g>
   <g id="legend_2">
    <g id="patch_8">
     <path d="M 84.381563 273.372 
L 283.918125 273.372 
Q 287.218125 273.372 287.218125 270.072 
L 287.218125 201.254109 
Q 287.218125 197.954109 283.918125 197.954109 
L 84.381563 197.954109 
Q 81.081563 197.954109 81.081563 201.254109 
L 81.081563 270.072 
Q 81.081563 273.372 84.381563 273.372 
z
" style="fill:#ffffff;opacity:0.8;stroke:#cccccc;stroke-linejoin:miter;stroke-width:1.5;"/>
    </g>
    <g id="line2d_31">
     <path d="M 87.681562 210.5895 
L 120.681562 210.5895 
" style="fill:none;stroke:#5caadb;stroke-linecap:round;stroke-width:2.25;"/>
    </g>
    <g id="line2d_32"/>
    <g id="text_10">
     <!-- Simulation results -->
     <g style="fill:#262626;" transform="translate(133.881563 216.3645)scale(0.165 -0.165)">
      <defs>
       <path d="M 40.578125 0 
L 40.578125 7.625 
Q 34.515625 -1.171875 24.125 -1.171875 
Q 19.53125 -1.171875 15.546875 0.578125 
Q 11.578125 2.34375 9.640625 5 
Q 7.71875 7.671875 6.9375 11.53125 
Q 6.390625 14.109375 6.390625 19.734375 
L 6.390625 51.859375 
L 15.1875 51.859375 
L 15.1875 23.09375 
Q 15.1875 16.21875 15.71875 13.8125 
Q 16.546875 10.359375 19.234375 8.375 
Q 21.921875 6.390625 25.875 6.390625 
Q 29.828125 6.390625 33.296875 8.421875 
Q 36.765625 10.453125 38.203125 13.9375 
Q 39.65625 17.4375 39.65625 24.078125 
L 39.65625 51.859375 
L 48.4375 51.859375 
L 48.4375 0 
z
" id="ArialMT-117"/>
       <path d="M 6.390625 0 
L 6.390625 71.578125 
L 15.1875 71.578125 
L 15.1875 0 
z
" id="ArialMT-108"/>
      </defs>
      <use xlink:href="#ArialMT-83"/>
      <use x="66.699219" xlink:href="#ArialMT-105"/>
      <use x="88.916016" xlink:href="#ArialMT-109"/>
      <use x="172.216797" xlink:href="#ArialMT-117"/>
      <use x="227.832031" xlink:href="#ArialMT-108"/>
      <use x="250.048828" xlink:href="#ArialMT-97"/>
      <use x="305.664062" xlink:href="#ArialMT-116"/>
      <use x="333.447266" xlink:href="#ArialMT-105"/>
      <use x="355.664062" xlink:href="#ArialMT-111"/>
      <use x="411.279297" xlink:href="#ArialMT-110"/>
      <use x="466.894531" xlink:href="#ArialMT-32"/>
      <use x="494.677734" xlink:href="#ArialMT-114"/>
      <use x="527.978516" xlink:href="#ArialMT-101"/>
      <use x="583.59375" xlink:href="#ArialMT-115"/>
      <use x="633.59375" xlink:href="#ArialMT-117"/>
      <use x="689.208984" xlink:href="#ArialMT-108"/>
      <use x="711.425781" xlink:href="#ArialMT-116"/>
      <use x="739.208984" xlink:href="#ArialMT-115"/>
     </g>
    </g>
    <g id="line2d_33">
     <path d="M 87.681562 233.929266 
L 120.681562 233.929266 
" style="fill:none;stroke:#fbb44d;stroke-linecap:round;stroke-width:2.25;"/>
    </g>
    <g id="line2d_34"/>
    <g id="text_11">
     <!-- Analytical prediction -->
     <g style="fill:#262626;" transform="translate(133.881563 239.704266)scale(0.165 -0.165)">
      <defs>
       <path d="M 6.203125 -19.96875 
L 5.21875 -11.71875 
Q 8.109375 -12.5 10.25 -12.5 
Q 13.1875 -12.5 14.9375 -11.515625 
Q 16.703125 -10.546875 17.828125 -8.796875 
Q 18.65625 -7.46875 20.515625 -2.25 
Q 20.75 -1.515625 21.296875 -0.09375 
L 1.609375 51.859375 
L 11.078125 51.859375 
L 21.875 21.828125 
Q 23.96875 16.109375 25.640625 9.8125 
Q 27.15625 15.875 29.25 21.625 
L 40.328125 51.859375 
L 49.125 51.859375 
L 29.390625 -0.875 
Q 26.21875 -9.421875 24.46875 -12.640625 
Q 22.125 -17 19.09375 -19.015625 
Q 16.0625 -21.046875 11.859375 -21.046875 
Q 9.328125 -21.046875 6.203125 -19.96875 
z
" id="ArialMT-121"/>
       <path d="M 40.4375 19 
L 49.078125 17.875 
Q 47.65625 8.9375 41.8125 3.875 
Q 35.984375 -1.171875 27.484375 -1.171875 
Q 16.84375 -1.171875 10.375 5.78125 
Q 3.90625 12.75 3.90625 25.734375 
Q 3.90625 34.125 6.6875 40.421875 
Q 9.46875 46.734375 15.15625 49.875 
Q 20.84375 53.03125 27.546875 53.03125 
Q 35.984375 53.03125 41.359375 48.75 
Q 46.734375 44.484375 48.25 36.625 
L 39.703125 35.296875 
Q 38.484375 40.53125 35.375 43.15625 
Q 32.28125 45.796875 27.875 45.796875 
Q 21.234375 45.796875 17.078125 41.03125 
Q 12.9375 36.28125 12.9375 25.984375 
Q 12.9375 15.53125 16.9375 10.796875 
Q 20.953125 6.0625 27.390625 6.0625 
Q 32.5625 6.0625 36.03125 9.234375 
Q 39.5 12.40625 40.4375 19 
z
" id="ArialMT-99"/>
       <path d="M 6.59375 -19.875 
L 6.59375 51.859375 
L 14.59375 51.859375 
L 14.59375 45.125 
Q 17.4375 49.078125 21 51.046875 
Q 24.5625 53.03125 29.640625 53.03125 
Q 36.28125 53.03125 41.359375 49.609375 
Q 46.4375 46.1875 49.015625 39.953125 
Q 51.609375 33.734375 51.609375 26.3125 
Q 51.609375 18.359375 48.75 11.984375 
Q 45.90625 5.609375 40.453125 2.21875 
Q 35.015625 -1.171875 29 -1.171875 
Q 24.609375 -1.171875 21.109375 0.6875 
Q 17.625 2.546875 15.375 5.375 
L 15.375 -19.875 
z
M 14.546875 25.640625 
Q 14.546875 15.625 18.59375 10.84375 
Q 22.65625 6.0625 28.421875 6.0625 
Q 34.28125 6.0625 38.453125 11.015625 
Q 42.625 15.96875 42.625 26.375 
Q 42.625 36.28125 38.546875 41.203125 
Q 34.46875 46.140625 28.8125 46.140625 
Q 23.1875 46.140625 18.859375 40.890625 
Q 14.546875 35.640625 14.546875 25.640625 
z
" id="ArialMT-112"/>
      </defs>
      <use xlink:href="#ArialMT-65"/>
      <use x="66.699219" xlink:href="#ArialMT-110"/>
      <use x="122.314453" xlink:href="#ArialMT-97"/>
      <use x="177.929688" xlink:href="#ArialMT-108"/>
      <use x="200.146484" xlink:href="#ArialMT-121"/>
      <use x="250.146484" xlink:href="#ArialMT-116"/>
      <use x="277.929688" xlink:href="#ArialMT-105"/>
      <use x="300.146484" xlink:href="#ArialMT-99"/>
      <use x="350.146484" xlink:href="#ArialMT-97"/>
      <use x="405.761719" xlink:href="#ArialMT-108"/>
      <use x="427.978516" xlink:href="#ArialMT-32"/>
      <use x="455.761719" xlink:href="#ArialMT-112"/>
      <use x="511.376953" xlink:href="#ArialMT-114"/>
      <use x="544.677734" xlink:href="#ArialMT-101"/>
      <use x="600.292969" xlink:href="#ArialMT-100"/>
      <use x="655.908203" xlink:href="#ArialMT-105"/>
      <use x="678.125" xlink:href="#ArialMT-99"/>
      <use x="728.125" xlink:href="#ArialMT-116"/>
      <use x="755.908203" xlink:href="#ArialMT-105"/>
      <use x="778.125" xlink:href="#ArialMT-111"/>
      <use x="833.740234" xlink:href="#ArialMT-110"/>
     </g>
    </g>
    <g id="line2d_35">
     <path d="M 87.681562 257.717625 
L 120.681562 257.717625 
" style="fill:none;stroke:#808080;stroke-dasharray:2.25,3.7125;stroke-dashoffset:0;stroke-width:2.25;"/>
    </g>
    <g id="line2d_36"/>
    <g id="text_12">
     <!-- $\tau=2\tau_c$ -->
     <g style="fill:#262626;" transform="translate(133.881563 263.492625)scale(0.165 -0.165)">
      <use transform="translate(0 0.78125)" xlink:href="#DejaVuSans-Oblique-964"/>
      <use transform="translate(79.6875 0.78125)" xlink:href="#DejaVuSans-61"/>
      <use transform="translate(182.958984 0.78125)" xlink:href="#DejaVuSans-50"/>
      <use transform="translate(246.582031 0.78125)" xlink:href="#DejaVuSans-Oblique-964"/>
      <use transform="translate(306.787109 -15.625)scale(0.7)" xlink:href="#DejaVuSans-Oblique-99"/>
     </g>
    </g>
   </g>
  </g>
 </g>
 <defs>
  <clipPath id="p260736702a">
   <rect height="217.44" width="334.8" x="72.831563" y="64.182"/>
  </clipPath>
 </defs>
</svg>
