<?xml version="1.0" encoding="utf-8" standalone="no"?>
<!DOCTYPE svg PUBLIC "-//W3C//DTD SVG 1.1//EN"
  "http://www.w3.org/Graphics/SVG/1.1/DTD/svg11.dtd">
<!-- Created with matplotlib (https://matplotlib.org/) -->
<svg height="298.775391pt" version="1.1" viewBox="0 0 361.4025 298.775391" width="361.4025pt" xmlns="http://www.w3.org/2000/svg" xmlns:xlink="http://www.w3.org/1999/xlink">
 <metadata>
  <rdf:RDF xmlns:cc="http://creativecommons.org/ns#" xmlns:dc="http://purl.org/dc/elements/1.1/" xmlns:rdf="http://www.w3.org/1999/02/22-rdf-syntax-ns#">
   <cc:Work>
    <dc:type rdf:resource="http://purl.org/dc/dcmitype/StillImage"/>
    <dc:date>2025-04-25T10:05:19.893563</dc:date>
    <dc:format>image/svg+xml</dc:format>
    <dc:creator>
     <cc:Agent>
      <dc:title>Matplotlib v3.3.4, https://matplotlib.org/</dc:title>
     </cc:Agent>
    </dc:creator>
   </cc:Work>
  </rdf:RDF>
 </metadata>
 <defs>
  <style type="text/css">*{stroke-linecap:butt;stroke-linejoin:round;}</style>
 </defs>
 <g id="figure_1">
  <g id="patch_1">
   <path d="M 0 298.775391 
L 361.4025 298.775391 
L 361.4025 0 
L 0 0 
z
" style="fill:#ffffff;"/>
  </g>
  <g id="axes_1">
   <g id="patch_2">
    <path d="M 63.735 243.524063 
L 342.735 243.524063 
L 342.735 26.084063 
L 63.735 26.084063 
z
" style="fill:#ffffff;"/>
   </g>
   <g id="matplotlib.axis_1">
    <g id="xtick_1">
     <g id="line2d_1">
      <defs>
       <path d="M 0 0 
L 0 9 
" id="m9f9499a6dd" style="stroke:#262626;stroke-width:1.875;"/>
      </defs>
      <g>
       <use style="fill:#262626;stroke:#262626;stroke-width:1.875;" x="63.735" xlink:href="#m9f9499a6dd" y="243.524063"/>
      </g>
     </g>
     <g id="text_1">
      <!-- 0.0 -->
      <g style="fill:#262626;" transform="translate(52.2675 267.834453)scale(0.165 -0.165)">
       <defs>
        <path d="M 4.15625 35.296875 
Q 4.15625 48 6.765625 55.734375 
Q 9.375 63.484375 14.515625 67.671875 
Q 19.671875 71.875 27.484375 71.875 
Q 33.25 71.875 37.59375 69.546875 
Q 41.9375 67.234375 44.765625 62.859375 
Q 47.609375 58.5 49.21875 52.21875 
Q 50.828125 45.953125 50.828125 35.296875 
Q 50.828125 22.703125 48.234375 14.96875 
Q 45.65625 7.234375 40.5 3 
Q 35.359375 -1.21875 27.484375 -1.21875 
Q 17.140625 -1.21875 11.234375 6.203125 
Q 4.15625 15.140625 4.15625 35.296875 
z
M 13.1875 35.296875 
Q 13.1875 17.671875 17.3125 11.828125 
Q 21.4375 6 27.484375 6 
Q 33.546875 6 37.671875 11.859375 
Q 41.796875 17.71875 41.796875 35.296875 
Q 41.796875 52.984375 37.671875 58.78125 
Q 33.546875 64.59375 27.390625 64.59375 
Q 21.34375 64.59375 17.71875 59.46875 
Q 13.1875 52.9375 13.1875 35.296875 
z
" id="ArialMT-48"/>
        <path d="M 9.078125 0 
L 9.078125 10.015625 
L 19.09375 10.015625 
L 19.09375 0 
z
" id="ArialMT-46"/>
       </defs>
       <use xlink:href="#ArialMT-48"/>
       <use x="55.615234" xlink:href="#ArialMT-46"/>
       <use x="83.398438" xlink:href="#ArialMT-48"/>
      </g>
     </g>
    </g>
    <g id="xtick_2">
     <g id="line2d_2">
      <g>
       <use style="fill:#262626;stroke:#262626;stroke-width:1.875;" x="156.735" xlink:href="#m9f9499a6dd" y="243.524063"/>
      </g>
     </g>
     <g id="text_2">
      <!-- 0.2 -->
      <g style="fill:#262626;" transform="translate(145.2675 267.834453)scale(0.165 -0.165)">
       <defs>
        <path d="M 50.34375 8.453125 
L 50.34375 0 
L 3.03125 0 
Q 2.9375 3.171875 4.046875 6.109375 
Q 5.859375 10.9375 9.828125 15.625 
Q 13.8125 20.3125 21.34375 26.46875 
Q 33.015625 36.03125 37.109375 41.625 
Q 41.21875 47.21875 41.21875 52.203125 
Q 41.21875 57.421875 37.46875 61 
Q 33.734375 64.59375 27.734375 64.59375 
Q 21.390625 64.59375 17.578125 60.78125 
Q 13.765625 56.984375 13.71875 50.25 
L 4.6875 51.171875 
Q 5.609375 61.28125 11.65625 66.578125 
Q 17.71875 71.875 27.9375 71.875 
Q 38.234375 71.875 44.234375 66.15625 
Q 50.25 60.453125 50.25 52 
Q 50.25 47.703125 48.484375 43.546875 
Q 46.734375 39.40625 42.65625 34.8125 
Q 38.578125 30.21875 29.109375 22.21875 
Q 21.1875 15.578125 18.9375 13.203125 
Q 16.703125 10.84375 15.234375 8.453125 
z
" id="ArialMT-50"/>
       </defs>
       <use xlink:href="#ArialMT-48"/>
       <use x="55.615234" xlink:href="#ArialMT-46"/>
       <use x="83.398438" xlink:href="#ArialMT-50"/>
      </g>
     </g>
    </g>
    <g id="xtick_3">
     <g id="line2d_3">
      <g>
       <use style="fill:#262626;stroke:#262626;stroke-width:1.875;" x="249.735" xlink:href="#m9f9499a6dd" y="243.524063"/>
      </g>
     </g>
     <g id="text_3">
      <!-- 0.4 -->
      <g style="fill:#262626;" transform="translate(238.2675 267.834453)scale(0.165 -0.165)">
       <defs>
        <path d="M 32.328125 0 
L 32.328125 17.140625 
L 1.265625 17.140625 
L 1.265625 25.203125 
L 33.9375 71.578125 
L 41.109375 71.578125 
L 41.109375 25.203125 
L 50.78125 25.203125 
L 50.78125 17.140625 
L 41.109375 17.140625 
L 41.109375 0 
z
M 32.328125 25.203125 
L 32.328125 57.46875 
L 9.90625 25.203125 
z
" id="ArialMT-52"/>
       </defs>
       <use xlink:href="#ArialMT-48"/>
       <use x="55.615234" xlink:href="#ArialMT-46"/>
       <use x="83.398438" xlink:href="#ArialMT-52"/>
      </g>
     </g>
    </g>
    <g id="xtick_4">
     <g id="line2d_4">
      <g>
       <use style="fill:#262626;stroke:#262626;stroke-width:1.875;" x="342.735" xlink:href="#m9f9499a6dd" y="243.524063"/>
      </g>
     </g>
     <g id="text_4">
      <!-- 0.6 -->
      <g style="fill:#262626;" transform="translate(331.2675 267.834453)scale(0.165 -0.165)">
       <defs>
        <path d="M 49.75 54.046875 
L 41.015625 53.375 
Q 39.84375 58.546875 37.703125 60.890625 
Q 34.125 64.65625 28.90625 64.65625 
Q 24.703125 64.65625 21.53125 62.3125 
Q 17.390625 59.28125 14.984375 53.46875 
Q 12.59375 47.65625 12.5 36.921875 
Q 15.671875 41.75 20.265625 44.09375 
Q 24.859375 46.4375 29.890625 46.4375 
Q 38.671875 46.4375 44.84375 39.96875 
Q 51.03125 33.5 51.03125 23.25 
Q 51.03125 16.5 48.125 10.71875 
Q 45.21875 4.9375 40.140625 1.859375 
Q 35.0625 -1.21875 28.609375 -1.21875 
Q 17.625 -1.21875 10.6875 6.859375 
Q 3.765625 14.9375 3.765625 33.5 
Q 3.765625 54.25 11.421875 63.671875 
Q 18.109375 71.875 29.4375 71.875 
Q 37.890625 71.875 43.28125 67.140625 
Q 48.6875 62.40625 49.75 54.046875 
z
M 13.875 23.1875 
Q 13.875 18.65625 15.796875 14.5 
Q 17.71875 10.359375 21.1875 8.171875 
Q 24.65625 6 28.46875 6 
Q 34.03125 6 38.03125 10.484375 
Q 42.046875 14.984375 42.046875 22.703125 
Q 42.046875 30.125 38.078125 34.390625 
Q 34.125 38.671875 28.125 38.671875 
Q 22.171875 38.671875 18.015625 34.390625 
Q 13.875 30.125 13.875 23.1875 
z
" id="ArialMT-54"/>
       </defs>
       <use xlink:href="#ArialMT-48"/>
       <use x="55.615234" xlink:href="#ArialMT-46"/>
       <use x="83.398438" xlink:href="#ArialMT-54"/>
      </g>
     </g>
    </g>
    <g id="text_5">
     <!-- Bicoid concentration $s$ -->
     <g style="fill:#262626;" transform="translate(114.945 287.997891)scale(0.18 -0.18)">
      <defs>
       <path d="M 7.328125 0 
L 7.328125 71.578125 
L 34.1875 71.578125 
Q 42.390625 71.578125 47.34375 69.40625 
Q 52.296875 67.234375 55.09375 62.71875 
Q 57.90625 58.203125 57.90625 53.265625 
Q 57.90625 48.6875 55.421875 44.625 
Q 52.9375 40.578125 47.90625 38.09375 
Q 54.390625 36.1875 57.875 31.59375 
Q 61.375 27 61.375 20.75 
Q 61.375 15.71875 59.25 11.390625 
Q 57.125 7.078125 54 4.734375 
Q 50.875 2.390625 46.15625 1.1875 
Q 41.453125 0 34.625 0 
z
M 16.796875 41.5 
L 32.28125 41.5 
Q 38.578125 41.5 41.3125 42.328125 
Q 44.921875 43.40625 46.75 45.890625 
Q 48.578125 48.390625 48.578125 52.15625 
Q 48.578125 55.71875 46.875 58.421875 
Q 45.171875 61.140625 41.984375 62.140625 
Q 38.8125 63.140625 31.109375 63.140625 
L 16.796875 63.140625 
z
M 16.796875 8.453125 
L 34.625 8.453125 
Q 39.203125 8.453125 41.0625 8.796875 
Q 44.34375 9.375 46.53125 10.734375 
Q 48.734375 12.109375 50.140625 14.71875 
Q 51.5625 17.328125 51.5625 20.75 
Q 51.5625 24.75 49.515625 27.703125 
Q 47.46875 30.671875 43.828125 31.859375 
Q 40.1875 33.0625 33.34375 33.0625 
L 16.796875 33.0625 
z
" id="ArialMT-66"/>
       <path d="M 6.640625 61.46875 
L 6.640625 71.578125 
L 15.4375 71.578125 
L 15.4375 61.46875 
z
M 6.640625 0 
L 6.640625 51.859375 
L 15.4375 51.859375 
L 15.4375 0 
z
" id="ArialMT-105"/>
       <path d="M 40.4375 19 
L 49.078125 17.875 
Q 47.65625 8.9375 41.8125 3.875 
Q 35.984375 -1.171875 27.484375 -1.171875 
Q 16.84375 -1.171875 10.375 5.78125 
Q 3.90625 12.75 3.90625 25.734375 
Q 3.90625 34.125 6.6875 40.421875 
Q 9.46875 46.734375 15.15625 49.875 
Q 20.84375 53.03125 27.546875 53.03125 
Q 35.984375 53.03125 41.359375 48.75 
Q 46.734375 44.484375 48.25 36.625 
L 39.703125 35.296875 
Q 38.484375 40.53125 35.375 43.15625 
Q 32.28125 45.796875 27.875 45.796875 
Q 21.234375 45.796875 17.078125 41.03125 
Q 12.9375 36.28125 12.9375 25.984375 
Q 12.9375 15.53125 16.9375 10.796875 
Q 20.953125 6.0625 27.390625 6.0625 
Q 32.5625 6.0625 36.03125 9.234375 
Q 39.5 12.40625 40.4375 19 
z
" id="ArialMT-99"/>
       <path d="M 3.328125 25.921875 
Q 3.328125 40.328125 11.328125 47.265625 
Q 18.015625 53.03125 27.640625 53.03125 
Q 38.328125 53.03125 45.109375 46.015625 
Q 51.90625 39.015625 51.90625 26.65625 
Q 51.90625 16.65625 48.90625 10.90625 
Q 45.90625 5.171875 40.15625 2 
Q 34.421875 -1.171875 27.640625 -1.171875 
Q 16.75 -1.171875 10.03125 5.8125 
Q 3.328125 12.796875 3.328125 25.921875 
z
M 12.359375 25.921875 
Q 12.359375 15.96875 16.703125 11.015625 
Q 21.046875 6.0625 27.640625 6.0625 
Q 34.1875 6.0625 38.53125 11.03125 
Q 42.875 16.015625 42.875 26.21875 
Q 42.875 35.84375 38.5 40.796875 
Q 34.125 45.75 27.640625 45.75 
Q 21.046875 45.75 16.703125 40.8125 
Q 12.359375 35.890625 12.359375 25.921875 
z
" id="ArialMT-111"/>
       <path d="M 40.234375 0 
L 40.234375 6.546875 
Q 35.296875 -1.171875 25.734375 -1.171875 
Q 19.53125 -1.171875 14.328125 2.25 
Q 9.125 5.671875 6.265625 11.796875 
Q 3.421875 17.921875 3.421875 25.875 
Q 3.421875 33.640625 6 39.96875 
Q 8.59375 46.296875 13.765625 49.65625 
Q 18.953125 53.03125 25.34375 53.03125 
Q 30.03125 53.03125 33.6875 51.046875 
Q 37.359375 49.078125 39.65625 45.90625 
L 39.65625 71.578125 
L 48.390625 71.578125 
L 48.390625 0 
z
M 12.453125 25.875 
Q 12.453125 15.921875 16.640625 10.984375 
Q 20.84375 6.0625 26.5625 6.0625 
Q 32.328125 6.0625 36.34375 10.765625 
Q 40.375 15.484375 40.375 25.140625 
Q 40.375 35.796875 36.265625 40.765625 
Q 32.171875 45.75 26.171875 45.75 
Q 20.3125 45.75 16.375 40.96875 
Q 12.453125 36.1875 12.453125 25.875 
z
" id="ArialMT-100"/>
       <path id="ArialMT-32"/>
       <path d="M 6.59375 0 
L 6.59375 51.859375 
L 14.5 51.859375 
L 14.5 44.484375 
Q 20.21875 53.03125 31 53.03125 
Q 35.6875 53.03125 39.625 51.34375 
Q 43.5625 49.65625 45.515625 46.921875 
Q 47.46875 44.1875 48.25 40.4375 
Q 48.734375 37.984375 48.734375 31.890625 
L 48.734375 0 
L 39.9375 0 
L 39.9375 31.546875 
Q 39.9375 36.921875 38.90625 39.578125 
Q 37.890625 42.234375 35.28125 43.8125 
Q 32.671875 45.40625 29.15625 45.40625 
Q 23.53125 45.40625 19.453125 41.84375 
Q 15.375 38.28125 15.375 28.328125 
L 15.375 0 
z
" id="ArialMT-110"/>
       <path d="M 42.09375 16.703125 
L 51.171875 15.578125 
Q 49.03125 7.625 43.21875 3.21875 
Q 37.40625 -1.171875 28.375 -1.171875 
Q 17 -1.171875 10.328125 5.828125 
Q 3.65625 12.84375 3.65625 25.484375 
Q 3.65625 38.578125 10.390625 45.796875 
Q 17.140625 53.03125 27.875 53.03125 
Q 38.28125 53.03125 44.875 45.953125 
Q 51.46875 38.875 51.46875 26.03125 
Q 51.46875 25.25 51.421875 23.6875 
L 12.75 23.6875 
Q 13.234375 15.140625 17.578125 10.59375 
Q 21.921875 6.0625 28.421875 6.0625 
Q 33.25 6.0625 36.671875 8.59375 
Q 40.09375 11.140625 42.09375 16.703125 
z
M 13.234375 30.90625 
L 42.1875 30.90625 
Q 41.609375 37.453125 38.875 40.71875 
Q 34.671875 45.796875 27.984375 45.796875 
Q 21.921875 45.796875 17.796875 41.75 
Q 13.671875 37.703125 13.234375 30.90625 
z
" id="ArialMT-101"/>
       <path d="M 25.78125 7.859375 
L 27.046875 0.09375 
Q 23.34375 -0.6875 20.40625 -0.6875 
Q 15.625 -0.6875 12.984375 0.828125 
Q 10.359375 2.34375 9.28125 4.8125 
Q 8.203125 7.28125 8.203125 15.1875 
L 8.203125 45.015625 
L 1.765625 45.015625 
L 1.765625 51.859375 
L 8.203125 51.859375 
L 8.203125 64.703125 
L 16.9375 69.96875 
L 16.9375 51.859375 
L 25.78125 51.859375 
L 25.78125 45.015625 
L 16.9375 45.015625 
L 16.9375 14.703125 
Q 16.9375 10.9375 17.40625 9.859375 
Q 17.875 8.796875 18.921875 8.15625 
Q 19.96875 7.515625 21.921875 7.515625 
Q 23.390625 7.515625 25.78125 7.859375 
z
" id="ArialMT-116"/>
       <path d="M 6.5 0 
L 6.5 51.859375 
L 14.40625 51.859375 
L 14.40625 44 
Q 17.4375 49.515625 20 51.265625 
Q 22.5625 53.03125 25.640625 53.03125 
Q 30.078125 53.03125 34.671875 50.203125 
L 31.640625 42.046875 
Q 28.421875 43.953125 25.203125 43.953125 
Q 22.3125 43.953125 20.015625 42.21875 
Q 17.71875 40.484375 16.75 37.40625 
Q 15.28125 32.71875 15.28125 27.15625 
L 15.28125 0 
z
" id="ArialMT-114"/>
       <path d="M 40.4375 6.390625 
Q 35.546875 2.25 31.03125 0.53125 
Q 26.515625 -1.171875 21.34375 -1.171875 
Q 12.796875 -1.171875 8.203125 3 
Q 3.609375 7.171875 3.609375 13.671875 
Q 3.609375 17.484375 5.34375 20.625 
Q 7.078125 23.78125 9.890625 25.6875 
Q 12.703125 27.59375 16.21875 28.5625 
Q 18.796875 29.25 24.03125 29.890625 
Q 34.671875 31.15625 39.703125 32.90625 
Q 39.75 34.71875 39.75 35.203125 
Q 39.75 40.578125 37.25 42.78125 
Q 33.890625 45.75 27.25 45.75 
Q 21.046875 45.75 18.09375 43.578125 
Q 15.140625 41.40625 13.71875 35.890625 
L 5.125 37.0625 
Q 6.296875 42.578125 8.984375 45.96875 
Q 11.671875 49.359375 16.75 51.1875 
Q 21.828125 53.03125 28.515625 53.03125 
Q 35.15625 53.03125 39.296875 51.46875 
Q 43.453125 49.90625 45.40625 47.53125 
Q 47.359375 45.171875 48.140625 41.546875 
Q 48.578125 39.3125 48.578125 33.453125 
L 48.578125 21.734375 
Q 48.578125 9.46875 49.140625 6.21875 
Q 49.703125 2.984375 51.375 0 
L 42.1875 0 
Q 40.828125 2.734375 40.4375 6.390625 
z
M 39.703125 26.03125 
Q 34.90625 24.078125 25.34375 22.703125 
Q 19.921875 21.921875 17.671875 20.9375 
Q 15.4375 19.96875 14.203125 18.09375 
Q 12.984375 16.21875 12.984375 13.921875 
Q 12.984375 10.40625 15.640625 8.0625 
Q 18.3125 5.71875 23.4375 5.71875 
Q 28.515625 5.71875 32.46875 7.9375 
Q 36.421875 10.15625 38.28125 14.015625 
Q 39.703125 17 39.703125 22.796875 
z
" id="ArialMT-97"/>
       <path d="M 50 53.078125 
L 48.296875 44.578125 
Q 44.734375 46.53125 40.765625 47.5 
Q 36.8125 48.484375 32.625 48.484375 
Q 25.53125 48.484375 21.453125 46.0625 
Q 17.390625 43.65625 17.390625 39.5 
Q 17.390625 34.671875 26.859375 32.078125 
Q 27.59375 31.890625 27.9375 31.78125 
L 30.8125 30.90625 
Q 39.796875 28.421875 42.796875 25.6875 
Q 45.796875 22.953125 45.796875 18.21875 
Q 45.796875 9.515625 38.890625 4.046875 
Q 31.984375 -1.421875 20.796875 -1.421875 
Q 16.453125 -1.421875 11.671875 -0.578125 
Q 6.890625 0.25 1.125 2 
L 2.875 11.28125 
Q 7.8125 8.734375 12.59375 7.421875 
Q 17.390625 6.109375 21.78125 6.109375 
Q 28.375 6.109375 32.5 8.9375 
Q 36.625 11.765625 36.625 16.109375 
Q 36.625 20.796875 25.78125 23.6875 
L 24.859375 23.921875 
L 21.78125 24.703125 
Q 14.9375 26.515625 11.765625 29.46875 
Q 8.59375 32.421875 8.59375 37.015625 
Q 8.59375 45.75 15.15625 50.875 
Q 21.734375 56 33.015625 56 
Q 37.453125 56 41.671875 55.265625 
Q 45.90625 54.546875 50 53.078125 
z
" id="DejaVuSans-Oblique-115"/>
      </defs>
      <use transform="translate(0 0.421875)" xlink:href="#ArialMT-66"/>
      <use transform="translate(66.699219 0.421875)" xlink:href="#ArialMT-105"/>
      <use transform="translate(88.916016 0.421875)" xlink:href="#ArialMT-99"/>
      <use transform="translate(138.916016 0.421875)" xlink:href="#ArialMT-111"/>
      <use transform="translate(194.53125 0.421875)" xlink:href="#ArialMT-105"/>
      <use transform="translate(216.748047 0.421875)" xlink:href="#ArialMT-100"/>
      <use transform="translate(272.363281 0.421875)" xlink:href="#ArialMT-32"/>
      <use transform="translate(300.146484 0.421875)" xlink:href="#ArialMT-99"/>
      <use transform="translate(350.146484 0.421875)" xlink:href="#ArialMT-111"/>
      <use transform="translate(405.761719 0.421875)" xlink:href="#ArialMT-110"/>
      <use transform="translate(461.376953 0.421875)" xlink:href="#ArialMT-99"/>
      <use transform="translate(511.376953 0.421875)" xlink:href="#ArialMT-101"/>
      <use transform="translate(566.992188 0.421875)" xlink:href="#ArialMT-110"/>
      <use transform="translate(622.607422 0.421875)" xlink:href="#ArialMT-116"/>
      <use transform="translate(650.390625 0.421875)" xlink:href="#ArialMT-114"/>
      <use transform="translate(683.691406 0.421875)" xlink:href="#ArialMT-97"/>
      <use transform="translate(739.306641 0.421875)" xlink:href="#ArialMT-116"/>
      <use transform="translate(767.089844 0.421875)" xlink:href="#ArialMT-105"/>
      <use transform="translate(789.306641 0.421875)" xlink:href="#ArialMT-111"/>
      <use transform="translate(844.921875 0.421875)" xlink:href="#ArialMT-110"/>
      <use transform="translate(900.537109 0.421875)" xlink:href="#ArialMT-32"/>
      <use transform="translate(928.320312 0.421875)" xlink:href="#DejaVuSans-Oblique-115"/>
     </g>
    </g>
   </g>
   <g id="matplotlib.axis_2">
    <g id="ytick_1">
     <g id="line2d_5">
      <defs>
       <path d="M 0 0 
L -9 0 
" id="m317c7aa1b8" style="stroke:#262626;stroke-width:1.875;"/>
      </defs>
      <g>
       <use style="fill:#262626;stroke:#262626;stroke-width:1.875;" x="63.735" xlink:href="#m317c7aa1b8" y="233.046561"/>
      </g>
     </g>
     <g id="text_6">
      <!-- 0.0 -->
      <g style="fill:#262626;" transform="translate(28.3 238.951757)scale(0.165 -0.165)">
       <use xlink:href="#ArialMT-48"/>
       <use x="55.615234" xlink:href="#ArialMT-46"/>
       <use x="83.398438" xlink:href="#ArialMT-48"/>
      </g>
     </g>
    </g>
    <g id="ytick_2">
     <g id="line2d_6">
      <g>
       <use style="fill:#262626;stroke:#262626;stroke-width:1.875;" x="63.735" xlink:href="#m317c7aa1b8" y="193.619765"/>
      </g>
     </g>
     <g id="text_7">
      <!-- 0.2 -->
      <g style="fill:#262626;" transform="translate(28.3 199.52496)scale(0.165 -0.165)">
       <use xlink:href="#ArialMT-48"/>
       <use x="55.615234" xlink:href="#ArialMT-46"/>
       <use x="83.398438" xlink:href="#ArialMT-50"/>
      </g>
     </g>
    </g>
    <g id="ytick_3">
     <g id="line2d_7">
      <g>
       <use style="fill:#262626;stroke:#262626;stroke-width:1.875;" x="63.735" xlink:href="#m317c7aa1b8" y="154.192968"/>
      </g>
     </g>
     <g id="text_8">
      <!-- 0.4 -->
      <g style="fill:#262626;" transform="translate(28.3 160.098164)scale(0.165 -0.165)">
       <use xlink:href="#ArialMT-48"/>
       <use x="55.615234" xlink:href="#ArialMT-46"/>
       <use x="83.398438" xlink:href="#ArialMT-52"/>
      </g>
     </g>
    </g>
    <g id="ytick_4">
     <g id="line2d_8">
      <g>
       <use style="fill:#262626;stroke:#262626;stroke-width:1.875;" x="63.735" xlink:href="#m317c7aa1b8" y="114.766172"/>
      </g>
     </g>
     <g id="text_9">
      <!-- 0.6 -->
      <g style="fill:#262626;" transform="translate(28.3 120.671367)scale(0.165 -0.165)">
       <use xlink:href="#ArialMT-48"/>
       <use x="55.615234" xlink:href="#ArialMT-46"/>
       <use x="83.398438" xlink:href="#ArialMT-54"/>
      </g>
     </g>
    </g>
    <g id="ytick_5">
     <g id="line2d_9">
      <g>
       <use style="fill:#262626;stroke:#262626;stroke-width:1.875;" x="63.735" xlink:href="#m317c7aa1b8" y="75.339375"/>
      </g>
     </g>
     <g id="text_10">
      <!-- 0.8 -->
      <g style="fill:#262626;" transform="translate(28.3 81.244571)scale(0.165 -0.165)">
       <defs>
        <path d="M 17.671875 38.8125 
Q 12.203125 40.828125 9.5625 44.53125 
Q 6.9375 48.25 6.9375 53.421875 
Q 6.9375 61.234375 12.546875 66.546875 
Q 18.171875 71.875 27.484375 71.875 
Q 36.859375 71.875 42.578125 66.421875 
Q 48.296875 60.984375 48.296875 53.171875 
Q 48.296875 48.1875 45.671875 44.5 
Q 43.0625 40.828125 37.75 38.8125 
Q 44.34375 36.671875 47.78125 31.875 
Q 51.21875 27.09375 51.21875 20.453125 
Q 51.21875 11.28125 44.71875 5.03125 
Q 38.234375 -1.21875 27.640625 -1.21875 
Q 17.046875 -1.21875 10.546875 5.046875 
Q 4.046875 11.328125 4.046875 20.703125 
Q 4.046875 27.6875 7.59375 32.390625 
Q 11.140625 37.109375 17.671875 38.8125 
z
M 15.921875 53.71875 
Q 15.921875 48.640625 19.1875 45.40625 
Q 22.46875 42.1875 27.6875 42.1875 
Q 32.765625 42.1875 36.015625 45.375 
Q 39.265625 48.578125 39.265625 53.21875 
Q 39.265625 58.0625 35.90625 61.359375 
Q 32.5625 64.65625 27.59375 64.65625 
Q 22.5625 64.65625 19.234375 61.421875 
Q 15.921875 58.203125 15.921875 53.71875 
z
M 13.09375 20.65625 
Q 13.09375 16.890625 14.875 13.375 
Q 16.65625 9.859375 20.171875 7.921875 
Q 23.6875 6 27.734375 6 
Q 34.03125 6 38.125 10.046875 
Q 42.234375 14.109375 42.234375 20.359375 
Q 42.234375 26.703125 38.015625 30.859375 
Q 33.796875 35.015625 27.4375 35.015625 
Q 21.234375 35.015625 17.15625 30.90625 
Q 13.09375 26.8125 13.09375 20.65625 
z
" id="ArialMT-56"/>
       </defs>
       <use xlink:href="#ArialMT-48"/>
       <use x="55.615234" xlink:href="#ArialMT-46"/>
       <use x="83.398438" xlink:href="#ArialMT-56"/>
      </g>
     </g>
    </g>
    <g id="ytick_6">
     <g id="line2d_10">
      <g>
       <use style="fill:#262626;stroke:#262626;stroke-width:1.875;" x="63.735" xlink:href="#m317c7aa1b8" y="35.912579"/>
      </g>
     </g>
     <g id="text_11">
      <!-- 1.0 -->
      <g style="fill:#262626;" transform="translate(28.3 41.817774)scale(0.165 -0.165)">
       <defs>
        <path d="M 37.25 0 
L 28.46875 0 
L 28.46875 56 
Q 25.296875 52.984375 20.140625 49.953125 
Q 14.984375 46.921875 10.890625 45.40625 
L 10.890625 53.90625 
Q 18.265625 57.375 23.78125 62.296875 
Q 29.296875 67.234375 31.59375 71.875 
L 37.25 71.875 
z
" id="ArialMT-49"/>
       </defs>
       <use xlink:href="#ArialMT-49"/>
       <use x="55.615234" xlink:href="#ArialMT-46"/>
       <use x="83.398438" xlink:href="#ArialMT-48"/>
      </g>
     </g>
    </g>
    <g id="text_12">
     <!-- Occupation $C$ -->
     <g style="fill:#262626;" transform="translate(20.7 189.164062)rotate(-90)scale(0.18 -0.18)">
      <defs>
       <path d="M 4.828125 34.859375 
Q 4.828125 52.6875 14.390625 62.765625 
Q 23.96875 72.859375 39.109375 72.859375 
Q 49.03125 72.859375 56.984375 68.109375 
Q 64.9375 63.375 69.109375 54.90625 
Q 73.296875 46.4375 73.296875 35.6875 
Q 73.296875 24.8125 68.890625 16.21875 
Q 64.5 7.625 56.4375 3.203125 
Q 48.390625 -1.21875 39.0625 -1.21875 
Q 28.953125 -1.21875 20.984375 3.65625 
Q 13.03125 8.546875 8.921875 16.984375 
Q 4.828125 25.4375 4.828125 34.859375 
z
M 14.59375 34.71875 
Q 14.59375 21.78125 21.546875 14.328125 
Q 28.515625 6.890625 39.015625 6.890625 
Q 49.703125 6.890625 56.609375 14.40625 
Q 63.53125 21.921875 63.53125 35.75 
Q 63.53125 44.484375 60.578125 51 
Q 57.625 57.515625 51.921875 61.109375 
Q 46.234375 64.703125 39.15625 64.703125 
Q 29.109375 64.703125 21.84375 57.78125 
Q 14.59375 50.875 14.59375 34.71875 
z
" id="ArialMT-79"/>
       <path d="M 40.578125 0 
L 40.578125 7.625 
Q 34.515625 -1.171875 24.125 -1.171875 
Q 19.53125 -1.171875 15.546875 0.578125 
Q 11.578125 2.34375 9.640625 5 
Q 7.71875 7.671875 6.9375 11.53125 
Q 6.390625 14.109375 6.390625 19.734375 
L 6.390625 51.859375 
L 15.1875 51.859375 
L 15.1875 23.09375 
Q 15.1875 16.21875 15.71875 13.8125 
Q 16.546875 10.359375 19.234375 8.375 
Q 21.921875 6.390625 25.875 6.390625 
Q 29.828125 6.390625 33.296875 8.421875 
Q 36.765625 10.453125 38.203125 13.9375 
Q 39.65625 17.4375 39.65625 24.078125 
L 39.65625 51.859375 
L 48.4375 51.859375 
L 48.4375 0 
z
" id="ArialMT-117"/>
       <path d="M 6.59375 -19.875 
L 6.59375 51.859375 
L 14.59375 51.859375 
L 14.59375 45.125 
Q 17.4375 49.078125 21 51.046875 
Q 24.5625 53.03125 29.640625 53.03125 
Q 36.28125 53.03125 41.359375 49.609375 
Q 46.4375 46.1875 49.015625 39.953125 
Q 51.609375 33.734375 51.609375 26.3125 
Q 51.609375 18.359375 48.75 11.984375 
Q 45.90625 5.609375 40.453125 2.21875 
Q 35.015625 -1.171875 29 -1.171875 
Q 24.609375 -1.171875 21.109375 0.6875 
Q 17.625 2.546875 15.375 5.375 
L 15.375 -19.875 
z
M 14.546875 25.640625 
Q 14.546875 15.625 18.59375 10.84375 
Q 22.65625 6.0625 28.421875 6.0625 
Q 34.28125 6.0625 38.453125 11.015625 
Q 42.625 15.96875 42.625 26.375 
Q 42.625 36.28125 38.546875 41.203125 
Q 34.46875 46.140625 28.8125 46.140625 
Q 23.1875 46.140625 18.859375 40.890625 
Q 14.546875 35.640625 14.546875 25.640625 
z
" id="ArialMT-112"/>
       <path d="M 69.484375 67.28125 
L 67.484375 56.890625 
Q 62.796875 61.625 57.546875 63.921875 
Q 52.296875 66.21875 46.1875 66.21875 
Q 37.84375 66.21875 31.515625 62.203125 
Q 25.203125 58.203125 20.609375 50 
Q 17.671875 44.734375 16.125 38.84375 
Q 14.59375 32.953125 14.59375 27 
Q 14.59375 17.046875 19.75 11.8125 
Q 24.90625 6.59375 34.71875 6.59375 
Q 41.5 6.59375 47.75 8.765625 
Q 54 10.9375 59.90625 15.28125 
L 57.625 3.609375 
Q 51.8125 1.125 45.875 -0.140625 
Q 39.9375 -1.421875 33.984375 -1.421875 
Q 19.96875 -1.421875 12.078125 6.1875 
Q 4.203125 13.8125 4.203125 27.390625 
Q 4.203125 36.078125 7.203125 44.46875 
Q 10.203125 52.875 15.828125 59.8125 
Q 21.78125 67.1875 29.421875 70.703125 
Q 37.0625 74.21875 47.21875 74.21875 
Q 53.46875 74.21875 59.0625 72.484375 
Q 64.65625 70.75 69.484375 67.28125 
z
" id="DejaVuSans-Oblique-67"/>
      </defs>
      <use transform="translate(0 0.78125)" xlink:href="#ArialMT-79"/>
      <use transform="translate(77.783203 0.78125)" xlink:href="#ArialMT-99"/>
      <use transform="translate(127.783203 0.78125)" xlink:href="#ArialMT-99"/>
      <use transform="translate(177.783203 0.78125)" xlink:href="#ArialMT-117"/>
      <use transform="translate(233.398438 0.78125)" xlink:href="#ArialMT-112"/>
      <use transform="translate(289.013672 0.78125)" xlink:href="#ArialMT-97"/>
      <use transform="translate(344.628906 0.78125)" xlink:href="#ArialMT-116"/>
      <use transform="translate(372.412109 0.78125)" xlink:href="#ArialMT-105"/>
      <use transform="translate(394.628906 0.78125)" xlink:href="#ArialMT-111"/>
      <use transform="translate(450.244141 0.78125)" xlink:href="#ArialMT-110"/>
      <use transform="translate(505.859375 0.78125)" xlink:href="#ArialMT-32"/>
      <use transform="translate(533.642578 0.78125)" xlink:href="#DejaVuSans-Oblique-67"/>
     </g>
    </g>
   </g>
   <g id="PolyCollection_1">
    <path clip-path="url(#p81d8b27dd0)" d="M 67.61 219.974664 
L 67.61 221.898667 
L 75.36 202.092427 
L 83.11 185.987841 
L 90.86 172.69689 
L 98.61 161.554869 
L 106.36 152.084355 
L 114.11 143.937557 
L 121.86 136.856126 
L 129.61 130.644483 
L 137.36 125.151986 
L 145.11 120.260788 
L 152.86 115.877404 
L 160.61 111.926741 
L 168.36 108.347797 
L 176.11 105.090509 
L 183.86 102.113407 
L 191.61 99.381854 
L 199.36 96.86669 
L 207.11 94.543193 
L 214.86 92.390268 
L 222.61 90.389804 
L 230.36 88.526166 
L 238.11 86.785785 
L 245.86 85.156828 
L 253.61 83.628928 
L 261.36 82.192968 
L 269.11 80.840892 
L 276.86 79.565561 
L 284.61 78.360622 
L 292.36 77.220404 
L 300.11 76.139831 
L 307.86 75.114342 
L 315.61 74.139831 
L 323.36 73.212588 
L 331.11 72.329258 
L 338.86 71.486792 
L 346.61 70.682421 
L 354.36 69.913616 
L 362.11 69.178071 
L 369.86 68.473674 
L 377.61 67.798486 
L 385.36 67.150729 
L 393.11 66.528763 
L 400.86 65.93108 
L 408.61 65.356283 
L 416.36 64.803084 
L 424.11 64.270287 
L 431.86 63.756785 
L 439.61 63.261548 
L 447.36 62.783618 
L 455.11 62.322105 
L 462.86 61.876176 
L 470.61 61.445055 
L 478.36 61.028016 
L 486.11 60.624382 
L 493.86 60.233516 
L 501.61 59.854821 
L 509.36 59.487737 
L 517.11 59.13174 
L 524.86 58.786333 
L 532.61 58.451052 
L 540.36 58.125458 
L 548.11 57.809136 
L 555.86 57.501697 
L 563.61 57.202771 
L 563.61 56.374131 
L 563.61 56.374131 
L 555.86 56.66211 
L 548.11 56.95831 
L 540.36 57.26309 
L 532.61 57.576827 
L 524.86 57.899923 
L 517.11 58.232802 
L 509.36 58.575916 
L 501.61 58.929743 
L 493.86 59.294795 
L 486.11 59.671613 
L 478.36 60.060775 
L 470.61 60.4629 
L 462.86 60.878644 
L 455.11 61.308712 
L 447.36 61.753858 
L 439.61 62.214887 
L 431.86 62.692667 
L 424.11 63.188127 
L 416.36 63.702267 
L 408.61 64.236163 
L 400.86 64.790976 
L 393.11 65.367962 
L 385.36 65.968475 
L 377.61 66.593986 
L 369.86 67.246088 
L 362.11 67.926513 
L 354.36 68.637149 
L 346.61 69.380054 
L 338.86 70.157476 
L 331.11 70.971878 
L 323.36 71.825965 
L 315.61 72.722709 
L 307.86 73.665388 
L 300.11 74.657626 
L 292.36 75.703437 
L 284.61 76.80728 
L 276.86 77.974125 
L 269.11 79.209525 
L 261.36 80.519707 
L 253.61 81.911672 
L 245.86 83.39333 
L 238.11 84.973638 
L 230.36 86.662792 
L 222.61 88.472444 
L 214.86 90.415967 
L 207.11 92.508796 
L 199.36 94.768829 
L 191.61 97.21695 
L 183.86 99.877673 
L 176.11 102.779968 
L 168.36 105.958327 
L 160.61 109.454141 
L 152.86 113.317525 
L 145.11 117.609743 
L 137.36 122.406506 
L 129.61 127.802507 
L 121.86 133.917795 
L 114.11 140.906926 
L 106.36 148.97243 
L 98.61 158.385243 
L 90.86 169.516922 
L 83.11 182.893175 
L 75.36 199.291461 
L 67.61 219.974664 
z
" style="fill:#88ae1d;fill-opacity:0.3;stroke:#88ae1d;stroke-opacity:0.3;stroke-width:1.5;"/>
   </g>
   <g id="PolyCollection_2">
    <path clip-path="url(#p81d8b27dd0)" d="M 67.61 232.912638 
L 67.61 233.080469 
L 75.36 233.294992 
L 83.11 233.640426 
L 90.86 233.176837 
L 98.61 229.163561 
L 106.36 217.199687 
L 114.11 194.589601 
L 121.86 164.69814 
L 129.61 134.88798 
L 137.36 110.327673 
L 145.11 92.138633 
L 152.86 79.274726 
L 160.61 70.264235 
L 168.36 63.890169 
L 176.11 59.293285 
L 183.86 55.90066 
L 191.61 53.336311 
L 199.36 51.352699 
L 207.11 49.784798 
L 214.86 48.520724 
L 222.61 47.483201 
L 230.36 46.61783 
L 238.11 45.885594 
L 245.86 45.258003 
L 253.61 44.713898 
L 261.36 44.237312 
L 269.11 43.816019 
L 276.86 43.440529 
L 284.61 43.103384 
L 292.36 42.798655 
L 300.11 42.521579 
L 307.86 42.268288 
L 315.61 42.035619 
L 323.36 41.820956 
L 331.11 41.622124 
L 338.86 41.437294 
L 346.61 41.264923 
L 354.36 41.103695 
L 362.11 40.952484 
L 369.86 40.810319 
L 377.61 40.676357 
L 385.36 40.549861 
L 393.11 40.430188 
L 400.86 40.316768 
L 408.61 40.209099 
L 416.36 40.106731 
L 424.11 40.009265 
L 431.86 39.916343 
L 439.61 39.82764 
L 447.36 39.742866 
L 455.11 39.661757 
L 462.86 39.584072 
L 470.61 39.509593 
L 478.36 39.43812 
L 486.11 39.369471 
L 493.86 39.303477 
L 501.61 39.239984 
L 509.36 39.17885 
L 517.11 39.119944 
L 524.86 39.063143 
L 532.61 39.008335 
L 540.36 38.955416 
L 548.11 38.904288 
L 555.86 38.854861 
L 563.61 38.80705 
L 563.61 38.444047 
L 563.61 38.444047 
L 555.86 38.485379 
L 548.11 38.52808 
L 540.36 38.57222 
L 532.61 38.617871 
L 524.86 38.665112 
L 517.11 38.714028 
L 509.36 38.764708 
L 501.61 38.817248 
L 493.86 38.871753 
L 486.11 38.928333 
L 478.36 38.987108 
L 470.61 39.048207 
L 462.86 39.111769 
L 455.11 39.177943 
L 447.36 39.246891 
L 439.61 39.318789 
L 431.86 39.393826 
L 424.11 39.472208 
L 416.36 39.554158 
L 408.61 39.63992 
L 400.86 39.729758 
L 393.11 39.823961 
L 385.36 39.922842 
L 377.61 40.026747 
L 369.86 40.13605 
L 362.11 40.251164 
L 354.36 40.37254 
L 346.61 40.500676 
L 338.86 40.636116 
L 331.11 40.779464 
L 323.36 40.931383 
L 315.61 41.092612 
L 307.86 41.263971 
L 300.11 41.446376 
L 292.36 41.640861 
L 284.61 41.848599 
L 276.86 42.070939 
L 269.11 42.309453 
L 261.36 42.56601 
L 253.61 42.842882 
L 245.86 43.142904 
L 238.11 43.469718 
L 230.36 43.828167 
L 222.61 44.224917 
L 214.86 44.669493 
L 207.11 45.17601 
L 199.36 45.766172 
L 191.61 46.474541 
L 183.86 47.358034 
L 176.11 48.513344 
L 168.36 50.109359 
L 160.61 52.447722 
L 152.86 56.07371 
L 145.11 61.964729 
L 137.36 71.784469 
L 129.61 87.970816 
L 121.86 112.835551 
L 114.11 145.631874 
L 106.36 179.761098 
L 98.61 206.418959 
L 90.86 222.125395 
L 83.11 229.380448 
L 75.36 232.094483 
L 67.61 232.912638 
z
" style="fill:#cd3e78;fill-opacity:0.3;stroke:#cd3e78;stroke-opacity:0.3;stroke-width:1.5;"/>
   </g>
   <g id="line2d_11">
    <path clip-path="url(#p81d8b27dd0)" d="M 67.61 220.936665 
L 75.36 200.691944 
L 83.11 184.440508 
L 90.86 171.106906 
L 98.61 159.970056 
L 106.36 150.528393 
L 114.11 142.422242 
L 121.86 135.386961 
L 129.61 129.223495 
L 137.36 123.779246 
L 145.11 118.935265 
L 152.86 114.597464 
L 160.61 110.690441 
L 168.36 107.153062 
L 176.11 103.935239 
L 183.86 100.99554 
L 191.61 98.299402 
L 199.36 95.817759 
L 207.11 93.525994 
L 214.86 91.403118 
L 222.61 89.431124 
L 230.36 87.594479 
L 238.11 85.879711 
L 245.86 84.275079 
L 253.61 82.7703 
L 261.36 81.356337 
L 269.11 80.025209 
L 276.86 78.769843 
L 284.61 77.583951 
L 292.36 76.461921 
L 300.11 75.398729 
L 307.86 74.389865 
L 315.61 73.43127 
L 323.36 72.519277 
L 331.11 71.650568 
L 338.86 70.822134 
L 346.61 70.031237 
L 354.36 69.275383 
L 362.11 68.552292 
L 362.4025 68.526159 
" style="fill:none;stroke:#88ae1d;stroke-linecap:round;stroke-width:2.25;"/>
   </g>
   <g id="line2d_12">
    <path clip-path="url(#p81d8b27dd0)" d="M 67.61 232.996553 
L 75.36 232.694737 
L 83.11 231.510437 
L 90.86 227.651116 
L 98.61 217.79126 
L 106.36 198.480393 
L 114.11 170.110738 
L 121.86 138.766845 
L 129.61 111.429398 
L 137.36 91.056071 
L 145.11 77.051681 
L 152.86 67.674218 
L 160.61 61.355978 
L 168.36 56.999764 
L 176.11 53.903315 
L 183.86 51.629347 
L 191.61 49.905426 
L 199.36 48.559436 
L 207.11 47.480404 
L 214.86 46.595108 
L 222.61 45.854059 
L 230.36 45.222998 
L 238.11 44.677656 
L 245.86 44.200454 
L 253.61 43.77839 
L 261.36 43.401661 
L 269.11 43.062736 
L 276.86 42.755734 
L 284.61 42.475992 
L 292.36 42.219758 
L 300.11 41.983977 
L 307.86 41.766129 
L 315.61 41.564116 
L 323.36 41.37617 
L 331.11 41.200794 
L 338.86 41.036705 
L 346.61 40.882799 
L 354.36 40.738118 
L 362.11 40.601824 
L 362.4025 40.596969 
" style="fill:none;stroke:#cd3e78;stroke-linecap:round;stroke-width:2.25;"/>
   </g>
   <g id="line2d_13">
    <path clip-path="url(#p81d8b27dd0)" d="M 67.61 220.936711 
L 75.36 200.692004 
L 83.11 184.44056 
L 90.86 171.106947 
L 98.61 159.970084 
L 106.36 150.52841 
L 114.11 142.42225 
L 121.86 135.386961 
L 129.61 129.22349 
L 137.36 123.779236 
L 145.11 118.935252 
L 152.86 114.597448 
L 160.61 110.690423 
L 168.36 107.153043 
L 176.11 103.935218 
L 183.86 100.995519 
L 191.61 98.299381 
L 199.36 95.817739 
L 207.11 93.525974 
L 214.86 91.403098 
L 222.61 89.431105 
L 230.36 87.594461 
L 238.11 85.879694 
L 245.86 84.275063 
L 253.61 82.770286 
L 261.36 81.356324 
L 269.11 80.025197 
L 276.86 78.769832 
L 284.61 77.583941 
L 292.36 76.461912 
L 300.11 75.398722 
L 307.86 74.38986 
L 315.61 73.431265 
L 323.36 72.519274 
L 331.11 71.650566 
L 338.86 70.822134 
L 346.61 70.031238 
L 354.36 69.275385 
L 362.11 68.552296 
L 362.4025 68.526163 
" style="fill:none;stroke:#749a09;stroke-dasharray:2.25,3.7125;stroke-dashoffset:0;stroke-width:2.25;"/>
   </g>
   <g id="line2d_14">
    <path clip-path="url(#p81d8b27dd0)" d="M 67.61 233.040892 
L 75.36 232.664129 
L 83.11 230.365619 
L 90.86 223.639977 
L 98.61 210.156181 
L 106.36 189.489289 
L 114.11 164.067468 
L 121.86 137.958253 
L 129.61 114.579493 
L 137.36 95.522123 
L 145.11 80.852603 
L 152.86 69.898192 
L 160.61 61.818864 
L 168.36 55.867764 
L 176.11 51.461536 
L 183.86 48.170586 
L 191.61 45.686779 
L 199.36 43.791156 
L 207.11 42.328137 
L 214.86 41.186604 
L 222.61 40.28656 
L 230.36 39.569865 
L 238.11 38.993832 
L 245.86 38.526799 
L 253.61 38.145036 
L 261.36 37.830585 
L 269.11 37.569722 
L 276.86 37.351866 
L 284.61 37.168786 
L 292.36 37.014026 
L 300.11 36.882485 
L 307.86 36.770099 
L 315.61 36.673611 
L 323.36 36.590392 
L 331.11 36.518307 
L 338.86 36.455609 
L 346.61 36.400865 
L 354.36 36.352892 
L 362.11 36.310705 
L 362.4025 36.3093 
" style="fill:none;stroke:#b92a63;stroke-dasharray:2.25,3.7125;stroke-dashoffset:0;stroke-width:2.25;"/>
   </g>
   <g id="patch_3">
    <path d="M 63.735 243.524063 
L 63.735 26.084063 
" style="fill:none;stroke:#262626;stroke-linecap:square;stroke-linejoin:miter;stroke-width:1.875;"/>
   </g>
   <g id="patch_4">
    <path d="M 342.735 243.524063 
L 342.735 26.084063 
" style="fill:none;stroke:#262626;stroke-linecap:square;stroke-linejoin:miter;stroke-width:1.875;"/>
   </g>
   <g id="patch_5">
    <path d="M 63.735 243.524063 
L 342.735 243.524063 
" style="fill:none;stroke:#262626;stroke-linecap:square;stroke-linejoin:miter;stroke-width:1.875;"/>
   </g>
   <g id="patch_6">
    <path d="M 63.735 26.084063 
L 342.735 26.084063 
" style="fill:none;stroke:#262626;stroke-linecap:square;stroke-linejoin:miter;stroke-width:1.875;"/>
   </g>
   <g id="text_13">
    <!-- Binding site region -->
    <g style="fill:#262626;" transform="translate(129.191719 20.084063)scale(0.18 -0.18)">
     <defs>
      <path d="M 4.984375 -4.296875 
L 13.53125 -5.5625 
Q 14.0625 -9.515625 16.5 -11.328125 
Q 19.78125 -13.765625 25.4375 -13.765625 
Q 31.546875 -13.765625 34.859375 -11.328125 
Q 38.1875 -8.890625 39.359375 -4.5 
Q 40.046875 -1.8125 39.984375 6.78125 
Q 34.234375 0 25.640625 0 
Q 14.9375 0 9.078125 7.71875 
Q 3.21875 15.4375 3.21875 26.21875 
Q 3.21875 33.640625 5.90625 39.90625 
Q 8.59375 46.1875 13.6875 49.609375 
Q 18.796875 53.03125 25.6875 53.03125 
Q 34.859375 53.03125 40.828125 45.609375 
L 40.828125 51.859375 
L 48.921875 51.859375 
L 48.921875 7.03125 
Q 48.921875 -5.078125 46.453125 -10.125 
Q 44 -15.1875 38.640625 -18.109375 
Q 33.296875 -21.046875 25.484375 -21.046875 
Q 16.21875 -21.046875 10.5 -16.875 
Q 4.78125 -12.703125 4.984375 -4.296875 
z
M 12.25 26.859375 
Q 12.25 16.65625 16.296875 11.96875 
Q 20.359375 7.28125 26.46875 7.28125 
Q 32.515625 7.28125 36.609375 11.9375 
Q 40.71875 16.609375 40.71875 26.5625 
Q 40.71875 36.078125 36.5 40.90625 
Q 32.28125 45.75 26.3125 45.75 
Q 20.453125 45.75 16.34375 40.984375 
Q 12.25 36.234375 12.25 26.859375 
z
" id="ArialMT-103"/>
      <path d="M 3.078125 15.484375 
L 11.765625 16.84375 
Q 12.5 11.625 15.84375 8.84375 
Q 19.1875 6.0625 25.203125 6.0625 
Q 31.25 6.0625 34.171875 8.515625 
Q 37.109375 10.984375 37.109375 14.3125 
Q 37.109375 17.28125 34.515625 19 
Q 32.71875 20.171875 25.53125 21.96875 
Q 15.875 24.421875 12.140625 26.203125 
Q 8.40625 27.984375 6.46875 31.125 
Q 4.546875 34.28125 4.546875 38.09375 
Q 4.546875 41.546875 6.125 44.5 
Q 7.71875 47.46875 10.453125 49.421875 
Q 12.5 50.921875 16.03125 51.96875 
Q 19.578125 53.03125 23.640625 53.03125 
Q 29.734375 53.03125 34.34375 51.265625 
Q 38.96875 49.515625 41.15625 46.5 
Q 43.359375 43.5 44.1875 38.484375 
L 35.59375 37.3125 
Q 35.015625 41.3125 32.203125 43.546875 
Q 29.390625 45.796875 24.265625 45.796875 
Q 18.21875 45.796875 15.625 43.796875 
Q 13.03125 41.796875 13.03125 39.109375 
Q 13.03125 37.40625 14.109375 36.03125 
Q 15.1875 34.625 17.484375 33.6875 
Q 18.796875 33.203125 25.25 31.453125 
Q 34.578125 28.953125 38.25 27.359375 
Q 41.9375 25.78125 44.03125 22.75 
Q 46.140625 19.734375 46.140625 15.234375 
Q 46.140625 10.84375 43.578125 6.953125 
Q 41.015625 3.078125 36.171875 0.953125 
Q 31.34375 -1.171875 25.25 -1.171875 
Q 15.140625 -1.171875 9.84375 3.03125 
Q 4.546875 7.234375 3.078125 15.484375 
z
" id="ArialMT-115"/>
     </defs>
     <use xlink:href="#ArialMT-66"/>
     <use x="66.699219" xlink:href="#ArialMT-105"/>
     <use x="88.916016" xlink:href="#ArialMT-110"/>
     <use x="144.53125" xlink:href="#ArialMT-100"/>
     <use x="200.146484" xlink:href="#ArialMT-105"/>
     <use x="222.363281" xlink:href="#ArialMT-110"/>
     <use x="277.978516" xlink:href="#ArialMT-103"/>
     <use x="333.59375" xlink:href="#ArialMT-32"/>
     <use x="361.376953" xlink:href="#ArialMT-115"/>
     <use x="411.376953" xlink:href="#ArialMT-105"/>
     <use x="433.59375" xlink:href="#ArialMT-116"/>
     <use x="461.376953" xlink:href="#ArialMT-101"/>
     <use x="516.992188" xlink:href="#ArialMT-32"/>
     <use x="544.775391" xlink:href="#ArialMT-114"/>
     <use x="578.076172" xlink:href="#ArialMT-101"/>
     <use x="633.691406" xlink:href="#ArialMT-103"/>
     <use x="689.306641" xlink:href="#ArialMT-105"/>
     <use x="711.523438" xlink:href="#ArialMT-111"/>
     <use x="767.138672" xlink:href="#ArialMT-110"/>
    </g>
   </g>
   <g id="legend_1">
    <g id="patch_7">
     <path d="M 209.25 235.274062 
L 331.185 235.274062 
Q 334.485 235.274062 334.485 231.974063 
L 334.485 185.114062 
Q 334.485 181.814062 331.185 181.814062 
L 209.25 181.814062 
Q 205.95 181.814062 205.95 185.114062 
L 205.95 231.974063 
Q 205.95 235.274062 209.25 235.274062 
z
" style="fill:#ffffff;opacity:0.8;stroke:#cccccc;stroke-linejoin:miter;stroke-width:1.5;"/>
    </g>
    <g id="line2d_15">
     <path d="M 212.55 195.179062 
L 245.55 195.179062 
" style="fill:none;stroke:#88ae1d;stroke-linecap:round;stroke-width:2.25;"/>
    </g>
    <g id="line2d_16"/>
    <g id="text_14">
     <!-- $J=0\ k_BT$ -->
     <g style="fill:#262626;" transform="translate(258.75 200.954062)scale(0.165 -0.165)">
      <defs>
       <path d="M 16.703125 72.90625 
L 26.609375 72.90625 
L 13.375 5.078125 
Q 10.796875 -8.15625 4.65625 -14.078125 
Q -1.46875 -20.015625 -12.5 -20.015625 
L -16.40625 -20.015625 
L -14.796875 -11.71875 
L -11.71875 -11.71875 
Q -5.125 -11.71875 -1.703125 -7.953125 
Q 1.703125 -4.203125 3.515625 5.078125 
z
" id="DejaVuSans-Oblique-74"/>
       <path d="M 10.59375 45.40625 
L 73.1875 45.40625 
L 73.1875 37.203125 
L 10.59375 37.203125 
z
M 10.59375 25.484375 
L 73.1875 25.484375 
L 73.1875 17.1875 
L 10.59375 17.1875 
z
" id="DejaVuSans-61"/>
       <path d="M 31.78125 66.40625 
Q 24.171875 66.40625 20.328125 58.90625 
Q 16.5 51.421875 16.5 36.375 
Q 16.5 21.390625 20.328125 13.890625 
Q 24.171875 6.390625 31.78125 6.390625 
Q 39.453125 6.390625 43.28125 13.890625 
Q 47.125 21.390625 47.125 36.375 
Q 47.125 51.421875 43.28125 58.90625 
Q 39.453125 66.40625 31.78125 66.40625 
z
M 31.78125 74.21875 
Q 44.046875 74.21875 50.515625 64.515625 
Q 56.984375 54.828125 56.984375 36.375 
Q 56.984375 17.96875 50.515625 8.265625 
Q 44.046875 -1.421875 31.78125 -1.421875 
Q 19.53125 -1.421875 13.0625 8.265625 
Q 6.59375 17.96875 6.59375 36.375 
Q 6.59375 54.828125 13.0625 64.515625 
Q 19.53125 74.21875 31.78125 74.21875 
z
" id="DejaVuSans-48"/>
       <path d="M 18.3125 75.984375 
L 27.296875 75.984375 
L 18.703125 31.6875 
L 49.515625 54.6875 
L 61.1875 54.6875 
L 26.8125 28.515625 
L 51.90625 0 
L 41.015625 0 
L 17.671875 26.703125 
L 12.5 0 
L 3.515625 0 
z
" id="DejaVuSans-Oblique-107"/>
       <path d="M 16.890625 72.90625 
L 42.09375 72.90625 
Q 52.34375 72.90625 57.421875 69.09375 
Q 62.5 65.28125 62.5 57.625 
Q 62.5 50.59375 58.125 45.484375 
Q 53.765625 40.375 46.6875 39.3125 
Q 52.734375 37.9375 55.765625 34.078125 
Q 58.796875 30.21875 58.796875 23.78125 
Q 58.796875 12.796875 50.65625 6.390625 
Q 42.53125 0 28.421875 0 
L 2.6875 0 
z
M 19.28125 34.8125 
L 14.109375 8.109375 
L 29.984375 8.109375 
Q 38.921875 8.109375 43.75 12.203125 
Q 48.578125 16.3125 48.578125 23.78125 
Q 48.578125 29.546875 45.375 32.171875 
Q 42.1875 34.8125 35.109375 34.8125 
z
M 25.09375 64.796875 
L 20.796875 42.828125 
L 35.5 42.828125 
Q 43.359375 42.828125 47.78125 46.234375 
Q 52.203125 49.65625 52.203125 55.71875 
Q 52.203125 60.453125 49.21875 62.625 
Q 46.234375 64.796875 39.703125 64.796875 
z
" id="DejaVuSans-Oblique-66"/>
       <path d="M 5.90625 72.90625 
L 67.578125 72.90625 
L 66.015625 64.59375 
L 39.984375 64.59375 
L 27.484375 0 
L 17.578125 0 
L 30.078125 64.59375 
L 4.296875 64.59375 
z
" id="DejaVuSans-Oblique-84"/>
      </defs>
      <use transform="translate(0 0.015625)" xlink:href="#DejaVuSans-Oblique-74"/>
      <use transform="translate(48.974609 0.015625)" xlink:href="#DejaVuSans-61"/>
      <use transform="translate(152.246094 0.015625)" xlink:href="#DejaVuSans-48"/>
      <use transform="translate(248.339519 0.015625)" xlink:href="#DejaVuSans-Oblique-107"/>
      <use transform="translate(306.249675 -16.390625)scale(0.7)" xlink:href="#DejaVuSans-Oblique-66"/>
      <use transform="translate(357.006511 0.015625)" xlink:href="#DejaVuSans-Oblique-84"/>
     </g>
    </g>
    <g id="line2d_17">
     <path d="M 212.55 219.434062 
L 245.55 219.434062 
" style="fill:none;stroke:#cd3e78;stroke-linecap:round;stroke-width:2.25;"/>
    </g>
    <g id="line2d_18"/>
    <g id="text_15">
     <!-- $J=7\ k_BT$ -->
     <g style="fill:#262626;" transform="translate(258.75 225.209062)scale(0.165 -0.165)">
      <defs>
       <path d="M 8.203125 72.90625 
L 55.078125 72.90625 
L 55.078125 68.703125 
L 28.609375 0 
L 18.3125 0 
L 43.21875 64.59375 
L 8.203125 64.59375 
z
" id="DejaVuSans-55"/>
      </defs>
      <use transform="translate(0 0.015625)" xlink:href="#DejaVuSans-Oblique-74"/>
      <use transform="translate(48.974609 0.015625)" xlink:href="#DejaVuSans-61"/>
      <use transform="translate(152.246094 0.015625)" xlink:href="#DejaVuSans-55"/>
      <use transform="translate(248.339519 0.015625)" xlink:href="#DejaVuSans-Oblique-107"/>
      <use transform="translate(306.249675 -16.390625)scale(0.7)" xlink:href="#DejaVuSans-Oblique-66"/>
      <use transform="translate(357.006511 0.015625)" xlink:href="#DejaVuSans-Oblique-84"/>
     </g>
    </g>
   </g>
  </g>
 </g>
 <defs>
  <clipPath id="p81d8b27dd0">
   <rect height="217.44" width="279" x="63.735" y="26.084063"/>
  </clipPath>
 </defs>
</svg>
