<?xml version="1.0" encoding="utf-8" standalone="no"?>
<!DOCTYPE svg PUBLIC "-//W3C//DTD SVG 1.1//EN"
  "http://www.w3.org/Graphics/SVG/1.1/DTD/svg11.dtd">
<svg xmlns:xlink="http://www.w3.org/1999/xlink" width="370.938047pt" height="247.655391pt" viewBox="0 0 370.938047 247.655391" xmlns="http://www.w3.org/2000/svg" version="1.1">
 <metadata>
  <rdf:RDF xmlns:dc="http://purl.org/dc/elements/1.1/" xmlns:cc="http://creativecommons.org/ns#" xmlns:rdf="http://www.w3.org/1999/02/22-rdf-syntax-ns#">
   <cc:Work>
    <dc:type rdf:resource="http://purl.org/dc/dcmitype/StillImage"/>
    <dc:date>2025-11-19T19:34:51.806314</dc:date>
    <dc:format>image/svg+xml</dc:format>
    <dc:creator>
     <cc:Agent>
      <dc:title>Matplotlib v3.10.7, https://matplotlib.org/</dc:title>
     </cc:Agent>
    </dc:creator>
   </cc:Work>
  </rdf:RDF>
 </metadata>
 <defs>
  <style type="text/css">*{stroke-linejoin: round; stroke-linecap: butt}</style>
 </defs>
 <g id="figure_1">
  <g id="patch_1">
   <path d="M 0 247.655391 
L 370.938047 247.655391 
L 370.938047 -0 
L 0 -0 
z
" style="fill: #ffffff"/>
  </g>
  <g id="axes_1">
   <g id="patch_2">
    <path d="M 73.270547 192.404063 
L 352.270547 192.404063 
L 352.270547 26.084063 
L 73.270547 26.084063 
z
" style="fill: #ffffff"/>
   </g>
   <g id="matplotlib.axis_1">
    <g id="xtick_1">
     <g id="line2d_1">
      <defs>
       <path id="m24e72a7251" d="M 0 0 
L 0 9 
" style="stroke: #262626; stroke-width: 1.875"/>
      </defs>
      <g>
       <use xlink:href="#m24e72a7251" x="73.270547" y="192.404063" style="fill: #262626; stroke: #262626; stroke-width: 1.875"/>
      </g>
     </g>
     <g id="text_1">
      <!-- 0.0 -->
      <g style="fill: #262626" transform="translate(61.803047 216.714453) scale(0.165 -0.165)">
       <defs>
        <path id="ArialMT-30" d="M 266 2259 
Q 266 3072 433 3567 
Q 600 4063 929 4331 
Q 1259 4600 1759 4600 
Q 2128 4600 2406 4451 
Q 2684 4303 2865 4023 
Q 3047 3744 3150 3342 
Q 3253 2941 3253 2259 
Q 3253 1453 3087 958 
Q 2922 463 2592 192 
Q 2263 -78 1759 -78 
Q 1097 -78 719 397 
Q 266 969 266 2259 
z
M 844 2259 
Q 844 1131 1108 757 
Q 1372 384 1759 384 
Q 2147 384 2411 759 
Q 2675 1134 2675 2259 
Q 2675 3391 2411 3762 
Q 2147 4134 1753 4134 
Q 1366 4134 1134 3806 
Q 844 3388 844 2259 
z
" transform="scale(0.015625)"/>
        <path id="ArialMT-2e" d="M 581 0 
L 581 641 
L 1222 641 
L 1222 0 
L 581 0 
z
" transform="scale(0.015625)"/>
       </defs>
       <use xlink:href="#ArialMT-30"/>
       <use xlink:href="#ArialMT-2e" transform="translate(55.615234 0)"/>
       <use xlink:href="#ArialMT-30" transform="translate(83.398438 0)"/>
      </g>
     </g>
    </g>
    <g id="xtick_2">
     <g id="line2d_2">
      <g>
       <use xlink:href="#m24e72a7251" x="166.270547" y="192.404063" style="fill: #262626; stroke: #262626; stroke-width: 1.875"/>
      </g>
     </g>
     <g id="text_2">
      <!-- 0.2 -->
      <g style="fill: #262626" transform="translate(154.803047 216.714453) scale(0.165 -0.165)">
       <defs>
        <path id="ArialMT-32" d="M 3222 541 
L 3222 0 
L 194 0 
Q 188 203 259 391 
Q 375 700 629 1000 
Q 884 1300 1366 1694 
Q 2113 2306 2375 2664 
Q 2638 3022 2638 3341 
Q 2638 3675 2398 3904 
Q 2159 4134 1775 4134 
Q 1369 4134 1125 3890 
Q 881 3647 878 3216 
L 300 3275 
Q 359 3922 746 4261 
Q 1134 4600 1788 4600 
Q 2447 4600 2831 4234 
Q 3216 3869 3216 3328 
Q 3216 3053 3103 2787 
Q 2991 2522 2730 2228 
Q 2469 1934 1863 1422 
Q 1356 997 1212 845 
Q 1069 694 975 541 
L 3222 541 
z
" transform="scale(0.015625)"/>
       </defs>
       <use xlink:href="#ArialMT-30"/>
       <use xlink:href="#ArialMT-2e" transform="translate(55.615234 0)"/>
       <use xlink:href="#ArialMT-32" transform="translate(83.398438 0)"/>
      </g>
     </g>
    </g>
    <g id="xtick_3">
     <g id="line2d_3">
      <g>
       <use xlink:href="#m24e72a7251" x="259.270547" y="192.404063" style="fill: #262626; stroke: #262626; stroke-width: 1.875"/>
      </g>
     </g>
     <g id="text_3">
      <!-- 0.4 -->
      <g style="fill: #262626" transform="translate(247.803047 216.714453) scale(0.165 -0.165)">
       <defs>
        <path id="ArialMT-34" d="M 2069 0 
L 2069 1097 
L 81 1097 
L 81 1613 
L 2172 4581 
L 2631 4581 
L 2631 1613 
L 3250 1613 
L 3250 1097 
L 2631 1097 
L 2631 0 
L 2069 0 
z
M 2069 1613 
L 2069 3678 
L 634 1613 
L 2069 1613 
z
" transform="scale(0.015625)"/>
       </defs>
       <use xlink:href="#ArialMT-30"/>
       <use xlink:href="#ArialMT-2e" transform="translate(55.615234 0)"/>
       <use xlink:href="#ArialMT-34" transform="translate(83.398438 0)"/>
      </g>
     </g>
    </g>
    <g id="xtick_4">
     <g id="line2d_4">
      <g>
       <use xlink:href="#m24e72a7251" x="352.270547" y="192.404063" style="fill: #262626; stroke: #262626; stroke-width: 1.875"/>
      </g>
     </g>
     <g id="text_4">
      <!-- 0.6 -->
      <g style="fill: #262626" transform="translate(340.803047 216.714453) scale(0.165 -0.165)">
       <defs>
        <path id="ArialMT-36" d="M 3184 3459 
L 2625 3416 
Q 2550 3747 2413 3897 
Q 2184 4138 1850 4138 
Q 1581 4138 1378 3988 
Q 1113 3794 959 3422 
Q 806 3050 800 2363 
Q 1003 2672 1297 2822 
Q 1591 2972 1913 2972 
Q 2475 2972 2870 2558 
Q 3266 2144 3266 1488 
Q 3266 1056 3080 686 
Q 2894 316 2569 119 
Q 2244 -78 1831 -78 
Q 1128 -78 684 439 
Q 241 956 241 2144 
Q 241 3472 731 4075 
Q 1159 4600 1884 4600 
Q 2425 4600 2770 4297 
Q 3116 3994 3184 3459 
z
M 888 1484 
Q 888 1194 1011 928 
Q 1134 663 1356 523 
Q 1578 384 1822 384 
Q 2178 384 2434 671 
Q 2691 959 2691 1453 
Q 2691 1928 2437 2201 
Q 2184 2475 1800 2475 
Q 1419 2475 1153 2201 
Q 888 1928 888 1484 
z
" transform="scale(0.015625)"/>
       </defs>
       <use xlink:href="#ArialMT-30"/>
       <use xlink:href="#ArialMT-2e" transform="translate(55.615234 0)"/>
       <use xlink:href="#ArialMT-36" transform="translate(83.398438 0)"/>
      </g>
     </g>
    </g>
    <g id="text_5">
     <!-- Bicoid concentration $s$ -->
     <g style="fill: #262626" transform="translate(124.480547 236.877891) scale(0.18 -0.18)">
      <defs>
       <path id="ArialMT-42" d="M 469 0 
L 469 4581 
L 2188 4581 
Q 2713 4581 3030 4442 
Q 3347 4303 3526 4014 
Q 3706 3725 3706 3409 
Q 3706 3116 3547 2856 
Q 3388 2597 3066 2438 
Q 3481 2316 3704 2022 
Q 3928 1728 3928 1328 
Q 3928 1006 3792 729 
Q 3656 453 3456 303 
Q 3256 153 2954 76 
Q 2653 0 2216 0 
L 469 0 
z
M 1075 2656 
L 2066 2656 
Q 2469 2656 2644 2709 
Q 2875 2778 2992 2937 
Q 3109 3097 3109 3338 
Q 3109 3566 3000 3739 
Q 2891 3913 2687 3977 
Q 2484 4041 1991 4041 
L 1075 4041 
L 1075 2656 
z
M 1075 541 
L 2216 541 
Q 2509 541 2628 563 
Q 2838 600 2978 687 
Q 3119 775 3209 942 
Q 3300 1109 3300 1328 
Q 3300 1584 3169 1773 
Q 3038 1963 2805 2039 
Q 2572 2116 2134 2116 
L 1075 2116 
L 1075 541 
z
" transform="scale(0.015625)"/>
       <path id="ArialMT-69" d="M 425 3934 
L 425 4581 
L 988 4581 
L 988 3934 
L 425 3934 
z
M 425 0 
L 425 3319 
L 988 3319 
L 988 0 
L 425 0 
z
" transform="scale(0.015625)"/>
       <path id="ArialMT-63" d="M 2588 1216 
L 3141 1144 
Q 3050 572 2676 248 
Q 2303 -75 1759 -75 
Q 1078 -75 664 370 
Q 250 816 250 1647 
Q 250 2184 428 2587 
Q 606 2991 970 3192 
Q 1334 3394 1763 3394 
Q 2303 3394 2647 3120 
Q 2991 2847 3088 2344 
L 2541 2259 
Q 2463 2594 2264 2762 
Q 2066 2931 1784 2931 
Q 1359 2931 1093 2626 
Q 828 2322 828 1663 
Q 828 994 1084 691 
Q 1341 388 1753 388 
Q 2084 388 2306 591 
Q 2528 794 2588 1216 
z
" transform="scale(0.015625)"/>
       <path id="ArialMT-6f" d="M 213 1659 
Q 213 2581 725 3025 
Q 1153 3394 1769 3394 
Q 2453 3394 2887 2945 
Q 3322 2497 3322 1706 
Q 3322 1066 3130 698 
Q 2938 331 2570 128 
Q 2203 -75 1769 -75 
Q 1072 -75 642 372 
Q 213 819 213 1659 
z
M 791 1659 
Q 791 1022 1069 705 
Q 1347 388 1769 388 
Q 2188 388 2466 706 
Q 2744 1025 2744 1678 
Q 2744 2294 2464 2611 
Q 2184 2928 1769 2928 
Q 1347 2928 1069 2612 
Q 791 2297 791 1659 
z
" transform="scale(0.015625)"/>
       <path id="ArialMT-64" d="M 2575 0 
L 2575 419 
Q 2259 -75 1647 -75 
Q 1250 -75 917 144 
Q 584 363 401 755 
Q 219 1147 219 1656 
Q 219 2153 384 2558 
Q 550 2963 881 3178 
Q 1213 3394 1622 3394 
Q 1922 3394 2156 3267 
Q 2391 3141 2538 2938 
L 2538 4581 
L 3097 4581 
L 3097 0 
L 2575 0 
z
M 797 1656 
Q 797 1019 1065 703 
Q 1334 388 1700 388 
Q 2069 388 2326 689 
Q 2584 991 2584 1609 
Q 2584 2291 2321 2609 
Q 2059 2928 1675 2928 
Q 1300 2928 1048 2622 
Q 797 2316 797 1656 
z
" transform="scale(0.015625)"/>
       <path id="ArialMT-20" transform="scale(0.015625)"/>
       <path id="ArialMT-6e" d="M 422 0 
L 422 3319 
L 928 3319 
L 928 2847 
Q 1294 3394 1984 3394 
Q 2284 3394 2536 3286 
Q 2788 3178 2913 3003 
Q 3038 2828 3088 2588 
Q 3119 2431 3119 2041 
L 3119 0 
L 2556 0 
L 2556 2019 
Q 2556 2363 2490 2533 
Q 2425 2703 2258 2804 
Q 2091 2906 1866 2906 
Q 1506 2906 1245 2678 
Q 984 2450 984 1813 
L 984 0 
L 422 0 
z
" transform="scale(0.015625)"/>
       <path id="ArialMT-65" d="M 2694 1069 
L 3275 997 
Q 3138 488 2766 206 
Q 2394 -75 1816 -75 
Q 1088 -75 661 373 
Q 234 822 234 1631 
Q 234 2469 665 2931 
Q 1097 3394 1784 3394 
Q 2450 3394 2872 2941 
Q 3294 2488 3294 1666 
Q 3294 1616 3291 1516 
L 816 1516 
Q 847 969 1125 678 
Q 1403 388 1819 388 
Q 2128 388 2347 550 
Q 2566 713 2694 1069 
z
M 847 1978 
L 2700 1978 
Q 2663 2397 2488 2606 
Q 2219 2931 1791 2931 
Q 1403 2931 1139 2672 
Q 875 2413 847 1978 
z
" transform="scale(0.015625)"/>
       <path id="ArialMT-74" d="M 1650 503 
L 1731 6 
Q 1494 -44 1306 -44 
Q 1000 -44 831 53 
Q 663 150 594 308 
Q 525 466 525 972 
L 525 2881 
L 113 2881 
L 113 3319 
L 525 3319 
L 525 4141 
L 1084 4478 
L 1084 3319 
L 1650 3319 
L 1650 2881 
L 1084 2881 
L 1084 941 
Q 1084 700 1114 631 
Q 1144 563 1211 522 
Q 1278 481 1403 481 
Q 1497 481 1650 503 
z
" transform="scale(0.015625)"/>
       <path id="ArialMT-72" d="M 416 0 
L 416 3319 
L 922 3319 
L 922 2816 
Q 1116 3169 1280 3281 
Q 1444 3394 1641 3394 
Q 1925 3394 2219 3213 
L 2025 2691 
Q 1819 2813 1613 2813 
Q 1428 2813 1281 2702 
Q 1134 2591 1072 2394 
Q 978 2094 978 1738 
L 978 0 
L 416 0 
z
" transform="scale(0.015625)"/>
       <path id="ArialMT-61" d="M 2588 409 
Q 2275 144 1986 34 
Q 1697 -75 1366 -75 
Q 819 -75 525 192 
Q 231 459 231 875 
Q 231 1119 342 1320 
Q 453 1522 633 1644 
Q 813 1766 1038 1828 
Q 1203 1872 1538 1913 
Q 2219 1994 2541 2106 
Q 2544 2222 2544 2253 
Q 2544 2597 2384 2738 
Q 2169 2928 1744 2928 
Q 1347 2928 1158 2789 
Q 969 2650 878 2297 
L 328 2372 
Q 403 2725 575 2942 
Q 747 3159 1072 3276 
Q 1397 3394 1825 3394 
Q 2250 3394 2515 3294 
Q 2781 3194 2906 3042 
Q 3031 2891 3081 2659 
Q 3109 2516 3109 2141 
L 3109 1391 
Q 3109 606 3145 398 
Q 3181 191 3288 0 
L 2700 0 
Q 2613 175 2588 409 
z
M 2541 1666 
Q 2234 1541 1622 1453 
Q 1275 1403 1131 1340 
Q 988 1278 909 1158 
Q 831 1038 831 891 
Q 831 666 1001 516 
Q 1172 366 1500 366 
Q 1825 366 2078 508 
Q 2331 650 2450 897 
Q 2541 1088 2541 1459 
L 2541 1666 
z
" transform="scale(0.015625)"/>
       <path id="DejaVuSans-Oblique-73" d="M 3200 3397 
L 3091 2853 
Q 2863 2978 2609 3040 
Q 2356 3103 2088 3103 
Q 1634 3103 1373 2948 
Q 1113 2794 1113 2528 
Q 1113 2219 1719 2053 
Q 1766 2041 1788 2034 
L 1972 1978 
Q 2547 1819 2739 1644 
Q 2931 1469 2931 1166 
Q 2931 609 2489 259 
Q 2047 -91 1331 -91 
Q 1053 -91 747 -37 
Q 441 16 72 128 
L 184 722 
Q 500 559 806 475 
Q 1113 391 1394 391 
Q 1816 391 2080 572 
Q 2344 753 2344 1031 
Q 2344 1331 1650 1516 
L 1591 1531 
L 1394 1581 
Q 956 1697 753 1886 
Q 550 2075 550 2369 
Q 550 2928 970 3256 
Q 1391 3584 2113 3584 
Q 2397 3584 2667 3537 
Q 2938 3491 3200 3397 
z
" transform="scale(0.015625)"/>
      </defs>
      <use xlink:href="#ArialMT-42" transform="translate(0 0.421875)"/>
      <use xlink:href="#ArialMT-69" transform="translate(66.699219 0.421875)"/>
      <use xlink:href="#ArialMT-63" transform="translate(88.916016 0.421875)"/>
      <use xlink:href="#ArialMT-6f" transform="translate(138.916016 0.421875)"/>
      <use xlink:href="#ArialMT-69" transform="translate(194.53125 0.421875)"/>
      <use xlink:href="#ArialMT-64" transform="translate(216.748047 0.421875)"/>
      <use xlink:href="#ArialMT-20" transform="translate(272.363281 0.421875)"/>
      <use xlink:href="#ArialMT-63" transform="translate(300.146484 0.421875)"/>
      <use xlink:href="#ArialMT-6f" transform="translate(350.146484 0.421875)"/>
      <use xlink:href="#ArialMT-6e" transform="translate(405.761719 0.421875)"/>
      <use xlink:href="#ArialMT-63" transform="translate(461.376953 0.421875)"/>
      <use xlink:href="#ArialMT-65" transform="translate(511.376953 0.421875)"/>
      <use xlink:href="#ArialMT-6e" transform="translate(566.992188 0.421875)"/>
      <use xlink:href="#ArialMT-74" transform="translate(622.607422 0.421875)"/>
      <use xlink:href="#ArialMT-72" transform="translate(650.390625 0.421875)"/>
      <use xlink:href="#ArialMT-61" transform="translate(683.691406 0.421875)"/>
      <use xlink:href="#ArialMT-74" transform="translate(739.306641 0.421875)"/>
      <use xlink:href="#ArialMT-69" transform="translate(767.089844 0.421875)"/>
      <use xlink:href="#ArialMT-6f" transform="translate(789.306641 0.421875)"/>
      <use xlink:href="#ArialMT-6e" transform="translate(844.921875 0.421875)"/>
      <use xlink:href="#ArialMT-20" transform="translate(900.537109 0.421875)"/>
      <use xlink:href="#DejaVuSans-Oblique-73" transform="translate(928.320312 0.421875)"/>
     </g>
    </g>
   </g>
   <g id="matplotlib.axis_2">
    <g id="ytick_1">
     <g id="line2d_5">
      <defs>
       <path id="m8965879897" d="M 0 0 
L -9 0 
" style="stroke: #262626; stroke-width: 1.875"/>
      </defs>
      <g>
       <use xlink:href="#m8965879897" x="73.270547" y="184.389815" style="fill: #262626; stroke: #262626; stroke-width: 1.875"/>
      </g>
     </g>
     <g id="text_6">
      <!-- 0.00 -->
      <g style="fill: #262626" transform="translate(28.66 190.29501) scale(0.165 -0.165)">
       <use xlink:href="#ArialMT-30"/>
       <use xlink:href="#ArialMT-2e" transform="translate(55.615234 0)"/>
       <use xlink:href="#ArialMT-30" transform="translate(83.398438 0)"/>
       <use xlink:href="#ArialMT-30" transform="translate(139.013672 0)"/>
      </g>
     </g>
    </g>
    <g id="ytick_2">
     <g id="line2d_6">
      <g>
       <use xlink:href="#m8965879897" x="73.270547" y="146.692836" style="fill: #262626; stroke: #262626; stroke-width: 1.875"/>
      </g>
     </g>
     <g id="text_7">
      <!-- 0.25 -->
      <g style="fill: #262626" transform="translate(28.66 152.598032) scale(0.165 -0.165)">
       <defs>
        <path id="ArialMT-35" d="M 266 1200 
L 856 1250 
Q 922 819 1161 601 
Q 1400 384 1738 384 
Q 2144 384 2425 690 
Q 2706 997 2706 1503 
Q 2706 1984 2436 2262 
Q 2166 2541 1728 2541 
Q 1456 2541 1237 2417 
Q 1019 2294 894 2097 
L 366 2166 
L 809 4519 
L 3088 4519 
L 3088 3981 
L 1259 3981 
L 1013 2750 
Q 1425 3038 1878 3038 
Q 2478 3038 2890 2622 
Q 3303 2206 3303 1553 
Q 3303 931 2941 478 
Q 2500 -78 1738 -78 
Q 1113 -78 717 272 
Q 322 622 266 1200 
z
" transform="scale(0.015625)"/>
       </defs>
       <use xlink:href="#ArialMT-30"/>
       <use xlink:href="#ArialMT-2e" transform="translate(55.615234 0)"/>
       <use xlink:href="#ArialMT-32" transform="translate(83.398438 0)"/>
       <use xlink:href="#ArialMT-35" transform="translate(139.013672 0)"/>
      </g>
     </g>
    </g>
    <g id="ytick_3">
     <g id="line2d_7">
      <g>
       <use xlink:href="#m8965879897" x="73.270547" y="108.995858" style="fill: #262626; stroke: #262626; stroke-width: 1.875"/>
      </g>
     </g>
     <g id="text_8">
      <!-- 0.50 -->
      <g style="fill: #262626" transform="translate(28.66 114.901053) scale(0.165 -0.165)">
       <use xlink:href="#ArialMT-30"/>
       <use xlink:href="#ArialMT-2e" transform="translate(55.615234 0)"/>
       <use xlink:href="#ArialMT-35" transform="translate(83.398438 0)"/>
       <use xlink:href="#ArialMT-30" transform="translate(139.013672 0)"/>
      </g>
     </g>
    </g>
    <g id="ytick_4">
     <g id="line2d_8">
      <g>
       <use xlink:href="#m8965879897" x="73.270547" y="71.29888" style="fill: #262626; stroke: #262626; stroke-width: 1.875"/>
      </g>
     </g>
     <g id="text_9">
      <!-- 0.75 -->
      <g style="fill: #262626" transform="translate(28.66 77.204075) scale(0.165 -0.165)">
       <defs>
        <path id="ArialMT-37" d="M 303 3981 
L 303 4522 
L 3269 4522 
L 3269 4084 
Q 2831 3619 2401 2847 
Q 1972 2075 1738 1259 
Q 1569 684 1522 0 
L 944 0 
Q 953 541 1156 1306 
Q 1359 2072 1739 2783 
Q 2119 3494 2547 3981 
L 303 3981 
z
" transform="scale(0.015625)"/>
       </defs>
       <use xlink:href="#ArialMT-30"/>
       <use xlink:href="#ArialMT-2e" transform="translate(55.615234 0)"/>
       <use xlink:href="#ArialMT-37" transform="translate(83.398438 0)"/>
       <use xlink:href="#ArialMT-35" transform="translate(139.013672 0)"/>
      </g>
     </g>
    </g>
    <g id="ytick_5">
     <g id="line2d_9">
      <g>
       <use xlink:href="#m8965879897" x="73.270547" y="33.601901" style="fill: #262626; stroke: #262626; stroke-width: 1.875"/>
      </g>
     </g>
     <g id="text_10">
      <!-- 1.00 -->
      <g style="fill: #262626" transform="translate(28.66 39.507096) scale(0.165 -0.165)">
       <defs>
        <path id="ArialMT-31" d="M 2384 0 
L 1822 0 
L 1822 3584 
Q 1619 3391 1289 3197 
Q 959 3003 697 2906 
L 697 3450 
Q 1169 3672 1522 3987 
Q 1875 4303 2022 4600 
L 2384 4600 
L 2384 0 
z
" transform="scale(0.015625)"/>
       </defs>
       <use xlink:href="#ArialMT-31"/>
       <use xlink:href="#ArialMT-2e" transform="translate(55.615234 0)"/>
       <use xlink:href="#ArialMT-30" transform="translate(83.398438 0)"/>
       <use xlink:href="#ArialMT-30" transform="translate(139.013672 0)"/>
      </g>
     </g>
    </g>
    <g id="text_11">
     <!-- Occupancy $C$ -->
     <g style="fill: #262626" transform="translate(20.7 163.064062) rotate(-90) scale(0.18 -0.18)">
      <defs>
       <path id="ArialMT-4f" d="M 309 2231 
Q 309 3372 921 4017 
Q 1534 4663 2503 4663 
Q 3138 4663 3647 4359 
Q 4156 4056 4423 3514 
Q 4691 2972 4691 2284 
Q 4691 1588 4409 1038 
Q 4128 488 3612 205 
Q 3097 -78 2500 -78 
Q 1853 -78 1343 234 
Q 834 547 571 1087 
Q 309 1628 309 2231 
z
M 934 2222 
Q 934 1394 1379 917 
Q 1825 441 2497 441 
Q 3181 441 3623 922 
Q 4066 1403 4066 2288 
Q 4066 2847 3877 3264 
Q 3688 3681 3323 3911 
Q 2959 4141 2506 4141 
Q 1863 4141 1398 3698 
Q 934 3256 934 2222 
z
" transform="scale(0.015625)"/>
       <path id="ArialMT-75" d="M 2597 0 
L 2597 488 
Q 2209 -75 1544 -75 
Q 1250 -75 995 37 
Q 741 150 617 320 
Q 494 491 444 738 
Q 409 903 409 1263 
L 409 3319 
L 972 3319 
L 972 1478 
Q 972 1038 1006 884 
Q 1059 663 1231 536 
Q 1403 409 1656 409 
Q 1909 409 2131 539 
Q 2353 669 2445 892 
Q 2538 1116 2538 1541 
L 2538 3319 
L 3100 3319 
L 3100 0 
L 2597 0 
z
" transform="scale(0.015625)"/>
       <path id="ArialMT-70" d="M 422 -1272 
L 422 3319 
L 934 3319 
L 934 2888 
Q 1116 3141 1344 3267 
Q 1572 3394 1897 3394 
Q 2322 3394 2647 3175 
Q 2972 2956 3137 2557 
Q 3303 2159 3303 1684 
Q 3303 1175 3120 767 
Q 2938 359 2589 142 
Q 2241 -75 1856 -75 
Q 1575 -75 1351 44 
Q 1128 163 984 344 
L 984 -1272 
L 422 -1272 
z
M 931 1641 
Q 931 1000 1190 694 
Q 1450 388 1819 388 
Q 2194 388 2461 705 
Q 2728 1022 2728 1688 
Q 2728 2322 2467 2637 
Q 2206 2953 1844 2953 
Q 1484 2953 1207 2617 
Q 931 2281 931 1641 
z
" transform="scale(0.015625)"/>
       <path id="ArialMT-79" d="M 397 -1278 
L 334 -750 
Q 519 -800 656 -800 
Q 844 -800 956 -737 
Q 1069 -675 1141 -563 
Q 1194 -478 1313 -144 
Q 1328 -97 1363 -6 
L 103 3319 
L 709 3319 
L 1400 1397 
Q 1534 1031 1641 628 
Q 1738 1016 1872 1384 
L 2581 3319 
L 3144 3319 
L 1881 -56 
Q 1678 -603 1566 -809 
Q 1416 -1088 1222 -1217 
Q 1028 -1347 759 -1347 
Q 597 -1347 397 -1278 
z
" transform="scale(0.015625)"/>
       <path id="DejaVuSans-Oblique-43" d="M 4447 4306 
L 4319 3641 
Q 4019 3944 3683 4091 
Q 3347 4238 2956 4238 
Q 2422 4238 2017 3981 
Q 1613 3725 1319 3200 
Q 1131 2863 1032 2486 
Q 934 2109 934 1728 
Q 934 1091 1264 756 
Q 1594 422 2222 422 
Q 2656 422 3056 561 
Q 3456 700 3834 978 
L 3688 231 
Q 3316 72 2936 -9 
Q 2556 -91 2175 -91 
Q 1278 -91 773 396 
Q 269 884 269 1753 
Q 269 2309 461 2846 
Q 653 3384 1013 3828 
Q 1394 4300 1883 4525 
Q 2372 4750 3022 4750 
Q 3422 4750 3780 4639 
Q 4138 4528 4447 4306 
z
" transform="scale(0.015625)"/>
      </defs>
      <use xlink:href="#ArialMT-4f" transform="translate(0 0.78125)"/>
      <use xlink:href="#ArialMT-63" transform="translate(77.783203 0.78125)"/>
      <use xlink:href="#ArialMT-63" transform="translate(127.783203 0.78125)"/>
      <use xlink:href="#ArialMT-75" transform="translate(177.783203 0.78125)"/>
      <use xlink:href="#ArialMT-70" transform="translate(233.398438 0.78125)"/>
      <use xlink:href="#ArialMT-61" transform="translate(289.013672 0.78125)"/>
      <use xlink:href="#ArialMT-6e" transform="translate(344.628906 0.78125)"/>
      <use xlink:href="#ArialMT-63" transform="translate(400.244141 0.78125)"/>
      <use xlink:href="#ArialMT-79" transform="translate(450.244141 0.78125)"/>
      <use xlink:href="#ArialMT-20" transform="translate(500.244141 0.78125)"/>
      <use xlink:href="#DejaVuSans-Oblique-43" transform="translate(528.027344 0.78125)"/>
     </g>
    </g>
   </g>
   <g id="FillBetweenPolyCollection_1">
    <path d="M 77.145547 174.391112 
L 77.145547 175.862783 
L 84.895547 160.712977 
L 92.645547 148.394568 
L 100.395547 138.228312 
L 108.145547 129.705772 
L 115.895547 122.46177 
L 123.645547 116.230279 
L 131.395547 110.813687 
L 139.145547 106.062397 
L 146.895547 101.861182 
L 154.645547 98.119902 
L 162.395547 94.767049 
L 170.145547 91.745184 
L 177.895547 89.007648 
L 185.645547 86.516146 
L 193.395547 84.238959 
L 201.145547 82.149592 
L 208.895547 80.225741 
L 216.645547 78.448496 
L 224.395547 76.801723 
L 232.145547 75.271567 
L 239.895547 73.846069 
L 247.645547 72.51485 
L 255.395547 71.26886 
L 263.145547 70.100168 
L 270.895547 69.001801 
L 278.645547 67.967598 
L 286.395547 66.992096 
L 294.145547 66.070437 
L 301.895547 65.198284 
L 309.645547 64.371753 
L 317.395547 63.587356 
L 325.145547 62.841951 
L 332.895547 62.132703 
L 340.645547 61.457043 
L 348.395547 60.812641 
L 356.145547 60.197376 
L 363.895547 59.609317 
L 371.645547 59.046699 
L 379.395547 58.507904 
L 387.145547 57.991453 
L 394.895547 57.495983 
L 402.645547 57.020241 
L 410.395547 56.563072 
L 418.145547 56.12341 
L 425.895547 55.700268 
L 433.645547 55.292731 
L 441.395547 54.899953 
L 449.145547 54.521146 
L 456.895547 54.155577 
L 464.645547 53.802565 
L 472.395547 53.461473 
L 480.145547 53.131709 
L 487.895547 52.812716 
L 495.645547 52.503976 
L 503.395547 52.205002 
L 511.145547 51.915338 
L 518.895547 51.634555 
L 526.645547 51.362253 
L 534.395547 51.098051 
L 542.145547 50.841594 
L 549.895547 50.592547 
L 557.645547 50.350592 
L 565.395547 50.115432 
L 573.145547 49.886783 
L 573.145547 49.252956 
L 573.145547 49.252956 
L 565.395547 49.473231 
L 557.645547 49.699795 
L 549.895547 49.932921 
L 542.145547 50.172899 
L 534.395547 50.420035 
L 526.645547 50.674655 
L 518.895547 50.937102 
L 511.145547 51.207745 
L 503.395547 51.486974 
L 495.645547 51.775202 
L 487.895547 52.072873 
L 480.145547 52.380458 
L 472.395547 52.698461 
L 464.645547 53.02742 
L 456.895547 53.367912 
L 449.145547 53.720554 
L 441.395547 54.086009 
L 433.645547 54.464986 
L 425.895547 54.858252 
L 418.145547 55.266629 
L 410.395547 55.691007 
L 402.645547 56.132343 
L 394.895547 56.591676 
L 387.145547 57.07013 
L 379.395547 57.568923 
L 371.645547 58.089381 
L 363.895547 58.632947 
L 356.145547 59.201195 
L 348.395547 59.795845 
L 340.645547 60.418783 
L 332.895547 61.072074 
L 325.145547 61.757994 
L 317.395547 62.47905 
L 309.645547 63.238014 
L 301.895547 64.037955 
L 294.145547 64.882285 
L 286.395547 65.774806 
L 278.645547 66.719764 
L 270.895547 67.721923 
L 263.145547 68.786638 
L 255.395547 69.919959 
L 247.645547 71.128738 
L 239.895547 72.420773 
L 232.145547 73.804977 
L 224.395547 75.291579 
L 216.645547 76.892385 
L 208.895547 78.621086 
L 201.145547 80.493655 
L 193.395547 82.528844 
L 185.645547 84.748812 
L 177.895547 87.17994 
L 170.145547 89.853891 
L 162.395547 92.808996 
L 154.645547 96.092116 
L 146.895547 99.761164 
L 139.145547 103.888568 
L 131.395547 108.566156 
L 123.645547 113.912147 
L 115.895547 120.081456 
L 108.145547 127.281323 
L 100.395547 135.795952 
L 92.645547 146.027456 
L 84.895547 158.570516 
L 77.145547 174.391112 
z
" clip-path="url(#p16641a1d42)" style="fill: #88ae1d; fill-opacity: 0.3; stroke: #88ae1d; stroke-opacity: 0.3; stroke-width: 1.5"/>
   </g>
   <g id="FillBetweenPolyCollection_2">
    <path d="M 77.145547 184.287377 
L 77.145547 184.415751 
L 84.895547 184.579839 
L 92.645547 184.844062 
L 100.395547 184.489463 
L 108.145547 181.419705 
L 115.895547 172.26853 
L 123.645547 154.974061 
L 131.395547 132.110062 
L 139.145547 109.308251 
L 146.895547 90.522056 
L 154.645547 76.609247 
L 162.395547 66.769636 
L 170.145547 59.877505 
L 177.895547 55.001978 
L 185.645547 51.485819 
L 193.395547 48.890798 
L 201.145547 46.929326 
L 208.895547 45.41206 
L 216.645547 44.21277 
L 224.395547 43.245879 
L 232.145547 42.452277 
L 239.895547 41.790355 
L 247.645547 41.230267 
L 255.395547 40.750223 
L 263.145547 40.334036 
L 270.895547 39.969495 
L 278.645547 39.647248 
L 286.395547 39.360035 
L 294.145547 39.102153 
L 301.895547 38.869066 
L 309.645547 38.657129 
L 317.395547 38.463387 
L 325.145547 38.285419 
L 332.895547 38.121223 
L 340.645547 37.969136 
L 348.395547 37.827759 
L 356.145547 37.695912 
L 363.895547 37.572589 
L 371.645547 37.456928 
L 379.395547 37.348186 
L 387.145547 37.245718 
L 394.895547 37.148962 
L 402.645547 37.057424 
L 410.395547 36.970669 
L 418.145547 36.888312 
L 425.895547 36.810011 
L 433.645547 36.735459 
L 441.395547 36.664383 
L 449.145547 36.596534 
L 456.895547 36.531691 
L 464.645547 36.46965 
L 472.395547 36.410229 
L 480.145547 36.35326 
L 487.895547 36.29859 
L 495.645547 36.24608 
L 503.395547 36.195602 
L 511.145547 36.147036 
L 518.895547 36.100274 
L 526.645547 36.055217 
L 534.395547 36.01177 
L 542.145547 35.969847 
L 549.895547 35.929369 
L 557.645547 35.890262 
L 565.395547 35.852455 
L 573.145547 35.815884 
L 573.145547 35.538223 
L 573.145547 35.538223 
L 565.395547 35.569838 
L 557.645547 35.6025 
L 549.895547 35.636262 
L 542.145547 35.671181 
L 534.395547 35.707316 
L 526.645547 35.744731 
L 518.895547 35.783497 
L 511.145547 35.823685 
L 503.395547 35.865376 
L 495.645547 35.908654 
L 487.895547 35.953611 
L 480.145547 36.000345 
L 472.395547 36.048964 
L 464.645547 36.09958 
L 456.895547 36.152319 
L 449.145547 36.207313 
L 441.395547 36.264709 
L 433.645547 36.324663 
L 425.895547 36.387348 
L 418.145547 36.452947 
L 410.395547 36.521664 
L 402.645547 36.59372 
L 394.895547 36.669354 
L 387.145547 36.748831 
L 379.395547 36.832437 
L 371.645547 36.920488 
L 363.895547 37.013329 
L 356.145547 37.111339 
L 348.395547 37.214938 
L 340.645547 37.324584 
L 332.895547 37.440788 
L 325.145547 37.564112 
L 317.395547 37.695184 
L 309.645547 37.834706 
L 301.895547 37.983468 
L 294.145547 38.142367 
L 286.395547 38.312435 
L 278.645547 38.494874 
L 270.895547 38.691115 
L 263.145547 38.902895 
L 255.395547 39.132382 
L 247.645547 39.382362 
L 239.895547 39.656539 
L 232.145547 39.960014 
L 224.395547 40.30007 
L 216.645547 40.687506 
L 208.895547 41.138921 
L 201.145547 41.680753 
L 193.395547 42.356538 
L 185.645547 43.240235 
L 177.895547 44.461028 
L 170.145547 46.249643 
L 162.395547 49.023164 
L 154.645547 53.529208 
L 146.895547 61.040333 
L 139.145547 73.421281 
L 131.395547 92.440333 
L 123.645547 117.526263 
L 115.895547 143.631729 
L 108.145547 164.022344 
L 100.395547 176.036208 
L 92.645547 181.585602 
L 84.895547 183.661569 
L 77.145547 184.287377 
z
" clip-path="url(#p16641a1d42)" style="fill: #cd3e78; fill-opacity: 0.3; stroke: #cd3e78; stroke-opacity: 0.3; stroke-width: 1.5"/>
   </g>
   <g id="line2d_10">
    <path d="M 77.145547 175.126947 
L 84.895547 159.641747 
L 92.645547 147.211012 
L 100.395547 137.012132 
L 108.145547 128.493548 
L 115.895547 121.271613 
L 123.645547 115.071213 
L 131.395547 109.689922 
L 139.145547 104.975483 
L 146.895547 100.811173 
L 154.645547 97.106009 
L 162.395547 93.788022 
L 170.145547 90.799538 
L 177.895547 88.093794 
L 185.645547 85.632479 
L 193.395547 83.383901 
L 201.145547 81.321624 
L 208.895547 79.423413 
L 216.645547 77.670441 
L 224.395547 76.046651 
L 232.145547 74.538272 
L 239.895547 73.133421 
L 247.645547 71.821794 
L 255.395547 70.594409 
L 263.145547 69.443403 
L 270.895547 68.361862 
L 278.645547 67.343681 
L 286.395547 66.383451 
L 294.145547 65.476361 
L 301.895547 64.61812 
L 309.645547 63.804883 
L 317.395547 63.033203 
L 325.145547 62.299973 
L 332.895547 61.602389 
L 340.645547 60.937913 
L 348.395547 60.304243 
L 356.145547 59.699286 
L 363.895547 59.121132 
L 371.645547 58.56804 
L 371.938047 58.548051 
" clip-path="url(#p16641a1d42)" style="fill: none; stroke: #88ae1d; stroke-width: 2.25; stroke-linecap: round"/>
   </g>
   <g id="line2d_11">
    <path d="M 77.145547 184.351564 
L 84.895547 184.120704 
L 92.645547 183.214832 
L 100.395547 180.262835 
L 108.145547 172.721025 
L 115.895547 157.95013 
L 123.645547 136.250162 
L 131.395547 112.275198 
L 139.145547 91.364766 
L 146.895547 75.781195 
L 154.645547 65.069228 
L 162.395547 57.8964 
L 170.145547 53.063574 
L 177.895547 49.731503 
L 185.645547 47.363027 
L 193.395547 45.623668 
L 201.145547 44.305039 
L 208.895547 43.27549 
L 216.645547 42.450138 
L 224.395547 41.772975 
L 232.145547 41.206146 
L 239.895547 40.723447 
L 247.645547 40.306314 
L 255.395547 39.941302 
L 263.145547 39.618466 
L 270.895547 39.330305 
L 278.645547 39.071061 
L 286.395547 38.836235 
L 294.145547 38.62226 
L 301.895547 38.426267 
L 309.645547 38.245918 
L 317.395547 38.079286 
L 325.145547 37.924765 
L 332.895547 37.781006 
L 340.645547 37.64686 
L 348.395547 37.521349 
L 356.145547 37.403626 
L 363.895547 37.292959 
L 371.645547 37.188708 
L 371.938047 37.184994 
" clip-path="url(#p16641a1d42)" style="fill: none; stroke: #cd3e78; stroke-width: 2.25; stroke-linecap: round"/>
   </g>
   <g id="line2d_12">
    <path d="M 77.145547 175.126982 
L 84.895547 159.641792 
L 92.645547 147.211053 
L 100.395547 137.012163 
L 108.145547 128.493569 
L 115.895547 121.271626 
L 123.645547 115.071219 
L 131.395547 109.689922 
L 139.145547 104.975479 
L 146.895547 100.811166 
L 154.645547 97.105999 
L 162.395547 93.78801 
L 170.145547 90.799524 
L 177.895547 88.093779 
L 185.645547 85.632463 
L 193.395547 83.383886 
L 201.145547 81.321608 
L 208.895547 79.423398 
L 216.645547 77.670425 
L 224.395547 76.046636 
L 232.145547 74.538257 
L 239.895547 73.133407 
L 247.645547 71.821781 
L 255.395547 70.594397 
L 263.145547 69.443392 
L 270.895547 68.361852 
L 278.645547 67.343672 
L 286.395547 66.383443 
L 294.145547 65.476354 
L 301.895547 64.618113 
L 309.645547 63.804878 
L 317.395547 63.033199 
L 325.145547 62.299969 
L 332.895547 61.602386 
L 340.645547 60.937912 
L 348.395547 60.304243 
L 356.145547 59.699286 
L 363.895547 59.121134 
L 371.645547 58.568042 
L 371.938047 58.548053 
" clip-path="url(#p16641a1d42)" style="fill: none; stroke-dasharray: 2.25,3.7125; stroke-dashoffset: 0; stroke: #749a09; stroke-width: 2.25"/>
   </g>
   <g id="line2d_13">
    <path d="M 77.145547 184.385478 
L 84.895547 184.097292 
L 92.645547 182.33916 
L 100.395547 177.194712 
L 108.145547 166.880948 
L 115.895547 151.072828 
L 123.645547 131.627661 
L 131.395547 111.656705 
L 139.145547 93.774276 
L 146.895547 79.197281 
L 154.645547 67.976556 
L 162.395547 59.597519 
L 170.145547 53.417635 
L 177.895547 48.865636 
L 185.645547 45.495309 
L 193.395547 42.978059 
L 201.145547 41.078193 
L 208.895547 39.62823 
L 216.645547 38.509166 
L 224.395547 37.636007 
L 232.145547 36.947562 
L 239.895547 36.399362 
L 247.645547 35.958754 
L 255.395547 35.60152 
L 263.145547 35.309509 
L 270.895547 35.068985 
L 278.645547 34.869451 
L 286.395547 34.702813 
L 294.145547 34.562775 
L 301.895547 34.444399 
L 309.645547 34.343783 
L 317.395547 34.257819 
L 325.145547 34.184015 
L 332.895547 34.120361 
L 340.645547 34.065223 
L 348.395547 34.017265 
L 356.145547 33.975392 
L 363.895547 33.938697 
L 371.645547 33.906428 
L 371.938047 33.905353 
" clip-path="url(#p16641a1d42)" style="fill: none; stroke-dasharray: 2.25,3.7125; stroke-dashoffset: 0; stroke: #b92a63; stroke-width: 2.25"/>
   </g>
   <g id="patch_3">
    <path d="M 73.270547 192.404062 
L 73.270547 26.084062 
" style="fill: none; stroke: #262626; stroke-width: 1.875; stroke-linejoin: miter; stroke-linecap: square"/>
   </g>
   <g id="patch_4">
    <path d="M 352.270547 192.404062 
L 352.270547 26.084062 
" style="fill: none; stroke: #262626; stroke-width: 1.875; stroke-linejoin: miter; stroke-linecap: square"/>
   </g>
   <g id="patch_5">
    <path d="M 73.270547 192.404063 
L 352.270547 192.404063 
" style="fill: none; stroke: #262626; stroke-width: 1.875; stroke-linejoin: miter; stroke-linecap: square"/>
   </g>
   <g id="patch_6">
    <path d="M 73.270547 26.084063 
L 352.270547 26.084063 
" style="fill: none; stroke: #262626; stroke-width: 1.875; stroke-linejoin: miter; stroke-linecap: square"/>
   </g>
   <g id="text_12">
    <!-- Binding site region -->
    <g style="fill: #262626" transform="translate(138.727266 20.084063) scale(0.18 -0.18)">
     <defs>
      <path id="ArialMT-67" d="M 319 -275 
L 866 -356 
Q 900 -609 1056 -725 
Q 1266 -881 1628 -881 
Q 2019 -881 2231 -725 
Q 2444 -569 2519 -288 
Q 2563 -116 2559 434 
Q 2191 0 1641 0 
Q 956 0 581 494 
Q 206 988 206 1678 
Q 206 2153 378 2554 
Q 550 2956 876 3175 
Q 1203 3394 1644 3394 
Q 2231 3394 2613 2919 
L 2613 3319 
L 3131 3319 
L 3131 450 
Q 3131 -325 2973 -648 
Q 2816 -972 2473 -1159 
Q 2131 -1347 1631 -1347 
Q 1038 -1347 672 -1080 
Q 306 -813 319 -275 
z
M 784 1719 
Q 784 1066 1043 766 
Q 1303 466 1694 466 
Q 2081 466 2343 764 
Q 2606 1063 2606 1700 
Q 2606 2309 2336 2618 
Q 2066 2928 1684 2928 
Q 1309 2928 1046 2623 
Q 784 2319 784 1719 
z
" transform="scale(0.015625)"/>
      <path id="ArialMT-73" d="M 197 991 
L 753 1078 
Q 800 744 1014 566 
Q 1228 388 1613 388 
Q 2000 388 2187 545 
Q 2375 703 2375 916 
Q 2375 1106 2209 1216 
Q 2094 1291 1634 1406 
Q 1016 1563 777 1677 
Q 538 1791 414 1992 
Q 291 2194 291 2438 
Q 291 2659 392 2848 
Q 494 3038 669 3163 
Q 800 3259 1026 3326 
Q 1253 3394 1513 3394 
Q 1903 3394 2198 3281 
Q 2494 3169 2634 2976 
Q 2775 2784 2828 2463 
L 2278 2388 
Q 2241 2644 2061 2787 
Q 1881 2931 1553 2931 
Q 1166 2931 1000 2803 
Q 834 2675 834 2503 
Q 834 2394 903 2306 
Q 972 2216 1119 2156 
Q 1203 2125 1616 2013 
Q 2213 1853 2448 1751 
Q 2684 1650 2818 1456 
Q 2953 1263 2953 975 
Q 2953 694 2789 445 
Q 2625 197 2315 61 
Q 2006 -75 1616 -75 
Q 969 -75 630 194 
Q 291 463 197 991 
z
" transform="scale(0.015625)"/>
     </defs>
     <use xlink:href="#ArialMT-42"/>
     <use xlink:href="#ArialMT-69" transform="translate(66.699219 0)"/>
     <use xlink:href="#ArialMT-6e" transform="translate(88.916016 0)"/>
     <use xlink:href="#ArialMT-64" transform="translate(144.53125 0)"/>
     <use xlink:href="#ArialMT-69" transform="translate(200.146484 0)"/>
     <use xlink:href="#ArialMT-6e" transform="translate(222.363281 0)"/>
     <use xlink:href="#ArialMT-67" transform="translate(277.978516 0)"/>
     <use xlink:href="#ArialMT-20" transform="translate(333.59375 0)"/>
     <use xlink:href="#ArialMT-73" transform="translate(361.376953 0)"/>
     <use xlink:href="#ArialMT-69" transform="translate(411.376953 0)"/>
     <use xlink:href="#ArialMT-74" transform="translate(433.59375 0)"/>
     <use xlink:href="#ArialMT-65" transform="translate(461.376953 0)"/>
     <use xlink:href="#ArialMT-20" transform="translate(516.992188 0)"/>
     <use xlink:href="#ArialMT-72" transform="translate(544.775391 0)"/>
     <use xlink:href="#ArialMT-65" transform="translate(578.076172 0)"/>
     <use xlink:href="#ArialMT-67" transform="translate(633.691406 0)"/>
     <use xlink:href="#ArialMT-69" transform="translate(689.306641 0)"/>
     <use xlink:href="#ArialMT-6f" transform="translate(711.523438 0)"/>
     <use xlink:href="#ArialMT-6e" transform="translate(767.138672 0)"/>
    </g>
   </g>
   <g id="legend_1">
    <g id="patch_7">
     <path d="M 219.610547 184.154062 
L 340.720547 184.154062 
Q 344.020547 184.154062 344.020547 180.854062 
L 344.020547 133.994062 
Q 344.020547 130.694062 340.720547 130.694062 
L 219.610547 130.694062 
Q 216.310547 130.694062 216.310547 133.994062 
L 216.310547 180.854062 
Q 216.310547 184.154062 219.610547 184.154062 
z
" style="fill: #ffffff; opacity: 0.8; stroke: #cccccc; stroke-width: 1.5; stroke-linejoin: miter"/>
    </g>
    <g id="line2d_14">
     <path d="M 222.910547 144.059062 
L 239.410547 144.059062 
L 255.910547 144.059062 
" style="fill: none; stroke: #88ae1d; stroke-width: 2.25; stroke-linecap: round"/>
    </g>
    <g id="text_13">
     <!-- $J=0$ $k_BT$ -->
     <g style="fill: #262626" transform="translate(269.110547 149.834062) scale(0.165 -0.165)">
      <defs>
       <path id="DejaVuSans-Oblique-4a" d="M 1069 4666 
L 1703 4666 
L 856 325 
Q 691 -522 298 -901 
Q -94 -1281 -800 -1281 
L -1050 -1281 
L -947 -750 
L -750 -750 
Q -328 -750 -109 -509 
Q 109 -269 225 325 
L 1069 4666 
z
" transform="scale(0.015625)"/>
       <path id="DejaVuSans-3d" d="M 678 2906 
L 4684 2906 
L 4684 2381 
L 678 2381 
L 678 2906 
z
M 678 1631 
L 4684 1631 
L 4684 1100 
L 678 1100 
L 678 1631 
z
" transform="scale(0.015625)"/>
       <path id="DejaVuSans-30" d="M 2034 4250 
Q 1547 4250 1301 3770 
Q 1056 3291 1056 2328 
Q 1056 1369 1301 889 
Q 1547 409 2034 409 
Q 2525 409 2770 889 
Q 3016 1369 3016 2328 
Q 3016 3291 2770 3770 
Q 2525 4250 2034 4250 
z
M 2034 4750 
Q 2819 4750 3233 4129 
Q 3647 3509 3647 2328 
Q 3647 1150 3233 529 
Q 2819 -91 2034 -91 
Q 1250 -91 836 529 
Q 422 1150 422 2328 
Q 422 3509 836 4129 
Q 1250 4750 2034 4750 
z
" transform="scale(0.015625)"/>
       <path id="DejaVuSans-Oblique-6b" d="M 1172 4863 
L 1747 4863 
L 1197 2028 
L 3169 3500 
L 3916 3500 
L 1716 1825 
L 3322 0 
L 2625 0 
L 1131 1709 
L 800 0 
L 225 0 
L 1172 4863 
z
" transform="scale(0.015625)"/>
       <path id="DejaVuSans-Oblique-42" d="M 1081 4666 
L 2694 4666 
Q 3350 4666 3675 4422 
Q 4000 4178 4000 3688 
Q 4000 3238 3720 2911 
Q 3441 2584 2988 2516 
Q 3375 2428 3569 2181 
Q 3763 1934 3763 1522 
Q 3763 819 3242 409 
Q 2722 0 1819 0 
L 172 0 
L 1081 4666 
z
M 1234 2228 
L 903 519 
L 1919 519 
Q 2491 519 2800 781 
Q 3109 1044 3109 1522 
Q 3109 1891 2904 2059 
Q 2700 2228 2247 2228 
L 1234 2228 
z
M 1606 4147 
L 1331 2741 
L 2272 2741 
Q 2775 2741 3058 2959 
Q 3341 3178 3341 3566 
Q 3341 3869 3150 4008 
Q 2959 4147 2541 4147 
L 1606 4147 
z
" transform="scale(0.015625)"/>
       <path id="DejaVuSans-Oblique-54" d="M 378 4666 
L 4325 4666 
L 4225 4134 
L 2559 4134 
L 1759 0 
L 1125 0 
L 1925 4134 
L 275 4134 
L 378 4666 
z
" transform="scale(0.015625)"/>
      </defs>
      <use xlink:href="#DejaVuSans-Oblique-4a" transform="translate(0 0.015625)"/>
      <use xlink:href="#DejaVuSans-3d" transform="translate(48.974609 0.015625)"/>
      <use xlink:href="#DejaVuSans-30" transform="translate(152.246094 0.015625)"/>
      <use xlink:href="#ArialMT-20" transform="translate(215.869141 0.015625)"/>
      <use xlink:href="#DejaVuSans-Oblique-6b" transform="translate(243.652344 0.015625)"/>
      <use xlink:href="#DejaVuSans-Oblique-42" transform="translate(301.5625 -16.390625) scale(0.7)"/>
      <use xlink:href="#DejaVuSans-Oblique-54" transform="translate(352.319336 0.015625)"/>
     </g>
    </g>
    <g id="line2d_15">
     <path d="M 222.910547 168.314062 
L 239.410547 168.314062 
L 255.910547 168.314062 
" style="fill: none; stroke: #cd3e78; stroke-width: 2.25; stroke-linecap: round"/>
    </g>
    <g id="text_14">
     <!-- $J=7$ $k_BT$ -->
     <g style="fill: #262626" transform="translate(269.110547 174.089062) scale(0.165 -0.165)">
      <defs>
       <path id="DejaVuSans-37" d="M 525 4666 
L 3525 4666 
L 3525 4397 
L 1831 0 
L 1172 0 
L 2766 4134 
L 525 4134 
L 525 4666 
z
" transform="scale(0.015625)"/>
      </defs>
      <use xlink:href="#DejaVuSans-Oblique-4a" transform="translate(0 0.015625)"/>
      <use xlink:href="#DejaVuSans-3d" transform="translate(48.974609 0.015625)"/>
      <use xlink:href="#DejaVuSans-37" transform="translate(152.246094 0.015625)"/>
      <use xlink:href="#ArialMT-20" transform="translate(215.869141 0.015625)"/>
      <use xlink:href="#DejaVuSans-Oblique-6b" transform="translate(243.652344 0.015625)"/>
      <use xlink:href="#DejaVuSans-Oblique-42" transform="translate(301.5625 -16.390625) scale(0.7)"/>
      <use xlink:href="#DejaVuSans-Oblique-54" transform="translate(352.319336 0.015625)"/>
     </g>
    </g>
   </g>
  </g>
 </g>
 <defs>
  <clipPath id="p16641a1d42">
   <rect x="73.270547" y="26.084063" width="279" height="166.32"/>
  </clipPath>
 </defs>
</svg>
