<?xml version="1.0" encoding="utf-8" standalone="no"?>
<!DOCTYPE svg PUBLIC "-//W3C//DTD SVG 1.1//EN"
  "http://www.w3.org/Graphics/SVG/1.1/DTD/svg11.dtd">
<svg xmlns:xlink="http://www.w3.org/1999/xlink" width="1072.3675pt" height="298.591328pt" viewBox="0 0 1072.3675 298.591328" xmlns="http://www.w3.org/2000/svg" version="1.1">
 <metadata>
  <rdf:RDF xmlns:dc="http://purl.org/dc/elements/1.1/" xmlns:cc="http://creativecommons.org/ns#" xmlns:rdf="http://www.w3.org/1999/02/22-rdf-syntax-ns#">
   <cc:Work>
    <dc:type rdf:resource="http://purl.org/dc/dcmitype/StillImage"/>
    <dc:date>2025-11-19T19:37:41.808527</dc:date>
    <dc:format>image/svg+xml</dc:format>
    <dc:creator>
     <cc:Agent>
      <dc:title>Matplotlib v3.10.7, https://matplotlib.org/</dc:title>
     </cc:Agent>
    </dc:creator>
   </cc:Work>
  </rdf:RDF>
 </metadata>
 <defs>
  <style type="text/css">*{stroke-linejoin: round; stroke-linecap: butt}</style>
 </defs>
 <g id="figure_1">
  <g id="patch_1">
   <path d="M 0 298.591328 
L 1072.3675 298.591328 
L 1072.3675 0 
L 0 0 
z
" style="fill: #ffffff"/>
  </g>
  <g id="axes_1">
   <g id="patch_2">
    <path d="M 64.095 243.34 
L 335.62 243.34 
L 335.62 26.88 
L 64.095 26.88 
z
" style="fill: #ffffff"/>
   </g>
   <g id="matplotlib.axis_1">
    <g id="xtick_1">
     <g id="line2d_1">
      <defs>
       <path id="m048a05cc65" d="M 0 0 
L 0 9 
" style="stroke: #262626; stroke-width: 1.875"/>
      </defs>
      <g>
       <use xlink:href="#m048a05cc65" x="64.095" y="243.34" style="fill: #262626; stroke: #262626; stroke-width: 1.875"/>
      </g>
     </g>
     <g id="text_1">
      <!-- 0.0 -->
      <g style="fill: #262626" transform="translate(52.6275 267.650391) scale(0.165 -0.165)">
       <defs>
        <path id="ArialMT-30" d="M 266 2259 
Q 266 3072 433 3567 
Q 600 4063 929 4331 
Q 1259 4600 1759 4600 
Q 2128 4600 2406 4451 
Q 2684 4303 2865 4023 
Q 3047 3744 3150 3342 
Q 3253 2941 3253 2259 
Q 3253 1453 3087 958 
Q 2922 463 2592 192 
Q 2263 -78 1759 -78 
Q 1097 -78 719 397 
Q 266 969 266 2259 
z
M 844 2259 
Q 844 1131 1108 757 
Q 1372 384 1759 384 
Q 2147 384 2411 759 
Q 2675 1134 2675 2259 
Q 2675 3391 2411 3762 
Q 2147 4134 1753 4134 
Q 1366 4134 1134 3806 
Q 844 3388 844 2259 
z
" transform="scale(0.015625)"/>
        <path id="ArialMT-2e" d="M 581 0 
L 581 641 
L 1222 641 
L 1222 0 
L 581 0 
z
" transform="scale(0.015625)"/>
       </defs>
       <use xlink:href="#ArialMT-30"/>
       <use xlink:href="#ArialMT-2e" transform="translate(55.615234 0)"/>
       <use xlink:href="#ArialMT-30" transform="translate(83.398438 0)"/>
      </g>
     </g>
    </g>
    <g id="xtick_2">
     <g id="line2d_2">
      <g>
       <use xlink:href="#m048a05cc65" x="154.603333" y="243.34" style="fill: #262626; stroke: #262626; stroke-width: 1.875"/>
      </g>
     </g>
     <g id="text_2">
      <!-- 0.2 -->
      <g style="fill: #262626" transform="translate(143.135833 267.650391) scale(0.165 -0.165)">
       <defs>
        <path id="ArialMT-32" d="M 3222 541 
L 3222 0 
L 194 0 
Q 188 203 259 391 
Q 375 700 629 1000 
Q 884 1300 1366 1694 
Q 2113 2306 2375 2664 
Q 2638 3022 2638 3341 
Q 2638 3675 2398 3904 
Q 2159 4134 1775 4134 
Q 1369 4134 1125 3890 
Q 881 3647 878 3216 
L 300 3275 
Q 359 3922 746 4261 
Q 1134 4600 1788 4600 
Q 2447 4600 2831 4234 
Q 3216 3869 3216 3328 
Q 3216 3053 3103 2787 
Q 2991 2522 2730 2228 
Q 2469 1934 1863 1422 
Q 1356 997 1212 845 
Q 1069 694 975 541 
L 3222 541 
z
" transform="scale(0.015625)"/>
       </defs>
       <use xlink:href="#ArialMT-30"/>
       <use xlink:href="#ArialMT-2e" transform="translate(55.615234 0)"/>
       <use xlink:href="#ArialMT-32" transform="translate(83.398438 0)"/>
      </g>
     </g>
    </g>
    <g id="xtick_3">
     <g id="line2d_3">
      <g>
       <use xlink:href="#m048a05cc65" x="245.111667" y="243.34" style="fill: #262626; stroke: #262626; stroke-width: 1.875"/>
      </g>
     </g>
     <g id="text_3">
      <!-- 0.4 -->
      <g style="fill: #262626" transform="translate(233.644167 267.650391) scale(0.165 -0.165)">
       <defs>
        <path id="ArialMT-34" d="M 2069 0 
L 2069 1097 
L 81 1097 
L 81 1613 
L 2172 4581 
L 2631 4581 
L 2631 1613 
L 3250 1613 
L 3250 1097 
L 2631 1097 
L 2631 0 
L 2069 0 
z
M 2069 1613 
L 2069 3678 
L 634 1613 
L 2069 1613 
z
" transform="scale(0.015625)"/>
       </defs>
       <use xlink:href="#ArialMT-30"/>
       <use xlink:href="#ArialMT-2e" transform="translate(55.615234 0)"/>
       <use xlink:href="#ArialMT-34" transform="translate(83.398438 0)"/>
      </g>
     </g>
    </g>
    <g id="xtick_4">
     <g id="line2d_4">
      <g>
       <use xlink:href="#m048a05cc65" x="335.62" y="243.34" style="fill: #262626; stroke: #262626; stroke-width: 1.875"/>
      </g>
     </g>
     <g id="text_4">
      <!-- 0.6 -->
      <g style="fill: #262626" transform="translate(324.1525 267.650391) scale(0.165 -0.165)">
       <defs>
        <path id="ArialMT-36" d="M 3184 3459 
L 2625 3416 
Q 2550 3747 2413 3897 
Q 2184 4138 1850 4138 
Q 1581 4138 1378 3988 
Q 1113 3794 959 3422 
Q 806 3050 800 2363 
Q 1003 2672 1297 2822 
Q 1591 2972 1913 2972 
Q 2475 2972 2870 2558 
Q 3266 2144 3266 1488 
Q 3266 1056 3080 686 
Q 2894 316 2569 119 
Q 2244 -78 1831 -78 
Q 1128 -78 684 439 
Q 241 956 241 2144 
Q 241 3472 731 4075 
Q 1159 4600 1884 4600 
Q 2425 4600 2770 4297 
Q 3116 3994 3184 3459 
z
M 888 1484 
Q 888 1194 1011 928 
Q 1134 663 1356 523 
Q 1578 384 1822 384 
Q 2178 384 2434 671 
Q 2691 959 2691 1453 
Q 2691 1928 2437 2201 
Q 2184 2475 1800 2475 
Q 1419 2475 1153 2201 
Q 888 1928 888 1484 
z
" transform="scale(0.015625)"/>
       </defs>
       <use xlink:href="#ArialMT-30"/>
       <use xlink:href="#ArialMT-2e" transform="translate(55.615234 0)"/>
       <use xlink:href="#ArialMT-36" transform="translate(83.398438 0)"/>
      </g>
     </g>
    </g>
    <g id="text_5">
     <!-- Bicoid concentration $s$ -->
     <g style="fill: #262626" transform="translate(111.5675 287.813828) scale(0.18 -0.18)">
      <defs>
       <path id="ArialMT-42" d="M 469 0 
L 469 4581 
L 2188 4581 
Q 2713 4581 3030 4442 
Q 3347 4303 3526 4014 
Q 3706 3725 3706 3409 
Q 3706 3116 3547 2856 
Q 3388 2597 3066 2438 
Q 3481 2316 3704 2022 
Q 3928 1728 3928 1328 
Q 3928 1006 3792 729 
Q 3656 453 3456 303 
Q 3256 153 2954 76 
Q 2653 0 2216 0 
L 469 0 
z
M 1075 2656 
L 2066 2656 
Q 2469 2656 2644 2709 
Q 2875 2778 2992 2937 
Q 3109 3097 3109 3338 
Q 3109 3566 3000 3739 
Q 2891 3913 2687 3977 
Q 2484 4041 1991 4041 
L 1075 4041 
L 1075 2656 
z
M 1075 541 
L 2216 541 
Q 2509 541 2628 563 
Q 2838 600 2978 687 
Q 3119 775 3209 942 
Q 3300 1109 3300 1328 
Q 3300 1584 3169 1773 
Q 3038 1963 2805 2039 
Q 2572 2116 2134 2116 
L 1075 2116 
L 1075 541 
z
" transform="scale(0.015625)"/>
       <path id="ArialMT-69" d="M 425 3934 
L 425 4581 
L 988 4581 
L 988 3934 
L 425 3934 
z
M 425 0 
L 425 3319 
L 988 3319 
L 988 0 
L 425 0 
z
" transform="scale(0.015625)"/>
       <path id="ArialMT-63" d="M 2588 1216 
L 3141 1144 
Q 3050 572 2676 248 
Q 2303 -75 1759 -75 
Q 1078 -75 664 370 
Q 250 816 250 1647 
Q 250 2184 428 2587 
Q 606 2991 970 3192 
Q 1334 3394 1763 3394 
Q 2303 3394 2647 3120 
Q 2991 2847 3088 2344 
L 2541 2259 
Q 2463 2594 2264 2762 
Q 2066 2931 1784 2931 
Q 1359 2931 1093 2626 
Q 828 2322 828 1663 
Q 828 994 1084 691 
Q 1341 388 1753 388 
Q 2084 388 2306 591 
Q 2528 794 2588 1216 
z
" transform="scale(0.015625)"/>
       <path id="ArialMT-6f" d="M 213 1659 
Q 213 2581 725 3025 
Q 1153 3394 1769 3394 
Q 2453 3394 2887 2945 
Q 3322 2497 3322 1706 
Q 3322 1066 3130 698 
Q 2938 331 2570 128 
Q 2203 -75 1769 -75 
Q 1072 -75 642 372 
Q 213 819 213 1659 
z
M 791 1659 
Q 791 1022 1069 705 
Q 1347 388 1769 388 
Q 2188 388 2466 706 
Q 2744 1025 2744 1678 
Q 2744 2294 2464 2611 
Q 2184 2928 1769 2928 
Q 1347 2928 1069 2612 
Q 791 2297 791 1659 
z
" transform="scale(0.015625)"/>
       <path id="ArialMT-64" d="M 2575 0 
L 2575 419 
Q 2259 -75 1647 -75 
Q 1250 -75 917 144 
Q 584 363 401 755 
Q 219 1147 219 1656 
Q 219 2153 384 2558 
Q 550 2963 881 3178 
Q 1213 3394 1622 3394 
Q 1922 3394 2156 3267 
Q 2391 3141 2538 2938 
L 2538 4581 
L 3097 4581 
L 3097 0 
L 2575 0 
z
M 797 1656 
Q 797 1019 1065 703 
Q 1334 388 1700 388 
Q 2069 388 2326 689 
Q 2584 991 2584 1609 
Q 2584 2291 2321 2609 
Q 2059 2928 1675 2928 
Q 1300 2928 1048 2622 
Q 797 2316 797 1656 
z
" transform="scale(0.015625)"/>
       <path id="ArialMT-20" transform="scale(0.015625)"/>
       <path id="ArialMT-6e" d="M 422 0 
L 422 3319 
L 928 3319 
L 928 2847 
Q 1294 3394 1984 3394 
Q 2284 3394 2536 3286 
Q 2788 3178 2913 3003 
Q 3038 2828 3088 2588 
Q 3119 2431 3119 2041 
L 3119 0 
L 2556 0 
L 2556 2019 
Q 2556 2363 2490 2533 
Q 2425 2703 2258 2804 
Q 2091 2906 1866 2906 
Q 1506 2906 1245 2678 
Q 984 2450 984 1813 
L 984 0 
L 422 0 
z
" transform="scale(0.015625)"/>
       <path id="ArialMT-65" d="M 2694 1069 
L 3275 997 
Q 3138 488 2766 206 
Q 2394 -75 1816 -75 
Q 1088 -75 661 373 
Q 234 822 234 1631 
Q 234 2469 665 2931 
Q 1097 3394 1784 3394 
Q 2450 3394 2872 2941 
Q 3294 2488 3294 1666 
Q 3294 1616 3291 1516 
L 816 1516 
Q 847 969 1125 678 
Q 1403 388 1819 388 
Q 2128 388 2347 550 
Q 2566 713 2694 1069 
z
M 847 1978 
L 2700 1978 
Q 2663 2397 2488 2606 
Q 2219 2931 1791 2931 
Q 1403 2931 1139 2672 
Q 875 2413 847 1978 
z
" transform="scale(0.015625)"/>
       <path id="ArialMT-74" d="M 1650 503 
L 1731 6 
Q 1494 -44 1306 -44 
Q 1000 -44 831 53 
Q 663 150 594 308 
Q 525 466 525 972 
L 525 2881 
L 113 2881 
L 113 3319 
L 525 3319 
L 525 4141 
L 1084 4478 
L 1084 3319 
L 1650 3319 
L 1650 2881 
L 1084 2881 
L 1084 941 
Q 1084 700 1114 631 
Q 1144 563 1211 522 
Q 1278 481 1403 481 
Q 1497 481 1650 503 
z
" transform="scale(0.015625)"/>
       <path id="ArialMT-72" d="M 416 0 
L 416 3319 
L 922 3319 
L 922 2816 
Q 1116 3169 1280 3281 
Q 1444 3394 1641 3394 
Q 1925 3394 2219 3213 
L 2025 2691 
Q 1819 2813 1613 2813 
Q 1428 2813 1281 2702 
Q 1134 2591 1072 2394 
Q 978 2094 978 1738 
L 978 0 
L 416 0 
z
" transform="scale(0.015625)"/>
       <path id="ArialMT-61" d="M 2588 409 
Q 2275 144 1986 34 
Q 1697 -75 1366 -75 
Q 819 -75 525 192 
Q 231 459 231 875 
Q 231 1119 342 1320 
Q 453 1522 633 1644 
Q 813 1766 1038 1828 
Q 1203 1872 1538 1913 
Q 2219 1994 2541 2106 
Q 2544 2222 2544 2253 
Q 2544 2597 2384 2738 
Q 2169 2928 1744 2928 
Q 1347 2928 1158 2789 
Q 969 2650 878 2297 
L 328 2372 
Q 403 2725 575 2942 
Q 747 3159 1072 3276 
Q 1397 3394 1825 3394 
Q 2250 3394 2515 3294 
Q 2781 3194 2906 3042 
Q 3031 2891 3081 2659 
Q 3109 2516 3109 2141 
L 3109 1391 
Q 3109 606 3145 398 
Q 3181 191 3288 0 
L 2700 0 
Q 2613 175 2588 409 
z
M 2541 1666 
Q 2234 1541 1622 1453 
Q 1275 1403 1131 1340 
Q 988 1278 909 1158 
Q 831 1038 831 891 
Q 831 666 1001 516 
Q 1172 366 1500 366 
Q 1825 366 2078 508 
Q 2331 650 2450 897 
Q 2541 1088 2541 1459 
L 2541 1666 
z
" transform="scale(0.015625)"/>
       <path id="DejaVuSans-Oblique-73" d="M 3200 3397 
L 3091 2853 
Q 2863 2978 2609 3040 
Q 2356 3103 2088 3103 
Q 1634 3103 1373 2948 
Q 1113 2794 1113 2528 
Q 1113 2219 1719 2053 
Q 1766 2041 1788 2034 
L 1972 1978 
Q 2547 1819 2739 1644 
Q 2931 1469 2931 1166 
Q 2931 609 2489 259 
Q 2047 -91 1331 -91 
Q 1053 -91 747 -37 
Q 441 16 72 128 
L 184 722 
Q 500 559 806 475 
Q 1113 391 1394 391 
Q 1816 391 2080 572 
Q 2344 753 2344 1031 
Q 2344 1331 1650 1516 
L 1591 1531 
L 1394 1581 
Q 956 1697 753 1886 
Q 550 2075 550 2369 
Q 550 2928 970 3256 
Q 1391 3584 2113 3584 
Q 2397 3584 2667 3537 
Q 2938 3491 3200 3397 
z
" transform="scale(0.015625)"/>
      </defs>
      <use xlink:href="#ArialMT-42" transform="translate(0 0.421875)"/>
      <use xlink:href="#ArialMT-69" transform="translate(66.699219 0.421875)"/>
      <use xlink:href="#ArialMT-63" transform="translate(88.916016 0.421875)"/>
      <use xlink:href="#ArialMT-6f" transform="translate(138.916016 0.421875)"/>
      <use xlink:href="#ArialMT-69" transform="translate(194.53125 0.421875)"/>
      <use xlink:href="#ArialMT-64" transform="translate(216.748047 0.421875)"/>
      <use xlink:href="#ArialMT-20" transform="translate(272.363281 0.421875)"/>
      <use xlink:href="#ArialMT-63" transform="translate(300.146484 0.421875)"/>
      <use xlink:href="#ArialMT-6f" transform="translate(350.146484 0.421875)"/>
      <use xlink:href="#ArialMT-6e" transform="translate(405.761719 0.421875)"/>
      <use xlink:href="#ArialMT-63" transform="translate(461.376953 0.421875)"/>
      <use xlink:href="#ArialMT-65" transform="translate(511.376953 0.421875)"/>
      <use xlink:href="#ArialMT-6e" transform="translate(566.992188 0.421875)"/>
      <use xlink:href="#ArialMT-74" transform="translate(622.607422 0.421875)"/>
      <use xlink:href="#ArialMT-72" transform="translate(650.390625 0.421875)"/>
      <use xlink:href="#ArialMT-61" transform="translate(683.691406 0.421875)"/>
      <use xlink:href="#ArialMT-74" transform="translate(739.306641 0.421875)"/>
      <use xlink:href="#ArialMT-69" transform="translate(767.089844 0.421875)"/>
      <use xlink:href="#ArialMT-6f" transform="translate(789.306641 0.421875)"/>
      <use xlink:href="#ArialMT-6e" transform="translate(844.921875 0.421875)"/>
      <use xlink:href="#ArialMT-20" transform="translate(900.537109 0.421875)"/>
      <use xlink:href="#DejaVuSans-Oblique-73" transform="translate(928.320312 0.421875)"/>
     </g>
    </g>
   </g>
   <g id="matplotlib.axis_2">
    <g id="ytick_1">
     <g id="line2d_5">
      <defs>
       <path id="m02c33c3e9d" d="M 0 0 
L -9 0 
" style="stroke: #262626; stroke-width: 1.875"/>
      </defs>
      <g>
       <use xlink:href="#m02c33c3e9d" x="64.095" y="199.881883" style="fill: #262626; stroke: #262626; stroke-width: 1.875"/>
      </g>
     </g>
     <g id="text_6">
      <!-- 0.2 -->
      <g style="fill: #262626" transform="translate(28.66 205.787078) scale(0.165 -0.165)">
       <use xlink:href="#ArialMT-30"/>
       <use xlink:href="#ArialMT-2e" transform="translate(55.615234 0)"/>
       <use xlink:href="#ArialMT-32" transform="translate(83.398438 0)"/>
      </g>
     </g>
    </g>
    <g id="ytick_2">
     <g id="line2d_6">
      <g>
       <use xlink:href="#m02c33c3e9d" x="64.095" y="153.009818" style="fill: #262626; stroke: #262626; stroke-width: 1.875"/>
      </g>
     </g>
     <g id="text_7">
      <!-- 0.4 -->
      <g style="fill: #262626" transform="translate(28.66 158.915013) scale(0.165 -0.165)">
       <use xlink:href="#ArialMT-30"/>
       <use xlink:href="#ArialMT-2e" transform="translate(55.615234 0)"/>
       <use xlink:href="#ArialMT-34" transform="translate(83.398438 0)"/>
      </g>
     </g>
    </g>
    <g id="ytick_3">
     <g id="line2d_7">
      <g>
       <use xlink:href="#m02c33c3e9d" x="64.095" y="106.137754" style="fill: #262626; stroke: #262626; stroke-width: 1.875"/>
      </g>
     </g>
     <g id="text_8">
      <!-- 0.6 -->
      <g style="fill: #262626" transform="translate(28.66 112.042949) scale(0.165 -0.165)">
       <use xlink:href="#ArialMT-30"/>
       <use xlink:href="#ArialMT-2e" transform="translate(55.615234 0)"/>
       <use xlink:href="#ArialMT-36" transform="translate(83.398438 0)"/>
      </g>
     </g>
    </g>
    <g id="ytick_4">
     <g id="line2d_8">
      <g>
       <use xlink:href="#m02c33c3e9d" x="64.095" y="59.265689" style="fill: #262626; stroke: #262626; stroke-width: 1.875"/>
      </g>
     </g>
     <g id="text_9">
      <!-- 0.8 -->
      <g style="fill: #262626" transform="translate(28.66 65.170885) scale(0.165 -0.165)">
       <defs>
        <path id="ArialMT-38" d="M 1131 2484 
Q 781 2613 612 2850 
Q 444 3088 444 3419 
Q 444 3919 803 4259 
Q 1163 4600 1759 4600 
Q 2359 4600 2725 4251 
Q 3091 3903 3091 3403 
Q 3091 3084 2923 2848 
Q 2756 2613 2416 2484 
Q 2838 2347 3058 2040 
Q 3278 1734 3278 1309 
Q 3278 722 2862 322 
Q 2447 -78 1769 -78 
Q 1091 -78 675 323 
Q 259 725 259 1325 
Q 259 1772 486 2073 
Q 713 2375 1131 2484 
z
M 1019 3438 
Q 1019 3113 1228 2906 
Q 1438 2700 1772 2700 
Q 2097 2700 2305 2904 
Q 2513 3109 2513 3406 
Q 2513 3716 2298 3927 
Q 2084 4138 1766 4138 
Q 1444 4138 1231 3931 
Q 1019 3725 1019 3438 
z
M 838 1322 
Q 838 1081 952 856 
Q 1066 631 1291 507 
Q 1516 384 1775 384 
Q 2178 384 2440 643 
Q 2703 903 2703 1303 
Q 2703 1709 2433 1975 
Q 2163 2241 1756 2241 
Q 1359 2241 1098 1978 
Q 838 1716 838 1322 
z
" transform="scale(0.015625)"/>
       </defs>
       <use xlink:href="#ArialMT-30"/>
       <use xlink:href="#ArialMT-2e" transform="translate(55.615234 0)"/>
       <use xlink:href="#ArialMT-38" transform="translate(83.398438 0)"/>
      </g>
     </g>
    </g>
    <g id="text_10">
     <!-- Occupancy $C$ -->
     <g style="fill: #262626" transform="translate(20.7 188.93) rotate(-90) scale(0.18 -0.18)">
      <defs>
       <path id="ArialMT-4f" d="M 309 2231 
Q 309 3372 921 4017 
Q 1534 4663 2503 4663 
Q 3138 4663 3647 4359 
Q 4156 4056 4423 3514 
Q 4691 2972 4691 2284 
Q 4691 1588 4409 1038 
Q 4128 488 3612 205 
Q 3097 -78 2500 -78 
Q 1853 -78 1343 234 
Q 834 547 571 1087 
Q 309 1628 309 2231 
z
M 934 2222 
Q 934 1394 1379 917 
Q 1825 441 2497 441 
Q 3181 441 3623 922 
Q 4066 1403 4066 2288 
Q 4066 2847 3877 3264 
Q 3688 3681 3323 3911 
Q 2959 4141 2506 4141 
Q 1863 4141 1398 3698 
Q 934 3256 934 2222 
z
" transform="scale(0.015625)"/>
       <path id="ArialMT-75" d="M 2597 0 
L 2597 488 
Q 2209 -75 1544 -75 
Q 1250 -75 995 37 
Q 741 150 617 320 
Q 494 491 444 738 
Q 409 903 409 1263 
L 409 3319 
L 972 3319 
L 972 1478 
Q 972 1038 1006 884 
Q 1059 663 1231 536 
Q 1403 409 1656 409 
Q 1909 409 2131 539 
Q 2353 669 2445 892 
Q 2538 1116 2538 1541 
L 2538 3319 
L 3100 3319 
L 3100 0 
L 2597 0 
z
" transform="scale(0.015625)"/>
       <path id="ArialMT-70" d="M 422 -1272 
L 422 3319 
L 934 3319 
L 934 2888 
Q 1116 3141 1344 3267 
Q 1572 3394 1897 3394 
Q 2322 3394 2647 3175 
Q 2972 2956 3137 2557 
Q 3303 2159 3303 1684 
Q 3303 1175 3120 767 
Q 2938 359 2589 142 
Q 2241 -75 1856 -75 
Q 1575 -75 1351 44 
Q 1128 163 984 344 
L 984 -1272 
L 422 -1272 
z
M 931 1641 
Q 931 1000 1190 694 
Q 1450 388 1819 388 
Q 2194 388 2461 705 
Q 2728 1022 2728 1688 
Q 2728 2322 2467 2637 
Q 2206 2953 1844 2953 
Q 1484 2953 1207 2617 
Q 931 2281 931 1641 
z
" transform="scale(0.015625)"/>
       <path id="ArialMT-79" d="M 397 -1278 
L 334 -750 
Q 519 -800 656 -800 
Q 844 -800 956 -737 
Q 1069 -675 1141 -563 
Q 1194 -478 1313 -144 
Q 1328 -97 1363 -6 
L 103 3319 
L 709 3319 
L 1400 1397 
Q 1534 1031 1641 628 
Q 1738 1016 1872 1384 
L 2581 3319 
L 3144 3319 
L 1881 -56 
Q 1678 -603 1566 -809 
Q 1416 -1088 1222 -1217 
Q 1028 -1347 759 -1347 
Q 597 -1347 397 -1278 
z
" transform="scale(0.015625)"/>
       <path id="DejaVuSans-Oblique-43" d="M 4447 4306 
L 4319 3641 
Q 4019 3944 3683 4091 
Q 3347 4238 2956 4238 
Q 2422 4238 2017 3981 
Q 1613 3725 1319 3200 
Q 1131 2863 1032 2486 
Q 934 2109 934 1728 
Q 934 1091 1264 756 
Q 1594 422 2222 422 
Q 2656 422 3056 561 
Q 3456 700 3834 978 
L 3688 231 
Q 3316 72 2936 -9 
Q 2556 -91 2175 -91 
Q 1278 -91 773 396 
Q 269 884 269 1753 
Q 269 2309 461 2846 
Q 653 3384 1013 3828 
Q 1394 4300 1883 4525 
Q 2372 4750 3022 4750 
Q 3422 4750 3780 4639 
Q 4138 4528 4447 4306 
z
" transform="scale(0.015625)"/>
      </defs>
      <use xlink:href="#ArialMT-4f" transform="translate(0 0.78125)"/>
      <use xlink:href="#ArialMT-63" transform="translate(77.783203 0.78125)"/>
      <use xlink:href="#ArialMT-63" transform="translate(127.783203 0.78125)"/>
      <use xlink:href="#ArialMT-75" transform="translate(177.783203 0.78125)"/>
      <use xlink:href="#ArialMT-70" transform="translate(233.398438 0.78125)"/>
      <use xlink:href="#ArialMT-61" transform="translate(289.013672 0.78125)"/>
      <use xlink:href="#ArialMT-6e" transform="translate(344.628906 0.78125)"/>
      <use xlink:href="#ArialMT-63" transform="translate(400.244141 0.78125)"/>
      <use xlink:href="#ArialMT-79" transform="translate(450.244141 0.78125)"/>
      <use xlink:href="#ArialMT-20" transform="translate(500.244141 0.78125)"/>
      <use xlink:href="#DejaVuSans-Oblique-43" transform="translate(528.027344 0.78125)"/>
     </g>
    </g>
   </g>
   <g id="FillBetweenPolyCollection_1">
    <defs>
     <path id="md01803f544" d="M 67.866181 -67.377747 
L 67.866181 -65.090419 
L 75.408542 -88.636825 
L 82.950903 -107.782565 
L 90.493264 -123.583349 
L 98.035625 -136.829404 
L 105.577986 -148.088309 
L 113.120347 -157.77353 
L 120.662708 -166.192203 
L 128.205069 -173.576839 
L 135.747431 -180.106527 
L 143.289792 -185.921367 
L 150.832153 -191.1325 
L 158.374514 -195.829197 
L 165.916875 -200.08398 
L 173.459236 -203.956368 
L 181.001597 -207.495658 
L 188.543958 -210.743032 
L 196.086319 -213.733155 
L 203.628681 -216.495416 
L 211.171042 -219.054894 
L 218.713403 -221.433121 
L 226.255764 -223.648684 
L 233.798125 -225.717715 
L 241.340486 -227.654281 
L 248.882847 -229.470705 
L 256.425208 -231.177829 
L 263.967569 -232.785228 
L 271.509931 -234.30139 
L 279.052292 -235.733867 
L 286.594653 -237.0894 
L 294.137014 -238.374027 
L 301.679375 -239.593167 
L 309.221736 -240.751703 
L 316.764097 -241.854043 
L 324.306458 -242.90418 
L 331.848819 -243.905735 
L 339.391181 -244.862002 
L 346.933542 -245.775986 
L 354.475903 -246.650429 
L 362.018264 -247.487844 
L 369.560625 -248.290532 
L 377.102986 -249.060611 
L 384.645347 -249.800027 
L 392.187708 -250.510576 
L 399.730069 -251.193916 
L 407.272431 -251.85158 
L 414.814792 -252.484988 
L 422.357153 -253.095459 
L 429.899514 -253.684216 
L 437.441875 -254.252397 
L 444.984236 -254.801062 
L 452.526597 -255.331199 
L 460.068958 -255.843732 
L 467.611319 -256.339523 
L 475.153681 -256.819378 
L 482.696042 -257.284055 
L 490.238403 -257.734262 
L 497.780764 -258.170665 
L 505.323125 -258.593888 
L 512.865486 -259.00452 
L 520.407847 -259.403115 
L 527.950208 -259.790194 
L 535.492569 -260.166249 
L 543.034931 -260.531745 
L 550.577292 -260.887119 
L 550.577292 -261.872237 
L 550.577292 -261.872237 
L 543.034931 -261.529878 
L 535.492569 -261.177743 
L 527.950208 -260.815409 
L 520.407847 -260.442427 
L 512.865486 -260.058318 
L 505.323125 -259.662579 
L 497.780764 -259.254673 
L 490.238403 -258.834029 
L 482.696042 -258.400042 
L 475.153681 -257.952067 
L 467.611319 -257.489415 
L 460.068958 -257.011355 
L 452.526597 -256.517102 
L 444.984236 -256.005821 
L 437.441875 -255.476615 
L 429.899514 -254.928526 
L 422.357153 -254.360523 
L 414.814792 -253.771501 
L 407.272431 -253.160273 
L 399.730069 -252.525557 
L 392.187708 -251.865974 
L 384.645347 -251.180032 
L 377.102986 -250.466119 
L 369.560625 -249.722488 
L 362.018264 -248.947245 
L 354.475903 -248.138329 
L 346.933542 -247.293498 
L 339.391181 -246.410305 
L 331.848819 -245.486077 
L 324.306458 -244.517884 
L 316.764097 -243.502514 
L 309.221736 -242.436431 
L 301.679375 -241.315738 
L 294.137014 -240.136128 
L 286.594653 -238.892828 
L 279.052292 -237.580538 
L 271.509931 -236.193348 
L 263.967569 -234.724658 
L 256.425208 -233.167065 
L 248.882847 -231.512244 
L 241.340486 -229.750794 
L 233.798125 -227.872064 
L 226.255764 -225.863933 
L 218.713403 -223.712551 
L 211.171042 -221.402017 
L 203.628681 -218.913983 
L 196.086319 -216.227171 
L 188.543958 -213.316752 
L 181.001597 -210.153584 
L 173.459236 -206.703226 
L 165.916875 -202.924673 
L 158.374514 -198.768717 
L 150.832153 -194.175781 
L 143.289792 -189.073029 
L 135.747431 -183.370456 
L 128.205069 -176.955487 
L 120.662708 -169.685401 
L 113.120347 -161.376459 
L 105.577986 -151.787883 
L 98.035625 -140.597575 
L 90.493264 -127.363815 
L 82.950903 -111.461621 
L 75.408542 -91.966719 
L 67.866181 -67.377747 
z
" style="stroke: #88ae1d; stroke-opacity: 0.3; stroke-width: 1.5"/>
    </defs>
    <g clip-path="url(#pd026c84804)">
     <use xlink:href="#md01803f544" x="0" y="298.591328" style="fill: #88ae1d; fill-opacity: 0.3; stroke: #88ae1d; stroke-opacity: 0.3; stroke-width: 1.5"/>
    </g>
   </g>
   <g id="line2d_9">
    <path d="M 67.866181 232.357245 
L 75.408542 208.289556 
L 82.950903 188.969235 
L 90.493264 173.117746 
L 98.035625 159.877838 
L 105.577986 148.653232 
L 113.120347 139.016334 
L 120.662708 130.652526 
L 128.205069 123.325165 
L 135.747431 116.852837 
L 143.289792 111.09413 
L 150.832153 105.937188 
L 158.374514 101.292371 
L 165.916875 97.087002 
L 173.459236 93.261531 
L 181.001597 89.766707 
L 188.543958 86.561436 
L 196.086319 83.611166 
L 203.628681 80.886629 
L 211.171042 78.362873 
L 218.713403 76.018492 
L 226.255764 73.83502 
L 233.798125 71.796439 
L 241.340486 69.888791 
L 248.882847 68.099854 
L 256.425208 66.418881 
L 263.967569 64.836385 
L 271.509931 63.343959 
L 279.052292 61.934126 
L 286.594653 60.600214 
L 294.137014 59.336251 
L 301.679375 58.136876 
L 309.221736 56.997261 
L 316.764097 55.91305 
L 324.306458 54.880296 
L 331.848819 53.895422 
L 339.391181 52.955174 
L 346.933542 52.056586 
L 354.475903 51.196949 
L 362.018264 50.373784 
L 369.560625 49.584818 
L 377.102986 48.827963 
L 384.645347 48.101299 
L 392.187708 47.403053 
L 399.730069 46.731592 
L 407.272431 46.085402 
L 414.814792 45.463083 
L 422.357153 44.863337 
L 429.899514 44.284957 
L 437.441875 43.726822 
L 444.984236 43.187887 
L 452.526597 42.667177 
L 460.068958 42.163785 
L 467.611319 41.676859 
L 475.153681 41.205606 
L 482.696042 40.74928 
L 490.238403 40.307183 
L 497.780764 39.87866 
L 505.323125 39.463095 
L 512.865486 39.059909 
L 520.407847 38.668557 
L 527.950208 38.288526 
L 535.492569 37.919332 
L 543.034931 37.560517 
L 550.577292 37.21165 
" clip-path="url(#pd026c84804)" style="fill: none; stroke: #88ae1d; stroke-width: 2.25; stroke-linecap: round"/>
   </g>
   <g id="patch_3">
    <path d="M 64.095 243.34 
L 64.095 26.88 
" style="fill: none; stroke: #262626; stroke-width: 1.875; stroke-linejoin: miter; stroke-linecap: square"/>
   </g>
   <g id="patch_4">
    <path d="M 335.62 243.34 
L 335.62 26.88 
" style="fill: none; stroke: #262626; stroke-width: 1.875; stroke-linejoin: miter; stroke-linecap: square"/>
   </g>
   <g id="patch_5">
    <path d="M 64.095 243.34 
L 335.62 243.34 
" style="fill: none; stroke: #262626; stroke-width: 1.875; stroke-linejoin: miter; stroke-linecap: square"/>
   </g>
   <g id="patch_6">
    <path d="M 64.095 26.88 
L 335.62 26.88 
" style="fill: none; stroke: #262626; stroke-width: 1.875; stroke-linejoin: miter; stroke-linecap: square"/>
   </g>
   <g id="text_11">
    <!-- Binding site region, $J=0$ $k_BT$ -->
    <g style="fill: #262626" transform="translate(83.5775 20.88) scale(0.18 -0.18)">
     <defs>
      <path id="ArialMT-67" d="M 319 -275 
L 866 -356 
Q 900 -609 1056 -725 
Q 1266 -881 1628 -881 
Q 2019 -881 2231 -725 
Q 2444 -569 2519 -288 
Q 2563 -116 2559 434 
Q 2191 0 1641 0 
Q 956 0 581 494 
Q 206 988 206 1678 
Q 206 2153 378 2554 
Q 550 2956 876 3175 
Q 1203 3394 1644 3394 
Q 2231 3394 2613 2919 
L 2613 3319 
L 3131 3319 
L 3131 450 
Q 3131 -325 2973 -648 
Q 2816 -972 2473 -1159 
Q 2131 -1347 1631 -1347 
Q 1038 -1347 672 -1080 
Q 306 -813 319 -275 
z
M 784 1719 
Q 784 1066 1043 766 
Q 1303 466 1694 466 
Q 2081 466 2343 764 
Q 2606 1063 2606 1700 
Q 2606 2309 2336 2618 
Q 2066 2928 1684 2928 
Q 1309 2928 1046 2623 
Q 784 2319 784 1719 
z
" transform="scale(0.015625)"/>
      <path id="ArialMT-73" d="M 197 991 
L 753 1078 
Q 800 744 1014 566 
Q 1228 388 1613 388 
Q 2000 388 2187 545 
Q 2375 703 2375 916 
Q 2375 1106 2209 1216 
Q 2094 1291 1634 1406 
Q 1016 1563 777 1677 
Q 538 1791 414 1992 
Q 291 2194 291 2438 
Q 291 2659 392 2848 
Q 494 3038 669 3163 
Q 800 3259 1026 3326 
Q 1253 3394 1513 3394 
Q 1903 3394 2198 3281 
Q 2494 3169 2634 2976 
Q 2775 2784 2828 2463 
L 2278 2388 
Q 2241 2644 2061 2787 
Q 1881 2931 1553 2931 
Q 1166 2931 1000 2803 
Q 834 2675 834 2503 
Q 834 2394 903 2306 
Q 972 2216 1119 2156 
Q 1203 2125 1616 2013 
Q 2213 1853 2448 1751 
Q 2684 1650 2818 1456 
Q 2953 1263 2953 975 
Q 2953 694 2789 445 
Q 2625 197 2315 61 
Q 2006 -75 1616 -75 
Q 969 -75 630 194 
Q 291 463 197 991 
z
" transform="scale(0.015625)"/>
      <path id="ArialMT-2c" d="M 569 0 
L 569 641 
L 1209 641 
L 1209 0 
Q 1209 -353 1084 -570 
Q 959 -788 688 -906 
L 531 -666 
Q 709 -588 793 -436 
Q 878 -284 888 0 
L 569 0 
z
" transform="scale(0.015625)"/>
      <path id="DejaVuSans-Oblique-4a" d="M 1069 4666 
L 1703 4666 
L 856 325 
Q 691 -522 298 -901 
Q -94 -1281 -800 -1281 
L -1050 -1281 
L -947 -750 
L -750 -750 
Q -328 -750 -109 -509 
Q 109 -269 225 325 
L 1069 4666 
z
" transform="scale(0.015625)"/>
      <path id="DejaVuSans-3d" d="M 678 2906 
L 4684 2906 
L 4684 2381 
L 678 2381 
L 678 2906 
z
M 678 1631 
L 4684 1631 
L 4684 1100 
L 678 1100 
L 678 1631 
z
" transform="scale(0.015625)"/>
      <path id="DejaVuSans-30" d="M 2034 4250 
Q 1547 4250 1301 3770 
Q 1056 3291 1056 2328 
Q 1056 1369 1301 889 
Q 1547 409 2034 409 
Q 2525 409 2770 889 
Q 3016 1369 3016 2328 
Q 3016 3291 2770 3770 
Q 2525 4250 2034 4250 
z
M 2034 4750 
Q 2819 4750 3233 4129 
Q 3647 3509 3647 2328 
Q 3647 1150 3233 529 
Q 2819 -91 2034 -91 
Q 1250 -91 836 529 
Q 422 1150 422 2328 
Q 422 3509 836 4129 
Q 1250 4750 2034 4750 
z
" transform="scale(0.015625)"/>
      <path id="DejaVuSans-Oblique-6b" d="M 1172 4863 
L 1747 4863 
L 1197 2028 
L 3169 3500 
L 3916 3500 
L 1716 1825 
L 3322 0 
L 2625 0 
L 1131 1709 
L 800 0 
L 225 0 
L 1172 4863 
z
" transform="scale(0.015625)"/>
      <path id="DejaVuSans-Oblique-42" d="M 1081 4666 
L 2694 4666 
Q 3350 4666 3675 4422 
Q 4000 4178 4000 3688 
Q 4000 3238 3720 2911 
Q 3441 2584 2988 2516 
Q 3375 2428 3569 2181 
Q 3763 1934 3763 1522 
Q 3763 819 3242 409 
Q 2722 0 1819 0 
L 172 0 
L 1081 4666 
z
M 1234 2228 
L 903 519 
L 1919 519 
Q 2491 519 2800 781 
Q 3109 1044 3109 1522 
Q 3109 1891 2904 2059 
Q 2700 2228 2247 2228 
L 1234 2228 
z
M 1606 4147 
L 1331 2741 
L 2272 2741 
Q 2775 2741 3058 2959 
Q 3341 3178 3341 3566 
Q 3341 3869 3150 4008 
Q 2959 4147 2541 4147 
L 1606 4147 
z
" transform="scale(0.015625)"/>
      <path id="DejaVuSans-Oblique-54" d="M 378 4666 
L 4325 4666 
L 4225 4134 
L 2559 4134 
L 1759 0 
L 1125 0 
L 1925 4134 
L 275 4134 
L 378 4666 
z
" transform="scale(0.015625)"/>
     </defs>
     <use xlink:href="#ArialMT-42" transform="translate(0 0.015625)"/>
     <use xlink:href="#ArialMT-69" transform="translate(66.699219 0.015625)"/>
     <use xlink:href="#ArialMT-6e" transform="translate(88.916016 0.015625)"/>
     <use xlink:href="#ArialMT-64" transform="translate(144.53125 0.015625)"/>
     <use xlink:href="#ArialMT-69" transform="translate(200.146484 0.015625)"/>
     <use xlink:href="#ArialMT-6e" transform="translate(222.363281 0.015625)"/>
     <use xlink:href="#ArialMT-67" transform="translate(277.978516 0.015625)"/>
     <use xlink:href="#ArialMT-20" transform="translate(333.59375 0.015625)"/>
     <use xlink:href="#ArialMT-73" transform="translate(361.376953 0.015625)"/>
     <use xlink:href="#ArialMT-69" transform="translate(411.376953 0.015625)"/>
     <use xlink:href="#ArialMT-74" transform="translate(433.59375 0.015625)"/>
     <use xlink:href="#ArialMT-65" transform="translate(461.376953 0.015625)"/>
     <use xlink:href="#ArialMT-20" transform="translate(516.992188 0.015625)"/>
     <use xlink:href="#ArialMT-72" transform="translate(544.775391 0.015625)"/>
     <use xlink:href="#ArialMT-65" transform="translate(578.076172 0.015625)"/>
     <use xlink:href="#ArialMT-67" transform="translate(633.691406 0.015625)"/>
     <use xlink:href="#ArialMT-69" transform="translate(689.306641 0.015625)"/>
     <use xlink:href="#ArialMT-6f" transform="translate(711.523438 0.015625)"/>
     <use xlink:href="#ArialMT-6e" transform="translate(767.138672 0.015625)"/>
     <use xlink:href="#ArialMT-2c" transform="translate(822.753906 0.015625)"/>
     <use xlink:href="#ArialMT-20" transform="translate(850.537109 0.015625)"/>
     <use xlink:href="#DejaVuSans-Oblique-4a" transform="translate(878.320312 0.015625)"/>
     <use xlink:href="#DejaVuSans-3d" transform="translate(927.294922 0.015625)"/>
     <use xlink:href="#DejaVuSans-30" transform="translate(1030.566406 0.015625)"/>
     <use xlink:href="#ArialMT-20" transform="translate(1094.189453 0.015625)"/>
     <use xlink:href="#DejaVuSans-Oblique-6b" transform="translate(1121.972656 0.015625)"/>
     <use xlink:href="#DejaVuSans-Oblique-42" transform="translate(1179.882812 -16.390625) scale(0.7)"/>
     <use xlink:href="#DejaVuSans-Oblique-54" transform="translate(1230.639648 0.015625)"/>
    </g>
   </g>
  </g>
  <g id="axes_2">
   <g id="patch_7">
    <path d="M 423.135 243.34 
L 694.66 243.34 
L 694.66 26.88 
L 423.135 26.88 
z
" style="fill: #ffffff"/>
   </g>
   <g id="matplotlib.axis_3">
    <g id="xtick_5">
     <g id="line2d_10">
      <g>
       <use xlink:href="#m048a05cc65" x="423.135" y="243.34" style="fill: #262626; stroke: #262626; stroke-width: 1.875"/>
      </g>
     </g>
     <g id="text_12">
      <!-- 0.0 -->
      <g style="fill: #262626" transform="translate(411.6675 267.650391) scale(0.165 -0.165)">
       <use xlink:href="#ArialMT-30"/>
       <use xlink:href="#ArialMT-2e" transform="translate(55.615234 0)"/>
       <use xlink:href="#ArialMT-30" transform="translate(83.398438 0)"/>
      </g>
     </g>
    </g>
    <g id="xtick_6">
     <g id="line2d_11">
      <g>
       <use xlink:href="#m048a05cc65" x="513.643333" y="243.34" style="fill: #262626; stroke: #262626; stroke-width: 1.875"/>
      </g>
     </g>
     <g id="text_13">
      <!-- 0.2 -->
      <g style="fill: #262626" transform="translate(502.175833 267.650391) scale(0.165 -0.165)">
       <use xlink:href="#ArialMT-30"/>
       <use xlink:href="#ArialMT-2e" transform="translate(55.615234 0)"/>
       <use xlink:href="#ArialMT-32" transform="translate(83.398438 0)"/>
      </g>
     </g>
    </g>
    <g id="xtick_7">
     <g id="line2d_12">
      <g>
       <use xlink:href="#m048a05cc65" x="604.151667" y="243.34" style="fill: #262626; stroke: #262626; stroke-width: 1.875"/>
      </g>
     </g>
     <g id="text_14">
      <!-- 0.4 -->
      <g style="fill: #262626" transform="translate(592.684167 267.650391) scale(0.165 -0.165)">
       <use xlink:href="#ArialMT-30"/>
       <use xlink:href="#ArialMT-2e" transform="translate(55.615234 0)"/>
       <use xlink:href="#ArialMT-34" transform="translate(83.398438 0)"/>
      </g>
     </g>
    </g>
    <g id="xtick_8">
     <g id="line2d_13">
      <g>
       <use xlink:href="#m048a05cc65" x="694.66" y="243.34" style="fill: #262626; stroke: #262626; stroke-width: 1.875"/>
      </g>
     </g>
     <g id="text_15">
      <!-- 0.6 -->
      <g style="fill: #262626" transform="translate(683.1925 267.650391) scale(0.165 -0.165)">
       <use xlink:href="#ArialMT-30"/>
       <use xlink:href="#ArialMT-2e" transform="translate(55.615234 0)"/>
       <use xlink:href="#ArialMT-36" transform="translate(83.398438 0)"/>
      </g>
     </g>
    </g>
    <g id="text_16">
     <!-- Bicoid concentration $s$ -->
     <g style="fill: #262626" transform="translate(470.6075 287.813828) scale(0.18 -0.18)">
      <use xlink:href="#ArialMT-42" transform="translate(0 0.421875)"/>
      <use xlink:href="#ArialMT-69" transform="translate(66.699219 0.421875)"/>
      <use xlink:href="#ArialMT-63" transform="translate(88.916016 0.421875)"/>
      <use xlink:href="#ArialMT-6f" transform="translate(138.916016 0.421875)"/>
      <use xlink:href="#ArialMT-69" transform="translate(194.53125 0.421875)"/>
      <use xlink:href="#ArialMT-64" transform="translate(216.748047 0.421875)"/>
      <use xlink:href="#ArialMT-20" transform="translate(272.363281 0.421875)"/>
      <use xlink:href="#ArialMT-63" transform="translate(300.146484 0.421875)"/>
      <use xlink:href="#ArialMT-6f" transform="translate(350.146484 0.421875)"/>
      <use xlink:href="#ArialMT-6e" transform="translate(405.761719 0.421875)"/>
      <use xlink:href="#ArialMT-63" transform="translate(461.376953 0.421875)"/>
      <use xlink:href="#ArialMT-65" transform="translate(511.376953 0.421875)"/>
      <use xlink:href="#ArialMT-6e" transform="translate(566.992188 0.421875)"/>
      <use xlink:href="#ArialMT-74" transform="translate(622.607422 0.421875)"/>
      <use xlink:href="#ArialMT-72" transform="translate(650.390625 0.421875)"/>
      <use xlink:href="#ArialMT-61" transform="translate(683.691406 0.421875)"/>
      <use xlink:href="#ArialMT-74" transform="translate(739.306641 0.421875)"/>
      <use xlink:href="#ArialMT-69" transform="translate(767.089844 0.421875)"/>
      <use xlink:href="#ArialMT-6f" transform="translate(789.306641 0.421875)"/>
      <use xlink:href="#ArialMT-6e" transform="translate(844.921875 0.421875)"/>
      <use xlink:href="#ArialMT-20" transform="translate(900.537109 0.421875)"/>
      <use xlink:href="#DejaVuSans-Oblique-73" transform="translate(928.320312 0.421875)"/>
     </g>
    </g>
   </g>
   <g id="matplotlib.axis_4">
    <g id="ytick_5">
     <g id="line2d_14">
      <g>
       <use xlink:href="#m02c33c3e9d" x="423.135" y="233.616485" style="fill: #262626; stroke: #262626; stroke-width: 1.875"/>
      </g>
     </g>
     <g id="text_17">
      <!-- 0.0 -->
      <g style="fill: #262626" transform="translate(387.7 239.521681) scale(0.165 -0.165)">
       <use xlink:href="#ArialMT-30"/>
       <use xlink:href="#ArialMT-2e" transform="translate(55.615234 0)"/>
       <use xlink:href="#ArialMT-30" transform="translate(83.398438 0)"/>
      </g>
     </g>
    </g>
    <g id="ytick_6">
     <g id="line2d_15">
      <g>
       <use xlink:href="#m02c33c3e9d" x="423.135" y="193.476337" style="fill: #262626; stroke: #262626; stroke-width: 1.875"/>
      </g>
     </g>
     <g id="text_18">
      <!-- 0.2 -->
      <g style="fill: #262626" transform="translate(387.7 199.381533) scale(0.165 -0.165)">
       <use xlink:href="#ArialMT-30"/>
       <use xlink:href="#ArialMT-2e" transform="translate(55.615234 0)"/>
       <use xlink:href="#ArialMT-32" transform="translate(83.398438 0)"/>
      </g>
     </g>
    </g>
    <g id="ytick_7">
     <g id="line2d_16">
      <g>
       <use xlink:href="#m02c33c3e9d" x="423.135" y="153.336189" style="fill: #262626; stroke: #262626; stroke-width: 1.875"/>
      </g>
     </g>
     <g id="text_19">
      <!-- 0.4 -->
      <g style="fill: #262626" transform="translate(387.7 159.241385) scale(0.165 -0.165)">
       <use xlink:href="#ArialMT-30"/>
       <use xlink:href="#ArialMT-2e" transform="translate(55.615234 0)"/>
       <use xlink:href="#ArialMT-34" transform="translate(83.398438 0)"/>
      </g>
     </g>
    </g>
    <g id="ytick_8">
     <g id="line2d_17">
      <g>
       <use xlink:href="#m02c33c3e9d" x="423.135" y="113.196041" style="fill: #262626; stroke: #262626; stroke-width: 1.875"/>
      </g>
     </g>
     <g id="text_20">
      <!-- 0.6 -->
      <g style="fill: #262626" transform="translate(387.7 119.101237) scale(0.165 -0.165)">
       <use xlink:href="#ArialMT-30"/>
       <use xlink:href="#ArialMT-2e" transform="translate(55.615234 0)"/>
       <use xlink:href="#ArialMT-36" transform="translate(83.398438 0)"/>
      </g>
     </g>
    </g>
    <g id="ytick_9">
     <g id="line2d_18">
      <g>
       <use xlink:href="#m02c33c3e9d" x="423.135" y="73.055893" style="fill: #262626; stroke: #262626; stroke-width: 1.875"/>
      </g>
     </g>
     <g id="text_21">
      <!-- 0.8 -->
      <g style="fill: #262626" transform="translate(387.7 78.961089) scale(0.165 -0.165)">
       <use xlink:href="#ArialMT-30"/>
       <use xlink:href="#ArialMT-2e" transform="translate(55.615234 0)"/>
       <use xlink:href="#ArialMT-38" transform="translate(83.398438 0)"/>
      </g>
     </g>
    </g>
    <g id="ytick_10">
     <g id="line2d_19">
      <g>
       <use xlink:href="#m02c33c3e9d" x="423.135" y="32.915745" style="fill: #262626; stroke: #262626; stroke-width: 1.875"/>
      </g>
     </g>
     <g id="text_22">
      <!-- 1.0 -->
      <g style="fill: #262626" transform="translate(387.7 38.820941) scale(0.165 -0.165)">
       <defs>
        <path id="ArialMT-31" d="M 2384 0 
L 1822 0 
L 1822 3584 
Q 1619 3391 1289 3197 
Q 959 3003 697 2906 
L 697 3450 
Q 1169 3672 1522 3987 
Q 1875 4303 2022 4600 
L 2384 4600 
L 2384 0 
z
" transform="scale(0.015625)"/>
       </defs>
       <use xlink:href="#ArialMT-31"/>
       <use xlink:href="#ArialMT-2e" transform="translate(55.615234 0)"/>
       <use xlink:href="#ArialMT-30" transform="translate(83.398438 0)"/>
      </g>
     </g>
    </g>
    <g id="text_23">
     <!-- Occupancy $C$ -->
     <g style="fill: #262626" transform="translate(379.74 188.93) rotate(-90) scale(0.18 -0.18)">
      <use xlink:href="#ArialMT-4f" transform="translate(0 0.78125)"/>
      <use xlink:href="#ArialMT-63" transform="translate(77.783203 0.78125)"/>
      <use xlink:href="#ArialMT-63" transform="translate(127.783203 0.78125)"/>
      <use xlink:href="#ArialMT-75" transform="translate(177.783203 0.78125)"/>
      <use xlink:href="#ArialMT-70" transform="translate(233.398438 0.78125)"/>
      <use xlink:href="#ArialMT-61" transform="translate(289.013672 0.78125)"/>
      <use xlink:href="#ArialMT-6e" transform="translate(344.628906 0.78125)"/>
      <use xlink:href="#ArialMT-63" transform="translate(400.244141 0.78125)"/>
      <use xlink:href="#ArialMT-79" transform="translate(450.244141 0.78125)"/>
      <use xlink:href="#ArialMT-20" transform="translate(500.244141 0.78125)"/>
      <use xlink:href="#DejaVuSans-Oblique-43" transform="translate(528.027344 0.78125)"/>
     </g>
    </g>
   </g>
   <g id="FillBetweenPolyCollection_2">
    <defs>
     <path id="m9f8c5d46f0" d="M 426.906181 -65.333776 
L 426.906181 -65.090419 
L 434.448542 -65.545471 
L 441.990903 -66.887027 
L 449.533264 -70.813796 
L 457.075625 -80.199649 
L 464.617986 -97.550283 
L 472.160347 -122.076372 
L 479.702708 -149.135231 
L 487.245069 -173.709465 
L 494.787431 -193.366734 
L 502.329792 -208.069927 
L 509.872153 -218.7943 
L 517.414514 -226.617425 
L 524.956875 -232.402473 
L 532.499236 -236.766399 
L 540.041597 -240.131639 
L 547.583958 -242.784237 
L 555.126319 -244.918748 
L 562.668681 -246.669125 
L 570.211042 -248.129078 
L 577.753403 -249.365318 
L 585.295764 -250.426184 
L 592.838125 -251.347314 
L 600.380486 -252.155426 
L 607.922847 -252.870866 
L 615.465208 -253.509361 
L 623.007569 -254.083238 
L 630.549931 -254.602284 
L 638.092292 -255.074366 
L 645.634653 -255.505879 
L 653.177014 -255.902075 
L 660.719375 -256.26731 
L 668.261736 -256.60523 
L 675.804097 -256.918911 
L 683.346458 -257.21097 
L 690.888819 -257.483646 
L 698.431181 -257.738872 
L 705.973542 -257.978321 
L 713.515903 -258.203454 
L 721.058264 -258.415553 
L 728.600625 -258.615744 
L 736.142986 -258.805026 
L 743.685347 -258.984285 
L 751.227708 -259.154313 
L 758.770069 -259.315816 
L 766.312431 -259.469432 
L 773.854792 -259.615732 
L 781.397153 -259.755235 
L 788.939514 -259.88841 
L 796.481875 -260.015682 
L 804.024236 -260.137439 
L 811.566597 -260.254038 
L 819.108958 -260.3658 
L 826.651319 -260.473025 
L 834.193681 -260.575984 
L 841.736042 -260.67493 
L 849.278403 -260.770094 
L 856.820764 -260.86169 
L 864.363125 -260.949917 
L 871.905486 -261.034958 
L 879.447847 -261.116983 
L 886.990208 -261.196151 
L 894.532569 -261.27261 
L 902.074931 -261.346496 
L 909.617292 -261.417937 
L 909.617292 -261.872237 
L 909.617292 -261.872237 
L 902.074931 -261.809012 
L 894.532569 -261.743648 
L 886.990208 -261.676035 
L 879.447847 -261.606054 
L 871.905486 -261.533579 
L 864.363125 -261.458473 
L 856.820764 -261.380591 
L 849.278403 -261.299775 
L 841.736042 -261.215856 
L 834.193681 -261.128652 
L 826.651319 -261.037965 
L 819.108958 -260.943582 
L 811.566597 -260.845271 
L 804.024236 -260.742782 
L 796.481875 -260.635842 
L 788.939514 -260.524154 
L 781.397153 -260.407391 
L 773.854792 -260.285201 
L 766.312431 -260.157193 
L 758.770069 -260.02294 
L 751.227708 -259.881972 
L 743.685347 -259.733768 
L 736.142986 -259.577753 
L 728.600625 -259.413289 
L 721.058264 -259.239666 
L 713.515903 -259.056089 
L 705.973542 -258.86167 
L 698.431181 -258.655408 
L 690.888819 -258.436175 
L 683.346458 -258.202692 
L 675.804097 -257.9535 
L 668.261736 -257.686933 
L 660.719375 -257.401071 
L 653.177014 -257.093694 
L 645.634653 -256.762213 
L 638.092292 -256.403592 
L 630.549931 -256.014238 
L 623.007569 -255.589859 
L 615.465208 -255.125277 
L 607.922847 -254.614172 
L 600.380486 -254.048724 
L 592.838125 -253.419112 
L 585.295764 -252.712794 
L 577.753403 -251.913444 
L 570.211042 -250.999361 
L 562.668681 -249.941045 
L 555.126319 -248.697393 
L 547.583958 -247.209672 
L 540.041597 -245.391742 
L 532.499236 -243.114037 
L 524.956875 -240.177111 
L 517.414514 -236.268398 
L 509.872153 -230.894332 
L 502.329792 -223.285667 
L 494.787431 -212.308054 
L 487.245069 -196.523509 
L 479.702708 -174.775381 
L 472.160347 -147.687556 
L 464.617986 -119.192289 
L 457.075625 -95.195336 
L 449.533264 -79.264277 
L 441.990903 -70.7269 
L 434.448542 -66.871411 
L 426.906181 -65.333776 
z
" style="stroke: #5caadb; stroke-opacity: 0.3; stroke-width: 1.5"/>
    </defs>
    <g clip-path="url(#p44f372103d)">
     <use xlink:href="#m9f8c5d46f0" x="0" y="298.591328" style="fill: #5caadb; fill-opacity: 0.3; stroke: #5caadb; stroke-opacity: 0.3; stroke-width: 1.5"/>
    </g>
   </g>
   <g id="line2d_20">
    <path d="M 426.906181 233.379231 
L 434.448542 232.382887 
L 441.990903 229.784364 
L 449.533264 223.552292 
L 457.075625 210.893835 
L 464.617986 190.220042 
L 472.160347 163.709364 
L 479.702708 136.636022 
L 487.245069 113.474841 
L 494.787431 95.753934 
L 502.329792 82.913531 
L 509.872153 73.747012 
L 517.414514 67.148417 
L 524.956875 62.301536 
L 532.499236 58.65111 
L 540.041597 55.829637 
L 547.583958 53.594373 
L 555.126319 51.783258 
L 562.668681 50.286243 
L 570.211042 49.027109 
L 577.753403 47.951947 
L 585.295764 47.021839 
L 592.838125 46.208115 
L 600.380486 45.489253 
L 607.922847 44.848809 
L 615.465208 44.274009 
L 623.007569 43.75478 
L 630.549931 43.283067 
L 638.092292 42.852349 
L 645.634653 42.457282 
L 653.177014 42.093444 
L 660.719375 41.757137 
L 668.261736 41.445247 
L 675.804097 41.155122 
L 683.346458 40.884497 
L 690.888819 40.631417 
L 698.431181 40.394188 
L 705.973542 40.171333 
L 713.515903 39.961556 
L 721.058264 39.763719 
L 728.600625 39.576812 
L 736.142986 39.399939 
L 743.685347 39.232302 
L 751.227708 39.073186 
L 758.770069 38.92195 
L 766.312431 38.778015 
L 773.854792 38.640861 
L 781.397153 38.510015 
L 788.939514 38.385047 
L 796.481875 38.265566 
L 804.024236 38.151217 
L 811.566597 38.041674 
L 819.108958 37.936637 
L 826.651319 37.835833 
L 834.193681 37.73901 
L 841.736042 37.645935 
L 849.278403 37.556394 
L 856.820764 37.470188 
L 864.363125 37.387133 
L 871.905486 37.30706 
L 879.447847 37.229809 
L 886.990208 37.155235 
L 894.532569 37.083199 
L 902.074931 37.013574 
L 909.617292 36.946241 
" clip-path="url(#p44f372103d)" style="fill: none; stroke: #5caadb; stroke-width: 2.25; stroke-linecap: round"/>
   </g>
   <g id="patch_8">
    <path d="M 423.135 243.34 
L 423.135 26.88 
" style="fill: none; stroke: #262626; stroke-width: 1.875; stroke-linejoin: miter; stroke-linecap: square"/>
   </g>
   <g id="patch_9">
    <path d="M 694.66 243.34 
L 694.66 26.88 
" style="fill: none; stroke: #262626; stroke-width: 1.875; stroke-linejoin: miter; stroke-linecap: square"/>
   </g>
   <g id="patch_10">
    <path d="M 423.135 243.34 
L 694.66 243.34 
" style="fill: none; stroke: #262626; stroke-width: 1.875; stroke-linejoin: miter; stroke-linecap: square"/>
   </g>
   <g id="patch_11">
    <path d="M 423.135 26.88 
L 694.66 26.88 
" style="fill: none; stroke: #262626; stroke-width: 1.875; stroke-linejoin: miter; stroke-linecap: square"/>
   </g>
   <g id="text_24">
    <!-- Binding site region, $J=5$ $k_BT$ -->
    <g style="fill: #262626" transform="translate(442.6175 20.88) scale(0.18 -0.18)">
     <defs>
      <path id="DejaVuSans-35" d="M 691 4666 
L 3169 4666 
L 3169 4134 
L 1269 4134 
L 1269 2991 
Q 1406 3038 1543 3061 
Q 1681 3084 1819 3084 
Q 2600 3084 3056 2656 
Q 3513 2228 3513 1497 
Q 3513 744 3044 326 
Q 2575 -91 1722 -91 
Q 1428 -91 1123 -41 
Q 819 9 494 109 
L 494 744 
Q 775 591 1075 516 
Q 1375 441 1709 441 
Q 2250 441 2565 725 
Q 2881 1009 2881 1497 
Q 2881 1984 2565 2268 
Q 2250 2553 1709 2553 
Q 1456 2553 1204 2497 
Q 953 2441 691 2322 
L 691 4666 
z
" transform="scale(0.015625)"/>
     </defs>
     <use xlink:href="#ArialMT-42" transform="translate(0 0.015625)"/>
     <use xlink:href="#ArialMT-69" transform="translate(66.699219 0.015625)"/>
     <use xlink:href="#ArialMT-6e" transform="translate(88.916016 0.015625)"/>
     <use xlink:href="#ArialMT-64" transform="translate(144.53125 0.015625)"/>
     <use xlink:href="#ArialMT-69" transform="translate(200.146484 0.015625)"/>
     <use xlink:href="#ArialMT-6e" transform="translate(222.363281 0.015625)"/>
     <use xlink:href="#ArialMT-67" transform="translate(277.978516 0.015625)"/>
     <use xlink:href="#ArialMT-20" transform="translate(333.59375 0.015625)"/>
     <use xlink:href="#ArialMT-73" transform="translate(361.376953 0.015625)"/>
     <use xlink:href="#ArialMT-69" transform="translate(411.376953 0.015625)"/>
     <use xlink:href="#ArialMT-74" transform="translate(433.59375 0.015625)"/>
     <use xlink:href="#ArialMT-65" transform="translate(461.376953 0.015625)"/>
     <use xlink:href="#ArialMT-20" transform="translate(516.992188 0.015625)"/>
     <use xlink:href="#ArialMT-72" transform="translate(544.775391 0.015625)"/>
     <use xlink:href="#ArialMT-65" transform="translate(578.076172 0.015625)"/>
     <use xlink:href="#ArialMT-67" transform="translate(633.691406 0.015625)"/>
     <use xlink:href="#ArialMT-69" transform="translate(689.306641 0.015625)"/>
     <use xlink:href="#ArialMT-6f" transform="translate(711.523438 0.015625)"/>
     <use xlink:href="#ArialMT-6e" transform="translate(767.138672 0.015625)"/>
     <use xlink:href="#ArialMT-2c" transform="translate(822.753906 0.015625)"/>
     <use xlink:href="#ArialMT-20" transform="translate(850.537109 0.015625)"/>
     <use xlink:href="#DejaVuSans-Oblique-4a" transform="translate(878.320312 0.015625)"/>
     <use xlink:href="#DejaVuSans-3d" transform="translate(927.294922 0.015625)"/>
     <use xlink:href="#DejaVuSans-35" transform="translate(1030.566406 0.015625)"/>
     <use xlink:href="#ArialMT-20" transform="translate(1094.189453 0.015625)"/>
     <use xlink:href="#DejaVuSans-Oblique-6b" transform="translate(1121.972656 0.015625)"/>
     <use xlink:href="#DejaVuSans-Oblique-42" transform="translate(1179.882812 -16.390625) scale(0.7)"/>
     <use xlink:href="#DejaVuSans-Oblique-54" transform="translate(1230.639648 0.015625)"/>
    </g>
   </g>
  </g>
  <g id="axes_3">
   <g id="patch_12">
    <path d="M 782.175 243.34 
L 1053.7 243.34 
L 1053.7 26.88 
L 782.175 26.88 
z
" style="fill: #ffffff"/>
   </g>
   <g id="matplotlib.axis_5">
    <g id="xtick_9">
     <g id="line2d_21">
      <g>
       <use xlink:href="#m048a05cc65" x="782.175" y="243.34" style="fill: #262626; stroke: #262626; stroke-width: 1.875"/>
      </g>
     </g>
     <g id="text_25">
      <!-- 0.0 -->
      <g style="fill: #262626" transform="translate(770.7075 267.650391) scale(0.165 -0.165)">
       <use xlink:href="#ArialMT-30"/>
       <use xlink:href="#ArialMT-2e" transform="translate(55.615234 0)"/>
       <use xlink:href="#ArialMT-30" transform="translate(83.398438 0)"/>
      </g>
     </g>
    </g>
    <g id="xtick_10">
     <g id="line2d_22">
      <g>
       <use xlink:href="#m048a05cc65" x="872.683333" y="243.34" style="fill: #262626; stroke: #262626; stroke-width: 1.875"/>
      </g>
     </g>
     <g id="text_26">
      <!-- 0.2 -->
      <g style="fill: #262626" transform="translate(861.215833 267.650391) scale(0.165 -0.165)">
       <use xlink:href="#ArialMT-30"/>
       <use xlink:href="#ArialMT-2e" transform="translate(55.615234 0)"/>
       <use xlink:href="#ArialMT-32" transform="translate(83.398438 0)"/>
      </g>
     </g>
    </g>
    <g id="xtick_11">
     <g id="line2d_23">
      <g>
       <use xlink:href="#m048a05cc65" x="963.191667" y="243.34" style="fill: #262626; stroke: #262626; stroke-width: 1.875"/>
      </g>
     </g>
     <g id="text_27">
      <!-- 0.4 -->
      <g style="fill: #262626" transform="translate(951.724167 267.650391) scale(0.165 -0.165)">
       <use xlink:href="#ArialMT-30"/>
       <use xlink:href="#ArialMT-2e" transform="translate(55.615234 0)"/>
       <use xlink:href="#ArialMT-34" transform="translate(83.398438 0)"/>
      </g>
     </g>
    </g>
    <g id="xtick_12">
     <g id="line2d_24">
      <g>
       <use xlink:href="#m048a05cc65" x="1053.7" y="243.34" style="fill: #262626; stroke: #262626; stroke-width: 1.875"/>
      </g>
     </g>
     <g id="text_28">
      <!-- 0.6 -->
      <g style="fill: #262626" transform="translate(1042.2325 267.650391) scale(0.165 -0.165)">
       <use xlink:href="#ArialMT-30"/>
       <use xlink:href="#ArialMT-2e" transform="translate(55.615234 0)"/>
       <use xlink:href="#ArialMT-36" transform="translate(83.398438 0)"/>
      </g>
     </g>
    </g>
    <g id="text_29">
     <!-- Bicoid concentration $s$ -->
     <g style="fill: #262626" transform="translate(829.6475 287.813828) scale(0.18 -0.18)">
      <use xlink:href="#ArialMT-42" transform="translate(0 0.421875)"/>
      <use xlink:href="#ArialMT-69" transform="translate(66.699219 0.421875)"/>
      <use xlink:href="#ArialMT-63" transform="translate(88.916016 0.421875)"/>
      <use xlink:href="#ArialMT-6f" transform="translate(138.916016 0.421875)"/>
      <use xlink:href="#ArialMT-69" transform="translate(194.53125 0.421875)"/>
      <use xlink:href="#ArialMT-64" transform="translate(216.748047 0.421875)"/>
      <use xlink:href="#ArialMT-20" transform="translate(272.363281 0.421875)"/>
      <use xlink:href="#ArialMT-63" transform="translate(300.146484 0.421875)"/>
      <use xlink:href="#ArialMT-6f" transform="translate(350.146484 0.421875)"/>
      <use xlink:href="#ArialMT-6e" transform="translate(405.761719 0.421875)"/>
      <use xlink:href="#ArialMT-63" transform="translate(461.376953 0.421875)"/>
      <use xlink:href="#ArialMT-65" transform="translate(511.376953 0.421875)"/>
      <use xlink:href="#ArialMT-6e" transform="translate(566.992188 0.421875)"/>
      <use xlink:href="#ArialMT-74" transform="translate(622.607422 0.421875)"/>
      <use xlink:href="#ArialMT-72" transform="translate(650.390625 0.421875)"/>
      <use xlink:href="#ArialMT-61" transform="translate(683.691406 0.421875)"/>
      <use xlink:href="#ArialMT-74" transform="translate(739.306641 0.421875)"/>
      <use xlink:href="#ArialMT-69" transform="translate(767.089844 0.421875)"/>
      <use xlink:href="#ArialMT-6f" transform="translate(789.306641 0.421875)"/>
      <use xlink:href="#ArialMT-6e" transform="translate(844.921875 0.421875)"/>
      <use xlink:href="#ArialMT-20" transform="translate(900.537109 0.421875)"/>
      <use xlink:href="#DejaVuSans-Oblique-73" transform="translate(928.320312 0.421875)"/>
     </g>
    </g>
   </g>
   <g id="matplotlib.axis_6">
    <g id="ytick_11">
     <g id="line2d_25">
      <g>
       <use xlink:href="#m02c33c3e9d" x="782.175" y="210.358627" style="fill: #262626; stroke: #262626; stroke-width: 1.875"/>
      </g>
     </g>
     <g id="text_30">
      <!-- 0.00 -->
      <g style="fill: #262626" transform="translate(737.564453 216.263822) scale(0.165 -0.165)">
       <use xlink:href="#ArialMT-30"/>
       <use xlink:href="#ArialMT-2e" transform="translate(55.615234 0)"/>
       <use xlink:href="#ArialMT-30" transform="translate(83.398438 0)"/>
       <use xlink:href="#ArialMT-30" transform="translate(139.013672 0)"/>
      </g>
     </g>
    </g>
    <g id="ytick_12">
     <g id="line2d_26">
      <g>
       <use xlink:href="#m02c33c3e9d" x="782.175" y="171.974835" style="fill: #262626; stroke: #262626; stroke-width: 1.875"/>
      </g>
     </g>
     <g id="text_31">
      <!-- 0.25 -->
      <g style="fill: #262626" transform="translate(737.564453 177.88003) scale(0.165 -0.165)">
       <defs>
        <path id="ArialMT-35" d="M 266 1200 
L 856 1250 
Q 922 819 1161 601 
Q 1400 384 1738 384 
Q 2144 384 2425 690 
Q 2706 997 2706 1503 
Q 2706 1984 2436 2262 
Q 2166 2541 1728 2541 
Q 1456 2541 1237 2417 
Q 1019 2294 894 2097 
L 366 2166 
L 809 4519 
L 3088 4519 
L 3088 3981 
L 1259 3981 
L 1013 2750 
Q 1425 3038 1878 3038 
Q 2478 3038 2890 2622 
Q 3303 2206 3303 1553 
Q 3303 931 2941 478 
Q 2500 -78 1738 -78 
Q 1113 -78 717 272 
Q 322 622 266 1200 
z
" transform="scale(0.015625)"/>
       </defs>
       <use xlink:href="#ArialMT-30"/>
       <use xlink:href="#ArialMT-2e" transform="translate(55.615234 0)"/>
       <use xlink:href="#ArialMT-32" transform="translate(83.398438 0)"/>
       <use xlink:href="#ArialMT-35" transform="translate(139.013672 0)"/>
      </g>
     </g>
    </g>
    <g id="ytick_13">
     <g id="line2d_27">
      <g>
       <use xlink:href="#m02c33c3e9d" x="782.175" y="133.591042" style="fill: #262626; stroke: #262626; stroke-width: 1.875"/>
      </g>
     </g>
     <g id="text_32">
      <!-- 0.50 -->
      <g style="fill: #262626" transform="translate(737.564453 139.496238) scale(0.165 -0.165)">
       <use xlink:href="#ArialMT-30"/>
       <use xlink:href="#ArialMT-2e" transform="translate(55.615234 0)"/>
       <use xlink:href="#ArialMT-35" transform="translate(83.398438 0)"/>
       <use xlink:href="#ArialMT-30" transform="translate(139.013672 0)"/>
      </g>
     </g>
    </g>
    <g id="ytick_14">
     <g id="line2d_28">
      <g>
       <use xlink:href="#m02c33c3e9d" x="782.175" y="95.20725" style="fill: #262626; stroke: #262626; stroke-width: 1.875"/>
      </g>
     </g>
     <g id="text_33">
      <!-- 0.75 -->
      <g style="fill: #262626" transform="translate(737.564453 101.112445) scale(0.165 -0.165)">
       <defs>
        <path id="ArialMT-37" d="M 303 3981 
L 303 4522 
L 3269 4522 
L 3269 4084 
Q 2831 3619 2401 2847 
Q 1972 2075 1738 1259 
Q 1569 684 1522 0 
L 944 0 
Q 953 541 1156 1306 
Q 1359 2072 1739 2783 
Q 2119 3494 2547 3981 
L 303 3981 
z
" transform="scale(0.015625)"/>
       </defs>
       <use xlink:href="#ArialMT-30"/>
       <use xlink:href="#ArialMT-2e" transform="translate(55.615234 0)"/>
       <use xlink:href="#ArialMT-37" transform="translate(83.398438 0)"/>
       <use xlink:href="#ArialMT-35" transform="translate(139.013672 0)"/>
      </g>
     </g>
    </g>
    <g id="ytick_15">
     <g id="line2d_29">
      <g>
       <use xlink:href="#m02c33c3e9d" x="782.175" y="56.823458" style="fill: #262626; stroke: #262626; stroke-width: 1.875"/>
      </g>
     </g>
     <g id="text_34">
      <!-- 1.00 -->
      <g style="fill: #262626" transform="translate(737.564453 62.728653) scale(0.165 -0.165)">
       <use xlink:href="#ArialMT-31"/>
       <use xlink:href="#ArialMT-2e" transform="translate(55.615234 0)"/>
       <use xlink:href="#ArialMT-30" transform="translate(83.398438 0)"/>
       <use xlink:href="#ArialMT-30" transform="translate(139.013672 0)"/>
      </g>
     </g>
    </g>
    <g id="text_35">
     <!-- Occupancy $C$ -->
     <g style="fill: #262626" transform="translate(729.604453 188.93) rotate(-90) scale(0.18 -0.18)">
      <use xlink:href="#ArialMT-4f" transform="translate(0 0.78125)"/>
      <use xlink:href="#ArialMT-63" transform="translate(77.783203 0.78125)"/>
      <use xlink:href="#ArialMT-63" transform="translate(127.783203 0.78125)"/>
      <use xlink:href="#ArialMT-75" transform="translate(177.783203 0.78125)"/>
      <use xlink:href="#ArialMT-70" transform="translate(233.398438 0.78125)"/>
      <use xlink:href="#ArialMT-61" transform="translate(289.013672 0.78125)"/>
      <use xlink:href="#ArialMT-6e" transform="translate(344.628906 0.78125)"/>
      <use xlink:href="#ArialMT-63" transform="translate(400.244141 0.78125)"/>
      <use xlink:href="#ArialMT-79" transform="translate(450.244141 0.78125)"/>
      <use xlink:href="#ArialMT-20" transform="translate(500.244141 0.78125)"/>
      <use xlink:href="#DejaVuSans-Oblique-43" transform="translate(528.027344 0.78125)"/>
     </g>
    </g>
   </g>
   <g id="FillBetweenPolyCollection_3">
    <defs>
     <path id="m278c65055f" d="M 785.946181 -88.270406 
L 785.946181 -88.197232 
L 793.488542 -87.647381 
L 801.030903 -85.137211 
L 808.573264 -78.928215 
L 816.115625 -70.15728 
L 823.657986 -65.090419 
L 831.200347 -72.290901 
L 838.742708 -94.094515 
L 846.285069 -123.162153 
L 853.827431 -150.69134 
L 861.369792 -172.712074 
L 868.912153 -189.080997 
L 876.454514 -200.973337 
L 883.996875 -209.625696 
L 891.539236 -215.997017 
L 899.081597 -220.763975 
L 906.623958 -224.390547 
L 914.166319 -227.194193 
L 921.708681 -229.394173 
L 929.251042 -231.144099 
L 936.793403 -232.553324 
L 944.335764 -233.700957 
L 951.878125 -234.64512 
L 959.420486 -235.429144 
L 966.962847 -236.085768 
L 974.505208 -236.640042 
L 982.047569 -237.111349 
L 989.589931 -237.514845 
L 997.132292 -237.862494 
L 1004.674653 -238.163826 
L 1012.217014 -238.426491 
L 1019.759375 -238.656676 
L 1027.301736 -238.859421 
L 1034.844097 -239.038859 
L 1042.386458 -239.198396 
L 1049.928819 -239.340857 
L 1057.471181 -239.468599 
L 1065.013542 -239.583596 
L 1072.555903 -239.68751 
L 1080.098264 -239.781746 
L 1087.640625 -239.8675 
L 1095.182986 -239.945791 
L 1102.725347 -240.017491 
L 1110.267708 -240.08335 
L 1117.810069 -240.144018 
L 1125.352431 -240.200055 
L 1132.894792 -240.251949 
L 1140.437153 -240.300127 
L 1147.979514 -240.34496 
L 1155.521875 -240.386777 
L 1163.064236 -240.425865 
L 1170.606597 -240.462478 
L 1178.148958 -240.496843 
L 1185.691319 -240.529161 
L 1193.233681 -240.559608 
L 1200.776042 -240.588345 
L 1208.318403 -240.615515 
L 1215.860764 -240.641246 
L 1223.403125 -240.665652 
L 1230.945486 -240.688838 
L 1238.487847 -240.710896 
L 1246.030208 -240.731913 
L 1253.572569 -240.751964 
L 1261.114931 -240.771118 
L 1268.657292 -240.789441 
L 1268.657292 -241.023266 
L 1268.657292 -241.023266 
L 1261.114931 -241.01391 
L 1253.572569 -241.004477 
L 1246.030208 -240.994984 
L 1238.487847 -240.985453 
L 1230.945486 -240.975907 
L 1223.403125 -240.966373 
L 1215.860764 -240.956886 
L 1208.318403 -240.947482 
L 1200.776042 -240.938206 
L 1193.233681 -240.92911 
L 1185.691319 -240.920255 
L 1178.148958 -240.911709 
L 1170.606597 -240.903554 
L 1163.064236 -240.895886 
L 1155.521875 -240.888813 
L 1147.979514 -240.882465 
L 1140.437153 -240.876991 
L 1132.894792 -240.872566 
L 1125.352431 -240.869395 
L 1117.810069 -240.867718 
L 1110.267708 -240.867816 
L 1102.725347 -240.870021 
L 1095.182986 -240.874722 
L 1087.640625 -240.882382 
L 1080.098264 -240.893544 
L 1072.555903 -240.908856 
L 1065.013542 -240.929087 
L 1057.471181 -240.955153 
L 1049.928819 -240.988149 
L 1042.386458 -241.029387 
L 1034.844097 -241.080443 
L 1027.301736 -241.143217 
L 1019.759375 -241.220003 
L 1012.217014 -241.313585 
L 1004.674653 -241.427347 
L 997.132292 -241.565421 
L 989.589931 -241.732864 
L 982.047569 -241.935892 
L 974.505208 -242.182166 
L 966.962847 -242.48116 
L 959.420486 -242.844622 
L 951.878125 -243.287151 
L 944.335764 -243.826898 
L 936.793403 -244.486403 
L 929.251042 -245.293517 
L 921.708681 -246.282263 
L 914.166319 -247.493254 
L 906.623958 -248.972724 
L 899.081597 -250.768025 
L 891.539236 -252.914695 
L 883.996875 -255.404174 
L 876.454514 -258.108396 
L 868.912153 -260.612532 
L 861.369792 -261.872237 
L 853.827431 -259.628097 
L 846.285069 -249.867918 
L 838.742708 -227.873448 
L 831.200347 -193.105076 
L 823.657986 -153.899636 
L 816.115625 -121.731156 
L 808.573264 -101.623513 
L 801.030903 -92.04354 
L 793.488542 -88.883867 
L 785.946181 -88.270406 
z
" style="stroke: #cd3e78; stroke-opacity: 0.3; stroke-width: 1.5"/>
    </defs>
    <g clip-path="url(#pd8b0c8aefa)">
     <use xlink:href="#m278c65055f" x="0" y="298.591328" style="fill: #cd3e78; fill-opacity: 0.3; stroke: #cd3e78; stroke-opacity: 0.3; stroke-width: 1.5"/>
    </g>
   </g>
   <g id="line2d_30">
    <path d="M 785.946181 210.35751 
L 793.488542 210.325704 
L 801.030903 210.000953 
L 808.573264 208.315464 
L 816.115625 202.64711 
L 823.657986 189.096301 
L 831.200347 165.89334 
L 838.742708 137.607347 
L 846.285069 112.076293 
L 853.827431 93.431609 
L 861.369792 81.299172 
L 868.912153 73.744564 
L 876.454514 69.050461 
L 883.996875 66.076393 
L 891.539236 64.135472 
L 899.081597 62.825328 
L 906.623958 61.909693 
L 914.166319 61.247604 
L 921.708681 60.75311 
L 929.251042 60.37252 
L 936.793403 60.071464 
L 944.335764 59.8274 
L 951.878125 59.625192 
L 959.420486 59.454445 
L 966.962847 59.307864 
L 974.505208 59.180224 
L 982.047569 59.067707 
L 989.589931 58.967473 
L 997.132292 58.87737 
L 1004.674653 58.795741 
L 1012.217014 58.72129 
L 1019.759375 58.652989 
L 1027.301736 58.590009 
L 1034.844097 58.531677 
L 1042.386458 58.477437 
L 1049.928819 58.426825 
L 1057.471181 58.379452 
L 1065.013542 58.334986 
L 1072.555903 58.293145 
L 1073.3675 58.288899 
" clip-path="url(#pd8b0c8aefa)" style="fill: none; stroke: #cd3e78; stroke-width: 2.25; stroke-linecap: round"/>
   </g>
   <g id="patch_13">
    <path d="M 782.175 243.34 
L 782.175 26.88 
" style="fill: none; stroke: #262626; stroke-width: 1.875; stroke-linejoin: miter; stroke-linecap: square"/>
   </g>
   <g id="patch_14">
    <path d="M 1053.7 243.34 
L 1053.7 26.88 
" style="fill: none; stroke: #262626; stroke-width: 1.875; stroke-linejoin: miter; stroke-linecap: square"/>
   </g>
   <g id="patch_15">
    <path d="M 782.175 243.34 
L 1053.7 243.34 
" style="fill: none; stroke: #262626; stroke-width: 1.875; stroke-linejoin: miter; stroke-linecap: square"/>
   </g>
   <g id="patch_16">
    <path d="M 782.175 26.88 
L 1053.7 26.88 
" style="fill: none; stroke: #262626; stroke-width: 1.875; stroke-linejoin: miter; stroke-linecap: square"/>
   </g>
   <g id="text_36">
    <!-- Binding site region, $J=12$ $k_BT$ -->
    <g style="fill: #262626" transform="translate(795.8975 20.88) scale(0.18 -0.18)">
     <defs>
      <path id="DejaVuSans-31" d="M 794 531 
L 1825 531 
L 1825 4091 
L 703 3866 
L 703 4441 
L 1819 4666 
L 2450 4666 
L 2450 531 
L 3481 531 
L 3481 0 
L 794 0 
L 794 531 
z
" transform="scale(0.015625)"/>
      <path id="DejaVuSans-32" d="M 1228 531 
L 3431 531 
L 3431 0 
L 469 0 
L 469 531 
Q 828 903 1448 1529 
Q 2069 2156 2228 2338 
Q 2531 2678 2651 2914 
Q 2772 3150 2772 3378 
Q 2772 3750 2511 3984 
Q 2250 4219 1831 4219 
Q 1534 4219 1204 4116 
Q 875 4013 500 3803 
L 500 4441 
Q 881 4594 1212 4672 
Q 1544 4750 1819 4750 
Q 2544 4750 2975 4387 
Q 3406 4025 3406 3419 
Q 3406 3131 3298 2873 
Q 3191 2616 2906 2266 
Q 2828 2175 2409 1742 
Q 1991 1309 1228 531 
z
" transform="scale(0.015625)"/>
     </defs>
     <use xlink:href="#ArialMT-42" transform="translate(0 0.015625)"/>
     <use xlink:href="#ArialMT-69" transform="translate(66.699219 0.015625)"/>
     <use xlink:href="#ArialMT-6e" transform="translate(88.916016 0.015625)"/>
     <use xlink:href="#ArialMT-64" transform="translate(144.53125 0.015625)"/>
     <use xlink:href="#ArialMT-69" transform="translate(200.146484 0.015625)"/>
     <use xlink:href="#ArialMT-6e" transform="translate(222.363281 0.015625)"/>
     <use xlink:href="#ArialMT-67" transform="translate(277.978516 0.015625)"/>
     <use xlink:href="#ArialMT-20" transform="translate(333.59375 0.015625)"/>
     <use xlink:href="#ArialMT-73" transform="translate(361.376953 0.015625)"/>
     <use xlink:href="#ArialMT-69" transform="translate(411.376953 0.015625)"/>
     <use xlink:href="#ArialMT-74" transform="translate(433.59375 0.015625)"/>
     <use xlink:href="#ArialMT-65" transform="translate(461.376953 0.015625)"/>
     <use xlink:href="#ArialMT-20" transform="translate(516.992188 0.015625)"/>
     <use xlink:href="#ArialMT-72" transform="translate(544.775391 0.015625)"/>
     <use xlink:href="#ArialMT-65" transform="translate(578.076172 0.015625)"/>
     <use xlink:href="#ArialMT-67" transform="translate(633.691406 0.015625)"/>
     <use xlink:href="#ArialMT-69" transform="translate(689.306641 0.015625)"/>
     <use xlink:href="#ArialMT-6f" transform="translate(711.523438 0.015625)"/>
     <use xlink:href="#ArialMT-6e" transform="translate(767.138672 0.015625)"/>
     <use xlink:href="#ArialMT-2c" transform="translate(822.753906 0.015625)"/>
     <use xlink:href="#ArialMT-20" transform="translate(850.537109 0.015625)"/>
     <use xlink:href="#DejaVuSans-Oblique-4a" transform="translate(878.320312 0.015625)"/>
     <use xlink:href="#DejaVuSans-3d" transform="translate(927.294922 0.015625)"/>
     <use xlink:href="#DejaVuSans-31" transform="translate(1030.566406 0.015625)"/>
     <use xlink:href="#DejaVuSans-32" transform="translate(1094.189453 0.015625)"/>
     <use xlink:href="#ArialMT-20" transform="translate(1157.8125 0.015625)"/>
     <use xlink:href="#DejaVuSans-Oblique-6b" transform="translate(1185.595703 0.015625)"/>
     <use xlink:href="#DejaVuSans-Oblique-42" transform="translate(1243.505859 -16.390625) scale(0.7)"/>
     <use xlink:href="#DejaVuSans-Oblique-54" transform="translate(1294.262695 0.015625)"/>
    </g>
   </g>
  </g>
 </g>
 <defs>
  <clipPath id="pd026c84804">
   <rect x="64.095" y="26.88" width="271.525" height="216.46"/>
  </clipPath>
  <clipPath id="p44f372103d">
   <rect x="423.135" y="26.88" width="271.525" height="216.46"/>
  </clipPath>
  <clipPath id="pd8b0c8aefa">
   <rect x="782.175" y="26.88" width="271.525" height="216.46"/>
  </clipPath>
 </defs>
</svg>
