<?xml version="1.0" encoding="utf-8" standalone="no"?>
<!DOCTYPE svg PUBLIC "-//W3C//DTD SVG 1.1//EN"
  "http://www.w3.org/Graphics/SVG/1.1/DTD/svg11.dtd">
<svg xmlns:xlink="http://www.w3.org/1999/xlink" width="869.4725pt" height="226.591328pt" viewBox="0 0 869.4725 226.591328" xmlns="http://www.w3.org/2000/svg" version="1.1">
 <metadata>
  <rdf:RDF xmlns:dc="http://purl.org/dc/elements/1.1/" xmlns:cc="http://creativecommons.org/ns#" xmlns:rdf="http://www.w3.org/1999/02/22-rdf-syntax-ns#">
   <cc:Work>
    <dc:type rdf:resource="http://purl.org/dc/dcmitype/StillImage"/>
    <dc:date>2025-11-19T20:48:50.105878</dc:date>
    <dc:format>image/svg+xml</dc:format>
    <dc:creator>
     <cc:Agent>
      <dc:title>Matplotlib v3.10.7, https://matplotlib.org/</dc:title>
     </cc:Agent>
    </dc:creator>
   </cc:Work>
  </rdf:RDF>
 </metadata>
 <defs>
  <style type="text/css">*{stroke-linejoin: round; stroke-linecap: butt}</style>
 </defs>
 <g id="figure_1">
  <g id="patch_1">
   <path d="M 0 226.591328 
L 869.4725 226.591328 
L 869.4725 0 
L 0 0 
z
" style="fill: #ffffff"/>
  </g>
  <g id="axes_1">
   <g id="patch_2">
    <path d="M 64.095 171.34 
L 268.21 171.34 
L 268.21 26.88 
L 64.095 26.88 
z
" style="fill: #ffffff"/>
   </g>
   <g id="matplotlib.axis_1">
    <g id="xtick_1">
     <g id="line2d_1">
      <defs>
       <path id="ma620bdec55" d="M 0 0 
L 0 9 
" style="stroke: #262626; stroke-width: 1.875"/>
      </defs>
      <g>
       <use xlink:href="#ma620bdec55" x="64.095" y="171.34" style="fill: #262626; stroke: #262626; stroke-width: 1.875"/>
      </g>
     </g>
     <g id="text_1">
      <!-- 0.0 -->
      <g style="fill: #262626" transform="translate(52.6275 195.650391) scale(0.165 -0.165)">
       <defs>
        <path id="ArialMT-30" d="M 266 2259 
Q 266 3072 433 3567 
Q 600 4063 929 4331 
Q 1259 4600 1759 4600 
Q 2128 4600 2406 4451 
Q 2684 4303 2865 4023 
Q 3047 3744 3150 3342 
Q 3253 2941 3253 2259 
Q 3253 1453 3087 958 
Q 2922 463 2592 192 
Q 2263 -78 1759 -78 
Q 1097 -78 719 397 
Q 266 969 266 2259 
z
M 844 2259 
Q 844 1131 1108 757 
Q 1372 384 1759 384 
Q 2147 384 2411 759 
Q 2675 1134 2675 2259 
Q 2675 3391 2411 3762 
Q 2147 4134 1753 4134 
Q 1366 4134 1134 3806 
Q 844 3388 844 2259 
z
" transform="scale(0.015625)"/>
        <path id="ArialMT-2e" d="M 581 0 
L 581 641 
L 1222 641 
L 1222 0 
L 581 0 
z
" transform="scale(0.015625)"/>
       </defs>
       <use xlink:href="#ArialMT-30"/>
       <use xlink:href="#ArialMT-2e" transform="translate(55.615234 0)"/>
       <use xlink:href="#ArialMT-30" transform="translate(83.398438 0)"/>
      </g>
     </g>
    </g>
    <g id="xtick_2">
     <g id="line2d_2">
      <g>
       <use xlink:href="#ma620bdec55" x="132.133333" y="171.34" style="fill: #262626; stroke: #262626; stroke-width: 1.875"/>
      </g>
     </g>
     <g id="text_2">
      <!-- 0.2 -->
      <g style="fill: #262626" transform="translate(120.665833 195.650391) scale(0.165 -0.165)">
       <defs>
        <path id="ArialMT-32" d="M 3222 541 
L 3222 0 
L 194 0 
Q 188 203 259 391 
Q 375 700 629 1000 
Q 884 1300 1366 1694 
Q 2113 2306 2375 2664 
Q 2638 3022 2638 3341 
Q 2638 3675 2398 3904 
Q 2159 4134 1775 4134 
Q 1369 4134 1125 3890 
Q 881 3647 878 3216 
L 300 3275 
Q 359 3922 746 4261 
Q 1134 4600 1788 4600 
Q 2447 4600 2831 4234 
Q 3216 3869 3216 3328 
Q 3216 3053 3103 2787 
Q 2991 2522 2730 2228 
Q 2469 1934 1863 1422 
Q 1356 997 1212 845 
Q 1069 694 975 541 
L 3222 541 
z
" transform="scale(0.015625)"/>
       </defs>
       <use xlink:href="#ArialMT-30"/>
       <use xlink:href="#ArialMT-2e" transform="translate(55.615234 0)"/>
       <use xlink:href="#ArialMT-32" transform="translate(83.398438 0)"/>
      </g>
     </g>
    </g>
    <g id="xtick_3">
     <g id="line2d_3">
      <g>
       <use xlink:href="#ma620bdec55" x="200.171667" y="171.34" style="fill: #262626; stroke: #262626; stroke-width: 1.875"/>
      </g>
     </g>
     <g id="text_3">
      <!-- 0.4 -->
      <g style="fill: #262626" transform="translate(188.704167 195.650391) scale(0.165 -0.165)">
       <defs>
        <path id="ArialMT-34" d="M 2069 0 
L 2069 1097 
L 81 1097 
L 81 1613 
L 2172 4581 
L 2631 4581 
L 2631 1613 
L 3250 1613 
L 3250 1097 
L 2631 1097 
L 2631 0 
L 2069 0 
z
M 2069 1613 
L 2069 3678 
L 634 1613 
L 2069 1613 
z
" transform="scale(0.015625)"/>
       </defs>
       <use xlink:href="#ArialMT-30"/>
       <use xlink:href="#ArialMT-2e" transform="translate(55.615234 0)"/>
       <use xlink:href="#ArialMT-34" transform="translate(83.398438 0)"/>
      </g>
     </g>
    </g>
    <g id="xtick_4">
     <g id="line2d_4">
      <g>
       <use xlink:href="#ma620bdec55" x="268.21" y="171.34" style="fill: #262626; stroke: #262626; stroke-width: 1.875"/>
      </g>
     </g>
     <g id="text_4">
      <!-- 0.6 -->
      <g style="fill: #262626" transform="translate(256.7425 195.650391) scale(0.165 -0.165)">
       <defs>
        <path id="ArialMT-36" d="M 3184 3459 
L 2625 3416 
Q 2550 3747 2413 3897 
Q 2184 4138 1850 4138 
Q 1581 4138 1378 3988 
Q 1113 3794 959 3422 
Q 806 3050 800 2363 
Q 1003 2672 1297 2822 
Q 1591 2972 1913 2972 
Q 2475 2972 2870 2558 
Q 3266 2144 3266 1488 
Q 3266 1056 3080 686 
Q 2894 316 2569 119 
Q 2244 -78 1831 -78 
Q 1128 -78 684 439 
Q 241 956 241 2144 
Q 241 3472 731 4075 
Q 1159 4600 1884 4600 
Q 2425 4600 2770 4297 
Q 3116 3994 3184 3459 
z
M 888 1484 
Q 888 1194 1011 928 
Q 1134 663 1356 523 
Q 1578 384 1822 384 
Q 2178 384 2434 671 
Q 2691 959 2691 1453 
Q 2691 1928 2437 2201 
Q 2184 2475 1800 2475 
Q 1419 2475 1153 2201 
Q 888 1928 888 1484 
z
" transform="scale(0.015625)"/>
       </defs>
       <use xlink:href="#ArialMT-30"/>
       <use xlink:href="#ArialMT-2e" transform="translate(55.615234 0)"/>
       <use xlink:href="#ArialMT-36" transform="translate(83.398438 0)"/>
      </g>
     </g>
    </g>
    <g id="text_5">
     <!-- Bicoid concentration $s$ -->
     <g style="fill: #262626" transform="translate(77.8625 215.813828) scale(0.18 -0.18)">
      <defs>
       <path id="ArialMT-42" d="M 469 0 
L 469 4581 
L 2188 4581 
Q 2713 4581 3030 4442 
Q 3347 4303 3526 4014 
Q 3706 3725 3706 3409 
Q 3706 3116 3547 2856 
Q 3388 2597 3066 2438 
Q 3481 2316 3704 2022 
Q 3928 1728 3928 1328 
Q 3928 1006 3792 729 
Q 3656 453 3456 303 
Q 3256 153 2954 76 
Q 2653 0 2216 0 
L 469 0 
z
M 1075 2656 
L 2066 2656 
Q 2469 2656 2644 2709 
Q 2875 2778 2992 2937 
Q 3109 3097 3109 3338 
Q 3109 3566 3000 3739 
Q 2891 3913 2687 3977 
Q 2484 4041 1991 4041 
L 1075 4041 
L 1075 2656 
z
M 1075 541 
L 2216 541 
Q 2509 541 2628 563 
Q 2838 600 2978 687 
Q 3119 775 3209 942 
Q 3300 1109 3300 1328 
Q 3300 1584 3169 1773 
Q 3038 1963 2805 2039 
Q 2572 2116 2134 2116 
L 1075 2116 
L 1075 541 
z
" transform="scale(0.015625)"/>
       <path id="ArialMT-69" d="M 425 3934 
L 425 4581 
L 988 4581 
L 988 3934 
L 425 3934 
z
M 425 0 
L 425 3319 
L 988 3319 
L 988 0 
L 425 0 
z
" transform="scale(0.015625)"/>
       <path id="ArialMT-63" d="M 2588 1216 
L 3141 1144 
Q 3050 572 2676 248 
Q 2303 -75 1759 -75 
Q 1078 -75 664 370 
Q 250 816 250 1647 
Q 250 2184 428 2587 
Q 606 2991 970 3192 
Q 1334 3394 1763 3394 
Q 2303 3394 2647 3120 
Q 2991 2847 3088 2344 
L 2541 2259 
Q 2463 2594 2264 2762 
Q 2066 2931 1784 2931 
Q 1359 2931 1093 2626 
Q 828 2322 828 1663 
Q 828 994 1084 691 
Q 1341 388 1753 388 
Q 2084 388 2306 591 
Q 2528 794 2588 1216 
z
" transform="scale(0.015625)"/>
       <path id="ArialMT-6f" d="M 213 1659 
Q 213 2581 725 3025 
Q 1153 3394 1769 3394 
Q 2453 3394 2887 2945 
Q 3322 2497 3322 1706 
Q 3322 1066 3130 698 
Q 2938 331 2570 128 
Q 2203 -75 1769 -75 
Q 1072 -75 642 372 
Q 213 819 213 1659 
z
M 791 1659 
Q 791 1022 1069 705 
Q 1347 388 1769 388 
Q 2188 388 2466 706 
Q 2744 1025 2744 1678 
Q 2744 2294 2464 2611 
Q 2184 2928 1769 2928 
Q 1347 2928 1069 2612 
Q 791 2297 791 1659 
z
" transform="scale(0.015625)"/>
       <path id="ArialMT-64" d="M 2575 0 
L 2575 419 
Q 2259 -75 1647 -75 
Q 1250 -75 917 144 
Q 584 363 401 755 
Q 219 1147 219 1656 
Q 219 2153 384 2558 
Q 550 2963 881 3178 
Q 1213 3394 1622 3394 
Q 1922 3394 2156 3267 
Q 2391 3141 2538 2938 
L 2538 4581 
L 3097 4581 
L 3097 0 
L 2575 0 
z
M 797 1656 
Q 797 1019 1065 703 
Q 1334 388 1700 388 
Q 2069 388 2326 689 
Q 2584 991 2584 1609 
Q 2584 2291 2321 2609 
Q 2059 2928 1675 2928 
Q 1300 2928 1048 2622 
Q 797 2316 797 1656 
z
" transform="scale(0.015625)"/>
       <path id="ArialMT-20" transform="scale(0.015625)"/>
       <path id="ArialMT-6e" d="M 422 0 
L 422 3319 
L 928 3319 
L 928 2847 
Q 1294 3394 1984 3394 
Q 2284 3394 2536 3286 
Q 2788 3178 2913 3003 
Q 3038 2828 3088 2588 
Q 3119 2431 3119 2041 
L 3119 0 
L 2556 0 
L 2556 2019 
Q 2556 2363 2490 2533 
Q 2425 2703 2258 2804 
Q 2091 2906 1866 2906 
Q 1506 2906 1245 2678 
Q 984 2450 984 1813 
L 984 0 
L 422 0 
z
" transform="scale(0.015625)"/>
       <path id="ArialMT-65" d="M 2694 1069 
L 3275 997 
Q 3138 488 2766 206 
Q 2394 -75 1816 -75 
Q 1088 -75 661 373 
Q 234 822 234 1631 
Q 234 2469 665 2931 
Q 1097 3394 1784 3394 
Q 2450 3394 2872 2941 
Q 3294 2488 3294 1666 
Q 3294 1616 3291 1516 
L 816 1516 
Q 847 969 1125 678 
Q 1403 388 1819 388 
Q 2128 388 2347 550 
Q 2566 713 2694 1069 
z
M 847 1978 
L 2700 1978 
Q 2663 2397 2488 2606 
Q 2219 2931 1791 2931 
Q 1403 2931 1139 2672 
Q 875 2413 847 1978 
z
" transform="scale(0.015625)"/>
       <path id="ArialMT-74" d="M 1650 503 
L 1731 6 
Q 1494 -44 1306 -44 
Q 1000 -44 831 53 
Q 663 150 594 308 
Q 525 466 525 972 
L 525 2881 
L 113 2881 
L 113 3319 
L 525 3319 
L 525 4141 
L 1084 4478 
L 1084 3319 
L 1650 3319 
L 1650 2881 
L 1084 2881 
L 1084 941 
Q 1084 700 1114 631 
Q 1144 563 1211 522 
Q 1278 481 1403 481 
Q 1497 481 1650 503 
z
" transform="scale(0.015625)"/>
       <path id="ArialMT-72" d="M 416 0 
L 416 3319 
L 922 3319 
L 922 2816 
Q 1116 3169 1280 3281 
Q 1444 3394 1641 3394 
Q 1925 3394 2219 3213 
L 2025 2691 
Q 1819 2813 1613 2813 
Q 1428 2813 1281 2702 
Q 1134 2591 1072 2394 
Q 978 2094 978 1738 
L 978 0 
L 416 0 
z
" transform="scale(0.015625)"/>
       <path id="ArialMT-61" d="M 2588 409 
Q 2275 144 1986 34 
Q 1697 -75 1366 -75 
Q 819 -75 525 192 
Q 231 459 231 875 
Q 231 1119 342 1320 
Q 453 1522 633 1644 
Q 813 1766 1038 1828 
Q 1203 1872 1538 1913 
Q 2219 1994 2541 2106 
Q 2544 2222 2544 2253 
Q 2544 2597 2384 2738 
Q 2169 2928 1744 2928 
Q 1347 2928 1158 2789 
Q 969 2650 878 2297 
L 328 2372 
Q 403 2725 575 2942 
Q 747 3159 1072 3276 
Q 1397 3394 1825 3394 
Q 2250 3394 2515 3294 
Q 2781 3194 2906 3042 
Q 3031 2891 3081 2659 
Q 3109 2516 3109 2141 
L 3109 1391 
Q 3109 606 3145 398 
Q 3181 191 3288 0 
L 2700 0 
Q 2613 175 2588 409 
z
M 2541 1666 
Q 2234 1541 1622 1453 
Q 1275 1403 1131 1340 
Q 988 1278 909 1158 
Q 831 1038 831 891 
Q 831 666 1001 516 
Q 1172 366 1500 366 
Q 1825 366 2078 508 
Q 2331 650 2450 897 
Q 2541 1088 2541 1459 
L 2541 1666 
z
" transform="scale(0.015625)"/>
       <path id="DejaVuSans-Oblique-73" d="M 3200 3397 
L 3091 2853 
Q 2863 2978 2609 3040 
Q 2356 3103 2088 3103 
Q 1634 3103 1373 2948 
Q 1113 2794 1113 2528 
Q 1113 2219 1719 2053 
Q 1766 2041 1788 2034 
L 1972 1978 
Q 2547 1819 2739 1644 
Q 2931 1469 2931 1166 
Q 2931 609 2489 259 
Q 2047 -91 1331 -91 
Q 1053 -91 747 -37 
Q 441 16 72 128 
L 184 722 
Q 500 559 806 475 
Q 1113 391 1394 391 
Q 1816 391 2080 572 
Q 2344 753 2344 1031 
Q 2344 1331 1650 1516 
L 1591 1531 
L 1394 1581 
Q 956 1697 753 1886 
Q 550 2075 550 2369 
Q 550 2928 970 3256 
Q 1391 3584 2113 3584 
Q 2397 3584 2667 3537 
Q 2938 3491 3200 3397 
z
" transform="scale(0.015625)"/>
      </defs>
      <use xlink:href="#ArialMT-42" transform="translate(0 0.421875)"/>
      <use xlink:href="#ArialMT-69" transform="translate(66.699219 0.421875)"/>
      <use xlink:href="#ArialMT-63" transform="translate(88.916016 0.421875)"/>
      <use xlink:href="#ArialMT-6f" transform="translate(138.916016 0.421875)"/>
      <use xlink:href="#ArialMT-69" transform="translate(194.53125 0.421875)"/>
      <use xlink:href="#ArialMT-64" transform="translate(216.748047 0.421875)"/>
      <use xlink:href="#ArialMT-20" transform="translate(272.363281 0.421875)"/>
      <use xlink:href="#ArialMT-63" transform="translate(300.146484 0.421875)"/>
      <use xlink:href="#ArialMT-6f" transform="translate(350.146484 0.421875)"/>
      <use xlink:href="#ArialMT-6e" transform="translate(405.761719 0.421875)"/>
      <use xlink:href="#ArialMT-63" transform="translate(461.376953 0.421875)"/>
      <use xlink:href="#ArialMT-65" transform="translate(511.376953 0.421875)"/>
      <use xlink:href="#ArialMT-6e" transform="translate(566.992188 0.421875)"/>
      <use xlink:href="#ArialMT-74" transform="translate(622.607422 0.421875)"/>
      <use xlink:href="#ArialMT-72" transform="translate(650.390625 0.421875)"/>
      <use xlink:href="#ArialMT-61" transform="translate(683.691406 0.421875)"/>
      <use xlink:href="#ArialMT-74" transform="translate(739.306641 0.421875)"/>
      <use xlink:href="#ArialMT-69" transform="translate(767.089844 0.421875)"/>
      <use xlink:href="#ArialMT-6f" transform="translate(789.306641 0.421875)"/>
      <use xlink:href="#ArialMT-6e" transform="translate(844.921875 0.421875)"/>
      <use xlink:href="#ArialMT-20" transform="translate(900.537109 0.421875)"/>
      <use xlink:href="#DejaVuSans-Oblique-73" transform="translate(928.320312 0.421875)"/>
     </g>
    </g>
   </g>
   <g id="matplotlib.axis_2">
    <g id="ytick_1">
     <g id="line2d_5">
      <defs>
       <path id="mbfbc6f93af" d="M 0 0 
L -9 0 
" style="stroke: #262626; stroke-width: 1.875"/>
      </defs>
      <g>
       <use xlink:href="#mbfbc6f93af" x="64.095" y="160.223638" style="fill: #262626; stroke: #262626; stroke-width: 1.875"/>
      </g>
     </g>
     <g id="text_6">
      <!-- 0.0 -->
      <g style="fill: #262626" transform="translate(28.66 166.128833) scale(0.165 -0.165)">
       <use xlink:href="#ArialMT-30"/>
       <use xlink:href="#ArialMT-2e" transform="translate(55.615234 0)"/>
       <use xlink:href="#ArialMT-30" transform="translate(83.398438 0)"/>
      </g>
     </g>
    </g>
    <g id="ytick_2">
     <g id="line2d_6">
      <g>
       <use xlink:href="#mbfbc6f93af" x="64.095" y="98.061059" style="fill: #262626; stroke: #262626; stroke-width: 1.875"/>
      </g>
     </g>
     <g id="text_7">
      <!-- 0.5 -->
      <g style="fill: #262626" transform="translate(28.66 103.966254) scale(0.165 -0.165)">
       <defs>
        <path id="ArialMT-35" d="M 266 1200 
L 856 1250 
Q 922 819 1161 601 
Q 1400 384 1738 384 
Q 2144 384 2425 690 
Q 2706 997 2706 1503 
Q 2706 1984 2436 2262 
Q 2166 2541 1728 2541 
Q 1456 2541 1237 2417 
Q 1019 2294 894 2097 
L 366 2166 
L 809 4519 
L 3088 4519 
L 3088 3981 
L 1259 3981 
L 1013 2750 
Q 1425 3038 1878 3038 
Q 2478 3038 2890 2622 
Q 3303 2206 3303 1553 
Q 3303 931 2941 478 
Q 2500 -78 1738 -78 
Q 1113 -78 717 272 
Q 322 622 266 1200 
z
" transform="scale(0.015625)"/>
       </defs>
       <use xlink:href="#ArialMT-30"/>
       <use xlink:href="#ArialMT-2e" transform="translate(55.615234 0)"/>
       <use xlink:href="#ArialMT-35" transform="translate(83.398438 0)"/>
      </g>
     </g>
    </g>
    <g id="ytick_3">
     <g id="line2d_7">
      <g>
       <use xlink:href="#mbfbc6f93af" x="64.095" y="35.898479" style="fill: #262626; stroke: #262626; stroke-width: 1.875"/>
      </g>
     </g>
     <g id="text_8">
      <!-- 1.0 -->
      <g style="fill: #262626" transform="translate(28.66 41.803674) scale(0.165 -0.165)">
       <defs>
        <path id="ArialMT-31" d="M 2384 0 
L 1822 0 
L 1822 3584 
Q 1619 3391 1289 3197 
Q 959 3003 697 2906 
L 697 3450 
Q 1169 3672 1522 3987 
Q 1875 4303 2022 4600 
L 2384 4600 
L 2384 0 
z
" transform="scale(0.015625)"/>
       </defs>
       <use xlink:href="#ArialMT-31"/>
       <use xlink:href="#ArialMT-2e" transform="translate(55.615234 0)"/>
       <use xlink:href="#ArialMT-30" transform="translate(83.398438 0)"/>
      </g>
     </g>
    </g>
    <g id="text_9">
     <!-- Occupancy $C$ -->
     <g style="fill: #262626" transform="translate(20.7 152.93) rotate(-90) scale(0.18 -0.18)">
      <defs>
       <path id="ArialMT-4f" d="M 309 2231 
Q 309 3372 921 4017 
Q 1534 4663 2503 4663 
Q 3138 4663 3647 4359 
Q 4156 4056 4423 3514 
Q 4691 2972 4691 2284 
Q 4691 1588 4409 1038 
Q 4128 488 3612 205 
Q 3097 -78 2500 -78 
Q 1853 -78 1343 234 
Q 834 547 571 1087 
Q 309 1628 309 2231 
z
M 934 2222 
Q 934 1394 1379 917 
Q 1825 441 2497 441 
Q 3181 441 3623 922 
Q 4066 1403 4066 2288 
Q 4066 2847 3877 3264 
Q 3688 3681 3323 3911 
Q 2959 4141 2506 4141 
Q 1863 4141 1398 3698 
Q 934 3256 934 2222 
z
" transform="scale(0.015625)"/>
       <path id="ArialMT-75" d="M 2597 0 
L 2597 488 
Q 2209 -75 1544 -75 
Q 1250 -75 995 37 
Q 741 150 617 320 
Q 494 491 444 738 
Q 409 903 409 1263 
L 409 3319 
L 972 3319 
L 972 1478 
Q 972 1038 1006 884 
Q 1059 663 1231 536 
Q 1403 409 1656 409 
Q 1909 409 2131 539 
Q 2353 669 2445 892 
Q 2538 1116 2538 1541 
L 2538 3319 
L 3100 3319 
L 3100 0 
L 2597 0 
z
" transform="scale(0.015625)"/>
       <path id="ArialMT-70" d="M 422 -1272 
L 422 3319 
L 934 3319 
L 934 2888 
Q 1116 3141 1344 3267 
Q 1572 3394 1897 3394 
Q 2322 3394 2647 3175 
Q 2972 2956 3137 2557 
Q 3303 2159 3303 1684 
Q 3303 1175 3120 767 
Q 2938 359 2589 142 
Q 2241 -75 1856 -75 
Q 1575 -75 1351 44 
Q 1128 163 984 344 
L 984 -1272 
L 422 -1272 
z
M 931 1641 
Q 931 1000 1190 694 
Q 1450 388 1819 388 
Q 2194 388 2461 705 
Q 2728 1022 2728 1688 
Q 2728 2322 2467 2637 
Q 2206 2953 1844 2953 
Q 1484 2953 1207 2617 
Q 931 2281 931 1641 
z
" transform="scale(0.015625)"/>
       <path id="ArialMT-79" d="M 397 -1278 
L 334 -750 
Q 519 -800 656 -800 
Q 844 -800 956 -737 
Q 1069 -675 1141 -563 
Q 1194 -478 1313 -144 
Q 1328 -97 1363 -6 
L 103 3319 
L 709 3319 
L 1400 1397 
Q 1534 1031 1641 628 
Q 1738 1016 1872 1384 
L 2581 3319 
L 3144 3319 
L 1881 -56 
Q 1678 -603 1566 -809 
Q 1416 -1088 1222 -1217 
Q 1028 -1347 759 -1347 
Q 597 -1347 397 -1278 
z
" transform="scale(0.015625)"/>
       <path id="DejaVuSans-Oblique-43" d="M 4447 4306 
L 4319 3641 
Q 4019 3944 3683 4091 
Q 3347 4238 2956 4238 
Q 2422 4238 2017 3981 
Q 1613 3725 1319 3200 
Q 1131 2863 1032 2486 
Q 934 2109 934 1728 
Q 934 1091 1264 756 
Q 1594 422 2222 422 
Q 2656 422 3056 561 
Q 3456 700 3834 978 
L 3688 231 
Q 3316 72 2936 -9 
Q 2556 -91 2175 -91 
Q 1278 -91 773 396 
Q 269 884 269 1753 
Q 269 2309 461 2846 
Q 653 3384 1013 3828 
Q 1394 4300 1883 4525 
Q 2372 4750 3022 4750 
Q 3422 4750 3780 4639 
Q 4138 4528 4447 4306 
z
" transform="scale(0.015625)"/>
      </defs>
      <use xlink:href="#ArialMT-4f" transform="translate(0 0.78125)"/>
      <use xlink:href="#ArialMT-63" transform="translate(77.783203 0.78125)"/>
      <use xlink:href="#ArialMT-63" transform="translate(127.783203 0.78125)"/>
      <use xlink:href="#ArialMT-75" transform="translate(177.783203 0.78125)"/>
      <use xlink:href="#ArialMT-70" transform="translate(233.398438 0.78125)"/>
      <use xlink:href="#ArialMT-61" transform="translate(289.013672 0.78125)"/>
      <use xlink:href="#ArialMT-6e" transform="translate(344.628906 0.78125)"/>
      <use xlink:href="#ArialMT-63" transform="translate(400.244141 0.78125)"/>
      <use xlink:href="#ArialMT-79" transform="translate(450.244141 0.78125)"/>
      <use xlink:href="#ArialMT-20" transform="translate(500.244141 0.78125)"/>
      <use xlink:href="#DejaVuSans-Oblique-43" transform="translate(528.027344 0.78125)"/>
     </g>
    </g>
   </g>
   <g id="FillBetweenPolyCollection_1">
    <defs>
     <path id="m5cc2fe4a58" d="M 66.929931 -86.192221 
L 66.929931 -61.817692 
L 72.599792 -67.973268 
L 78.269653 -75.145579 
L 83.939514 -81.870199 
L 89.609375 -87.939901 
L 95.279236 -93.369752 
L 100.949097 -98.225879 
L 106.618958 -102.58132 
L 112.288819 -106.503423 
L 117.958681 -110.050786 
L 123.628542 -113.273287 
L 129.298403 -116.213057 
L 134.968264 -118.905645 
L 140.638125 -121.381103 
L 146.307986 -123.664927 
L 151.977847 -125.778845 
L 157.647708 -127.74146 
L 163.317569 -129.568775 
L 168.987431 -131.274623 
L 174.657292 -132.871016 
L 180.327153 -134.368431 
L 185.997014 -135.776048 
L 191.666875 -137.101937 
L 197.336736 -138.353228 
L 203.006597 -139.536236 
L 208.676458 -140.65658 
L 214.346319 -141.719272 
L 220.016181 -142.7288 
L 225.686042 -143.689191 
L 231.355903 -144.604072 
L 237.025764 -145.476719 
L 242.695625 -146.310096 
L 248.365486 -147.106893 
L 254.035347 -147.869556 
L 259.705208 -148.600315 
L 265.375069 -149.301208 
L 271.044931 -149.9741 
L 276.714792 -150.620703 
L 282.384653 -151.242588 
L 288.054514 -151.841203 
L 293.724375 -152.417884 
L 299.394236 -152.973863 
L 305.064097 -153.510281 
L 310.733958 -154.028197 
L 316.403819 -154.528591 
L 322.073681 -155.012375 
L 327.743542 -155.480398 
L 333.413403 -155.933452 
L 339.083264 -156.372274 
L 344.753125 -156.797553 
L 350.422986 -157.209936 
L 356.092847 -157.610024 
L 361.762708 -157.998386 
L 367.432569 -158.375552 
L 373.102431 -158.74202 
L 378.772292 -159.098262 
L 384.442153 -159.444717 
L 390.112014 -159.781803 
L 395.781875 -160.109912 
L 401.451736 -160.429415 
L 407.121597 -160.740661 
L 412.791458 -161.043982 
L 418.461319 -161.339691 
L 424.131181 -161.628084 
L 429.801042 -161.909443 
L 429.801042 -193.144964 
L 429.801042 -193.144964 
L 424.131181 -193.056184 
L 418.461319 -192.963883 
L 412.791458 -192.867886 
L 407.121597 -192.768004 
L 401.451736 -192.664036 
L 395.781875 -192.555769 
L 390.112014 -192.442975 
L 384.442153 -192.325409 
L 378.772292 -192.202811 
L 373.102431 -192.074902 
L 367.432569 -191.941382 
L 361.762708 -191.801932 
L 356.092847 -191.656207 
L 350.422986 -191.503837 
L 344.753125 -191.344422 
L 339.083264 -191.177535 
L 333.413403 -191.002711 
L 327.743542 -190.819449 
L 322.073681 -190.627208 
L 316.403819 -190.425401 
L 310.733958 -190.213391 
L 305.064097 -189.990486 
L 299.394236 -189.755932 
L 293.724375 -189.508908 
L 288.054514 -189.248516 
L 282.384653 -188.973774 
L 276.714792 -188.683606 
L 271.044931 -188.376829 
L 265.375069 -188.052142 
L 259.705208 -187.70811 
L 254.035347 -187.343144 
L 248.365486 -186.955485 
L 242.695625 -186.54318 
L 237.025764 -186.104051 
L 231.355903 -185.635666 
L 225.686042 -185.135301 
L 220.016181 -184.599895 
L 214.346319 -184.025996 
L 208.676458 -183.4097 
L 203.006597 -182.746575 
L 197.336736 -182.031567 
L 191.666875 -181.258892 
L 185.997014 -180.421899 
L 180.327153 -179.512907 
L 174.657292 -178.522995 
L 168.987431 -177.441747 
L 163.317569 -176.256931 
L 157.647708 -174.954084 
L 151.977847 -173.515989 
L 146.307986 -171.921987 
L 140.638125 -170.147085 
L 134.968264 -168.160753 
L 129.298403 -165.925309 
L 123.628542 -163.393696 
L 117.958681 -160.506355 
L 112.288819 -157.186743 
L 106.618958 -153.334703 
L 100.949097 -148.816357 
L 95.279236 -143.447981 
L 89.609375 -136.968813 
L 83.939514 -128.99131 
L 78.269653 -118.897905 
L 72.599792 -105.571849 
L 66.929931 -86.192221 
z
" style="stroke: #88ae1d; stroke-opacity: 0.3; stroke-width: 1.5"/>
    </defs>
    <g clip-path="url(#p5bb8bae8d2)">
     <use xlink:href="#m5cc2fe4a58" x="0" y="226.591328" style="fill: #88ae1d; fill-opacity: 0.3; stroke: #88ae1d; stroke-opacity: 0.3; stroke-width: 1.5"/>
    </g>
   </g>
   <g id="line2d_8">
    <path d="M 66.929931 152.586372 
L 72.599792 139.81877 
L 78.269653 129.569586 
L 83.939514 121.160574 
L 89.609375 114.136972 
L 95.279236 108.182461 
L 100.949097 103.07021 
L 106.618958 98.633317 
L 112.288819 94.746245 
L 117.958681 91.312757 
L 123.628542 88.257837 
L 129.298403 85.522145 
L 134.968264 83.058129 
L 140.638125 80.827234 
L 146.307986 78.797871 
L 151.977847 76.943911 
L 157.647708 75.243556 
L 163.317569 73.678475 
L 168.987431 72.233143 
L 174.657292 70.894323 
L 180.327153 69.650659 
L 185.997014 68.492355 
L 191.666875 67.410914 
L 197.336736 66.398931 
L 203.006597 65.449922 
L 208.676458 64.558188 
L 214.346319 63.718694 
L 220.016181 62.926981 
L 225.686042 62.179082 
L 231.355903 61.471459 
L 237.025764 60.800943 
L 242.695625 60.16469 
L 248.365486 59.560139 
L 254.035347 58.984978 
L 259.705208 58.437116 
L 265.375069 57.914653 
L 271.044931 57.415863 
L 276.714792 56.939174 
L 282.384653 56.483147 
L 288.054514 56.046469 
L 293.724375 55.627932 
L 299.394236 55.226431 
L 305.064097 54.840944 
L 310.733958 54.470534 
L 316.403819 54.114332 
L 322.073681 53.771537 
L 327.743542 53.441405 
L 333.413403 53.123247 
L 339.083264 52.816424 
L 344.753125 52.52034 
L 350.422986 52.234442 
L 356.092847 51.958212 
L 361.762708 51.691169 
L 367.432569 51.432861 
L 373.102431 51.182867 
L 378.772292 50.940792 
L 384.442153 50.706265 
L 390.112014 50.478939 
L 395.781875 50.258487 
L 401.451736 50.044602 
L 407.121597 49.836995 
L 412.791458 49.635394 
L 418.461319 49.439541 
L 424.131181 49.249194 
L 429.801042 49.064125 
" clip-path="url(#p5bb8bae8d2)" style="fill: none; stroke: #88ae1d; stroke-width: 2.25; stroke-linecap: round"/>
   </g>
   <g id="patch_3">
    <path d="M 64.095 171.34 
L 64.095 26.88 
" style="fill: none; stroke: #262626; stroke-width: 1.875; stroke-linejoin: miter; stroke-linecap: square"/>
   </g>
   <g id="patch_4">
    <path d="M 268.21 171.34 
L 268.21 26.88 
" style="fill: none; stroke: #262626; stroke-width: 1.875; stroke-linejoin: miter; stroke-linecap: square"/>
   </g>
   <g id="patch_5">
    <path d="M 64.095 171.34 
L 268.21 171.34 
" style="fill: none; stroke: #262626; stroke-width: 1.875; stroke-linejoin: miter; stroke-linecap: square"/>
   </g>
   <g id="patch_6">
    <path d="M 64.095 26.88 
L 268.21 26.88 
" style="fill: none; stroke: #262626; stroke-width: 1.875; stroke-linejoin: miter; stroke-linecap: square"/>
   </g>
   <g id="text_10">
    <!-- Binding site region, $J=0$ $k_BT$ -->
    <g style="fill: #262626" transform="translate(49.8725 20.88) scale(0.18 -0.18)">
     <defs>
      <path id="ArialMT-67" d="M 319 -275 
L 866 -356 
Q 900 -609 1056 -725 
Q 1266 -881 1628 -881 
Q 2019 -881 2231 -725 
Q 2444 -569 2519 -288 
Q 2563 -116 2559 434 
Q 2191 0 1641 0 
Q 956 0 581 494 
Q 206 988 206 1678 
Q 206 2153 378 2554 
Q 550 2956 876 3175 
Q 1203 3394 1644 3394 
Q 2231 3394 2613 2919 
L 2613 3319 
L 3131 3319 
L 3131 450 
Q 3131 -325 2973 -648 
Q 2816 -972 2473 -1159 
Q 2131 -1347 1631 -1347 
Q 1038 -1347 672 -1080 
Q 306 -813 319 -275 
z
M 784 1719 
Q 784 1066 1043 766 
Q 1303 466 1694 466 
Q 2081 466 2343 764 
Q 2606 1063 2606 1700 
Q 2606 2309 2336 2618 
Q 2066 2928 1684 2928 
Q 1309 2928 1046 2623 
Q 784 2319 784 1719 
z
" transform="scale(0.015625)"/>
      <path id="ArialMT-73" d="M 197 991 
L 753 1078 
Q 800 744 1014 566 
Q 1228 388 1613 388 
Q 2000 388 2187 545 
Q 2375 703 2375 916 
Q 2375 1106 2209 1216 
Q 2094 1291 1634 1406 
Q 1016 1563 777 1677 
Q 538 1791 414 1992 
Q 291 2194 291 2438 
Q 291 2659 392 2848 
Q 494 3038 669 3163 
Q 800 3259 1026 3326 
Q 1253 3394 1513 3394 
Q 1903 3394 2198 3281 
Q 2494 3169 2634 2976 
Q 2775 2784 2828 2463 
L 2278 2388 
Q 2241 2644 2061 2787 
Q 1881 2931 1553 2931 
Q 1166 2931 1000 2803 
Q 834 2675 834 2503 
Q 834 2394 903 2306 
Q 972 2216 1119 2156 
Q 1203 2125 1616 2013 
Q 2213 1853 2448 1751 
Q 2684 1650 2818 1456 
Q 2953 1263 2953 975 
Q 2953 694 2789 445 
Q 2625 197 2315 61 
Q 2006 -75 1616 -75 
Q 969 -75 630 194 
Q 291 463 197 991 
z
" transform="scale(0.015625)"/>
      <path id="ArialMT-2c" d="M 569 0 
L 569 641 
L 1209 641 
L 1209 0 
Q 1209 -353 1084 -570 
Q 959 -788 688 -906 
L 531 -666 
Q 709 -588 793 -436 
Q 878 -284 888 0 
L 569 0 
z
" transform="scale(0.015625)"/>
      <path id="DejaVuSans-Oblique-4a" d="M 1069 4666 
L 1703 4666 
L 856 325 
Q 691 -522 298 -901 
Q -94 -1281 -800 -1281 
L -1050 -1281 
L -947 -750 
L -750 -750 
Q -328 -750 -109 -509 
Q 109 -269 225 325 
L 1069 4666 
z
" transform="scale(0.015625)"/>
      <path id="DejaVuSans-3d" d="M 678 2906 
L 4684 2906 
L 4684 2381 
L 678 2381 
L 678 2906 
z
M 678 1631 
L 4684 1631 
L 4684 1100 
L 678 1100 
L 678 1631 
z
" transform="scale(0.015625)"/>
      <path id="DejaVuSans-30" d="M 2034 4250 
Q 1547 4250 1301 3770 
Q 1056 3291 1056 2328 
Q 1056 1369 1301 889 
Q 1547 409 2034 409 
Q 2525 409 2770 889 
Q 3016 1369 3016 2328 
Q 3016 3291 2770 3770 
Q 2525 4250 2034 4250 
z
M 2034 4750 
Q 2819 4750 3233 4129 
Q 3647 3509 3647 2328 
Q 3647 1150 3233 529 
Q 2819 -91 2034 -91 
Q 1250 -91 836 529 
Q 422 1150 422 2328 
Q 422 3509 836 4129 
Q 1250 4750 2034 4750 
z
" transform="scale(0.015625)"/>
      <path id="DejaVuSans-Oblique-6b" d="M 1172 4863 
L 1747 4863 
L 1197 2028 
L 3169 3500 
L 3916 3500 
L 1716 1825 
L 3322 0 
L 2625 0 
L 1131 1709 
L 800 0 
L 225 0 
L 1172 4863 
z
" transform="scale(0.015625)"/>
      <path id="DejaVuSans-Oblique-42" d="M 1081 4666 
L 2694 4666 
Q 3350 4666 3675 4422 
Q 4000 4178 4000 3688 
Q 4000 3238 3720 2911 
Q 3441 2584 2988 2516 
Q 3375 2428 3569 2181 
Q 3763 1934 3763 1522 
Q 3763 819 3242 409 
Q 2722 0 1819 0 
L 172 0 
L 1081 4666 
z
M 1234 2228 
L 903 519 
L 1919 519 
Q 2491 519 2800 781 
Q 3109 1044 3109 1522 
Q 3109 1891 2904 2059 
Q 2700 2228 2247 2228 
L 1234 2228 
z
M 1606 4147 
L 1331 2741 
L 2272 2741 
Q 2775 2741 3058 2959 
Q 3341 3178 3341 3566 
Q 3341 3869 3150 4008 
Q 2959 4147 2541 4147 
L 1606 4147 
z
" transform="scale(0.015625)"/>
      <path id="DejaVuSans-Oblique-54" d="M 378 4666 
L 4325 4666 
L 4225 4134 
L 2559 4134 
L 1759 0 
L 1125 0 
L 1925 4134 
L 275 4134 
L 378 4666 
z
" transform="scale(0.015625)"/>
     </defs>
     <use xlink:href="#ArialMT-42" transform="translate(0 0.015625)"/>
     <use xlink:href="#ArialMT-69" transform="translate(66.699219 0.015625)"/>
     <use xlink:href="#ArialMT-6e" transform="translate(88.916016 0.015625)"/>
     <use xlink:href="#ArialMT-64" transform="translate(144.53125 0.015625)"/>
     <use xlink:href="#ArialMT-69" transform="translate(200.146484 0.015625)"/>
     <use xlink:href="#ArialMT-6e" transform="translate(222.363281 0.015625)"/>
     <use xlink:href="#ArialMT-67" transform="translate(277.978516 0.015625)"/>
     <use xlink:href="#ArialMT-20" transform="translate(333.59375 0.015625)"/>
     <use xlink:href="#ArialMT-73" transform="translate(361.376953 0.015625)"/>
     <use xlink:href="#ArialMT-69" transform="translate(411.376953 0.015625)"/>
     <use xlink:href="#ArialMT-74" transform="translate(433.59375 0.015625)"/>
     <use xlink:href="#ArialMT-65" transform="translate(461.376953 0.015625)"/>
     <use xlink:href="#ArialMT-20" transform="translate(516.992188 0.015625)"/>
     <use xlink:href="#ArialMT-72" transform="translate(544.775391 0.015625)"/>
     <use xlink:href="#ArialMT-65" transform="translate(578.076172 0.015625)"/>
     <use xlink:href="#ArialMT-67" transform="translate(633.691406 0.015625)"/>
     <use xlink:href="#ArialMT-69" transform="translate(689.306641 0.015625)"/>
     <use xlink:href="#ArialMT-6f" transform="translate(711.523438 0.015625)"/>
     <use xlink:href="#ArialMT-6e" transform="translate(767.138672 0.015625)"/>
     <use xlink:href="#ArialMT-2c" transform="translate(822.753906 0.015625)"/>
     <use xlink:href="#ArialMT-20" transform="translate(850.537109 0.015625)"/>
     <use xlink:href="#DejaVuSans-Oblique-4a" transform="translate(878.320312 0.015625)"/>
     <use xlink:href="#DejaVuSans-3d" transform="translate(927.294922 0.015625)"/>
     <use xlink:href="#DejaVuSans-30" transform="translate(1030.566406 0.015625)"/>
     <use xlink:href="#ArialMT-20" transform="translate(1094.189453 0.015625)"/>
     <use xlink:href="#DejaVuSans-Oblique-6b" transform="translate(1121.972656 0.015625)"/>
     <use xlink:href="#DejaVuSans-Oblique-42" transform="translate(1179.882812 -16.390625) scale(0.7)"/>
     <use xlink:href="#DejaVuSans-Oblique-54" transform="translate(1230.639648 0.015625)"/>
    </g>
   </g>
  </g>
  <g id="axes_2">
   <g id="patch_7">
    <path d="M 351.135 171.34 
L 555.25 171.34 
L 555.25 26.88 
L 351.135 26.88 
z
" style="fill: #ffffff"/>
   </g>
   <g id="matplotlib.axis_3">
    <g id="xtick_5">
     <g id="line2d_9">
      <g>
       <use xlink:href="#ma620bdec55" x="351.135" y="171.34" style="fill: #262626; stroke: #262626; stroke-width: 1.875"/>
      </g>
     </g>
     <g id="text_11">
      <!-- 0.0 -->
      <g style="fill: #262626" transform="translate(339.6675 195.650391) scale(0.165 -0.165)">
       <use xlink:href="#ArialMT-30"/>
       <use xlink:href="#ArialMT-2e" transform="translate(55.615234 0)"/>
       <use xlink:href="#ArialMT-30" transform="translate(83.398438 0)"/>
      </g>
     </g>
    </g>
    <g id="xtick_6">
     <g id="line2d_10">
      <g>
       <use xlink:href="#ma620bdec55" x="419.173333" y="171.34" style="fill: #262626; stroke: #262626; stroke-width: 1.875"/>
      </g>
     </g>
     <g id="text_12">
      <!-- 0.2 -->
      <g style="fill: #262626" transform="translate(407.705833 195.650391) scale(0.165 -0.165)">
       <use xlink:href="#ArialMT-30"/>
       <use xlink:href="#ArialMT-2e" transform="translate(55.615234 0)"/>
       <use xlink:href="#ArialMT-32" transform="translate(83.398438 0)"/>
      </g>
     </g>
    </g>
    <g id="xtick_7">
     <g id="line2d_11">
      <g>
       <use xlink:href="#ma620bdec55" x="487.211667" y="171.34" style="fill: #262626; stroke: #262626; stroke-width: 1.875"/>
      </g>
     </g>
     <g id="text_13">
      <!-- 0.4 -->
      <g style="fill: #262626" transform="translate(475.744167 195.650391) scale(0.165 -0.165)">
       <use xlink:href="#ArialMT-30"/>
       <use xlink:href="#ArialMT-2e" transform="translate(55.615234 0)"/>
       <use xlink:href="#ArialMT-34" transform="translate(83.398438 0)"/>
      </g>
     </g>
    </g>
    <g id="xtick_8">
     <g id="line2d_12">
      <g>
       <use xlink:href="#ma620bdec55" x="555.25" y="171.34" style="fill: #262626; stroke: #262626; stroke-width: 1.875"/>
      </g>
     </g>
     <g id="text_14">
      <!-- 0.6 -->
      <g style="fill: #262626" transform="translate(543.7825 195.650391) scale(0.165 -0.165)">
       <use xlink:href="#ArialMT-30"/>
       <use xlink:href="#ArialMT-2e" transform="translate(55.615234 0)"/>
       <use xlink:href="#ArialMT-36" transform="translate(83.398438 0)"/>
      </g>
     </g>
    </g>
    <g id="text_15">
     <!-- Bicoid concentration $s$ -->
     <g style="fill: #262626" transform="translate(364.9025 215.813828) scale(0.18 -0.18)">
      <use xlink:href="#ArialMT-42" transform="translate(0 0.421875)"/>
      <use xlink:href="#ArialMT-69" transform="translate(66.699219 0.421875)"/>
      <use xlink:href="#ArialMT-63" transform="translate(88.916016 0.421875)"/>
      <use xlink:href="#ArialMT-6f" transform="translate(138.916016 0.421875)"/>
      <use xlink:href="#ArialMT-69" transform="translate(194.53125 0.421875)"/>
      <use xlink:href="#ArialMT-64" transform="translate(216.748047 0.421875)"/>
      <use xlink:href="#ArialMT-20" transform="translate(272.363281 0.421875)"/>
      <use xlink:href="#ArialMT-63" transform="translate(300.146484 0.421875)"/>
      <use xlink:href="#ArialMT-6f" transform="translate(350.146484 0.421875)"/>
      <use xlink:href="#ArialMT-6e" transform="translate(405.761719 0.421875)"/>
      <use xlink:href="#ArialMT-63" transform="translate(461.376953 0.421875)"/>
      <use xlink:href="#ArialMT-65" transform="translate(511.376953 0.421875)"/>
      <use xlink:href="#ArialMT-6e" transform="translate(566.992188 0.421875)"/>
      <use xlink:href="#ArialMT-74" transform="translate(622.607422 0.421875)"/>
      <use xlink:href="#ArialMT-72" transform="translate(650.390625 0.421875)"/>
      <use xlink:href="#ArialMT-61" transform="translate(683.691406 0.421875)"/>
      <use xlink:href="#ArialMT-74" transform="translate(739.306641 0.421875)"/>
      <use xlink:href="#ArialMT-69" transform="translate(767.089844 0.421875)"/>
      <use xlink:href="#ArialMT-6f" transform="translate(789.306641 0.421875)"/>
      <use xlink:href="#ArialMT-6e" transform="translate(844.921875 0.421875)"/>
      <use xlink:href="#ArialMT-20" transform="translate(900.537109 0.421875)"/>
      <use xlink:href="#DejaVuSans-Oblique-73" transform="translate(928.320312 0.421875)"/>
     </g>
    </g>
   </g>
   <g id="matplotlib.axis_4">
    <g id="ytick_4">
     <g id="line2d_13">
      <g>
       <use xlink:href="#mbfbc6f93af" x="351.135" y="149.948242" style="fill: #262626; stroke: #262626; stroke-width: 1.875"/>
      </g>
     </g>
     <g id="text_16">
      <!-- 0.0 -->
      <g style="fill: #262626" transform="translate(315.7 155.853437) scale(0.165 -0.165)">
       <use xlink:href="#ArialMT-30"/>
       <use xlink:href="#ArialMT-2e" transform="translate(55.615234 0)"/>
       <use xlink:href="#ArialMT-30" transform="translate(83.398438 0)"/>
      </g>
     </g>
    </g>
    <g id="ytick_5">
     <g id="line2d_14">
      <g>
       <use xlink:href="#mbfbc6f93af" x="351.135" y="95.547143" style="fill: #262626; stroke: #262626; stroke-width: 1.875"/>
      </g>
     </g>
     <g id="text_17">
      <!-- 0.5 -->
      <g style="fill: #262626" transform="translate(315.7 101.452339) scale(0.165 -0.165)">
       <use xlink:href="#ArialMT-30"/>
       <use xlink:href="#ArialMT-2e" transform="translate(55.615234 0)"/>
       <use xlink:href="#ArialMT-35" transform="translate(83.398438 0)"/>
      </g>
     </g>
    </g>
    <g id="ytick_6">
     <g id="line2d_15">
      <g>
       <use xlink:href="#mbfbc6f93af" x="351.135" y="41.146045" style="fill: #262626; stroke: #262626; stroke-width: 1.875"/>
      </g>
     </g>
     <g id="text_18">
      <!-- 1.0 -->
      <g style="fill: #262626" transform="translate(315.7 47.05124) scale(0.165 -0.165)">
       <use xlink:href="#ArialMT-31"/>
       <use xlink:href="#ArialMT-2e" transform="translate(55.615234 0)"/>
       <use xlink:href="#ArialMT-30" transform="translate(83.398438 0)"/>
      </g>
     </g>
    </g>
    <g id="text_19">
     <!-- Occupancy $C$ -->
     <g style="fill: #262626" transform="translate(307.74 152.93) rotate(-90) scale(0.18 -0.18)">
      <use xlink:href="#ArialMT-4f" transform="translate(0 0.78125)"/>
      <use xlink:href="#ArialMT-63" transform="translate(77.783203 0.78125)"/>
      <use xlink:href="#ArialMT-63" transform="translate(127.783203 0.78125)"/>
      <use xlink:href="#ArialMT-75" transform="translate(177.783203 0.78125)"/>
      <use xlink:href="#ArialMT-70" transform="translate(233.398438 0.78125)"/>
      <use xlink:href="#ArialMT-61" transform="translate(289.013672 0.78125)"/>
      <use xlink:href="#ArialMT-6e" transform="translate(344.628906 0.78125)"/>
      <use xlink:href="#ArialMT-63" transform="translate(400.244141 0.78125)"/>
      <use xlink:href="#ArialMT-79" transform="translate(450.244141 0.78125)"/>
      <use xlink:href="#ArialMT-20" transform="translate(500.244141 0.78125)"/>
      <use xlink:href="#DejaVuSans-Oblique-43" transform="translate(528.027344 0.78125)"/>
     </g>
    </g>
   </g>
   <g id="FillBetweenPolyCollection_2">
    <defs>
     <path id="m0438cdf382" d="M 353.969931 -78.479888 
L 353.969931 -75.063522 
L 359.639792 -72.522153 
L 365.309653 -68.829141 
L 370.979514 -64.518915 
L 376.649375 -61.817692 
L 382.319236 -63.907064 
L 387.989097 -72.439673 
L 393.658958 -85.751946 
L 399.328819 -100.41939 
L 404.998681 -113.833293 
L 410.668542 -124.95563 
L 416.338403 -133.764851 
L 422.008264 -140.629746 
L 427.678125 -145.978543 
L 433.347986 -150.180407 
L 439.017847 -153.522311 
L 444.687708 -156.218208 
L 450.357569 -158.425167 
L 456.027431 -160.258178 
L 461.697292 -161.80175 
L 467.367153 -163.11845 
L 473.037014 -164.255036 
L 478.706875 -165.246819 
L 484.376736 -166.12076 
L 490.046597 -166.897677 
L 495.716458 -167.593823 
L 501.386319 -168.222032 
L 507.056181 -168.792542 
L 512.726042 -169.31361 
L 518.395903 -169.791957 
L 524.065764 -170.233109 
L 529.735625 -170.641646 
L 535.405486 -171.021402 
L 541.075347 -171.375606 
L 546.745208 -171.707002 
L 552.415069 -172.017934 
L 558.084931 -172.310423 
L 563.754792 -172.586218 
L 569.424653 -172.846841 
L 575.094514 -173.093626 
L 580.764375 -173.327747 
L 586.434236 -173.550242 
L 592.104097 -173.762032 
L 597.773958 -173.963939 
L 603.443819 -174.156698 
L 609.113681 -174.34097 
L 614.783542 -174.517349 
L 620.453403 -174.686374 
L 626.123264 -174.848533 
L 631.793125 -175.004269 
L 637.462986 -175.153987 
L 643.132847 -175.298056 
L 648.802708 -175.436815 
L 654.472569 -175.570575 
L 660.142431 -175.699622 
L 665.812292 -175.824219 
L 671.482153 -175.94461 
L 677.152014 -176.06102 
L 682.821875 -176.173659 
L 688.491736 -176.28272 
L 694.161597 -176.388383 
L 699.831458 -176.490817 
L 705.501319 -176.590177 
L 711.171181 -176.686612 
L 716.841042 -176.780256 
L 716.841042 -189.740354 
L 716.841042 -189.740354 
L 711.171181 -189.760994 
L 705.501319 -189.78194 
L 699.831458 -189.803197 
L 694.161597 -189.824776 
L 688.491736 -189.846682 
L 682.821875 -189.868926 
L 677.152014 -189.891515 
L 671.482153 -189.914458 
L 665.812292 -189.937767 
L 660.142431 -189.96145 
L 654.472569 -189.985518 
L 648.802708 -190.009984 
L 643.132847 -190.03486 
L 637.462986 -190.06016 
L 631.793125 -190.085898 
L 626.123264 -190.112091 
L 620.453403 -190.138756 
L 614.783542 -190.165914 
L 609.113681 -190.193588 
L 603.443819 -190.221803 
L 597.773958 -190.250588 
L 592.104097 -190.279978 
L 586.434236 -190.310012 
L 580.764375 -190.340738 
L 575.094514 -190.37221 
L 569.424653 -190.404495 
L 563.754792 -190.437673 
L 558.084931 -190.471842 
L 552.415069 -190.507122 
L 546.745208 -190.54366 
L 541.075347 -190.581637 
L 535.405486 -190.621282 
L 529.735625 -190.662878 
L 524.065764 -190.706785 
L 518.395903 -190.753455 
L 512.726042 -190.803461 
L 507.056181 -190.857534 
L 501.386319 -190.916603 
L 495.716458 -190.981851 
L 490.046597 -191.054786 
L 484.376736 -191.137318 
L 478.706875 -191.231853 
L 473.037014 -191.341377 
L 467.367153 -191.469518 
L 461.697292 -191.620504 
L 456.027431 -191.798892 
L 450.357569 -192.008806 
L 444.687708 -192.25211 
L 439.017847 -192.524483 
L 433.347986 -192.80728 
L 427.678125 -193.051268 
L 422.008264 -193.144964 
L 416.338403 -192.85551 
L 410.668542 -191.726179 
L 404.998681 -188.926654 
L 399.328819 -183.127138 
L 393.658958 -172.682693 
L 387.989097 -156.641421 
L 382.319236 -136.430538 
L 376.649375 -116.104905 
L 370.979514 -99.67909 
L 365.309653 -88.611906 
L 359.639792 -82.101515 
L 353.969931 -78.479888 
z
" style="stroke: #5caadb; stroke-opacity: 0.3; stroke-width: 1.5"/>
    </defs>
    <g clip-path="url(#pc5f8df48e7)">
     <use xlink:href="#m0438cdf382" x="0" y="226.591328" style="fill: #5caadb; fill-opacity: 0.3; stroke: #5caadb; stroke-opacity: 0.3; stroke-width: 1.5"/>
    </g>
   </g>
   <g id="line2d_16">
    <path d="M 353.969931 149.819623 
L 359.639792 149.279494 
L 365.309653 147.870804 
L 370.979514 144.492326 
L 376.649375 137.63003 
L 382.319236 126.422527 
L 387.989097 112.050781 
L 393.658958 97.374009 
L 399.328819 84.818064 
L 404.998681 75.211355 
L 410.668542 68.250424 
L 416.338403 63.281148 
L 422.008264 59.703973 
L 427.678125 57.076422 
L 433.347986 55.097484 
L 439.017847 53.567931 
L 444.687708 52.356169 
L 450.357569 51.374342 
L 456.027431 50.562793 
L 461.697292 49.880201 
L 467.367153 49.297344 
L 473.037014 48.793122 
L 478.706875 48.351992 
L 484.376736 47.962289 
L 490.046597 47.615097 
L 495.716458 47.303491 
L 501.386319 47.022011 
L 507.056181 46.76629 
L 512.726042 46.532793 
L 518.395903 46.318622 
L 524.065764 46.121381 
L 529.735625 45.939066 
L 535.405486 45.769986 
L 541.075347 45.612706 
L 546.745208 45.465997 
L 552.415069 45.3288 
L 558.084931 45.200195 
L 563.754792 45.079383 
L 569.424653 44.965661 
L 575.094514 44.858411 
L 580.764375 44.757086 
L 586.434236 44.661201 
L 592.104097 44.570323 
L 597.773958 44.484065 
L 603.443819 44.402078 
L 609.113681 44.324049 
L 614.783542 44.249696 
L 620.453403 44.178763 
L 626.123264 44.111016 
L 631.793125 44.046245 
L 637.462986 43.984255 
L 643.132847 43.92487 
L 648.802708 43.867928 
L 654.472569 43.813281 
L 660.142431 43.760792 
L 665.812292 43.710335 
L 671.482153 43.661794 
L 677.152014 43.615061 
L 682.821875 43.570036 
L 688.491736 43.526627 
L 694.161597 43.484749 
L 699.831458 43.444321 
L 705.501319 43.40527 
L 711.171181 43.367525 
L 716.841042 43.331023 
" clip-path="url(#pc5f8df48e7)" style="fill: none; stroke: #5caadb; stroke-width: 2.25; stroke-linecap: round"/>
   </g>
   <g id="patch_8">
    <path d="M 351.135 171.34 
L 351.135 26.88 
" style="fill: none; stroke: #262626; stroke-width: 1.875; stroke-linejoin: miter; stroke-linecap: square"/>
   </g>
   <g id="patch_9">
    <path d="M 555.25 171.34 
L 555.25 26.88 
" style="fill: none; stroke: #262626; stroke-width: 1.875; stroke-linejoin: miter; stroke-linecap: square"/>
   </g>
   <g id="patch_10">
    <path d="M 351.135 171.34 
L 555.25 171.34 
" style="fill: none; stroke: #262626; stroke-width: 1.875; stroke-linejoin: miter; stroke-linecap: square"/>
   </g>
   <g id="patch_11">
    <path d="M 351.135 26.88 
L 555.25 26.88 
" style="fill: none; stroke: #262626; stroke-width: 1.875; stroke-linejoin: miter; stroke-linecap: square"/>
   </g>
   <g id="text_20">
    <!-- Binding site region, $J=5$ $k_BT$ -->
    <g style="fill: #262626" transform="translate(336.9125 20.88) scale(0.18 -0.18)">
     <defs>
      <path id="DejaVuSans-35" d="M 691 4666 
L 3169 4666 
L 3169 4134 
L 1269 4134 
L 1269 2991 
Q 1406 3038 1543 3061 
Q 1681 3084 1819 3084 
Q 2600 3084 3056 2656 
Q 3513 2228 3513 1497 
Q 3513 744 3044 326 
Q 2575 -91 1722 -91 
Q 1428 -91 1123 -41 
Q 819 9 494 109 
L 494 744 
Q 775 591 1075 516 
Q 1375 441 1709 441 
Q 2250 441 2565 725 
Q 2881 1009 2881 1497 
Q 2881 1984 2565 2268 
Q 2250 2553 1709 2553 
Q 1456 2553 1204 2497 
Q 953 2441 691 2322 
L 691 4666 
z
" transform="scale(0.015625)"/>
     </defs>
     <use xlink:href="#ArialMT-42" transform="translate(0 0.015625)"/>
     <use xlink:href="#ArialMT-69" transform="translate(66.699219 0.015625)"/>
     <use xlink:href="#ArialMT-6e" transform="translate(88.916016 0.015625)"/>
     <use xlink:href="#ArialMT-64" transform="translate(144.53125 0.015625)"/>
     <use xlink:href="#ArialMT-69" transform="translate(200.146484 0.015625)"/>
     <use xlink:href="#ArialMT-6e" transform="translate(222.363281 0.015625)"/>
     <use xlink:href="#ArialMT-67" transform="translate(277.978516 0.015625)"/>
     <use xlink:href="#ArialMT-20" transform="translate(333.59375 0.015625)"/>
     <use xlink:href="#ArialMT-73" transform="translate(361.376953 0.015625)"/>
     <use xlink:href="#ArialMT-69" transform="translate(411.376953 0.015625)"/>
     <use xlink:href="#ArialMT-74" transform="translate(433.59375 0.015625)"/>
     <use xlink:href="#ArialMT-65" transform="translate(461.376953 0.015625)"/>
     <use xlink:href="#ArialMT-20" transform="translate(516.992188 0.015625)"/>
     <use xlink:href="#ArialMT-72" transform="translate(544.775391 0.015625)"/>
     <use xlink:href="#ArialMT-65" transform="translate(578.076172 0.015625)"/>
     <use xlink:href="#ArialMT-67" transform="translate(633.691406 0.015625)"/>
     <use xlink:href="#ArialMT-69" transform="translate(689.306641 0.015625)"/>
     <use xlink:href="#ArialMT-6f" transform="translate(711.523438 0.015625)"/>
     <use xlink:href="#ArialMT-6e" transform="translate(767.138672 0.015625)"/>
     <use xlink:href="#ArialMT-2c" transform="translate(822.753906 0.015625)"/>
     <use xlink:href="#ArialMT-20" transform="translate(850.537109 0.015625)"/>
     <use xlink:href="#DejaVuSans-Oblique-4a" transform="translate(878.320312 0.015625)"/>
     <use xlink:href="#DejaVuSans-3d" transform="translate(927.294922 0.015625)"/>
     <use xlink:href="#DejaVuSans-35" transform="translate(1030.566406 0.015625)"/>
     <use xlink:href="#ArialMT-20" transform="translate(1094.189453 0.015625)"/>
     <use xlink:href="#DejaVuSans-Oblique-6b" transform="translate(1121.972656 0.015625)"/>
     <use xlink:href="#DejaVuSans-Oblique-42" transform="translate(1179.882812 -16.390625) scale(0.7)"/>
     <use xlink:href="#DejaVuSans-Oblique-54" transform="translate(1230.639648 0.015625)"/>
    </g>
   </g>
  </g>
  <g id="axes_3">
   <g id="patch_12">
    <path d="M 638.175 171.34 
L 842.29 171.34 
L 842.29 26.88 
L 638.175 26.88 
z
" style="fill: #ffffff"/>
   </g>
   <g id="matplotlib.axis_5">
    <g id="xtick_9">
     <g id="line2d_17">
      <g>
       <use xlink:href="#ma620bdec55" x="638.175" y="171.34" style="fill: #262626; stroke: #262626; stroke-width: 1.875"/>
      </g>
     </g>
     <g id="text_21">
      <!-- 0.0 -->
      <g style="fill: #262626" transform="translate(626.7075 195.650391) scale(0.165 -0.165)">
       <use xlink:href="#ArialMT-30"/>
       <use xlink:href="#ArialMT-2e" transform="translate(55.615234 0)"/>
       <use xlink:href="#ArialMT-30" transform="translate(83.398438 0)"/>
      </g>
     </g>
    </g>
    <g id="xtick_10">
     <g id="line2d_18">
      <g>
       <use xlink:href="#ma620bdec55" x="706.213333" y="171.34" style="fill: #262626; stroke: #262626; stroke-width: 1.875"/>
      </g>
     </g>
     <g id="text_22">
      <!-- 0.2 -->
      <g style="fill: #262626" transform="translate(694.745833 195.650391) scale(0.165 -0.165)">
       <use xlink:href="#ArialMT-30"/>
       <use xlink:href="#ArialMT-2e" transform="translate(55.615234 0)"/>
       <use xlink:href="#ArialMT-32" transform="translate(83.398438 0)"/>
      </g>
     </g>
    </g>
    <g id="xtick_11">
     <g id="line2d_19">
      <g>
       <use xlink:href="#ma620bdec55" x="774.251667" y="171.34" style="fill: #262626; stroke: #262626; stroke-width: 1.875"/>
      </g>
     </g>
     <g id="text_23">
      <!-- 0.4 -->
      <g style="fill: #262626" transform="translate(762.784167 195.650391) scale(0.165 -0.165)">
       <use xlink:href="#ArialMT-30"/>
       <use xlink:href="#ArialMT-2e" transform="translate(55.615234 0)"/>
       <use xlink:href="#ArialMT-34" transform="translate(83.398438 0)"/>
      </g>
     </g>
    </g>
    <g id="xtick_12">
     <g id="line2d_20">
      <g>
       <use xlink:href="#ma620bdec55" x="842.29" y="171.34" style="fill: #262626; stroke: #262626; stroke-width: 1.875"/>
      </g>
     </g>
     <g id="text_24">
      <!-- 0.6 -->
      <g style="fill: #262626" transform="translate(830.8225 195.650391) scale(0.165 -0.165)">
       <use xlink:href="#ArialMT-30"/>
       <use xlink:href="#ArialMT-2e" transform="translate(55.615234 0)"/>
       <use xlink:href="#ArialMT-36" transform="translate(83.398438 0)"/>
      </g>
     </g>
    </g>
    <g id="text_25">
     <!-- Bicoid concentration $s$ -->
     <g style="fill: #262626" transform="translate(651.9425 215.813828) scale(0.18 -0.18)">
      <use xlink:href="#ArialMT-42" transform="translate(0 0.421875)"/>
      <use xlink:href="#ArialMT-69" transform="translate(66.699219 0.421875)"/>
      <use xlink:href="#ArialMT-63" transform="translate(88.916016 0.421875)"/>
      <use xlink:href="#ArialMT-6f" transform="translate(138.916016 0.421875)"/>
      <use xlink:href="#ArialMT-69" transform="translate(194.53125 0.421875)"/>
      <use xlink:href="#ArialMT-64" transform="translate(216.748047 0.421875)"/>
      <use xlink:href="#ArialMT-20" transform="translate(272.363281 0.421875)"/>
      <use xlink:href="#ArialMT-63" transform="translate(300.146484 0.421875)"/>
      <use xlink:href="#ArialMT-6f" transform="translate(350.146484 0.421875)"/>
      <use xlink:href="#ArialMT-6e" transform="translate(405.761719 0.421875)"/>
      <use xlink:href="#ArialMT-63" transform="translate(461.376953 0.421875)"/>
      <use xlink:href="#ArialMT-65" transform="translate(511.376953 0.421875)"/>
      <use xlink:href="#ArialMT-6e" transform="translate(566.992188 0.421875)"/>
      <use xlink:href="#ArialMT-74" transform="translate(622.607422 0.421875)"/>
      <use xlink:href="#ArialMT-72" transform="translate(650.390625 0.421875)"/>
      <use xlink:href="#ArialMT-61" transform="translate(683.691406 0.421875)"/>
      <use xlink:href="#ArialMT-74" transform="translate(739.306641 0.421875)"/>
      <use xlink:href="#ArialMT-69" transform="translate(767.089844 0.421875)"/>
      <use xlink:href="#ArialMT-6f" transform="translate(789.306641 0.421875)"/>
      <use xlink:href="#ArialMT-6e" transform="translate(844.921875 0.421875)"/>
      <use xlink:href="#ArialMT-20" transform="translate(900.537109 0.421875)"/>
      <use xlink:href="#DejaVuSans-Oblique-73" transform="translate(928.320312 0.421875)"/>
     </g>
    </g>
   </g>
   <g id="matplotlib.axis_6">
    <g id="ytick_7">
     <g id="line2d_21">
      <g>
       <use xlink:href="#mbfbc6f93af" x="638.175" y="146.075231" style="fill: #262626; stroke: #262626; stroke-width: 1.875"/>
      </g>
     </g>
     <g id="text_26">
      <!-- 0.0 -->
      <g style="fill: #262626" transform="translate(602.74 151.980426) scale(0.165 -0.165)">
       <use xlink:href="#ArialMT-30"/>
       <use xlink:href="#ArialMT-2e" transform="translate(55.615234 0)"/>
       <use xlink:href="#ArialMT-30" transform="translate(83.398438 0)"/>
      </g>
     </g>
    </g>
    <g id="ytick_8">
     <g id="line2d_22">
      <g>
       <use xlink:href="#mbfbc6f93af" x="638.175" y="97.936909" style="fill: #262626; stroke: #262626; stroke-width: 1.875"/>
      </g>
     </g>
     <g id="text_27">
      <!-- 0.5 -->
      <g style="fill: #262626" transform="translate(602.74 103.842105) scale(0.165 -0.165)">
       <use xlink:href="#ArialMT-30"/>
       <use xlink:href="#ArialMT-2e" transform="translate(55.615234 0)"/>
       <use xlink:href="#ArialMT-35" transform="translate(83.398438 0)"/>
      </g>
     </g>
    </g>
    <g id="ytick_9">
     <g id="line2d_23">
      <g>
       <use xlink:href="#mbfbc6f93af" x="638.175" y="49.798588" style="fill: #262626; stroke: #262626; stroke-width: 1.875"/>
      </g>
     </g>
     <g id="text_28">
      <!-- 1.0 -->
      <g style="fill: #262626" transform="translate(602.74 55.703783) scale(0.165 -0.165)">
       <use xlink:href="#ArialMT-31"/>
       <use xlink:href="#ArialMT-2e" transform="translate(55.615234 0)"/>
       <use xlink:href="#ArialMT-30" transform="translate(83.398438 0)"/>
      </g>
     </g>
    </g>
    <g id="text_29">
     <!-- Occupancy $C$ -->
     <g style="fill: #262626" transform="translate(594.78 152.93) rotate(-90) scale(0.18 -0.18)">
      <use xlink:href="#ArialMT-4f" transform="translate(0 0.78125)"/>
      <use xlink:href="#ArialMT-63" transform="translate(77.783203 0.78125)"/>
      <use xlink:href="#ArialMT-63" transform="translate(127.783203 0.78125)"/>
      <use xlink:href="#ArialMT-75" transform="translate(177.783203 0.78125)"/>
      <use xlink:href="#ArialMT-70" transform="translate(233.398438 0.78125)"/>
      <use xlink:href="#ArialMT-61" transform="translate(289.013672 0.78125)"/>
      <use xlink:href="#ArialMT-6e" transform="translate(344.628906 0.78125)"/>
      <use xlink:href="#ArialMT-63" transform="translate(400.244141 0.78125)"/>
      <use xlink:href="#ArialMT-79" transform="translate(450.244141 0.78125)"/>
      <use xlink:href="#ArialMT-20" transform="translate(500.244141 0.78125)"/>
      <use xlink:href="#DejaVuSans-Oblique-43" transform="translate(528.027344 0.78125)"/>
     </g>
    </g>
   </g>
   <g id="FillBetweenPolyCollection_3">
    <defs>
     <path id="mb48a794795" d="M 641.009931 -80.669429 
L 641.009931 -80.364167 
L 646.679792 -79.35245 
L 652.349653 -76.485589 
L 658.019514 -71.372688 
L 663.689375 -65.210939 
L 669.359236 -61.817692 
L 675.029097 -66.342564 
L 680.698958 -80.113958 
L 686.368819 -98.463182 
L 692.038681 -115.840672 
L 697.708542 -129.744752 
L 703.378403 -140.08159 
L 709.048264 -147.588173 
L 714.718125 -153.041931 
L 720.387986 -157.047175 
L 726.057847 -160.03168 
L 731.727708 -162.289993 
L 737.397569 -164.02469 
L 743.067431 -165.376495 
L 748.737292 -166.444551 
L 754.407153 -167.299741 
L 760.077014 -167.993447 
L 765.746875 -168.563372 
L 771.416736 -169.037476 
L 777.086597 -169.436691 
L 782.756458 -169.77682 
L 788.426319 -170.069886 
L 794.096181 -170.325111 
L 799.766042 -170.549616 
L 805.435903 -170.748946 
L 811.105764 -170.927453 
L 816.775625 -171.088573 
L 822.445486 -171.235046 
L 828.115347 -171.369071 
L 833.785208 -171.492429 
L 839.455069 -171.60657 
L 845.124931 -171.712688 
L 850.794792 -171.811771 
L 856.464653 -171.904642 
L 862.134514 -171.991994 
L 867.804375 -172.074412 
L 873.474236 -172.152397 
L 879.144097 -172.226375 
L 884.813958 -172.296716 
L 890.483819 -172.36374 
L 896.153681 -172.427728 
L 901.823542 -172.488924 
L 907.493403 -172.547545 
L 913.163264 -172.603784 
L 918.833125 -172.657812 
L 924.502986 -172.709781 
L 930.172847 -172.759828 
L 935.842708 -172.808079 
L 941.512569 -172.854645 
L 947.182431 -172.899628 
L 952.852292 -172.943121 
L 958.522153 -172.985208 
L 964.192014 -173.025968 
L 969.861875 -173.065472 
L 975.531736 -173.103786 
L 981.201597 -173.14097 
L 986.871458 -173.177082 
L 992.541319 -173.212172 
L 998.211181 -173.24629 
L 1003.881042 -173.279482 
L 1003.881042 -179.225543 
L 1003.881042 -179.225543 
L 998.211181 -179.241378 
L 992.541319 -179.25757 
L 986.871458 -179.274135 
L 981.201597 -179.291091 
L 975.531736 -179.308457 
L 969.861875 -179.326254 
L 964.192014 -179.344504 
L 958.522153 -179.363232 
L 952.852292 -179.382466 
L 947.182431 -179.402235 
L 941.512569 -179.422572 
L 935.842708 -179.443514 
L 930.172847 -179.465102 
L 924.502986 -179.487382 
L 918.833125 -179.510406 
L 913.163264 -179.53423 
L 907.493403 -179.558923 
L 901.823542 -179.58456 
L 896.153681 -179.611226 
L 890.483819 -179.639023 
L 884.813958 -179.668066 
L 879.144097 -179.698492 
L 873.474236 -179.730457 
L 867.804375 -179.764152 
L 862.134514 -179.799796 
L 856.464653 -179.837657 
L 850.794792 -179.878054 
L 845.124931 -179.921371 
L 839.455069 -179.968077 
L 833.785208 -180.018745 
L 828.115347 -180.074078 
L 822.445486 -180.134947 
L 816.775625 -180.202435 
L 811.105764 -180.277896 
L 805.435903 -180.363031 
L 799.766042 -180.459988 
L 794.096181 -180.571492 
L 788.426319 -180.70101 
L 782.756458 -180.852965 
L 777.086597 -181.033016 
L 771.416736 -181.2484 
L 765.746875 -181.508365 
L 760.077014 -181.824694 
L 754.407153 -182.212312 
L 748.737292 -182.689939 
L 743.067431 -183.280685 
L 737.397569 -184.012329 
L 731.727708 -184.91668 
L 726.057847 -186.026665 
L 720.387986 -187.368078 
L 714.718125 -188.939152 
L 709.048264 -190.663038 
L 703.378403 -192.282598 
L 697.708542 -193.144964 
L 692.038681 -191.833373 
L 686.368819 -185.82798 
L 680.698958 -172.157906 
L 675.029097 -150.454947 
L 669.359236 -125.880256 
L 663.689375 -105.492512 
L 658.019514 -92.221902 
L 652.349653 -84.995177 
L 646.679792 -81.721035 
L 641.009931 -80.669429 
z
" style="stroke: #cd3e78; stroke-opacity: 0.3; stroke-width: 1.5"/>
    </defs>
    <g clip-path="url(#pa050fc597b)">
     <use xlink:href="#mb48a794795" x="0" y="226.591328" style="fill: #cd3e78; fill-opacity: 0.3; stroke: #cd3e78; stroke-opacity: 0.3; stroke-width: 1.5"/>
    </g>
   </g>
   <g id="line2d_24">
    <path d="M 641.009931 146.07453 
L 646.679792 146.054586 
L 652.349653 145.850945 
L 658.019514 144.794033 
L 663.689375 141.239603 
L 669.359236 132.742354 
L 675.029097 118.192573 
L 680.698958 100.455396 
L 686.368819 84.445747 
L 692.038681 72.754305 
L 697.708542 65.14647 
L 703.378403 60.409234 
L 709.048264 57.465723 
L 714.718125 55.600787 
L 720.387986 54.383702 
L 726.057847 53.562155 
L 731.727708 52.987992 
L 737.397569 52.572819 
L 743.067431 52.262738 
L 748.737292 52.024083 
L 754.407153 51.835302 
L 760.077014 51.682257 
L 765.746875 51.55546 
L 771.416736 51.44839 
L 777.086597 51.356474 
L 782.756458 51.276435 
L 788.426319 51.20588 
L 794.096181 51.143027 
L 799.766042 51.086526 
L 805.435903 51.035339 
L 811.105764 50.988654 
L 816.775625 50.945824 
L 822.445486 50.906332 
L 828.115347 50.869754 
L 833.785208 50.835742 
L 839.455069 50.804005 
L 845.124931 50.774299 
L 850.794792 50.746416 
L 856.464653 50.720179 
L 862.134514 50.695433 
L 867.804375 50.672046 
L 870.4725 50.661625 
" clip-path="url(#pa050fc597b)" style="fill: none; stroke: #cd3e78; stroke-width: 2.25; stroke-linecap: round"/>
   </g>
   <g id="patch_13">
    <path d="M 638.175 171.34 
L 638.175 26.88 
" style="fill: none; stroke: #262626; stroke-width: 1.875; stroke-linejoin: miter; stroke-linecap: square"/>
   </g>
   <g id="patch_14">
    <path d="M 842.29 171.34 
L 842.29 26.88 
" style="fill: none; stroke: #262626; stroke-width: 1.875; stroke-linejoin: miter; stroke-linecap: square"/>
   </g>
   <g id="patch_15">
    <path d="M 638.175 171.34 
L 842.29 171.34 
" style="fill: none; stroke: #262626; stroke-width: 1.875; stroke-linejoin: miter; stroke-linecap: square"/>
   </g>
   <g id="patch_16">
    <path d="M 638.175 26.88 
L 842.29 26.88 
" style="fill: none; stroke: #262626; stroke-width: 1.875; stroke-linejoin: miter; stroke-linecap: square"/>
   </g>
   <g id="text_30">
    <!-- Binding site region, $J=12$ $k_BT$ -->
    <g style="fill: #262626" transform="translate(618.1925 20.88) scale(0.18 -0.18)">
     <defs>
      <path id="DejaVuSans-31" d="M 794 531 
L 1825 531 
L 1825 4091 
L 703 3866 
L 703 4441 
L 1819 4666 
L 2450 4666 
L 2450 531 
L 3481 531 
L 3481 0 
L 794 0 
L 794 531 
z
" transform="scale(0.015625)"/>
      <path id="DejaVuSans-32" d="M 1228 531 
L 3431 531 
L 3431 0 
L 469 0 
L 469 531 
Q 828 903 1448 1529 
Q 2069 2156 2228 2338 
Q 2531 2678 2651 2914 
Q 2772 3150 2772 3378 
Q 2772 3750 2511 3984 
Q 2250 4219 1831 4219 
Q 1534 4219 1204 4116 
Q 875 4013 500 3803 
L 500 4441 
Q 881 4594 1212 4672 
Q 1544 4750 1819 4750 
Q 2544 4750 2975 4387 
Q 3406 4025 3406 3419 
Q 3406 3131 3298 2873 
Q 3191 2616 2906 2266 
Q 2828 2175 2409 1742 
Q 1991 1309 1228 531 
z
" transform="scale(0.015625)"/>
     </defs>
     <use xlink:href="#ArialMT-42" transform="translate(0 0.015625)"/>
     <use xlink:href="#ArialMT-69" transform="translate(66.699219 0.015625)"/>
     <use xlink:href="#ArialMT-6e" transform="translate(88.916016 0.015625)"/>
     <use xlink:href="#ArialMT-64" transform="translate(144.53125 0.015625)"/>
     <use xlink:href="#ArialMT-69" transform="translate(200.146484 0.015625)"/>
     <use xlink:href="#ArialMT-6e" transform="translate(222.363281 0.015625)"/>
     <use xlink:href="#ArialMT-67" transform="translate(277.978516 0.015625)"/>
     <use xlink:href="#ArialMT-20" transform="translate(333.59375 0.015625)"/>
     <use xlink:href="#ArialMT-73" transform="translate(361.376953 0.015625)"/>
     <use xlink:href="#ArialMT-69" transform="translate(411.376953 0.015625)"/>
     <use xlink:href="#ArialMT-74" transform="translate(433.59375 0.015625)"/>
     <use xlink:href="#ArialMT-65" transform="translate(461.376953 0.015625)"/>
     <use xlink:href="#ArialMT-20" transform="translate(516.992188 0.015625)"/>
     <use xlink:href="#ArialMT-72" transform="translate(544.775391 0.015625)"/>
     <use xlink:href="#ArialMT-65" transform="translate(578.076172 0.015625)"/>
     <use xlink:href="#ArialMT-67" transform="translate(633.691406 0.015625)"/>
     <use xlink:href="#ArialMT-69" transform="translate(689.306641 0.015625)"/>
     <use xlink:href="#ArialMT-6f" transform="translate(711.523438 0.015625)"/>
     <use xlink:href="#ArialMT-6e" transform="translate(767.138672 0.015625)"/>
     <use xlink:href="#ArialMT-2c" transform="translate(822.753906 0.015625)"/>
     <use xlink:href="#ArialMT-20" transform="translate(850.537109 0.015625)"/>
     <use xlink:href="#DejaVuSans-Oblique-4a" transform="translate(878.320312 0.015625)"/>
     <use xlink:href="#DejaVuSans-3d" transform="translate(927.294922 0.015625)"/>
     <use xlink:href="#DejaVuSans-31" transform="translate(1030.566406 0.015625)"/>
     <use xlink:href="#DejaVuSans-32" transform="translate(1094.189453 0.015625)"/>
     <use xlink:href="#ArialMT-20" transform="translate(1157.8125 0.015625)"/>
     <use xlink:href="#DejaVuSans-Oblique-6b" transform="translate(1185.595703 0.015625)"/>
     <use xlink:href="#DejaVuSans-Oblique-42" transform="translate(1243.505859 -16.390625) scale(0.7)"/>
     <use xlink:href="#DejaVuSans-Oblique-54" transform="translate(1294.262695 0.015625)"/>
    </g>
   </g>
  </g>
 </g>
 <defs>
  <clipPath id="p5bb8bae8d2">
   <rect x="64.095" y="26.88" width="204.115" height="144.46"/>
  </clipPath>
  <clipPath id="pc5f8df48e7">
   <rect x="351.135" y="26.88" width="204.115" height="144.46"/>
  </clipPath>
  <clipPath id="pa050fc597b">
   <rect x="638.175" y="26.88" width="204.115" height="144.46"/>
  </clipPath>
 </defs>
</svg>
