<?xml version="1.0" encoding="utf-8" standalone="no"?>
<!DOCTYPE svg PUBLIC "-//W3C//DTD SVG 1.1//EN"
  "http://www.w3.org/Graphics/SVG/1.1/DTD/svg11.dtd">
<!-- Created with matplotlib (https://matplotlib.org/) -->
<svg height="172.773143pt" version="1.1" viewBox="0 0 237.696563 172.773143" width="237.696563pt" xmlns="http://www.w3.org/2000/svg" xmlns:xlink="http://www.w3.org/1999/xlink">
 <metadata>
  <rdf:RDF xmlns:cc="http://creativecommons.org/ns#" xmlns:dc="http://purl.org/dc/elements/1.1/" xmlns:rdf="http://www.w3.org/1999/02/22-rdf-syntax-ns#">
   <cc:Work>
    <dc:type rdf:resource="http://purl.org/dc/dcmitype/StillImage"/>
    <dc:date>2025-05-07T12:57:43.617393</dc:date>
    <dc:format>image/svg+xml</dc:format>
    <dc:creator>
     <cc:Agent>
      <dc:title>Matplotlib v3.3.4, https://matplotlib.org/</dc:title>
     </cc:Agent>
    </dc:creator>
   </cc:Work>
  </rdf:RDF>
 </metadata>
 <defs>
  <style type="text/css">*{stroke-linecap:butt;stroke-linejoin:round;}</style>
 </defs>
 <g id="figure_1">
  <g id="patch_1">
   <path d="M 0 172.773143 
L 237.696563 172.773143 
L 237.696563 0 
L 0 0 
z
" style="fill:#ffffff;"/>
  </g>
  <g id="axes_1">
   <g id="patch_2">
    <path d="M 63.096562 116.883377 
L 230.496563 116.883377 
L 230.496563 8.163377 
L 63.096562 8.163377 
z
" style="fill:#ffffff;"/>
   </g>
   <g id="matplotlib.axis_1">
    <g id="xtick_1">
     <g id="line2d_1">
      <defs>
       <path d="M 0 0 
L 0 9 
" id="m8b510d6a4f" style="stroke:#262626;stroke-width:1.875;"/>
      </defs>
      <g>
       <use style="fill:#262626;stroke:#262626;stroke-width:1.875;" x="70.705653" xlink:href="#m8b510d6a4f" y="116.883377"/>
      </g>
     </g>
     <g id="text_1">
      <!-- 0 -->
      <g style="fill:#262626;" transform="translate(66.11788 141.193768)scale(0.165 -0.165)">
       <defs>
        <path d="M 4.15625 35.296875 
Q 4.15625 48 6.765625 55.734375 
Q 9.375 63.484375 14.515625 67.671875 
Q 19.671875 71.875 27.484375 71.875 
Q 33.25 71.875 37.59375 69.546875 
Q 41.9375 67.234375 44.765625 62.859375 
Q 47.609375 58.5 49.21875 52.21875 
Q 50.828125 45.953125 50.828125 35.296875 
Q 50.828125 22.703125 48.234375 14.96875 
Q 45.65625 7.234375 40.5 3 
Q 35.359375 -1.21875 27.484375 -1.21875 
Q 17.140625 -1.21875 11.234375 6.203125 
Q 4.15625 15.140625 4.15625 35.296875 
z
M 13.1875 35.296875 
Q 13.1875 17.671875 17.3125 11.828125 
Q 21.4375 6 27.484375 6 
Q 33.546875 6 37.671875 11.859375 
Q 41.796875 17.71875 41.796875 35.296875 
Q 41.796875 52.984375 37.671875 58.78125 
Q 33.546875 64.59375 27.390625 64.59375 
Q 21.34375 64.59375 17.71875 59.46875 
Q 13.1875 52.9375 13.1875 35.296875 
z
" id="ArialMT-48"/>
       </defs>
       <use xlink:href="#ArialMT-48"/>
      </g>
     </g>
    </g>
    <g id="xtick_2">
     <g id="line2d_2">
      <g>
       <use style="fill:#262626;stroke:#262626;stroke-width:1.875;" x="134.114744" xlink:href="#m8b510d6a4f" y="116.883377"/>
      </g>
     </g>
     <g id="text_2">
      <!-- 250 -->
      <g style="fill:#262626;" transform="translate(120.351424 141.193768)scale(0.165 -0.165)">
       <defs>
        <path d="M 50.34375 8.453125 
L 50.34375 0 
L 3.03125 0 
Q 2.9375 3.171875 4.046875 6.109375 
Q 5.859375 10.9375 9.828125 15.625 
Q 13.8125 20.3125 21.34375 26.46875 
Q 33.015625 36.03125 37.109375 41.625 
Q 41.21875 47.21875 41.21875 52.203125 
Q 41.21875 57.421875 37.46875 61 
Q 33.734375 64.59375 27.734375 64.59375 
Q 21.390625 64.59375 17.578125 60.78125 
Q 13.765625 56.984375 13.71875 50.25 
L 4.6875 51.171875 
Q 5.609375 61.28125 11.65625 66.578125 
Q 17.71875 71.875 27.9375 71.875 
Q 38.234375 71.875 44.234375 66.15625 
Q 50.25 60.453125 50.25 52 
Q 50.25 47.703125 48.484375 43.546875 
Q 46.734375 39.40625 42.65625 34.8125 
Q 38.578125 30.21875 29.109375 22.21875 
Q 21.1875 15.578125 18.9375 13.203125 
Q 16.703125 10.84375 15.234375 8.453125 
z
" id="ArialMT-50"/>
        <path d="M 4.15625 18.75 
L 13.375 19.53125 
Q 14.40625 12.796875 18.140625 9.390625 
Q 21.875 6 27.15625 6 
Q 33.5 6 37.890625 10.78125 
Q 42.28125 15.578125 42.28125 23.484375 
Q 42.28125 31 38.0625 35.34375 
Q 33.84375 39.703125 27 39.703125 
Q 22.75 39.703125 19.328125 37.765625 
Q 15.921875 35.84375 13.96875 32.765625 
L 5.71875 33.84375 
L 12.640625 70.609375 
L 48.25 70.609375 
L 48.25 62.203125 
L 19.671875 62.203125 
L 15.828125 42.96875 
Q 22.265625 47.46875 29.34375 47.46875 
Q 38.71875 47.46875 45.15625 40.96875 
Q 51.609375 34.46875 51.609375 24.265625 
Q 51.609375 14.546875 45.953125 7.46875 
Q 39.0625 -1.21875 27.15625 -1.21875 
Q 17.390625 -1.21875 11.203125 4.25 
Q 5.03125 9.71875 4.15625 18.75 
z
" id="ArialMT-53"/>
       </defs>
       <use xlink:href="#ArialMT-50"/>
       <use x="55.615234" xlink:href="#ArialMT-53"/>
       <use x="111.230469" xlink:href="#ArialMT-48"/>
      </g>
     </g>
    </g>
    <g id="xtick_3">
     <g id="line2d_3">
      <g>
       <use style="fill:#262626;stroke:#262626;stroke-width:1.875;" x="197.523835" xlink:href="#m8b510d6a4f" y="116.883377"/>
      </g>
     </g>
     <g id="text_3">
      <!-- 500 -->
      <g style="fill:#262626;" transform="translate(183.760515 141.193768)scale(0.165 -0.165)">
       <use xlink:href="#ArialMT-53"/>
       <use x="55.615234" xlink:href="#ArialMT-48"/>
       <use x="111.230469" xlink:href="#ArialMT-48"/>
      </g>
     </g>
    </g>
    <g id="text_4">
     <!-- $t$ (s) -->
     <g style="fill:#262626;" transform="translate(130.236562 161.613143)scale(0.18 -0.18)">
      <defs>
       <path d="M 42.28125 54.6875 
L 40.921875 47.703125 
L 23 47.703125 
L 17.1875 18.015625 
Q 16.890625 16.359375 16.75 15.234375 
Q 16.609375 14.109375 16.609375 13.484375 
Q 16.609375 10.359375 18.484375 8.9375 
Q 20.359375 7.515625 24.515625 7.515625 
L 33.59375 7.515625 
L 32.078125 0 
L 23.484375 0 
Q 15.484375 0 11.546875 3.125 
Q 7.625 6.25 7.625 12.59375 
Q 7.625 13.71875 7.765625 15.0625 
Q 7.90625 16.40625 8.203125 18.015625 
L 14.015625 47.703125 
L 6.390625 47.703125 
L 7.8125 54.6875 
L 15.28125 54.6875 
L 18.3125 70.21875 
L 27.296875 70.21875 
L 24.3125 54.6875 
z
" id="DejaVuSans-Oblique-116"/>
       <path id="ArialMT-32"/>
       <path d="M 23.390625 -21.046875 
Q 16.109375 -11.859375 11.078125 0.4375 
Q 6.0625 12.75 6.0625 25.921875 
Q 6.0625 37.546875 9.8125 48.1875 
Q 14.203125 60.546875 23.390625 72.796875 
L 29.6875 72.796875 
Q 23.78125 62.640625 21.875 58.296875 
Q 18.890625 51.5625 17.1875 44.234375 
Q 15.09375 35.109375 15.09375 25.875 
Q 15.09375 2.390625 29.6875 -21.046875 
z
" id="ArialMT-40"/>
       <path d="M 3.078125 15.484375 
L 11.765625 16.84375 
Q 12.5 11.625 15.84375 8.84375 
Q 19.1875 6.0625 25.203125 6.0625 
Q 31.25 6.0625 34.171875 8.515625 
Q 37.109375 10.984375 37.109375 14.3125 
Q 37.109375 17.28125 34.515625 19 
Q 32.71875 20.171875 25.53125 21.96875 
Q 15.875 24.421875 12.140625 26.203125 
Q 8.40625 27.984375 6.46875 31.125 
Q 4.546875 34.28125 4.546875 38.09375 
Q 4.546875 41.546875 6.125 44.5 
Q 7.71875 47.46875 10.453125 49.421875 
Q 12.5 50.921875 16.03125 51.96875 
Q 19.578125 53.03125 23.640625 53.03125 
Q 29.734375 53.03125 34.34375 51.265625 
Q 38.96875 49.515625 41.15625 46.5 
Q 43.359375 43.5 44.1875 38.484375 
L 35.59375 37.3125 
Q 35.015625 41.3125 32.203125 43.546875 
Q 29.390625 45.796875 24.265625 45.796875 
Q 18.21875 45.796875 15.625 43.796875 
Q 13.03125 41.796875 13.03125 39.109375 
Q 13.03125 37.40625 14.109375 36.03125 
Q 15.1875 34.625 17.484375 33.6875 
Q 18.796875 33.203125 25.25 31.453125 
Q 34.578125 28.953125 38.25 27.359375 
Q 41.9375 25.78125 44.03125 22.75 
Q 46.140625 19.734375 46.140625 15.234375 
Q 46.140625 10.84375 43.578125 6.953125 
Q 41.015625 3.078125 36.171875 0.953125 
Q 31.34375 -1.171875 25.25 -1.171875 
Q 15.140625 -1.171875 9.84375 3.03125 
Q 4.546875 7.234375 3.078125 15.484375 
z
" id="ArialMT-115"/>
       <path d="M 12.359375 -21.046875 
L 6.0625 -21.046875 
Q 20.65625 2.390625 20.65625 25.875 
Q 20.65625 35.0625 18.5625 44.09375 
Q 16.890625 51.421875 13.921875 58.15625 
Q 12.015625 62.546875 6.0625 72.796875 
L 12.359375 72.796875 
Q 21.53125 60.546875 25.921875 48.1875 
Q 29.6875 37.546875 29.6875 25.921875 
Q 29.6875 12.75 24.625 0.4375 
Q 19.578125 -11.859375 12.359375 -21.046875 
z
" id="ArialMT-41"/>
      </defs>
      <use transform="translate(0 0.203125)" xlink:href="#DejaVuSans-Oblique-116"/>
      <use transform="translate(39.208984 0.203125)" xlink:href="#ArialMT-32"/>
      <use transform="translate(66.992188 0.203125)" xlink:href="#ArialMT-40"/>
      <use transform="translate(100.292969 0.203125)" xlink:href="#ArialMT-115"/>
      <use transform="translate(150.292969 0.203125)" xlink:href="#ArialMT-41"/>
     </g>
    </g>
   </g>
   <g id="matplotlib.axis_2">
    <g id="ytick_1">
     <g id="line2d_4">
      <defs>
       <path d="M 0 0 
L -9 0 
" id="m83dbcf0c93" style="stroke:#262626;stroke-width:1.875;"/>
      </defs>
      <g>
       <use style="fill:#262626;stroke:#262626;stroke-width:1.875;" x="63.096562" xlink:href="#m83dbcf0c93" y="111.941559"/>
      </g>
     </g>
     <g id="text_5">
      <!-- 0.0 -->
      <g style="fill:#262626;" transform="translate(27.661562 117.846754)scale(0.165 -0.165)">
       <defs>
        <path d="M 9.078125 0 
L 9.078125 10.015625 
L 19.09375 10.015625 
L 19.09375 0 
z
" id="ArialMT-46"/>
       </defs>
       <use xlink:href="#ArialMT-48"/>
       <use x="55.615234" xlink:href="#ArialMT-46"/>
       <use x="83.398438" xlink:href="#ArialMT-48"/>
      </g>
     </g>
    </g>
    <g id="ytick_2">
     <g id="line2d_5">
      <g>
       <use style="fill:#262626;stroke:#262626;stroke-width:1.875;" x="63.096562" xlink:href="#m83dbcf0c93" y="62.523377"/>
      </g>
     </g>
     <g id="text_6">
      <!-- 0.5 -->
      <g style="fill:#262626;" transform="translate(27.661562 68.428572)scale(0.165 -0.165)">
       <use xlink:href="#ArialMT-48"/>
       <use x="55.615234" xlink:href="#ArialMT-46"/>
       <use x="83.398438" xlink:href="#ArialMT-53"/>
      </g>
     </g>
    </g>
    <g id="ytick_3">
     <g id="line2d_6">
      <g>
       <use style="fill:#262626;stroke:#262626;stroke-width:1.875;" x="63.096562" xlink:href="#m83dbcf0c93" y="13.105195"/>
      </g>
     </g>
     <g id="text_7">
      <!-- 1.0 -->
      <g style="fill:#262626;" transform="translate(27.661562 19.010391)scale(0.165 -0.165)">
       <defs>
        <path d="M 37.25 0 
L 28.46875 0 
L 28.46875 56 
Q 25.296875 52.984375 20.140625 49.953125 
Q 14.984375 46.921875 10.890625 45.40625 
L 10.890625 53.90625 
Q 18.265625 57.375 23.78125 62.296875 
Q 29.296875 67.234375 31.59375 71.875 
L 37.25 71.875 
z
" id="ArialMT-49"/>
       </defs>
       <use xlink:href="#ArialMT-49"/>
       <use x="55.615234" xlink:href="#ArialMT-46"/>
       <use x="83.398438" xlink:href="#ArialMT-48"/>
      </g>
     </g>
    </g>
    <g id="text_8">
     <!-- $c$ -->
     <g style="fill:#262626;" transform="translate(20.084062 67.473377)rotate(-90)scale(0.18 -0.18)">
      <defs>
       <path d="M 53.609375 52.59375 
L 51.8125 43.703125 
Q 48.578125 46.046875 44.9375 47.21875 
Q 41.3125 48.390625 37.40625 48.390625 
Q 33.109375 48.390625 29.21875 46.875 
Q 25.34375 45.359375 22.703125 42.578125 
Q 18.5 38.328125 16.203125 32.609375 
Q 13.921875 26.90625 13.921875 20.796875 
Q 13.921875 13.421875 17.609375 9.8125 
Q 21.296875 6.203125 28.8125 6.203125 
Q 32.515625 6.203125 36.6875 7.328125 
Q 40.875 8.453125 45.40625 10.6875 
L 43.703125 1.8125 
Q 39.796875 0.203125 35.671875 -0.609375 
Q 31.546875 -1.421875 27.203125 -1.421875 
Q 16.3125 -1.421875 10.453125 4.015625 
Q 4.59375 9.46875 4.59375 19.578125 
Q 4.59375 28.078125 7.640625 35.234375 
Q 10.6875 42.390625 16.703125 48.09375 
Q 20.796875 52 26.3125 54 
Q 31.84375 56 38.375 56 
Q 42.1875 56 45.9375 55.140625 
Q 49.703125 54.296875 53.609375 52.59375 
z
" id="DejaVuSans-Oblique-99"/>
      </defs>
      <use xlink:href="#DejaVuSans-Oblique-99"/>
     </g>
    </g>
   </g>
   <g id="line2d_7">
    <path clip-path="url(#p24a5324d48)" d="M 70.705653 29.577923 
L 71.010017 29.577923 
L 71.314381 13.105195 
L 71.923108 13.105195 
L 72.227472 29.577923 
L 72.531835 29.577923 
L 72.836199 13.105195 
L 73.140562 13.105195 
L 73.444926 29.577923 
L 73.74929 13.105195 
L 74.053653 13.105195 
L 74.358017 29.577923 
L 74.662381 13.105195 
L 74.966744 29.577923 
L 75.271108 13.105195 
L 75.879835 13.105195 
L 76.184199 29.577923 
L 76.488562 13.105195 
L 76.792926 13.105195 
L 77.401653 46.05065 
L 77.706017 13.105195 
L 78.010381 29.577923 
L 78.314744 29.577923 
L 78.619108 13.105195 
L 79.532199 13.105195 
L 79.836562 29.577923 
L 80.140926 13.105195 
L 80.44529 13.105195 
L 80.749653 29.577923 
L 81.054017 13.105195 
L 81.358381 29.577923 
L 81.662744 62.523377 
L 81.967108 46.05065 
L 82.271472 78.996104 
L 82.575835 62.523377 
L 82.880199 13.105195 
L 84.097653 13.105195 
L 84.402017 29.577923 
L 84.706381 29.577923 
L 85.010744 46.05065 
L 85.315108 29.577923 
L 85.619472 62.523377 
L 85.923835 29.577923 
L 86.228199 13.105195 
L 86.532562 29.577923 
L 86.836926 13.105195 
L 87.445653 46.05065 
L 87.750017 13.105195 
L 88.054381 13.105195 
L 88.358744 29.577923 
L 88.663108 13.105195 
L 88.967472 46.05065 
L 89.271835 46.05065 
L 89.576199 29.577923 
L 89.880562 111.941559 
L 93.532926 111.941559 
L 93.83729 46.05065 
L 94.446017 13.105195 
L 94.750381 29.577923 
L 95.054744 29.577923 
L 95.359108 13.105195 
L 97.489653 13.105195 
L 97.794017 46.05065 
L 98.098381 46.05065 
L 98.707108 111.941559 
L 99.620199 111.941559 
L 99.924563 95.468832 
L 100.228926 111.941559 
L 112.707835 111.941559 
L 113.012199 95.468832 
L 113.316563 111.941559 
L 130.969653 111.941559 
L 131.274017 62.523377 
L 131.578381 62.523377 
L 131.882744 111.941559 
L 136.143835 111.941559 
L 136.448199 95.468832 
L 136.752563 111.941559 
L 137.665653 111.941559 
L 137.970017 95.468832 
L 138.274381 111.941559 
L 147.100926 111.941559 
L 147.40529 78.996104 
L 147.709653 111.941559 
L 149.535835 111.941559 
L 149.840199 78.996104 
L 150.144563 29.577923 
L 150.448926 13.105195 
L 152.275108 13.105195 
L 152.579472 46.05065 
L 152.883835 13.105195 
L 153.188199 29.577923 
L 153.492563 13.105195 
L 154.10129 46.05065 
L 154.405653 13.105195 
L 155.014381 13.105195 
L 155.318744 46.05065 
L 155.623108 13.105195 
L 156.231835 111.941559 
L 158.971108 111.941559 
L 159.275472 78.996104 
L 159.579835 111.941559 
L 161.406017 111.941559 
L 161.710381 95.468832 
L 162.014744 111.941559 
L 172.363108 111.941559 
L 172.971835 46.05065 
L 173.276199 29.577923 
L 173.580562 62.523377 
L 173.884926 62.523377 
L 174.798017 13.105195 
L 175.102381 46.05065 
L 175.406744 13.105195 
L 175.711108 46.05065 
L 176.015472 29.577923 
L 176.319835 46.05065 
L 176.624199 13.105195 
L 177.232926 13.105195 
L 177.53729 29.577923 
L 177.841653 13.105195 
L 178.146017 29.577923 
L 178.450381 13.105195 
L 178.754744 29.577923 
L 179.059108 13.105195 
L 179.667835 13.105195 
L 179.972199 29.577923 
L 180.276563 29.577923 
L 180.580926 46.05065 
L 180.88529 46.05065 
L 181.189653 111.941559 
L 186.363835 111.941559 
L 186.668199 95.468832 
L 186.972563 111.941559 
L 197.320926 111.941559 
L 198.234017 13.105195 
L 199.147108 13.105195 
L 199.755835 46.05065 
L 200.060199 29.577923 
L 200.364563 62.523377 
L 200.668926 111.941559 
L 210.712926 111.941559 
L 211.01729 78.996104 
L 211.321653 29.577923 
L 211.626017 13.105195 
L 211.930381 13.105195 
L 212.234744 29.577923 
L 212.539108 13.105195 
L 212.843472 29.577923 
L 213.147835 13.105195 
L 213.452199 13.105195 
L 213.756563 29.577923 
L 214.060926 13.105195 
L 215.278381 13.105195 
L 215.887108 46.05065 
L 216.191472 13.105195 
L 216.495835 29.577923 
L 216.800199 62.523377 
L 217.104563 78.996104 
L 217.408926 29.577923 
L 218.626381 29.577923 
L 218.930744 46.05065 
L 219.235108 29.577923 
L 219.843835 29.577923 
L 220.148199 13.105195 
L 220.756926 13.105195 
L 221.06129 29.577923 
L 221.365653 13.105195 
L 221.670017 29.577923 
L 221.974381 13.105195 
L 222.278744 29.577923 
L 222.583108 29.577923 
L 222.887472 46.05065 
L 222.887472 46.05065 
" style="fill:none;stroke:#fbb44d;stroke-linecap:round;stroke-width:2.25;"/>
   </g>
   <g id="line2d_8">
    <path clip-path="url(#p24a5324d48)" d="M 70.705653 111.941559 
L 81.054017 111.941559 
L 81.358381 62.523377 
L 81.662744 46.05065 
L 81.967108 13.105195 
L 82.271472 29.577923 
L 82.575835 13.105195 
L 83.488926 13.105195 
L 83.79329 29.577923 
L 84.097653 62.523377 
L 84.402017 62.523377 
L 84.706381 29.577923 
L 85.010744 46.05065 
L 85.315108 13.105195 
L 86.836926 13.105195 
L 87.14129 46.05065 
L 87.445653 29.577923 
L 87.750017 62.523377 
L 88.054381 111.941559 
L 92.011108 111.941559 
L 92.315472 95.468832 
L 92.619835 111.941559 
L 97.489653 111.941559 
L 98.098381 13.105195 
L 98.707108 13.105195 
L 99.011472 29.577923 
L 99.315835 13.105195 
L 99.620199 29.577923 
L 99.924563 13.105195 
L 100.53329 13.105195 
L 100.837653 46.05065 
L 101.142017 111.941559 
L 102.055108 111.941559 
L 102.359472 29.577923 
L 102.663835 13.105195 
L 102.968199 13.105195 
L 103.576926 46.05065 
L 103.88129 29.577923 
L 104.490017 29.577923 
L 104.794381 13.105195 
L 105.707472 13.105195 
L 106.011835 29.577923 
L 106.316199 13.105195 
L 108.142381 13.105195 
L 109.055472 62.523377 
L 109.359835 13.105195 
L 109.664199 29.577923 
L 109.968562 13.105195 
L 110.272926 13.105195 
L 110.881653 46.05065 
L 111.490381 46.05065 
L 111.794744 29.577923 
L 112.099108 78.996104 
L 112.403472 29.577923 
L 112.707835 13.105195 
L 113.316563 46.05065 
L 113.620926 13.105195 
L 114.229653 13.105195 
L 114.838381 111.941559 
L 115.142744 62.523377 
L 115.447108 62.523377 
L 115.751472 13.105195 
L 116.055835 13.105195 
L 116.968926 62.523377 
L 117.27329 62.523377 
L 117.577653 111.941559 
L 126.708562 111.941559 
L 127.012926 46.05065 
L 127.31729 29.577923 
L 127.621653 29.577923 
L 127.926017 13.105195 
L 128.230381 29.577923 
L 128.534744 13.105195 
L 128.839108 46.05065 
L 129.143472 13.105195 
L 129.447835 29.577923 
L 129.752199 13.105195 
L 130.056563 13.105195 
L 130.360926 29.577923 
L 130.66529 13.105195 
L 130.969653 13.105195 
L 131.578381 111.941559 
L 133.708926 111.941559 
L 134.01329 62.523377 
L 134.317653 46.05065 
L 134.622017 13.105195 
L 134.926381 13.105195 
L 135.230744 46.05065 
L 135.535108 13.105195 
L 135.839472 46.05065 
L 136.143835 13.105195 
L 136.448199 62.523377 
L 137.056926 62.523377 
L 137.36129 46.05065 
L 137.665653 78.996104 
L 137.970017 29.577923 
L 138.274381 13.105195 
L 138.578744 46.05065 
L 138.883108 13.105195 
L 139.187472 29.577923 
L 139.491835 62.523377 
L 139.796199 46.05065 
L 140.100563 13.105195 
L 140.404926 29.577923 
L 140.70929 29.577923 
L 141.013653 13.105195 
L 141.622381 13.105195 
L 141.926744 29.577923 
L 142.231108 29.577923 
L 142.535472 13.105195 
L 142.839835 13.105195 
L 143.144199 29.577923 
L 144.05729 29.577923 
L 144.361653 46.05065 
L 144.666017 29.577923 
L 144.970381 29.577923 
L 145.274744 13.105195 
L 145.579108 29.577923 
L 146.187835 29.577923 
L 146.492199 13.105195 
L 147.100926 13.105195 
L 147.40529 29.577923 
L 147.709653 29.577923 
L 148.014017 46.05065 
L 148.318381 13.105195 
L 148.622744 13.105195 
L 148.927108 29.577923 
L 149.231472 13.105195 
L 149.535835 46.05065 
L 149.840199 46.05065 
L 150.144563 29.577923 
L 150.448926 29.577923 
L 150.75329 13.105195 
L 151.362017 46.05065 
L 151.666381 13.105195 
L 151.970744 29.577923 
L 152.275108 62.523377 
L 152.579472 13.105195 
L 152.883835 13.105195 
L 153.188199 29.577923 
L 153.492563 13.105195 
L 153.796926 29.577923 
L 154.10129 13.105195 
L 154.405653 46.05065 
L 154.710017 46.05065 
L 155.318744 13.105195 
L 155.927472 13.105195 
L 156.231835 29.577923 
L 156.536199 13.105195 
L 157.144926 13.105195 
L 157.44929 29.577923 
L 157.753653 13.105195 
L 158.362381 46.05065 
L 158.666744 29.577923 
L 158.971108 62.523377 
L 159.275472 13.105195 
L 159.579835 13.105195 
L 159.884199 29.577923 
L 160.188563 13.105195 
L 160.492926 13.105195 
L 160.79729 29.577923 
L 161.101653 29.577923 
L 161.406017 13.105195 
L 162.319108 13.105195 
L 162.623472 78.996104 
L 162.927835 13.105195 
L 163.232199 13.105195 
L 163.536563 46.05065 
L 163.840926 46.05065 
L 164.14529 29.577923 
L 164.449653 46.05065 
L 164.754017 46.05065 
L 165.058381 29.577923 
L 165.362744 29.577923 
L 165.667108 13.105195 
L 165.971472 13.105195 
L 166.275835 46.05065 
L 166.580199 13.105195 
L 167.188926 13.105195 
L 167.49329 46.05065 
L 168.102017 13.105195 
L 168.710744 13.105195 
L 169.623835 62.523377 
L 170.232563 29.577923 
L 170.84129 29.577923 
L 171.145653 46.05065 
L 171.450017 29.577923 
L 171.754381 29.577923 
L 172.058744 46.05065 
L 172.363108 13.105195 
L 174.18929 13.105195 
L 174.493653 46.05065 
L 174.798017 29.577923 
L 175.102381 29.577923 
L 175.406744 46.05065 
L 176.319835 46.05065 
L 176.928562 13.105195 
L 177.232926 13.105195 
L 177.841653 46.05065 
L 178.146017 13.105195 
L 178.450381 13.105195 
L 179.059108 78.996104 
L 179.363472 78.996104 
L 179.667835 46.05065 
L 179.972199 46.05065 
L 180.276563 13.105195 
L 180.88529 13.105195 
L 181.189653 62.523377 
L 181.494017 78.996104 
L 181.798381 111.941559 
L 186.363835 111.941559 
L 186.668199 62.523377 
L 186.972563 46.05065 
L 187.276926 13.105195 
L 187.58129 13.105195 
L 187.885653 29.577923 
L 188.190017 13.105195 
L 188.494381 62.523377 
L 188.798744 13.105195 
L 189.407472 46.05065 
L 190.320563 46.05065 
L 190.624926 13.105195 
L 190.92929 29.577923 
L 191.233653 13.105195 
L 191.842381 46.05065 
L 192.146744 13.105195 
L 192.451108 29.577923 
L 192.755472 13.105195 
L 194.27729 13.105195 
L 194.581653 62.523377 
L 194.886017 62.523377 
L 195.190381 29.577923 
L 195.799108 29.577923 
L 196.103472 46.05065 
L 196.712199 13.105195 
L 197.929653 13.105195 
L 198.234017 29.577923 
L 198.538381 13.105195 
L 198.842744 13.105195 
L 199.147108 29.577923 
L 199.451472 13.105195 
L 200.060199 13.105195 
L 200.364563 46.05065 
L 200.668926 13.105195 
L 201.582017 13.105195 
L 201.886381 29.577923 
L 202.190744 29.577923 
L 202.495108 13.105195 
L 202.799472 13.105195 
L 203.103835 29.577923 
L 203.408199 13.105195 
L 203.712563 13.105195 
L 204.016926 29.577923 
L 204.32129 29.577923 
L 204.625653 13.105195 
L 204.930017 29.577923 
L 205.234381 29.577923 
L 205.538744 13.105195 
L 206.147472 13.105195 
L 206.451835 46.05065 
L 206.756199 13.105195 
L 207.364926 13.105195 
L 207.66929 29.577923 
L 208.278017 29.577923 
L 208.582381 13.105195 
L 208.886744 13.105195 
L 209.191108 29.577923 
L 209.495472 13.105195 
L 210.104199 13.105195 
L 210.408563 29.577923 
L 211.01729 29.577923 
L 211.321653 46.05065 
L 211.626017 13.105195 
L 211.930381 46.05065 
L 212.234744 46.05065 
L 212.843472 13.105195 
L 213.147835 46.05065 
L 213.756563 13.105195 
L 214.060926 13.105195 
L 214.36529 29.577923 
L 214.669653 13.105195 
L 215.278381 13.105195 
L 215.582744 29.577923 
L 215.887108 13.105195 
L 216.495835 13.105195 
L 216.800199 29.577923 
L 217.71329 29.577923 
L 218.017653 13.105195 
L 218.930744 13.105195 
L 219.235108 46.05065 
L 219.539472 46.05065 
L 219.843835 13.105195 
L 220.756926 13.105195 
L 221.06129 62.523377 
L 221.365653 13.105195 
L 221.670017 13.105195 
L 221.974381 62.523377 
L 222.583108 62.523377 
L 222.887472 46.05065 
L 222.887472 46.05065 
" style="fill:none;stroke:#5caadb;stroke-linecap:round;stroke-width:2.25;"/>
   </g>
   <g id="patch_3">
    <path d="M 63.096562 116.883377 
L 63.096562 8.163377 
" style="fill:none;stroke:#262626;stroke-linecap:square;stroke-linejoin:miter;stroke-width:1.875;"/>
   </g>
   <g id="patch_4">
    <path d="M 230.496563 116.883377 
L 230.496563 8.163377 
" style="fill:none;stroke:#262626;stroke-linecap:square;stroke-linejoin:miter;stroke-width:1.875;"/>
   </g>
   <g id="patch_5">
    <path d="M 63.096562 116.883377 
L 230.496563 116.883377 
" style="fill:none;stroke:#262626;stroke-linecap:square;stroke-linejoin:miter;stroke-width:1.875;"/>
   </g>
   <g id="patch_6">
    <path d="M 63.096562 8.163377 
L 230.496563 8.163377 
" style="fill:none;stroke:#262626;stroke-linecap:square;stroke-linejoin:miter;stroke-width:1.875;"/>
   </g>
  </g>
 </g>
 <defs>
  <clipPath id="p24a5324d48">
   <rect height="108.72" width="167.4" x="63.096562" y="8.163377"/>
  </clipPath>
 </defs>
</svg>
